%TF.GenerationSoftware,KiCad,Pcbnew,6.0.0*%
%TF.CreationDate,2022-04-09T16:35:23-03:00*%
%TF.ProjectId,cwc5.5,63776335-2e35-42e6-9b69-6361645f7063,rev?*%
%TF.SameCoordinates,Original*%
%TF.FileFunction,Legend,Bot*%
%TF.FilePolarity,Positive*%
%FSLAX46Y46*%
G04 Gerber Fmt 4.6, Leading zero omitted, Abs format (unit mm)*
G04 Created by KiCad (PCBNEW 6.0.0) date 2022-04-09 16:35:23*
%MOMM*%
%LPD*%
G01*
G04 APERTURE LIST*
%ADD10C,0.150000*%
%ADD11C,0.120000*%
G04 APERTURE END LIST*
D10*
%TO.C,R74*%
X7246857Y-15946380D02*
X7580190Y-15470190D01*
X7818285Y-15946380D02*
X7818285Y-14946380D01*
X7437333Y-14946380D01*
X7342095Y-14994000D01*
X7294476Y-15041619D01*
X7246857Y-15136857D01*
X7246857Y-15279714D01*
X7294476Y-15374952D01*
X7342095Y-15422571D01*
X7437333Y-15470190D01*
X7818285Y-15470190D01*
X6913523Y-14946380D02*
X6246857Y-14946380D01*
X6675428Y-15946380D01*
X5437333Y-15279714D02*
X5437333Y-15946380D01*
X5675428Y-14898761D02*
X5913523Y-15613047D01*
X5294476Y-15613047D01*
%TO.C,R9*%
X46705780Y-31303933D02*
X46229590Y-30970600D01*
X46705780Y-30732504D02*
X45705780Y-30732504D01*
X45705780Y-31113457D01*
X45753400Y-31208695D01*
X45801019Y-31256314D01*
X45896257Y-31303933D01*
X46039114Y-31303933D01*
X46134352Y-31256314D01*
X46181971Y-31208695D01*
X46229590Y-31113457D01*
X46229590Y-30732504D01*
X46705780Y-31780123D02*
X46705780Y-31970600D01*
X46658161Y-32065838D01*
X46610542Y-32113457D01*
X46467685Y-32208695D01*
X46277209Y-32256314D01*
X45896257Y-32256314D01*
X45801019Y-32208695D01*
X45753400Y-32161076D01*
X45705780Y-32065838D01*
X45705780Y-31875361D01*
X45753400Y-31780123D01*
X45801019Y-31732504D01*
X45896257Y-31684885D01*
X46134352Y-31684885D01*
X46229590Y-31732504D01*
X46277209Y-31780123D01*
X46324828Y-31875361D01*
X46324828Y-32065838D01*
X46277209Y-32161076D01*
X46229590Y-32208695D01*
X46134352Y-32256314D01*
%TO.C,Q10*%
X38647619Y-20510571D02*
X38600000Y-20415333D01*
X38504761Y-20320095D01*
X38361904Y-20177238D01*
X38314285Y-20082000D01*
X38314285Y-19986761D01*
X38552380Y-20034380D02*
X38504761Y-19939142D01*
X38409523Y-19843904D01*
X38219047Y-19796285D01*
X37885714Y-19796285D01*
X37695238Y-19843904D01*
X37600000Y-19939142D01*
X37552380Y-20034380D01*
X37552380Y-20224857D01*
X37600000Y-20320095D01*
X37695238Y-20415333D01*
X37885714Y-20462952D01*
X38219047Y-20462952D01*
X38409523Y-20415333D01*
X38504761Y-20320095D01*
X38552380Y-20224857D01*
X38552380Y-20034380D01*
X38552380Y-21415333D02*
X38552380Y-20843904D01*
X38552380Y-21129619D02*
X37552380Y-21129619D01*
X37695238Y-21034380D01*
X37790476Y-20939142D01*
X37838095Y-20843904D01*
X37552380Y-22034380D02*
X37552380Y-22129619D01*
X37600000Y-22224857D01*
X37647619Y-22272476D01*
X37742857Y-22320095D01*
X37933333Y-22367714D01*
X38171428Y-22367714D01*
X38361904Y-22320095D01*
X38457142Y-22272476D01*
X38504761Y-22224857D01*
X38552380Y-22129619D01*
X38552380Y-22034380D01*
X38504761Y-21939142D01*
X38457142Y-21891523D01*
X38361904Y-21843904D01*
X38171428Y-21796285D01*
X37933333Y-21796285D01*
X37742857Y-21843904D01*
X37647619Y-21891523D01*
X37600000Y-21939142D01*
X37552380Y-22034380D01*
%TO.C,R12*%
X43911780Y-31183342D02*
X43435590Y-30850009D01*
X43911780Y-30611914D02*
X42911780Y-30611914D01*
X42911780Y-30992866D01*
X42959400Y-31088104D01*
X43007019Y-31135723D01*
X43102257Y-31183342D01*
X43245114Y-31183342D01*
X43340352Y-31135723D01*
X43387971Y-31088104D01*
X43435590Y-30992866D01*
X43435590Y-30611914D01*
X43911780Y-32135723D02*
X43911780Y-31564295D01*
X43911780Y-31850009D02*
X42911780Y-31850009D01*
X43054638Y-31754771D01*
X43149876Y-31659533D01*
X43197495Y-31564295D01*
X43007019Y-32516676D02*
X42959400Y-32564295D01*
X42911780Y-32659533D01*
X42911780Y-32897628D01*
X42959400Y-32992866D01*
X43007019Y-33040485D01*
X43102257Y-33088104D01*
X43197495Y-33088104D01*
X43340352Y-33040485D01*
X43911780Y-32469057D01*
X43911780Y-33088104D01*
%TO.C,Q17*%
X64847619Y-14228571D02*
X64800000Y-14133333D01*
X64704761Y-14038095D01*
X64561904Y-13895238D01*
X64514285Y-13800000D01*
X64514285Y-13704761D01*
X64752380Y-13752380D02*
X64704761Y-13657142D01*
X64609523Y-13561904D01*
X64419047Y-13514285D01*
X64085714Y-13514285D01*
X63895238Y-13561904D01*
X63800000Y-13657142D01*
X63752380Y-13752380D01*
X63752380Y-13942857D01*
X63800000Y-14038095D01*
X63895238Y-14133333D01*
X64085714Y-14180952D01*
X64419047Y-14180952D01*
X64609523Y-14133333D01*
X64704761Y-14038095D01*
X64752380Y-13942857D01*
X64752380Y-13752380D01*
X64752380Y-15133333D02*
X64752380Y-14561904D01*
X64752380Y-14847619D02*
X63752380Y-14847619D01*
X63895238Y-14752380D01*
X63990476Y-14657142D01*
X64038095Y-14561904D01*
X63752380Y-15466666D02*
X63752380Y-16133333D01*
X64752380Y-15704761D01*
%TO.C,R26*%
X66427380Y-31157142D02*
X65951190Y-30823809D01*
X66427380Y-30585714D02*
X65427380Y-30585714D01*
X65427380Y-30966666D01*
X65475000Y-31061904D01*
X65522619Y-31109523D01*
X65617857Y-31157142D01*
X65760714Y-31157142D01*
X65855952Y-31109523D01*
X65903571Y-31061904D01*
X65951190Y-30966666D01*
X65951190Y-30585714D01*
X65522619Y-31538095D02*
X65475000Y-31585714D01*
X65427380Y-31680952D01*
X65427380Y-31919047D01*
X65475000Y-32014285D01*
X65522619Y-32061904D01*
X65617857Y-32109523D01*
X65713095Y-32109523D01*
X65855952Y-32061904D01*
X66427380Y-31490476D01*
X66427380Y-32109523D01*
X65427380Y-32966666D02*
X65427380Y-32776190D01*
X65475000Y-32680952D01*
X65522619Y-32633333D01*
X65665476Y-32538095D01*
X65855952Y-32490476D01*
X66236904Y-32490476D01*
X66332142Y-32538095D01*
X66379761Y-32585714D01*
X66427380Y-32680952D01*
X66427380Y-32871428D01*
X66379761Y-32966666D01*
X66332142Y-33014285D01*
X66236904Y-33061904D01*
X65998809Y-33061904D01*
X65903571Y-33014285D01*
X65855952Y-32966666D01*
X65808333Y-32871428D01*
X65808333Y-32680952D01*
X65855952Y-32585714D01*
X65903571Y-32538095D01*
X65998809Y-32490476D01*
%TO.C,Q12*%
X36909619Y-15176571D02*
X36862000Y-15081333D01*
X36766761Y-14986095D01*
X36623904Y-14843238D01*
X36576285Y-14748000D01*
X36576285Y-14652761D01*
X36814380Y-14700380D02*
X36766761Y-14605142D01*
X36671523Y-14509904D01*
X36481047Y-14462285D01*
X36147714Y-14462285D01*
X35957238Y-14509904D01*
X35862000Y-14605142D01*
X35814380Y-14700380D01*
X35814380Y-14890857D01*
X35862000Y-14986095D01*
X35957238Y-15081333D01*
X36147714Y-15128952D01*
X36481047Y-15128952D01*
X36671523Y-15081333D01*
X36766761Y-14986095D01*
X36814380Y-14890857D01*
X36814380Y-14700380D01*
X36814380Y-16081333D02*
X36814380Y-15509904D01*
X36814380Y-15795619D02*
X35814380Y-15795619D01*
X35957238Y-15700380D01*
X36052476Y-15605142D01*
X36100095Y-15509904D01*
X35909619Y-16462285D02*
X35862000Y-16509904D01*
X35814380Y-16605142D01*
X35814380Y-16843238D01*
X35862000Y-16938476D01*
X35909619Y-16986095D01*
X36004857Y-17033714D01*
X36100095Y-17033714D01*
X36242952Y-16986095D01*
X36814380Y-16414666D01*
X36814380Y-17033714D01*
%TO.C,R28*%
X60192857Y-31452380D02*
X60526190Y-30976190D01*
X60764285Y-31452380D02*
X60764285Y-30452380D01*
X60383333Y-30452380D01*
X60288095Y-30500000D01*
X60240476Y-30547619D01*
X60192857Y-30642857D01*
X60192857Y-30785714D01*
X60240476Y-30880952D01*
X60288095Y-30928571D01*
X60383333Y-30976190D01*
X60764285Y-30976190D01*
X59811904Y-30547619D02*
X59764285Y-30500000D01*
X59669047Y-30452380D01*
X59430952Y-30452380D01*
X59335714Y-30500000D01*
X59288095Y-30547619D01*
X59240476Y-30642857D01*
X59240476Y-30738095D01*
X59288095Y-30880952D01*
X59859523Y-31452380D01*
X59240476Y-31452380D01*
X58669047Y-30880952D02*
X58764285Y-30833333D01*
X58811904Y-30785714D01*
X58859523Y-30690476D01*
X58859523Y-30642857D01*
X58811904Y-30547619D01*
X58764285Y-30500000D01*
X58669047Y-30452380D01*
X58478571Y-30452380D01*
X58383333Y-30500000D01*
X58335714Y-30547619D01*
X58288095Y-30642857D01*
X58288095Y-30690476D01*
X58335714Y-30785714D01*
X58383333Y-30833333D01*
X58478571Y-30880952D01*
X58669047Y-30880952D01*
X58764285Y-30928571D01*
X58811904Y-30976190D01*
X58859523Y-31071428D01*
X58859523Y-31261904D01*
X58811904Y-31357142D01*
X58764285Y-31404761D01*
X58669047Y-31452380D01*
X58478571Y-31452380D01*
X58383333Y-31404761D01*
X58335714Y-31357142D01*
X58288095Y-31261904D01*
X58288095Y-31071428D01*
X58335714Y-30976190D01*
X58383333Y-30928571D01*
X58478571Y-30880952D01*
%TO.C,R91*%
X1468380Y-2659142D02*
X992190Y-2325809D01*
X1468380Y-2087714D02*
X468380Y-2087714D01*
X468380Y-2468666D01*
X516000Y-2563904D01*
X563619Y-2611523D01*
X658857Y-2659142D01*
X801714Y-2659142D01*
X896952Y-2611523D01*
X944571Y-2563904D01*
X992190Y-2468666D01*
X992190Y-2087714D01*
X1468380Y-3135333D02*
X1468380Y-3325809D01*
X1420761Y-3421047D01*
X1373142Y-3468666D01*
X1230285Y-3563904D01*
X1039809Y-3611523D01*
X658857Y-3611523D01*
X563619Y-3563904D01*
X516000Y-3516285D01*
X468380Y-3421047D01*
X468380Y-3230571D01*
X516000Y-3135333D01*
X563619Y-3087714D01*
X658857Y-3040095D01*
X896952Y-3040095D01*
X992190Y-3087714D01*
X1039809Y-3135333D01*
X1087428Y-3230571D01*
X1087428Y-3421047D01*
X1039809Y-3516285D01*
X992190Y-3563904D01*
X896952Y-3611523D01*
X1468380Y-4563904D02*
X1468380Y-3992476D01*
X1468380Y-4278190D02*
X468380Y-4278190D01*
X611238Y-4182952D01*
X706476Y-4087714D01*
X754095Y-3992476D01*
%TO.C,R97*%
X48227380Y-38182142D02*
X47751190Y-37848809D01*
X48227380Y-37610714D02*
X47227380Y-37610714D01*
X47227380Y-37991666D01*
X47275000Y-38086904D01*
X47322619Y-38134523D01*
X47417857Y-38182142D01*
X47560714Y-38182142D01*
X47655952Y-38134523D01*
X47703571Y-38086904D01*
X47751190Y-37991666D01*
X47751190Y-37610714D01*
X48227380Y-38658333D02*
X48227380Y-38848809D01*
X48179761Y-38944047D01*
X48132142Y-38991666D01*
X47989285Y-39086904D01*
X47798809Y-39134523D01*
X47417857Y-39134523D01*
X47322619Y-39086904D01*
X47275000Y-39039285D01*
X47227380Y-38944047D01*
X47227380Y-38753571D01*
X47275000Y-38658333D01*
X47322619Y-38610714D01*
X47417857Y-38563095D01*
X47655952Y-38563095D01*
X47751190Y-38610714D01*
X47798809Y-38658333D01*
X47846428Y-38753571D01*
X47846428Y-38944047D01*
X47798809Y-39039285D01*
X47751190Y-39086904D01*
X47655952Y-39134523D01*
X47227380Y-39467857D02*
X47227380Y-40134523D01*
X48227380Y-39705952D01*
%TO.C,J1*%
X41362380Y-5000666D02*
X42076666Y-5000666D01*
X42219523Y-4953047D01*
X42314761Y-4857809D01*
X42362380Y-4714952D01*
X42362380Y-4619714D01*
X42362380Y-6000666D02*
X42362380Y-5429238D01*
X42362380Y-5714952D02*
X41362380Y-5714952D01*
X41505238Y-5619714D01*
X41600476Y-5524476D01*
X41648095Y-5429238D01*
%TO.C,R3*%
X52877980Y-30948333D02*
X52401790Y-30615000D01*
X52877980Y-30376904D02*
X51877980Y-30376904D01*
X51877980Y-30757857D01*
X51925600Y-30853095D01*
X51973219Y-30900714D01*
X52068457Y-30948333D01*
X52211314Y-30948333D01*
X52306552Y-30900714D01*
X52354171Y-30853095D01*
X52401790Y-30757857D01*
X52401790Y-30376904D01*
X51877980Y-31281666D02*
X51877980Y-31900714D01*
X52258933Y-31567380D01*
X52258933Y-31710238D01*
X52306552Y-31805476D01*
X52354171Y-31853095D01*
X52449409Y-31900714D01*
X52687504Y-31900714D01*
X52782742Y-31853095D01*
X52830361Y-31805476D01*
X52877980Y-31710238D01*
X52877980Y-31424523D01*
X52830361Y-31329285D01*
X52782742Y-31281666D01*
%TO.C,C1*%
X62804166Y-20882142D02*
X62851785Y-20929761D01*
X62994642Y-20977380D01*
X63089880Y-20977380D01*
X63232738Y-20929761D01*
X63327976Y-20834523D01*
X63375595Y-20739285D01*
X63423214Y-20548809D01*
X63423214Y-20405952D01*
X63375595Y-20215476D01*
X63327976Y-20120238D01*
X63232738Y-20025000D01*
X63089880Y-19977380D01*
X62994642Y-19977380D01*
X62851785Y-20025000D01*
X62804166Y-20072619D01*
X61851785Y-20977380D02*
X62423214Y-20977380D01*
X62137500Y-20977380D02*
X62137500Y-19977380D01*
X62232738Y-20120238D01*
X62327976Y-20215476D01*
X62423214Y-20263095D01*
%TO.C,Q2*%
X50331619Y-20732761D02*
X50284000Y-20637523D01*
X50188761Y-20542285D01*
X50045904Y-20399428D01*
X49998285Y-20304190D01*
X49998285Y-20208952D01*
X50236380Y-20256571D02*
X50188761Y-20161333D01*
X50093523Y-20066095D01*
X49903047Y-20018476D01*
X49569714Y-20018476D01*
X49379238Y-20066095D01*
X49284000Y-20161333D01*
X49236380Y-20256571D01*
X49236380Y-20447047D01*
X49284000Y-20542285D01*
X49379238Y-20637523D01*
X49569714Y-20685142D01*
X49903047Y-20685142D01*
X50093523Y-20637523D01*
X50188761Y-20542285D01*
X50236380Y-20447047D01*
X50236380Y-20256571D01*
X49331619Y-21066095D02*
X49284000Y-21113714D01*
X49236380Y-21208952D01*
X49236380Y-21447047D01*
X49284000Y-21542285D01*
X49331619Y-21589904D01*
X49426857Y-21637523D01*
X49522095Y-21637523D01*
X49664952Y-21589904D01*
X50236380Y-21018476D01*
X50236380Y-21637523D01*
%TO.C,J4*%
X67016380Y-47164666D02*
X67730666Y-47164666D01*
X67873523Y-47117047D01*
X67968761Y-47021809D01*
X68016380Y-46878952D01*
X68016380Y-46783714D01*
X67349714Y-48069428D02*
X68016380Y-48069428D01*
X66968761Y-47831333D02*
X67683047Y-47593238D01*
X67683047Y-48212285D01*
%TO.C,Q4*%
X48085619Y-15360761D02*
X48038000Y-15265523D01*
X47942761Y-15170285D01*
X47799904Y-15027428D01*
X47752285Y-14932190D01*
X47752285Y-14836952D01*
X47990380Y-14884571D02*
X47942761Y-14789333D01*
X47847523Y-14694095D01*
X47657047Y-14646476D01*
X47323714Y-14646476D01*
X47133238Y-14694095D01*
X47038000Y-14789333D01*
X46990380Y-14884571D01*
X46990380Y-15075047D01*
X47038000Y-15170285D01*
X47133238Y-15265523D01*
X47323714Y-15313142D01*
X47657047Y-15313142D01*
X47847523Y-15265523D01*
X47942761Y-15170285D01*
X47990380Y-15075047D01*
X47990380Y-14884571D01*
X47323714Y-16170285D02*
X47990380Y-16170285D01*
X46942761Y-15932190D02*
X47657047Y-15694095D01*
X47657047Y-16313142D01*
%TO.C,R25*%
X63777380Y-31132142D02*
X63301190Y-30798809D01*
X63777380Y-30560714D02*
X62777380Y-30560714D01*
X62777380Y-30941666D01*
X62825000Y-31036904D01*
X62872619Y-31084523D01*
X62967857Y-31132142D01*
X63110714Y-31132142D01*
X63205952Y-31084523D01*
X63253571Y-31036904D01*
X63301190Y-30941666D01*
X63301190Y-30560714D01*
X62872619Y-31513095D02*
X62825000Y-31560714D01*
X62777380Y-31655952D01*
X62777380Y-31894047D01*
X62825000Y-31989285D01*
X62872619Y-32036904D01*
X62967857Y-32084523D01*
X63063095Y-32084523D01*
X63205952Y-32036904D01*
X63777380Y-31465476D01*
X63777380Y-32084523D01*
X62777380Y-32989285D02*
X62777380Y-32513095D01*
X63253571Y-32465476D01*
X63205952Y-32513095D01*
X63158333Y-32608333D01*
X63158333Y-32846428D01*
X63205952Y-32941666D01*
X63253571Y-32989285D01*
X63348809Y-33036904D01*
X63586904Y-33036904D01*
X63682142Y-32989285D01*
X63729761Y-32941666D01*
X63777380Y-32846428D01*
X63777380Y-32608333D01*
X63729761Y-32513095D01*
X63682142Y-32465476D01*
%TO.C,R98*%
X62852380Y-37982142D02*
X62376190Y-37648809D01*
X62852380Y-37410714D02*
X61852380Y-37410714D01*
X61852380Y-37791666D01*
X61900000Y-37886904D01*
X61947619Y-37934523D01*
X62042857Y-37982142D01*
X62185714Y-37982142D01*
X62280952Y-37934523D01*
X62328571Y-37886904D01*
X62376190Y-37791666D01*
X62376190Y-37410714D01*
X62852380Y-38458333D02*
X62852380Y-38648809D01*
X62804761Y-38744047D01*
X62757142Y-38791666D01*
X62614285Y-38886904D01*
X62423809Y-38934523D01*
X62042857Y-38934523D01*
X61947619Y-38886904D01*
X61900000Y-38839285D01*
X61852380Y-38744047D01*
X61852380Y-38553571D01*
X61900000Y-38458333D01*
X61947619Y-38410714D01*
X62042857Y-38363095D01*
X62280952Y-38363095D01*
X62376190Y-38410714D01*
X62423809Y-38458333D01*
X62471428Y-38553571D01*
X62471428Y-38744047D01*
X62423809Y-38839285D01*
X62376190Y-38886904D01*
X62280952Y-38934523D01*
X62280952Y-39505952D02*
X62233333Y-39410714D01*
X62185714Y-39363095D01*
X62090476Y-39315476D01*
X62042857Y-39315476D01*
X61947619Y-39363095D01*
X61900000Y-39410714D01*
X61852380Y-39505952D01*
X61852380Y-39696428D01*
X61900000Y-39791666D01*
X61947619Y-39839285D01*
X62042857Y-39886904D01*
X62090476Y-39886904D01*
X62185714Y-39839285D01*
X62233333Y-39791666D01*
X62280952Y-39696428D01*
X62280952Y-39505952D01*
X62328571Y-39410714D01*
X62376190Y-39363095D01*
X62471428Y-39315476D01*
X62661904Y-39315476D01*
X62757142Y-39363095D01*
X62804761Y-39410714D01*
X62852380Y-39505952D01*
X62852380Y-39696428D01*
X62804761Y-39791666D01*
X62757142Y-39839285D01*
X62661904Y-39886904D01*
X62471428Y-39886904D01*
X62376190Y-39839285D01*
X62328571Y-39791666D01*
X62280952Y-39696428D01*
%TO.C,Q6*%
X44275619Y-20986761D02*
X44228000Y-20891523D01*
X44132761Y-20796285D01*
X43989904Y-20653428D01*
X43942285Y-20558190D01*
X43942285Y-20462952D01*
X44180380Y-20510571D02*
X44132761Y-20415333D01*
X44037523Y-20320095D01*
X43847047Y-20272476D01*
X43513714Y-20272476D01*
X43323238Y-20320095D01*
X43228000Y-20415333D01*
X43180380Y-20510571D01*
X43180380Y-20701047D01*
X43228000Y-20796285D01*
X43323238Y-20891523D01*
X43513714Y-20939142D01*
X43847047Y-20939142D01*
X44037523Y-20891523D01*
X44132761Y-20796285D01*
X44180380Y-20701047D01*
X44180380Y-20510571D01*
X43180380Y-21796285D02*
X43180380Y-21605809D01*
X43228000Y-21510571D01*
X43275619Y-21462952D01*
X43418476Y-21367714D01*
X43608952Y-21320095D01*
X43989904Y-21320095D01*
X44085142Y-21367714D01*
X44132761Y-21415333D01*
X44180380Y-21510571D01*
X44180380Y-21701047D01*
X44132761Y-21796285D01*
X44085142Y-21843904D01*
X43989904Y-21891523D01*
X43751809Y-21891523D01*
X43656571Y-21843904D01*
X43608952Y-21796285D01*
X43561333Y-21701047D01*
X43561333Y-21510571D01*
X43608952Y-21415333D01*
X43656571Y-21367714D01*
X43751809Y-21320095D01*
%TO.C,Q16*%
X34861428Y-12231619D02*
X34956666Y-12184000D01*
X35051904Y-12088761D01*
X35194761Y-11945904D01*
X35290000Y-11898285D01*
X35385238Y-11898285D01*
X35337619Y-12136380D02*
X35432857Y-12088761D01*
X35528095Y-11993523D01*
X35575714Y-11803047D01*
X35575714Y-11469714D01*
X35528095Y-11279238D01*
X35432857Y-11184000D01*
X35337619Y-11136380D01*
X35147142Y-11136380D01*
X35051904Y-11184000D01*
X34956666Y-11279238D01*
X34909047Y-11469714D01*
X34909047Y-11803047D01*
X34956666Y-11993523D01*
X35051904Y-12088761D01*
X35147142Y-12136380D01*
X35337619Y-12136380D01*
X33956666Y-12136380D02*
X34528095Y-12136380D01*
X34242380Y-12136380D02*
X34242380Y-11136380D01*
X34337619Y-11279238D01*
X34432857Y-11374476D01*
X34528095Y-11422095D01*
X33099523Y-11136380D02*
X33290000Y-11136380D01*
X33385238Y-11184000D01*
X33432857Y-11231619D01*
X33528095Y-11374476D01*
X33575714Y-11564952D01*
X33575714Y-11945904D01*
X33528095Y-12041142D01*
X33480476Y-12088761D01*
X33385238Y-12136380D01*
X33194761Y-12136380D01*
X33099523Y-12088761D01*
X33051904Y-12041142D01*
X33004285Y-11945904D01*
X33004285Y-11707809D01*
X33051904Y-11612571D01*
X33099523Y-11564952D01*
X33194761Y-11517333D01*
X33385238Y-11517333D01*
X33480476Y-11564952D01*
X33528095Y-11612571D01*
X33575714Y-11707809D01*
%TO.C,R24*%
X32786580Y-31259542D02*
X32310390Y-30926209D01*
X32786580Y-30688114D02*
X31786580Y-30688114D01*
X31786580Y-31069066D01*
X31834200Y-31164304D01*
X31881819Y-31211923D01*
X31977057Y-31259542D01*
X32119914Y-31259542D01*
X32215152Y-31211923D01*
X32262771Y-31164304D01*
X32310390Y-31069066D01*
X32310390Y-30688114D01*
X31881819Y-31640495D02*
X31834200Y-31688114D01*
X31786580Y-31783352D01*
X31786580Y-32021447D01*
X31834200Y-32116685D01*
X31881819Y-32164304D01*
X31977057Y-32211923D01*
X32072295Y-32211923D01*
X32215152Y-32164304D01*
X32786580Y-31592876D01*
X32786580Y-32211923D01*
X32119914Y-33069066D02*
X32786580Y-33069066D01*
X31738961Y-32830971D02*
X32453247Y-32592876D01*
X32453247Y-33211923D01*
%TO.C,R21*%
X35656780Y-31005542D02*
X35180590Y-30672209D01*
X35656780Y-30434114D02*
X34656780Y-30434114D01*
X34656780Y-30815066D01*
X34704400Y-30910304D01*
X34752019Y-30957923D01*
X34847257Y-31005542D01*
X34990114Y-31005542D01*
X35085352Y-30957923D01*
X35132971Y-30910304D01*
X35180590Y-30815066D01*
X35180590Y-30434114D01*
X34752019Y-31386495D02*
X34704400Y-31434114D01*
X34656780Y-31529352D01*
X34656780Y-31767447D01*
X34704400Y-31862685D01*
X34752019Y-31910304D01*
X34847257Y-31957923D01*
X34942495Y-31957923D01*
X35085352Y-31910304D01*
X35656780Y-31338876D01*
X35656780Y-31957923D01*
X35656780Y-32910304D02*
X35656780Y-32338876D01*
X35656780Y-32624590D02*
X34656780Y-32624590D01*
X34799638Y-32529352D01*
X34894876Y-32434114D01*
X34942495Y-32338876D01*
%TO.C,R15*%
X41574980Y-31361142D02*
X41098790Y-31027809D01*
X41574980Y-30789714D02*
X40574980Y-30789714D01*
X40574980Y-31170666D01*
X40622600Y-31265904D01*
X40670219Y-31313523D01*
X40765457Y-31361142D01*
X40908314Y-31361142D01*
X41003552Y-31313523D01*
X41051171Y-31265904D01*
X41098790Y-31170666D01*
X41098790Y-30789714D01*
X41574980Y-32313523D02*
X41574980Y-31742095D01*
X41574980Y-32027809D02*
X40574980Y-32027809D01*
X40717838Y-31932571D01*
X40813076Y-31837333D01*
X40860695Y-31742095D01*
X40574980Y-33218285D02*
X40574980Y-32742095D01*
X41051171Y-32694476D01*
X41003552Y-32742095D01*
X40955933Y-32837333D01*
X40955933Y-33075428D01*
X41003552Y-33170666D01*
X41051171Y-33218285D01*
X41146409Y-33265904D01*
X41384504Y-33265904D01*
X41479742Y-33218285D01*
X41527361Y-33170666D01*
X41574980Y-33075428D01*
X41574980Y-32837333D01*
X41527361Y-32742095D01*
X41479742Y-32694476D01*
%TO.C,C2*%
X58357142Y-21333333D02*
X58404761Y-21285714D01*
X58452380Y-21142857D01*
X58452380Y-21047619D01*
X58404761Y-20904761D01*
X58309523Y-20809523D01*
X58214285Y-20761904D01*
X58023809Y-20714285D01*
X57880952Y-20714285D01*
X57690476Y-20761904D01*
X57595238Y-20809523D01*
X57500000Y-20904761D01*
X57452380Y-21047619D01*
X57452380Y-21142857D01*
X57500000Y-21285714D01*
X57547619Y-21333333D01*
X57547619Y-21714285D02*
X57500000Y-21761904D01*
X57452380Y-21857142D01*
X57452380Y-22095238D01*
X57500000Y-22190476D01*
X57547619Y-22238095D01*
X57642857Y-22285714D01*
X57738095Y-22285714D01*
X57880952Y-22238095D01*
X58452380Y-21666666D01*
X58452380Y-22285714D01*
%TO.C,R89*%
X7500857Y-4008380D02*
X7834190Y-3532190D01*
X8072285Y-4008380D02*
X8072285Y-3008380D01*
X7691333Y-3008380D01*
X7596095Y-3056000D01*
X7548476Y-3103619D01*
X7500857Y-3198857D01*
X7500857Y-3341714D01*
X7548476Y-3436952D01*
X7596095Y-3484571D01*
X7691333Y-3532190D01*
X8072285Y-3532190D01*
X6929428Y-3436952D02*
X7024666Y-3389333D01*
X7072285Y-3341714D01*
X7119904Y-3246476D01*
X7119904Y-3198857D01*
X7072285Y-3103619D01*
X7024666Y-3056000D01*
X6929428Y-3008380D01*
X6738952Y-3008380D01*
X6643714Y-3056000D01*
X6596095Y-3103619D01*
X6548476Y-3198857D01*
X6548476Y-3246476D01*
X6596095Y-3341714D01*
X6643714Y-3389333D01*
X6738952Y-3436952D01*
X6929428Y-3436952D01*
X7024666Y-3484571D01*
X7072285Y-3532190D01*
X7119904Y-3627428D01*
X7119904Y-3817904D01*
X7072285Y-3913142D01*
X7024666Y-3960761D01*
X6929428Y-4008380D01*
X6738952Y-4008380D01*
X6643714Y-3960761D01*
X6596095Y-3913142D01*
X6548476Y-3817904D01*
X6548476Y-3627428D01*
X6596095Y-3532190D01*
X6643714Y-3484571D01*
X6738952Y-3436952D01*
X6072285Y-4008380D02*
X5881809Y-4008380D01*
X5786571Y-3960761D01*
X5738952Y-3913142D01*
X5643714Y-3770285D01*
X5596095Y-3579809D01*
X5596095Y-3198857D01*
X5643714Y-3103619D01*
X5691333Y-3056000D01*
X5786571Y-3008380D01*
X5977047Y-3008380D01*
X6072285Y-3056000D01*
X6119904Y-3103619D01*
X6167523Y-3198857D01*
X6167523Y-3436952D01*
X6119904Y-3532190D01*
X6072285Y-3579809D01*
X5977047Y-3627428D01*
X5786571Y-3627428D01*
X5691333Y-3579809D01*
X5643714Y-3532190D01*
X5596095Y-3436952D01*
%TO.C,J3*%
X47842380Y-50166666D02*
X48556666Y-50166666D01*
X48699523Y-50119047D01*
X48794761Y-50023809D01*
X48842380Y-49880952D01*
X48842380Y-49785714D01*
X47842380Y-50547619D02*
X47842380Y-51166666D01*
X48223333Y-50833333D01*
X48223333Y-50976190D01*
X48270952Y-51071428D01*
X48318571Y-51119047D01*
X48413809Y-51166666D01*
X48651904Y-51166666D01*
X48747142Y-51119047D01*
X48794761Y-51071428D01*
X48842380Y-50976190D01*
X48842380Y-50690476D01*
X48794761Y-50595238D01*
X48747142Y-50547619D01*
%TO.C,R92*%
X45002380Y-38057142D02*
X44526190Y-37723809D01*
X45002380Y-37485714D02*
X44002380Y-37485714D01*
X44002380Y-37866666D01*
X44050000Y-37961904D01*
X44097619Y-38009523D01*
X44192857Y-38057142D01*
X44335714Y-38057142D01*
X44430952Y-38009523D01*
X44478571Y-37961904D01*
X44526190Y-37866666D01*
X44526190Y-37485714D01*
X45002380Y-38533333D02*
X45002380Y-38723809D01*
X44954761Y-38819047D01*
X44907142Y-38866666D01*
X44764285Y-38961904D01*
X44573809Y-39009523D01*
X44192857Y-39009523D01*
X44097619Y-38961904D01*
X44050000Y-38914285D01*
X44002380Y-38819047D01*
X44002380Y-38628571D01*
X44050000Y-38533333D01*
X44097619Y-38485714D01*
X44192857Y-38438095D01*
X44430952Y-38438095D01*
X44526190Y-38485714D01*
X44573809Y-38533333D01*
X44621428Y-38628571D01*
X44621428Y-38819047D01*
X44573809Y-38914285D01*
X44526190Y-38961904D01*
X44430952Y-39009523D01*
X44097619Y-39390476D02*
X44050000Y-39438095D01*
X44002380Y-39533333D01*
X44002380Y-39771428D01*
X44050000Y-39866666D01*
X44097619Y-39914285D01*
X44192857Y-39961904D01*
X44288095Y-39961904D01*
X44430952Y-39914285D01*
X45002380Y-39342857D01*
X45002380Y-39961904D01*
%TO.C,J2*%
X63460380Y-5000666D02*
X64174666Y-5000666D01*
X64317523Y-4953047D01*
X64412761Y-4857809D01*
X64460380Y-4714952D01*
X64460380Y-4619714D01*
X63555619Y-5429238D02*
X63508000Y-5476857D01*
X63460380Y-5572095D01*
X63460380Y-5810190D01*
X63508000Y-5905428D01*
X63555619Y-5953047D01*
X63650857Y-6000666D01*
X63746095Y-6000666D01*
X63888952Y-5953047D01*
X64460380Y-5381619D01*
X64460380Y-6000666D01*
%TO.C,U0*%
X25052380Y-47113095D02*
X25861904Y-47113095D01*
X25957142Y-47160714D01*
X26004761Y-47208333D01*
X26052380Y-47303571D01*
X26052380Y-47494047D01*
X26004761Y-47589285D01*
X25957142Y-47636904D01*
X25861904Y-47684523D01*
X25052380Y-47684523D01*
X25052380Y-48351190D02*
X25052380Y-48446428D01*
X25100000Y-48541666D01*
X25147619Y-48589285D01*
X25242857Y-48636904D01*
X25433333Y-48684523D01*
X25671428Y-48684523D01*
X25861904Y-48636904D01*
X25957142Y-48589285D01*
X26004761Y-48541666D01*
X26052380Y-48446428D01*
X26052380Y-48351190D01*
X26004761Y-48255952D01*
X25957142Y-48208333D01*
X25861904Y-48160714D01*
X25671428Y-48113095D01*
X25433333Y-48113095D01*
X25242857Y-48160714D01*
X25147619Y-48208333D01*
X25100000Y-48255952D01*
X25052380Y-48351190D01*
%TO.C,R18*%
X38704780Y-31081742D02*
X38228590Y-30748409D01*
X38704780Y-30510314D02*
X37704780Y-30510314D01*
X37704780Y-30891266D01*
X37752400Y-30986504D01*
X37800019Y-31034123D01*
X37895257Y-31081742D01*
X38038114Y-31081742D01*
X38133352Y-31034123D01*
X38180971Y-30986504D01*
X38228590Y-30891266D01*
X38228590Y-30510314D01*
X38704780Y-32034123D02*
X38704780Y-31462695D01*
X38704780Y-31748409D02*
X37704780Y-31748409D01*
X37847638Y-31653171D01*
X37942876Y-31557933D01*
X37990495Y-31462695D01*
X38133352Y-32605552D02*
X38085733Y-32510314D01*
X38038114Y-32462695D01*
X37942876Y-32415076D01*
X37895257Y-32415076D01*
X37800019Y-32462695D01*
X37752400Y-32510314D01*
X37704780Y-32605552D01*
X37704780Y-32796028D01*
X37752400Y-32891266D01*
X37800019Y-32938885D01*
X37895257Y-32986504D01*
X37942876Y-32986504D01*
X38038114Y-32938885D01*
X38085733Y-32891266D01*
X38133352Y-32796028D01*
X38133352Y-32605552D01*
X38180971Y-32510314D01*
X38228590Y-32462695D01*
X38323828Y-32415076D01*
X38514304Y-32415076D01*
X38609542Y-32462695D01*
X38657161Y-32510314D01*
X38704780Y-32605552D01*
X38704780Y-32796028D01*
X38657161Y-32891266D01*
X38609542Y-32938885D01*
X38514304Y-32986504D01*
X38323828Y-32986504D01*
X38228590Y-32938885D01*
X38180971Y-32891266D01*
X38133352Y-32796028D01*
%TO.C,Q8*%
X42751619Y-15590761D02*
X42704000Y-15495523D01*
X42608761Y-15400285D01*
X42465904Y-15257428D01*
X42418285Y-15162190D01*
X42418285Y-15066952D01*
X42656380Y-15114571D02*
X42608761Y-15019333D01*
X42513523Y-14924095D01*
X42323047Y-14876476D01*
X41989714Y-14876476D01*
X41799238Y-14924095D01*
X41704000Y-15019333D01*
X41656380Y-15114571D01*
X41656380Y-15305047D01*
X41704000Y-15400285D01*
X41799238Y-15495523D01*
X41989714Y-15543142D01*
X42323047Y-15543142D01*
X42513523Y-15495523D01*
X42608761Y-15400285D01*
X42656380Y-15305047D01*
X42656380Y-15114571D01*
X42084952Y-16114571D02*
X42037333Y-16019333D01*
X41989714Y-15971714D01*
X41894476Y-15924095D01*
X41846857Y-15924095D01*
X41751619Y-15971714D01*
X41704000Y-16019333D01*
X41656380Y-16114571D01*
X41656380Y-16305047D01*
X41704000Y-16400285D01*
X41751619Y-16447904D01*
X41846857Y-16495523D01*
X41894476Y-16495523D01*
X41989714Y-16447904D01*
X42037333Y-16400285D01*
X42084952Y-16305047D01*
X42084952Y-16114571D01*
X42132571Y-16019333D01*
X42180190Y-15971714D01*
X42275428Y-15924095D01*
X42465904Y-15924095D01*
X42561142Y-15971714D01*
X42608761Y-16019333D01*
X42656380Y-16114571D01*
X42656380Y-16305047D01*
X42608761Y-16400285D01*
X42561142Y-16447904D01*
X42465904Y-16495523D01*
X42275428Y-16495523D01*
X42180190Y-16447904D01*
X42132571Y-16400285D01*
X42084952Y-16305047D01*
%TO.C,R93*%
X60052380Y-38032142D02*
X59576190Y-37698809D01*
X60052380Y-37460714D02*
X59052380Y-37460714D01*
X59052380Y-37841666D01*
X59100000Y-37936904D01*
X59147619Y-37984523D01*
X59242857Y-38032142D01*
X59385714Y-38032142D01*
X59480952Y-37984523D01*
X59528571Y-37936904D01*
X59576190Y-37841666D01*
X59576190Y-37460714D01*
X60052380Y-38508333D02*
X60052380Y-38698809D01*
X60004761Y-38794047D01*
X59957142Y-38841666D01*
X59814285Y-38936904D01*
X59623809Y-38984523D01*
X59242857Y-38984523D01*
X59147619Y-38936904D01*
X59100000Y-38889285D01*
X59052380Y-38794047D01*
X59052380Y-38603571D01*
X59100000Y-38508333D01*
X59147619Y-38460714D01*
X59242857Y-38413095D01*
X59480952Y-38413095D01*
X59576190Y-38460714D01*
X59623809Y-38508333D01*
X59671428Y-38603571D01*
X59671428Y-38794047D01*
X59623809Y-38889285D01*
X59576190Y-38936904D01*
X59480952Y-38984523D01*
X59052380Y-39317857D02*
X59052380Y-39936904D01*
X59433333Y-39603571D01*
X59433333Y-39746428D01*
X59480952Y-39841666D01*
X59528571Y-39889285D01*
X59623809Y-39936904D01*
X59861904Y-39936904D01*
X59957142Y-39889285D01*
X60004761Y-39841666D01*
X60052380Y-39746428D01*
X60052380Y-39460714D01*
X60004761Y-39365476D01*
X59957142Y-39317857D01*
%TO.C,R72*%
X20927380Y-47207142D02*
X20451190Y-46873809D01*
X20927380Y-46635714D02*
X19927380Y-46635714D01*
X19927380Y-47016666D01*
X19975000Y-47111904D01*
X20022619Y-47159523D01*
X20117857Y-47207142D01*
X20260714Y-47207142D01*
X20355952Y-47159523D01*
X20403571Y-47111904D01*
X20451190Y-47016666D01*
X20451190Y-46635714D01*
X19927380Y-47540476D02*
X19927380Y-48207142D01*
X20927380Y-47778571D01*
X20022619Y-48540476D02*
X19975000Y-48588095D01*
X19927380Y-48683333D01*
X19927380Y-48921428D01*
X19975000Y-49016666D01*
X20022619Y-49064285D01*
X20117857Y-49111904D01*
X20213095Y-49111904D01*
X20355952Y-49064285D01*
X20927380Y-48492857D01*
X20927380Y-49111904D01*
%TO.C,R71*%
X27672380Y-42791142D02*
X27196190Y-42457809D01*
X27672380Y-42219714D02*
X26672380Y-42219714D01*
X26672380Y-42600666D01*
X26720000Y-42695904D01*
X26767619Y-42743523D01*
X26862857Y-42791142D01*
X27005714Y-42791142D01*
X27100952Y-42743523D01*
X27148571Y-42695904D01*
X27196190Y-42600666D01*
X27196190Y-42219714D01*
X26672380Y-43124476D02*
X26672380Y-43791142D01*
X27672380Y-43362571D01*
X27672380Y-44695904D02*
X27672380Y-44124476D01*
X27672380Y-44410190D02*
X26672380Y-44410190D01*
X26815238Y-44314952D01*
X26910476Y-44219714D01*
X26958095Y-44124476D01*
%TO.C,R6*%
X50185580Y-31303933D02*
X49709390Y-30970600D01*
X50185580Y-30732504D02*
X49185580Y-30732504D01*
X49185580Y-31113457D01*
X49233200Y-31208695D01*
X49280819Y-31256314D01*
X49376057Y-31303933D01*
X49518914Y-31303933D01*
X49614152Y-31256314D01*
X49661771Y-31208695D01*
X49709390Y-31113457D01*
X49709390Y-30732504D01*
X49185580Y-32161076D02*
X49185580Y-31970600D01*
X49233200Y-31875361D01*
X49280819Y-31827742D01*
X49423676Y-31732504D01*
X49614152Y-31684885D01*
X49995104Y-31684885D01*
X50090342Y-31732504D01*
X50137961Y-31780123D01*
X50185580Y-31875361D01*
X50185580Y-32065838D01*
X50137961Y-32161076D01*
X50090342Y-32208695D01*
X49995104Y-32256314D01*
X49757009Y-32256314D01*
X49661771Y-32208695D01*
X49614152Y-32161076D01*
X49566533Y-32065838D01*
X49566533Y-31875361D01*
X49614152Y-31780123D01*
X49661771Y-31732504D01*
X49757009Y-31684885D01*
%TO.C,R94*%
X57027380Y-38007142D02*
X56551190Y-37673809D01*
X57027380Y-37435714D02*
X56027380Y-37435714D01*
X56027380Y-37816666D01*
X56075000Y-37911904D01*
X56122619Y-37959523D01*
X56217857Y-38007142D01*
X56360714Y-38007142D01*
X56455952Y-37959523D01*
X56503571Y-37911904D01*
X56551190Y-37816666D01*
X56551190Y-37435714D01*
X57027380Y-38483333D02*
X57027380Y-38673809D01*
X56979761Y-38769047D01*
X56932142Y-38816666D01*
X56789285Y-38911904D01*
X56598809Y-38959523D01*
X56217857Y-38959523D01*
X56122619Y-38911904D01*
X56075000Y-38864285D01*
X56027380Y-38769047D01*
X56027380Y-38578571D01*
X56075000Y-38483333D01*
X56122619Y-38435714D01*
X56217857Y-38388095D01*
X56455952Y-38388095D01*
X56551190Y-38435714D01*
X56598809Y-38483333D01*
X56646428Y-38578571D01*
X56646428Y-38769047D01*
X56598809Y-38864285D01*
X56551190Y-38911904D01*
X56455952Y-38959523D01*
X56360714Y-39816666D02*
X57027380Y-39816666D01*
X55979761Y-39578571D02*
X56694047Y-39340476D01*
X56694047Y-39959523D01*
%TO.C,Q14*%
X33059619Y-20510571D02*
X33012000Y-20415333D01*
X32916761Y-20320095D01*
X32773904Y-20177238D01*
X32726285Y-20082000D01*
X32726285Y-19986761D01*
X32964380Y-20034380D02*
X32916761Y-19939142D01*
X32821523Y-19843904D01*
X32631047Y-19796285D01*
X32297714Y-19796285D01*
X32107238Y-19843904D01*
X32012000Y-19939142D01*
X31964380Y-20034380D01*
X31964380Y-20224857D01*
X32012000Y-20320095D01*
X32107238Y-20415333D01*
X32297714Y-20462952D01*
X32631047Y-20462952D01*
X32821523Y-20415333D01*
X32916761Y-20320095D01*
X32964380Y-20224857D01*
X32964380Y-20034380D01*
X32964380Y-21415333D02*
X32964380Y-20843904D01*
X32964380Y-21129619D02*
X31964380Y-21129619D01*
X32107238Y-21034380D01*
X32202476Y-20939142D01*
X32250095Y-20843904D01*
X32297714Y-22272476D02*
X32964380Y-22272476D01*
X31916761Y-22034380D02*
X32631047Y-21796285D01*
X32631047Y-22415333D01*
%TO.C,R96*%
X51177380Y-38107142D02*
X50701190Y-37773809D01*
X51177380Y-37535714D02*
X50177380Y-37535714D01*
X50177380Y-37916666D01*
X50225000Y-38011904D01*
X50272619Y-38059523D01*
X50367857Y-38107142D01*
X50510714Y-38107142D01*
X50605952Y-38059523D01*
X50653571Y-38011904D01*
X50701190Y-37916666D01*
X50701190Y-37535714D01*
X51177380Y-38583333D02*
X51177380Y-38773809D01*
X51129761Y-38869047D01*
X51082142Y-38916666D01*
X50939285Y-39011904D01*
X50748809Y-39059523D01*
X50367857Y-39059523D01*
X50272619Y-39011904D01*
X50225000Y-38964285D01*
X50177380Y-38869047D01*
X50177380Y-38678571D01*
X50225000Y-38583333D01*
X50272619Y-38535714D01*
X50367857Y-38488095D01*
X50605952Y-38488095D01*
X50701190Y-38535714D01*
X50748809Y-38583333D01*
X50796428Y-38678571D01*
X50796428Y-38869047D01*
X50748809Y-38964285D01*
X50701190Y-39011904D01*
X50605952Y-39059523D01*
X50177380Y-39916666D02*
X50177380Y-39726190D01*
X50225000Y-39630952D01*
X50272619Y-39583333D01*
X50415476Y-39488095D01*
X50605952Y-39440476D01*
X50986904Y-39440476D01*
X51082142Y-39488095D01*
X51129761Y-39535714D01*
X51177380Y-39630952D01*
X51177380Y-39821428D01*
X51129761Y-39916666D01*
X51082142Y-39964285D01*
X50986904Y-40011904D01*
X50748809Y-40011904D01*
X50653571Y-39964285D01*
X50605952Y-39916666D01*
X50558333Y-39821428D01*
X50558333Y-39630952D01*
X50605952Y-39535714D01*
X50653571Y-39488095D01*
X50748809Y-39440476D01*
%TO.C,R73*%
X20560380Y-44061142D02*
X20084190Y-43727809D01*
X20560380Y-43489714D02*
X19560380Y-43489714D01*
X19560380Y-43870666D01*
X19608000Y-43965904D01*
X19655619Y-44013523D01*
X19750857Y-44061142D01*
X19893714Y-44061142D01*
X19988952Y-44013523D01*
X20036571Y-43965904D01*
X20084190Y-43870666D01*
X20084190Y-43489714D01*
X19560380Y-44394476D02*
X19560380Y-45061142D01*
X20560380Y-44632571D01*
X19560380Y-45346857D02*
X19560380Y-45965904D01*
X19941333Y-45632571D01*
X19941333Y-45775428D01*
X19988952Y-45870666D01*
X20036571Y-45918285D01*
X20131809Y-45965904D01*
X20369904Y-45965904D01*
X20465142Y-45918285D01*
X20512761Y-45870666D01*
X20560380Y-45775428D01*
X20560380Y-45489714D01*
X20512761Y-45394476D01*
X20465142Y-45346857D01*
%TO.C,R95*%
X54152380Y-38182142D02*
X53676190Y-37848809D01*
X54152380Y-37610714D02*
X53152380Y-37610714D01*
X53152380Y-37991666D01*
X53200000Y-38086904D01*
X53247619Y-38134523D01*
X53342857Y-38182142D01*
X53485714Y-38182142D01*
X53580952Y-38134523D01*
X53628571Y-38086904D01*
X53676190Y-37991666D01*
X53676190Y-37610714D01*
X54152380Y-38658333D02*
X54152380Y-38848809D01*
X54104761Y-38944047D01*
X54057142Y-38991666D01*
X53914285Y-39086904D01*
X53723809Y-39134523D01*
X53342857Y-39134523D01*
X53247619Y-39086904D01*
X53200000Y-39039285D01*
X53152380Y-38944047D01*
X53152380Y-38753571D01*
X53200000Y-38658333D01*
X53247619Y-38610714D01*
X53342857Y-38563095D01*
X53580952Y-38563095D01*
X53676190Y-38610714D01*
X53723809Y-38658333D01*
X53771428Y-38753571D01*
X53771428Y-38944047D01*
X53723809Y-39039285D01*
X53676190Y-39086904D01*
X53580952Y-39134523D01*
X53152380Y-40039285D02*
X53152380Y-39563095D01*
X53628571Y-39515476D01*
X53580952Y-39563095D01*
X53533333Y-39658333D01*
X53533333Y-39896428D01*
X53580952Y-39991666D01*
X53628571Y-40039285D01*
X53723809Y-40086904D01*
X53961904Y-40086904D01*
X54057142Y-40039285D01*
X54104761Y-39991666D01*
X54152380Y-39896428D01*
X54152380Y-39658333D01*
X54104761Y-39563095D01*
X54057142Y-39515476D01*
%TO.C,Q18*%
X54647619Y-15253571D02*
X54600000Y-15158333D01*
X54504761Y-15063095D01*
X54361904Y-14920238D01*
X54314285Y-14825000D01*
X54314285Y-14729761D01*
X54552380Y-14777380D02*
X54504761Y-14682142D01*
X54409523Y-14586904D01*
X54219047Y-14539285D01*
X53885714Y-14539285D01*
X53695238Y-14586904D01*
X53600000Y-14682142D01*
X53552380Y-14777380D01*
X53552380Y-14967857D01*
X53600000Y-15063095D01*
X53695238Y-15158333D01*
X53885714Y-15205952D01*
X54219047Y-15205952D01*
X54409523Y-15158333D01*
X54504761Y-15063095D01*
X54552380Y-14967857D01*
X54552380Y-14777380D01*
X54552380Y-16158333D02*
X54552380Y-15586904D01*
X54552380Y-15872619D02*
X53552380Y-15872619D01*
X53695238Y-15777380D01*
X53790476Y-15682142D01*
X53838095Y-15586904D01*
X53980952Y-16729761D02*
X53933333Y-16634523D01*
X53885714Y-16586904D01*
X53790476Y-16539285D01*
X53742857Y-16539285D01*
X53647619Y-16586904D01*
X53600000Y-16634523D01*
X53552380Y-16729761D01*
X53552380Y-16920238D01*
X53600000Y-17015476D01*
X53647619Y-17063095D01*
X53742857Y-17110714D01*
X53790476Y-17110714D01*
X53885714Y-17063095D01*
X53933333Y-17015476D01*
X53980952Y-16920238D01*
X53980952Y-16729761D01*
X54028571Y-16634523D01*
X54076190Y-16586904D01*
X54171428Y-16539285D01*
X54361904Y-16539285D01*
X54457142Y-16586904D01*
X54504761Y-16634523D01*
X54552380Y-16729761D01*
X54552380Y-16920238D01*
X54504761Y-17015476D01*
X54457142Y-17063095D01*
X54361904Y-17110714D01*
X54171428Y-17110714D01*
X54076190Y-17063095D01*
X54028571Y-17015476D01*
X53980952Y-16920238D01*
%TO.C,R27*%
X57002380Y-30932142D02*
X56526190Y-30598809D01*
X57002380Y-30360714D02*
X56002380Y-30360714D01*
X56002380Y-30741666D01*
X56050000Y-30836904D01*
X56097619Y-30884523D01*
X56192857Y-30932142D01*
X56335714Y-30932142D01*
X56430952Y-30884523D01*
X56478571Y-30836904D01*
X56526190Y-30741666D01*
X56526190Y-30360714D01*
X56097619Y-31313095D02*
X56050000Y-31360714D01*
X56002380Y-31455952D01*
X56002380Y-31694047D01*
X56050000Y-31789285D01*
X56097619Y-31836904D01*
X56192857Y-31884523D01*
X56288095Y-31884523D01*
X56430952Y-31836904D01*
X57002380Y-31265476D01*
X57002380Y-31884523D01*
X56002380Y-32217857D02*
X56002380Y-32884523D01*
X57002380Y-32455952D01*
D11*
%TO.C,R9*%
X45318000Y-26958936D02*
X45318000Y-28413064D01*
X47138000Y-26958936D02*
X47138000Y-28413064D01*
%TO.C,Q10*%
X39060000Y-22858000D02*
X39060000Y-19698000D01*
X39060000Y-22858000D02*
X39990000Y-22858000D01*
X42220000Y-22858000D02*
X42220000Y-21398000D01*
X42220000Y-22858000D02*
X41290000Y-22858000D01*
%TO.C,R12*%
X44344000Y-26958936D02*
X44344000Y-28413064D01*
X42524000Y-26958936D02*
X42524000Y-28413064D01*
%TO.C,Q17*%
X63230000Y-14840000D02*
X63230000Y-18000000D01*
X63230000Y-14840000D02*
X62300000Y-14840000D01*
X60070000Y-14840000D02*
X61000000Y-14840000D01*
X60070000Y-14840000D02*
X60070000Y-16300000D01*
%TO.C,R26*%
X65015000Y-26972936D02*
X65015000Y-28427064D01*
X66835000Y-26972936D02*
X66835000Y-28427064D01*
%TO.C,Q12*%
X37282000Y-16508000D02*
X38212000Y-16508000D01*
X40442000Y-16508000D02*
X40442000Y-15048000D01*
X37282000Y-16508000D02*
X37282000Y-13348000D01*
X40442000Y-16508000D02*
X39512000Y-16508000D01*
%TO.C,R28*%
X59985000Y-26847936D02*
X59985000Y-28302064D01*
X58165000Y-26847936D02*
X58165000Y-28302064D01*
%TO.C,R91*%
X3704000Y-3775064D02*
X3704000Y-2320936D01*
X1884000Y-3775064D02*
X1884000Y-2320936D01*
%TO.C,R97*%
X46665000Y-43552064D02*
X46665000Y-42097936D01*
X48485000Y-43552064D02*
X48485000Y-42097936D01*
%TO.C,J1*%
X42890000Y-3910000D02*
X42890000Y-2580000D01*
X40290000Y-3910000D02*
X22450000Y-3910000D01*
X41560000Y-3910000D02*
X42890000Y-3910000D01*
X22450000Y-3910000D02*
X22450000Y-1250000D01*
X40290000Y-1250000D02*
X22450000Y-1250000D01*
X40290000Y-3910000D02*
X40290000Y-1250000D01*
%TO.C,R3*%
X51414000Y-26984936D02*
X51414000Y-28439064D01*
X53234000Y-26984936D02*
X53234000Y-28439064D01*
%TO.C,C1*%
X63348752Y-23285000D02*
X61926248Y-23285000D01*
X63348752Y-21465000D02*
X61926248Y-21465000D01*
%TO.C,Q2*%
X53904000Y-22604000D02*
X53904000Y-21144000D01*
X50744000Y-22604000D02*
X51674000Y-22604000D01*
X50744000Y-22604000D02*
X50744000Y-19444000D01*
X53904000Y-22604000D02*
X52974000Y-22604000D01*
%TO.C,J4*%
X67930000Y-51830000D02*
X67930000Y-50500000D01*
X66600000Y-51830000D02*
X67930000Y-51830000D01*
X65330000Y-51830000D02*
X65330000Y-49170000D01*
X50030000Y-51830000D02*
X50030000Y-49170000D01*
X65330000Y-49170000D02*
X50030000Y-49170000D01*
X65330000Y-51830000D02*
X50030000Y-51830000D01*
%TO.C,Q4*%
X51618000Y-16216000D02*
X51618000Y-14756000D01*
X48458000Y-16216000D02*
X48458000Y-13056000D01*
X48458000Y-16216000D02*
X49388000Y-16216000D01*
X51618000Y-16216000D02*
X50688000Y-16216000D01*
%TO.C,R25*%
X62315000Y-28377064D02*
X62315000Y-26922936D01*
X64135000Y-28377064D02*
X64135000Y-26922936D01*
%TO.C,R98*%
X61490000Y-43652064D02*
X61490000Y-42197936D01*
X63310000Y-43652064D02*
X63310000Y-42197936D01*
%TO.C,Q6*%
X47808000Y-22604000D02*
X46878000Y-22604000D01*
X44648000Y-22604000D02*
X45578000Y-22604000D01*
X44648000Y-22604000D02*
X44648000Y-19444000D01*
X47808000Y-22604000D02*
X47808000Y-21144000D01*
%TO.C,Q16*%
X31440000Y-16508000D02*
X31440000Y-13348000D01*
X34600000Y-16508000D02*
X33670000Y-16508000D01*
X34600000Y-16508000D02*
X34600000Y-15048000D01*
X31440000Y-16508000D02*
X32370000Y-16508000D01*
%TO.C,R24*%
X31348000Y-26958936D02*
X31348000Y-28413064D01*
X33168000Y-26958936D02*
X33168000Y-28413064D01*
%TO.C,R21*%
X34142000Y-26958936D02*
X34142000Y-28413064D01*
X35962000Y-26958936D02*
X35962000Y-28413064D01*
%TO.C,R15*%
X41804000Y-26932936D02*
X41804000Y-28387064D01*
X39984000Y-26932936D02*
X39984000Y-28387064D01*
%TO.C,C2*%
X57060000Y-22211252D02*
X57060000Y-20788748D01*
X55240000Y-22211252D02*
X55240000Y-20788748D01*
%TO.C,R89*%
X7255464Y-2484800D02*
X5801336Y-2484800D01*
X7255464Y-664800D02*
X5801336Y-664800D01*
%TO.C,J3*%
X44790000Y-51830000D02*
X44790000Y-49170000D01*
X44790000Y-49170000D02*
X26950000Y-49170000D01*
X46060000Y-51830000D02*
X47390000Y-51830000D01*
X47390000Y-51830000D02*
X47390000Y-50500000D01*
X26950000Y-51830000D02*
X26950000Y-49170000D01*
X44790000Y-51830000D02*
X26950000Y-51830000D01*
%TO.C,R92*%
X45535000Y-43502064D02*
X45535000Y-42047936D01*
X43715000Y-43502064D02*
X43715000Y-42047936D01*
%TO.C,J2*%
X62310000Y-1250000D02*
X44470000Y-1250000D01*
X62310000Y-3910000D02*
X62310000Y-1250000D01*
X64910000Y-3910000D02*
X64910000Y-2580000D01*
X62310000Y-3910000D02*
X44470000Y-3910000D01*
X63580000Y-3910000D02*
X64910000Y-3910000D01*
X44470000Y-3910000D02*
X44470000Y-1250000D01*
%TO.C,U0*%
X21280000Y-51010000D02*
X22210000Y-51010000D01*
X21280000Y-51010000D02*
X21280000Y-47850000D01*
X24440000Y-51010000D02*
X24440000Y-49550000D01*
X24440000Y-51010000D02*
X23510000Y-51010000D01*
%TO.C,R18*%
X37190000Y-26958936D02*
X37190000Y-28413064D01*
X39010000Y-26958936D02*
X39010000Y-28413064D01*
%TO.C,Q8*%
X43124000Y-16446000D02*
X44054000Y-16446000D01*
X43124000Y-16446000D02*
X43124000Y-13286000D01*
X46284000Y-16446000D02*
X46284000Y-14986000D01*
X46284000Y-16446000D02*
X45354000Y-16446000D01*
%TO.C,R93*%
X60410000Y-43677064D02*
X60410000Y-42222936D01*
X58590000Y-43677064D02*
X58590000Y-42222936D01*
%TO.C,R72*%
X19198000Y-49336936D02*
X19198000Y-50791064D01*
X17378000Y-49336936D02*
X17378000Y-50791064D01*
%TO.C,R71*%
X26310000Y-44161064D02*
X26310000Y-42706936D01*
X24490000Y-44161064D02*
X24490000Y-42706936D01*
%TO.C,R6*%
X50440000Y-26984936D02*
X50440000Y-28439064D01*
X48620000Y-26984936D02*
X48620000Y-28439064D01*
%TO.C,R94*%
X55640000Y-43677064D02*
X55640000Y-42222936D01*
X57460000Y-43677064D02*
X57460000Y-42222936D01*
%TO.C,Q14*%
X36566000Y-22834000D02*
X36566000Y-21374000D01*
X36566000Y-22834000D02*
X35636000Y-22834000D01*
X33406000Y-22834000D02*
X33406000Y-19674000D01*
X33406000Y-22834000D02*
X34336000Y-22834000D01*
%TO.C,R96*%
X49690000Y-43577064D02*
X49690000Y-42122936D01*
X51510000Y-43577064D02*
X51510000Y-42122936D01*
%TO.C,R73*%
X17378000Y-45431064D02*
X17378000Y-43976936D01*
X19198000Y-45431064D02*
X19198000Y-43976936D01*
%TO.C,R95*%
X52740000Y-43677064D02*
X52740000Y-42222936D01*
X54560000Y-43677064D02*
X54560000Y-42222936D01*
%TO.C,Q18*%
X58222000Y-14734000D02*
X57292000Y-14734000D01*
X58222000Y-14734000D02*
X58222000Y-17894000D01*
X55062000Y-14734000D02*
X55992000Y-14734000D01*
X55062000Y-14734000D02*
X55062000Y-16194000D01*
%TO.C,R27*%
X55565000Y-28302064D02*
X55565000Y-26847936D01*
X57385000Y-28302064D02*
X57385000Y-26847936D01*
%TD*%
M02*
