%TF.GenerationSoftware,KiCad,Pcbnew,6.0.0*%
%TF.CreationDate,2022-04-09T17:08:55-03:00*%
%TF.ProjectId,cwc5.5,63776335-2e35-42e6-9b69-6361645f7063,rev?*%
%TF.SameCoordinates,Original*%
%TF.FileFunction,AssemblyDrawing,Top*%
%FSLAX46Y46*%
G04 Gerber Fmt 4.6, Leading zero omitted, Abs format (unit mm)*
G04 Created by KiCad (PCBNEW 6.0.0) date 2022-04-09 17:08:55*
%MOMM*%
%LPD*%
G01*
G04 APERTURE LIST*
%ADD10C,0.150000*%
%ADD11C,0.120000*%
%ADD12C,0.075000*%
%ADD13C,0.100000*%
%ADD14C,0.100000*%
%TD*%
G04 APERTURE END LIST*
D10*
%TO.C,R13*%
X39542380Y-9342285D02*
X39542380Y-8723238D01*
X39923333Y-9056571D01*
X39923333Y-8913714D01*
X39970952Y-8818476D01*
X40018571Y-8770857D01*
X40113809Y-8723238D01*
X40351904Y-8723238D01*
X40447142Y-8770857D01*
X40494761Y-8818476D01*
X40542380Y-8913714D01*
X40542380Y-9199428D01*
X40494761Y-9294666D01*
X40447142Y-9342285D01*
X40542380Y-8294666D02*
X39542380Y-8294666D01*
X40161428Y-8199428D02*
X40542380Y-7913714D01*
X39875714Y-7913714D02*
X40256666Y-8294666D01*
X40542380Y-7437523D02*
X40542380Y-7247047D01*
X40494761Y-7151809D01*
X40447142Y-7104190D01*
X40304285Y-7008952D01*
X40113809Y-6961333D01*
X39732857Y-6961333D01*
X39637619Y-7008952D01*
X39590000Y-7056571D01*
X39542380Y-7151809D01*
X39542380Y-7342285D01*
X39590000Y-7437523D01*
X39637619Y-7485142D01*
X39732857Y-7532761D01*
X39970952Y-7532761D01*
X40066190Y-7485142D01*
X40113809Y-7437523D01*
X40161428Y-7342285D01*
X40161428Y-7151809D01*
X40113809Y-7056571D01*
X40066190Y-7008952D01*
X39970952Y-6961333D01*
D11*
X42271904Y-8642285D02*
X41890952Y-8908952D01*
X42271904Y-9099428D02*
X41471904Y-9099428D01*
X41471904Y-8794666D01*
X41510000Y-8718476D01*
X41548095Y-8680380D01*
X41624285Y-8642285D01*
X41738571Y-8642285D01*
X41814761Y-8680380D01*
X41852857Y-8718476D01*
X41890952Y-8794666D01*
X41890952Y-9099428D01*
X42271904Y-7880380D02*
X42271904Y-8337523D01*
X42271904Y-8108952D02*
X41471904Y-8108952D01*
X41586190Y-8185142D01*
X41662380Y-8261333D01*
X41700476Y-8337523D01*
X41471904Y-7613714D02*
X41471904Y-7118476D01*
X41776666Y-7385142D01*
X41776666Y-7270857D01*
X41814761Y-7194666D01*
X41852857Y-7156571D01*
X41929047Y-7118476D01*
X42119523Y-7118476D01*
X42195714Y-7156571D01*
X42233809Y-7194666D01*
X42271904Y-7270857D01*
X42271904Y-7499428D01*
X42233809Y-7575619D01*
X42195714Y-7613714D01*
D10*
%TO.C,Q7*%
X42132571Y-17543142D02*
X42180190Y-17400285D01*
X42227809Y-17352666D01*
X42323047Y-17305047D01*
X42465904Y-17305047D01*
X42561142Y-17352666D01*
X42608761Y-17400285D01*
X42656380Y-17495523D01*
X42656380Y-17876476D01*
X41656380Y-17876476D01*
X41656380Y-17543142D01*
X41704000Y-17447904D01*
X41751619Y-17400285D01*
X41846857Y-17352666D01*
X41942095Y-17352666D01*
X42037333Y-17400285D01*
X42084952Y-17447904D01*
X42132571Y-17543142D01*
X42132571Y-17876476D01*
X42561142Y-16305047D02*
X42608761Y-16352666D01*
X42656380Y-16495523D01*
X42656380Y-16590761D01*
X42608761Y-16733619D01*
X42513523Y-16828857D01*
X42418285Y-16876476D01*
X42227809Y-16924095D01*
X42084952Y-16924095D01*
X41894476Y-16876476D01*
X41799238Y-16828857D01*
X41704000Y-16733619D01*
X41656380Y-16590761D01*
X41656380Y-16495523D01*
X41704000Y-16352666D01*
X41751619Y-16305047D01*
X42084952Y-15733619D02*
X42037333Y-15828857D01*
X41989714Y-15876476D01*
X41894476Y-15924095D01*
X41846857Y-15924095D01*
X41751619Y-15876476D01*
X41704000Y-15828857D01*
X41656380Y-15733619D01*
X41656380Y-15543142D01*
X41704000Y-15447904D01*
X41751619Y-15400285D01*
X41846857Y-15352666D01*
X41894476Y-15352666D01*
X41989714Y-15400285D01*
X42037333Y-15447904D01*
X42084952Y-15543142D01*
X42084952Y-15733619D01*
X42132571Y-15828857D01*
X42180190Y-15876476D01*
X42275428Y-15924095D01*
X42465904Y-15924095D01*
X42561142Y-15876476D01*
X42608761Y-15828857D01*
X42656380Y-15733619D01*
X42656380Y-15543142D01*
X42608761Y-15447904D01*
X42561142Y-15400285D01*
X42465904Y-15352666D01*
X42275428Y-15352666D01*
X42180190Y-15400285D01*
X42132571Y-15447904D01*
X42084952Y-15543142D01*
X41989714Y-14495523D02*
X42656380Y-14495523D01*
X41608761Y-14733619D02*
X42323047Y-14971714D01*
X42323047Y-14352666D01*
X41656380Y-14066952D02*
X41656380Y-13400285D01*
X42656380Y-13828857D01*
D12*
X44656380Y-15959809D02*
X44608761Y-15936000D01*
X44561142Y-15888380D01*
X44489714Y-15816952D01*
X44442095Y-15793142D01*
X44394476Y-15793142D01*
X44418285Y-15912190D02*
X44370666Y-15888380D01*
X44323047Y-15840761D01*
X44299238Y-15745523D01*
X44299238Y-15578857D01*
X44323047Y-15483619D01*
X44370666Y-15436000D01*
X44418285Y-15412190D01*
X44513523Y-15412190D01*
X44561142Y-15436000D01*
X44608761Y-15483619D01*
X44632571Y-15578857D01*
X44632571Y-15745523D01*
X44608761Y-15840761D01*
X44561142Y-15888380D01*
X44513523Y-15912190D01*
X44418285Y-15912190D01*
X44799238Y-15412190D02*
X45132571Y-15412190D01*
X44918285Y-15912190D01*
D10*
%TO.C,U3*%
X3154761Y-31952380D02*
X3726190Y-31952380D01*
X3440476Y-32952380D02*
X3440476Y-31952380D01*
X4535714Y-32952380D02*
X4059523Y-32952380D01*
X4059523Y-31952380D01*
X5297619Y-32285714D02*
X5297619Y-32952380D01*
X5059523Y-31904761D02*
X4821428Y-32619047D01*
X5440476Y-32619047D01*
X5726190Y-31952380D02*
X6345238Y-31952380D01*
X6011904Y-32333333D01*
X6154761Y-32333333D01*
X6250000Y-32380952D01*
X6297619Y-32428571D01*
X6345238Y-32523809D01*
X6345238Y-32761904D01*
X6297619Y-32857142D01*
X6250000Y-32904761D01*
X6154761Y-32952380D01*
X5869047Y-32952380D01*
X5773809Y-32904761D01*
X5726190Y-32857142D01*
X7297619Y-32952380D02*
X6726190Y-32952380D01*
X7011904Y-32952380D02*
X7011904Y-31952380D01*
X6916666Y-32095238D01*
X6821428Y-32190476D01*
X6726190Y-32238095D01*
X7726190Y-32952380D02*
X7726190Y-31952380D01*
X7964285Y-31952380D01*
X8107142Y-32000000D01*
X8202380Y-32095238D01*
X8250000Y-32190476D01*
X8297619Y-32380952D01*
X8297619Y-32523809D01*
X8250000Y-32714285D01*
X8202380Y-32809523D01*
X8107142Y-32904761D01*
X7964285Y-32952380D01*
X7726190Y-32952380D01*
X9059523Y-32428571D02*
X9202380Y-32476190D01*
X9250000Y-32523809D01*
X9297619Y-32619047D01*
X9297619Y-32761904D01*
X9250000Y-32857142D01*
X9202380Y-32904761D01*
X9107142Y-32952380D01*
X8726190Y-32952380D01*
X8726190Y-31952380D01*
X9059523Y-31952380D01*
X9154761Y-32000000D01*
X9202380Y-32047619D01*
X9250000Y-32142857D01*
X9250000Y-32238095D01*
X9202380Y-32333333D01*
X9154761Y-32380952D01*
X9059523Y-32428571D01*
X8726190Y-32428571D01*
X9630952Y-31952380D02*
X10297619Y-31952380D01*
X9630952Y-32952380D01*
X10297619Y-32952380D01*
D12*
X6476190Y-30380952D02*
X6880952Y-30380952D01*
X6928571Y-30357142D01*
X6952380Y-30333333D01*
X6976190Y-30285714D01*
X6976190Y-30190476D01*
X6952380Y-30142857D01*
X6928571Y-30119047D01*
X6880952Y-30095238D01*
X6476190Y-30095238D01*
X6476190Y-29904761D02*
X6476190Y-29595238D01*
X6666666Y-29761904D01*
X6666666Y-29690476D01*
X6690476Y-29642857D01*
X6714285Y-29619047D01*
X6761904Y-29595238D01*
X6880952Y-29595238D01*
X6928571Y-29619047D01*
X6952380Y-29642857D01*
X6976190Y-29690476D01*
X6976190Y-29833333D01*
X6952380Y-29880952D01*
X6928571Y-29904761D01*
D10*
%TO.C,J5*%
X26983142Y-39044095D02*
X27030761Y-39091714D01*
X27078380Y-39234571D01*
X27078380Y-39329809D01*
X27030761Y-39472666D01*
X26935523Y-39567904D01*
X26840285Y-39615523D01*
X26649809Y-39663142D01*
X26506952Y-39663142D01*
X26316476Y-39615523D01*
X26221238Y-39567904D01*
X26126000Y-39472666D01*
X26078380Y-39329809D01*
X26078380Y-39234571D01*
X26126000Y-39091714D01*
X26173619Y-39044095D01*
X27078380Y-38472666D02*
X27030761Y-38567904D01*
X26983142Y-38615523D01*
X26887904Y-38663142D01*
X26602190Y-38663142D01*
X26506952Y-38615523D01*
X26459333Y-38567904D01*
X26411714Y-38472666D01*
X26411714Y-38329809D01*
X26459333Y-38234571D01*
X26506952Y-38186952D01*
X26602190Y-38139333D01*
X26887904Y-38139333D01*
X26983142Y-38186952D01*
X27030761Y-38234571D01*
X27078380Y-38329809D01*
X27078380Y-38472666D01*
X26411714Y-37710761D02*
X27078380Y-37710761D01*
X26506952Y-37710761D02*
X26459333Y-37663142D01*
X26411714Y-37567904D01*
X26411714Y-37425047D01*
X26459333Y-37329809D01*
X26554571Y-37282190D01*
X27078380Y-37282190D01*
X26411714Y-36806000D02*
X27078380Y-36806000D01*
X26506952Y-36806000D02*
X26459333Y-36758380D01*
X26411714Y-36663142D01*
X26411714Y-36520285D01*
X26459333Y-36425047D01*
X26554571Y-36377428D01*
X27078380Y-36377428D01*
X27173619Y-36139333D02*
X27173619Y-35377428D01*
X26078380Y-34948857D02*
X26078380Y-34853619D01*
X26126000Y-34758380D01*
X26173619Y-34710761D01*
X26268857Y-34663142D01*
X26459333Y-34615523D01*
X26697428Y-34615523D01*
X26887904Y-34663142D01*
X26983142Y-34710761D01*
X27030761Y-34758380D01*
X27078380Y-34853619D01*
X27078380Y-34948857D01*
X27030761Y-35044095D01*
X26983142Y-35091714D01*
X26887904Y-35139333D01*
X26697428Y-35186952D01*
X26459333Y-35186952D01*
X26268857Y-35139333D01*
X26173619Y-35091714D01*
X26126000Y-35044095D01*
X26078380Y-34948857D01*
X27078380Y-33663142D02*
X27078380Y-34234571D01*
X27078380Y-33948857D02*
X26078380Y-33948857D01*
X26221238Y-34044095D01*
X26316476Y-34139333D01*
X26364095Y-34234571D01*
X27078380Y-33329809D02*
X26411714Y-32806000D01*
X26411714Y-33329809D02*
X27078380Y-32806000D01*
X27078380Y-31901238D02*
X27078380Y-32472666D01*
X27078380Y-32186952D02*
X26078380Y-32186952D01*
X26221238Y-32282190D01*
X26316476Y-32377428D01*
X26364095Y-32472666D01*
X26411714Y-31044095D02*
X27078380Y-31044095D01*
X26030761Y-31282190D02*
X26745047Y-31520285D01*
X26745047Y-30901238D01*
X45132666Y-34758380D02*
X45132666Y-35472666D01*
X45085047Y-35615523D01*
X44989809Y-35710761D01*
X44846952Y-35758380D01*
X44751714Y-35758380D01*
X46085047Y-34758380D02*
X45608857Y-34758380D01*
X45561238Y-35234571D01*
X45608857Y-35186952D01*
X45704095Y-35139333D01*
X45942190Y-35139333D01*
X46037428Y-35186952D01*
X46085047Y-35234571D01*
X46132666Y-35329809D01*
X46132666Y-35567904D01*
X46085047Y-35663142D01*
X46037428Y-35710761D01*
X45942190Y-35758380D01*
X45704095Y-35758380D01*
X45608857Y-35710761D01*
X45561238Y-35663142D01*
%TO.C,U6*%
X3262761Y-3149980D02*
X3834190Y-3149980D01*
X3548476Y-4149980D02*
X3548476Y-3149980D01*
X4643714Y-4149980D02*
X4167523Y-4149980D01*
X4167523Y-3149980D01*
X5405619Y-3483314D02*
X5405619Y-4149980D01*
X5167523Y-3102361D02*
X4929428Y-3816647D01*
X5548476Y-3816647D01*
X5834190Y-3149980D02*
X6453238Y-3149980D01*
X6119904Y-3530933D01*
X6262761Y-3530933D01*
X6358000Y-3578552D01*
X6405619Y-3626171D01*
X6453238Y-3721409D01*
X6453238Y-3959504D01*
X6405619Y-4054742D01*
X6358000Y-4102361D01*
X6262761Y-4149980D01*
X5977047Y-4149980D01*
X5881809Y-4102361D01*
X5834190Y-4054742D01*
X7405619Y-4149980D02*
X6834190Y-4149980D01*
X7119904Y-4149980D02*
X7119904Y-3149980D01*
X7024666Y-3292838D01*
X6929428Y-3388076D01*
X6834190Y-3435695D01*
X7834190Y-4149980D02*
X7834190Y-3149980D01*
X8072285Y-3149980D01*
X8215142Y-3197600D01*
X8310380Y-3292838D01*
X8358000Y-3388076D01*
X8405619Y-3578552D01*
X8405619Y-3721409D01*
X8358000Y-3911885D01*
X8310380Y-4007123D01*
X8215142Y-4102361D01*
X8072285Y-4149980D01*
X7834190Y-4149980D01*
X9167523Y-3626171D02*
X9310380Y-3673790D01*
X9358000Y-3721409D01*
X9405619Y-3816647D01*
X9405619Y-3959504D01*
X9358000Y-4054742D01*
X9310380Y-4102361D01*
X9215142Y-4149980D01*
X8834190Y-4149980D01*
X8834190Y-3149980D01*
X9167523Y-3149980D01*
X9262761Y-3197600D01*
X9310380Y-3245219D01*
X9358000Y-3340457D01*
X9358000Y-3435695D01*
X9310380Y-3530933D01*
X9262761Y-3578552D01*
X9167523Y-3626171D01*
X8834190Y-3626171D01*
X9738952Y-3149980D02*
X10405619Y-3149980D01*
X9738952Y-4149980D01*
X10405619Y-4149980D01*
D12*
X6584190Y-6578552D02*
X6988952Y-6578552D01*
X7036571Y-6554742D01*
X7060380Y-6530933D01*
X7084190Y-6483314D01*
X7084190Y-6388076D01*
X7060380Y-6340457D01*
X7036571Y-6316647D01*
X6988952Y-6292838D01*
X6584190Y-6292838D01*
X6584190Y-5840457D02*
X6584190Y-5935695D01*
X6608000Y-5983314D01*
X6631809Y-6007123D01*
X6703238Y-6054742D01*
X6798476Y-6078552D01*
X6988952Y-6078552D01*
X7036571Y-6054742D01*
X7060380Y-6030933D01*
X7084190Y-5983314D01*
X7084190Y-5888076D01*
X7060380Y-5840457D01*
X7036571Y-5816647D01*
X6988952Y-5792838D01*
X6869904Y-5792838D01*
X6822285Y-5816647D01*
X6798476Y-5840457D01*
X6774666Y-5888076D01*
X6774666Y-5983314D01*
X6798476Y-6030933D01*
X6822285Y-6054742D01*
X6869904Y-6078552D01*
D10*
%TO.C,R17*%
X36732380Y-28281238D02*
X36732380Y-28852666D01*
X36732380Y-28566952D02*
X35732380Y-28566952D01*
X35875238Y-28662190D01*
X35970476Y-28757428D01*
X36018095Y-28852666D01*
X36732380Y-27852666D02*
X35732380Y-27852666D01*
X36351428Y-27757428D02*
X36732380Y-27471714D01*
X36065714Y-27471714D02*
X36446666Y-27852666D01*
X35827619Y-27090761D02*
X35780000Y-27043142D01*
X35732380Y-26947904D01*
X35732380Y-26709809D01*
X35780000Y-26614571D01*
X35827619Y-26566952D01*
X35922857Y-26519333D01*
X36018095Y-26519333D01*
X36160952Y-26566952D01*
X36732380Y-27138380D01*
X36732380Y-26519333D01*
D11*
X38461904Y-28200285D02*
X38080952Y-28466952D01*
X38461904Y-28657428D02*
X37661904Y-28657428D01*
X37661904Y-28352666D01*
X37700000Y-28276476D01*
X37738095Y-28238380D01*
X37814285Y-28200285D01*
X37928571Y-28200285D01*
X38004761Y-28238380D01*
X38042857Y-28276476D01*
X38080952Y-28352666D01*
X38080952Y-28657428D01*
X38461904Y-27438380D02*
X38461904Y-27895523D01*
X38461904Y-27666952D02*
X37661904Y-27666952D01*
X37776190Y-27743142D01*
X37852380Y-27819333D01*
X37890476Y-27895523D01*
X37661904Y-27171714D02*
X37661904Y-26638380D01*
X38461904Y-26981238D01*
D10*
%TO.C,R7*%
X46146380Y-9444285D02*
X46146380Y-8825238D01*
X46527333Y-9158571D01*
X46527333Y-9015714D01*
X46574952Y-8920476D01*
X46622571Y-8872857D01*
X46717809Y-8825238D01*
X46955904Y-8825238D01*
X47051142Y-8872857D01*
X47098761Y-8920476D01*
X47146380Y-9015714D01*
X47146380Y-9301428D01*
X47098761Y-9396666D01*
X47051142Y-9444285D01*
X47146380Y-8396666D02*
X46146380Y-8396666D01*
X46765428Y-8301428D02*
X47146380Y-8015714D01*
X46479714Y-8015714D02*
X46860666Y-8396666D01*
X47146380Y-7539523D02*
X47146380Y-7349047D01*
X47098761Y-7253809D01*
X47051142Y-7206190D01*
X46908285Y-7110952D01*
X46717809Y-7063333D01*
X46336857Y-7063333D01*
X46241619Y-7110952D01*
X46194000Y-7158571D01*
X46146380Y-7253809D01*
X46146380Y-7444285D01*
X46194000Y-7539523D01*
X46241619Y-7587142D01*
X46336857Y-7634761D01*
X46574952Y-7634761D01*
X46670190Y-7587142D01*
X46717809Y-7539523D01*
X46765428Y-7444285D01*
X46765428Y-7253809D01*
X46717809Y-7158571D01*
X46670190Y-7110952D01*
X46574952Y-7063333D01*
D11*
X48875904Y-8363333D02*
X48494952Y-8630000D01*
X48875904Y-8820476D02*
X48075904Y-8820476D01*
X48075904Y-8515714D01*
X48114000Y-8439523D01*
X48152095Y-8401428D01*
X48228285Y-8363333D01*
X48342571Y-8363333D01*
X48418761Y-8401428D01*
X48456857Y-8439523D01*
X48494952Y-8515714D01*
X48494952Y-8820476D01*
X48075904Y-8096666D02*
X48075904Y-7563333D01*
X48875904Y-7906190D01*
D10*
%TO.C,RV6*%
X7852380Y-4641666D02*
X7852380Y-5117857D01*
X8328571Y-5165476D01*
X8280952Y-5117857D01*
X8233333Y-5022619D01*
X8233333Y-4784523D01*
X8280952Y-4689285D01*
X8328571Y-4641666D01*
X8423809Y-4594047D01*
X8661904Y-4594047D01*
X8757142Y-4641666D01*
X8804761Y-4689285D01*
X8852380Y-4784523D01*
X8852380Y-5022619D01*
X8804761Y-5117857D01*
X8757142Y-5165476D01*
X8852380Y-4165476D02*
X7852380Y-4165476D01*
X8471428Y-4070238D02*
X8852380Y-3784523D01*
X8185714Y-3784523D02*
X8566666Y-4165476D01*
X13752380Y-4970238D02*
X13276190Y-5303571D01*
X13752380Y-5541666D02*
X12752380Y-5541666D01*
X12752380Y-5160714D01*
X12800000Y-5065476D01*
X12847619Y-5017857D01*
X12942857Y-4970238D01*
X13085714Y-4970238D01*
X13180952Y-5017857D01*
X13228571Y-5065476D01*
X13276190Y-5160714D01*
X13276190Y-5541666D01*
X12752380Y-4684523D02*
X13752380Y-4351190D01*
X12752380Y-4017857D01*
X12752380Y-3255952D02*
X12752380Y-3446428D01*
X12800000Y-3541666D01*
X12847619Y-3589285D01*
X12990476Y-3684523D01*
X13180952Y-3732142D01*
X13561904Y-3732142D01*
X13657142Y-3684523D01*
X13704761Y-3636904D01*
X13752380Y-3541666D01*
X13752380Y-3351190D01*
X13704761Y-3255952D01*
X13657142Y-3208333D01*
X13561904Y-3160714D01*
X13323809Y-3160714D01*
X13228571Y-3208333D01*
X13180952Y-3255952D01*
X13133333Y-3351190D01*
X13133333Y-3541666D01*
X13180952Y-3636904D01*
X13228571Y-3684523D01*
X13323809Y-3732142D01*
%TO.C,R10*%
X43452380Y-9404285D02*
X43452380Y-8785238D01*
X43833333Y-9118571D01*
X43833333Y-8975714D01*
X43880952Y-8880476D01*
X43928571Y-8832857D01*
X44023809Y-8785238D01*
X44261904Y-8785238D01*
X44357142Y-8832857D01*
X44404761Y-8880476D01*
X44452380Y-8975714D01*
X44452380Y-9261428D01*
X44404761Y-9356666D01*
X44357142Y-9404285D01*
X44452380Y-8356666D02*
X43452380Y-8356666D01*
X44071428Y-8261428D02*
X44452380Y-7975714D01*
X43785714Y-7975714D02*
X44166666Y-8356666D01*
X44452380Y-7499523D02*
X44452380Y-7309047D01*
X44404761Y-7213809D01*
X44357142Y-7166190D01*
X44214285Y-7070952D01*
X44023809Y-7023333D01*
X43642857Y-7023333D01*
X43547619Y-7070952D01*
X43500000Y-7118571D01*
X43452380Y-7213809D01*
X43452380Y-7404285D01*
X43500000Y-7499523D01*
X43547619Y-7547142D01*
X43642857Y-7594761D01*
X43880952Y-7594761D01*
X43976190Y-7547142D01*
X44023809Y-7499523D01*
X44071428Y-7404285D01*
X44071428Y-7213809D01*
X44023809Y-7118571D01*
X43976190Y-7070952D01*
X43880952Y-7023333D01*
D11*
X46181904Y-8704285D02*
X45800952Y-8970952D01*
X46181904Y-9161428D02*
X45381904Y-9161428D01*
X45381904Y-8856666D01*
X45420000Y-8780476D01*
X45458095Y-8742380D01*
X45534285Y-8704285D01*
X45648571Y-8704285D01*
X45724761Y-8742380D01*
X45762857Y-8780476D01*
X45800952Y-8856666D01*
X45800952Y-9161428D01*
X46181904Y-7942380D02*
X46181904Y-8399523D01*
X46181904Y-8170952D02*
X45381904Y-8170952D01*
X45496190Y-8247142D01*
X45572380Y-8323333D01*
X45610476Y-8399523D01*
X45381904Y-7447142D02*
X45381904Y-7370952D01*
X45420000Y-7294761D01*
X45458095Y-7256666D01*
X45534285Y-7218571D01*
X45686666Y-7180476D01*
X45877142Y-7180476D01*
X46029523Y-7218571D01*
X46105714Y-7256666D01*
X46143809Y-7294761D01*
X46181904Y-7370952D01*
X46181904Y-7447142D01*
X46143809Y-7523333D01*
X46105714Y-7561428D01*
X46029523Y-7599523D01*
X45877142Y-7637619D01*
X45686666Y-7637619D01*
X45534285Y-7599523D01*
X45458095Y-7561428D01*
X45420000Y-7523333D01*
X45381904Y-7447142D01*
D10*
%TO.C,RV5*%
X17977380Y-48841666D02*
X17977380Y-49317857D01*
X18453571Y-49365476D01*
X18405952Y-49317857D01*
X18358333Y-49222619D01*
X18358333Y-48984523D01*
X18405952Y-48889285D01*
X18453571Y-48841666D01*
X18548809Y-48794047D01*
X18786904Y-48794047D01*
X18882142Y-48841666D01*
X18929761Y-48889285D01*
X18977380Y-48984523D01*
X18977380Y-49222619D01*
X18929761Y-49317857D01*
X18882142Y-49365476D01*
X18977380Y-48365476D02*
X17977380Y-48365476D01*
X18596428Y-48270238D02*
X18977380Y-47984523D01*
X18310714Y-47984523D02*
X18691666Y-48365476D01*
X14077380Y-49370238D02*
X13601190Y-49703571D01*
X14077380Y-49941666D02*
X13077380Y-49941666D01*
X13077380Y-49560714D01*
X13125000Y-49465476D01*
X13172619Y-49417857D01*
X13267857Y-49370238D01*
X13410714Y-49370238D01*
X13505952Y-49417857D01*
X13553571Y-49465476D01*
X13601190Y-49560714D01*
X13601190Y-49941666D01*
X13077380Y-49084523D02*
X14077380Y-48751190D01*
X13077380Y-48417857D01*
X13077380Y-47608333D02*
X13077380Y-48084523D01*
X13553571Y-48132142D01*
X13505952Y-48084523D01*
X13458333Y-47989285D01*
X13458333Y-47751190D01*
X13505952Y-47655952D01*
X13553571Y-47608333D01*
X13648809Y-47560714D01*
X13886904Y-47560714D01*
X13982142Y-47608333D01*
X14029761Y-47655952D01*
X14077380Y-47751190D01*
X14077380Y-47989285D01*
X14029761Y-48084523D01*
X13982142Y-48132142D01*
%TO.C,R82*%
X582380Y-31853333D02*
X582380Y-32424761D01*
X582380Y-32139047D02*
X-417619Y-32139047D01*
X-274761Y-32234285D01*
X-179523Y-32329523D01*
X-131904Y-32424761D01*
X487142Y-31424761D02*
X534761Y-31377142D01*
X582380Y-31424761D01*
X534761Y-31472380D01*
X487142Y-31424761D01*
X582380Y-31424761D01*
X-322380Y-30996190D02*
X-370000Y-30948571D01*
X-417619Y-30853333D01*
X-417619Y-30615238D01*
X-369999Y-30520000D01*
X-322380Y-30472380D01*
X-227142Y-30424761D01*
X-131904Y-30424761D01*
X10952Y-30472380D01*
X582380Y-31043809D01*
X582380Y-30424761D01*
X582380Y-29996190D02*
X-417619Y-29996190D01*
X201428Y-29900952D02*
X582380Y-29615238D01*
X-84285Y-29615238D02*
X296666Y-29996190D01*
X5322380Y-31662857D02*
X4846190Y-31996190D01*
X5322380Y-32234285D02*
X4322380Y-32234285D01*
X4322380Y-31853333D01*
X4370000Y-31758095D01*
X4417619Y-31710476D01*
X4512857Y-31662857D01*
X4655714Y-31662857D01*
X4750952Y-31710476D01*
X4798571Y-31758095D01*
X4846190Y-31853333D01*
X4846190Y-32234285D01*
X4750952Y-31091428D02*
X4703333Y-31186666D01*
X4655714Y-31234285D01*
X4560476Y-31281904D01*
X4512857Y-31281904D01*
X4417619Y-31234285D01*
X4370000Y-31186666D01*
X4322380Y-31091428D01*
X4322380Y-30900952D01*
X4370000Y-30805714D01*
X4417619Y-30758095D01*
X4512857Y-30710476D01*
X4560476Y-30710476D01*
X4655714Y-30758095D01*
X4703333Y-30805714D01*
X4750952Y-30900952D01*
X4750952Y-31091428D01*
X4798571Y-31186666D01*
X4846190Y-31234285D01*
X4941428Y-31281904D01*
X5131904Y-31281904D01*
X5227142Y-31234285D01*
X5274761Y-31186666D01*
X5322380Y-31091428D01*
X5322380Y-30900952D01*
X5274761Y-30805714D01*
X5227142Y-30758095D01*
X5131904Y-30710476D01*
X4941428Y-30710476D01*
X4846190Y-30758095D01*
X4798571Y-30805714D01*
X4750952Y-30900952D01*
X4417619Y-30329523D02*
X4370000Y-30281904D01*
X4322380Y-30186666D01*
X4322380Y-29948571D01*
X4370000Y-29853333D01*
X4417619Y-29805714D01*
X4512857Y-29758095D01*
X4608095Y-29758095D01*
X4750952Y-29805714D01*
X5322380Y-30377142D01*
X5322380Y-29758095D01*
%TO.C,R83*%
X5617714Y-39632380D02*
X6236761Y-39632380D01*
X5903428Y-40013333D01*
X6046285Y-40013333D01*
X6141523Y-40060952D01*
X6189142Y-40108571D01*
X6236761Y-40203809D01*
X6236761Y-40441904D01*
X6189142Y-40537142D01*
X6141523Y-40584761D01*
X6046285Y-40632380D01*
X5760571Y-40632380D01*
X5665333Y-40584761D01*
X5617714Y-40537142D01*
X6855809Y-39632380D02*
X6951047Y-39632380D01*
X7046285Y-39680000D01*
X7093904Y-39727619D01*
X7141523Y-39822857D01*
X7189142Y-40013333D01*
X7189142Y-40251428D01*
X7141523Y-40441904D01*
X7093904Y-40537142D01*
X7046285Y-40584761D01*
X6951047Y-40632380D01*
X6855809Y-40632380D01*
X6760571Y-40584761D01*
X6712952Y-40537142D01*
X6665333Y-40441904D01*
X6617714Y-40251428D01*
X6617714Y-40013333D01*
X6665333Y-39822857D01*
X6712952Y-39727619D01*
X6760571Y-39680000D01*
X6855809Y-39632380D01*
X7617714Y-40632380D02*
X7617714Y-39632380D01*
X7712952Y-40251428D02*
X7998666Y-40632380D01*
X7998666Y-39965714D02*
X7617714Y-40346666D01*
D11*
X6317714Y-42361904D02*
X6051047Y-41980952D01*
X5860571Y-42361904D02*
X5860571Y-41561904D01*
X6165333Y-41561904D01*
X6241523Y-41600000D01*
X6279619Y-41638095D01*
X6317714Y-41714285D01*
X6317714Y-41828571D01*
X6279619Y-41904761D01*
X6241523Y-41942857D01*
X6165333Y-41980952D01*
X5860571Y-41980952D01*
X6774857Y-41904761D02*
X6698666Y-41866666D01*
X6660571Y-41828571D01*
X6622476Y-41752380D01*
X6622476Y-41714285D01*
X6660571Y-41638095D01*
X6698666Y-41600000D01*
X6774857Y-41561904D01*
X6927238Y-41561904D01*
X7003428Y-41600000D01*
X7041523Y-41638095D01*
X7079619Y-41714285D01*
X7079619Y-41752380D01*
X7041523Y-41828571D01*
X7003428Y-41866666D01*
X6927238Y-41904761D01*
X6774857Y-41904761D01*
X6698666Y-41942857D01*
X6660571Y-41980952D01*
X6622476Y-42057142D01*
X6622476Y-42209523D01*
X6660571Y-42285714D01*
X6698666Y-42323809D01*
X6774857Y-42361904D01*
X6927238Y-42361904D01*
X7003428Y-42323809D01*
X7041523Y-42285714D01*
X7079619Y-42209523D01*
X7079619Y-42057142D01*
X7041523Y-41980952D01*
X7003428Y-41942857D01*
X6927238Y-41904761D01*
X7346285Y-41561904D02*
X7841523Y-41561904D01*
X7574857Y-41866666D01*
X7689142Y-41866666D01*
X7765333Y-41904761D01*
X7803428Y-41942857D01*
X7841523Y-42019047D01*
X7841523Y-42209523D01*
X7803428Y-42285714D01*
X7765333Y-42323809D01*
X7689142Y-42361904D01*
X7460571Y-42361904D01*
X7384380Y-42323809D01*
X7346285Y-42285714D01*
D10*
%TO.C,R75*%
X6262761Y-7928780D02*
X5691333Y-7928780D01*
X5977047Y-7928780D02*
X5977047Y-6928780D01*
X5881809Y-7071638D01*
X5786571Y-7166876D01*
X5691333Y-7214495D01*
X6881809Y-6928780D02*
X6977047Y-6928780D01*
X7072285Y-6976400D01*
X7119904Y-7024019D01*
X7167523Y-7119257D01*
X7215142Y-7309733D01*
X7215142Y-7547828D01*
X7167523Y-7738304D01*
X7119904Y-7833542D01*
X7072285Y-7881161D01*
X6977047Y-7928780D01*
X6881809Y-7928780D01*
X6786571Y-7881161D01*
X6738952Y-7833542D01*
X6691333Y-7738304D01*
X6643714Y-7547828D01*
X6643714Y-7309733D01*
X6691333Y-7119257D01*
X6738952Y-7024019D01*
X6786571Y-6976400D01*
X6881809Y-6928780D01*
X7643714Y-7928780D02*
X7643714Y-6928780D01*
X7738952Y-7547828D02*
X8024666Y-7928780D01*
X8024666Y-7262114D02*
X7643714Y-7643066D01*
D11*
X6343714Y-9658304D02*
X6077047Y-9277352D01*
X5886571Y-9658304D02*
X5886571Y-8858304D01*
X6191333Y-8858304D01*
X6267523Y-8896400D01*
X6305619Y-8934495D01*
X6343714Y-9010685D01*
X6343714Y-9124971D01*
X6305619Y-9201161D01*
X6267523Y-9239257D01*
X6191333Y-9277352D01*
X5886571Y-9277352D01*
X6610380Y-8858304D02*
X7143714Y-8858304D01*
X6800857Y-9658304D01*
X7829428Y-8858304D02*
X7448476Y-8858304D01*
X7410380Y-9239257D01*
X7448476Y-9201161D01*
X7524666Y-9163066D01*
X7715142Y-9163066D01*
X7791333Y-9201161D01*
X7829428Y-9239257D01*
X7867523Y-9315447D01*
X7867523Y-9505923D01*
X7829428Y-9582114D01*
X7791333Y-9620209D01*
X7715142Y-9658304D01*
X7524666Y-9658304D01*
X7448476Y-9620209D01*
X7410380Y-9582114D01*
D10*
%TO.C,R1*%
X51042380Y-9474285D02*
X51042380Y-8855238D01*
X51423333Y-9188571D01*
X51423333Y-9045714D01*
X51470952Y-8950476D01*
X51518571Y-8902857D01*
X51613809Y-8855238D01*
X51851904Y-8855238D01*
X51947142Y-8902857D01*
X51994761Y-8950476D01*
X52042380Y-9045714D01*
X52042380Y-9331428D01*
X51994761Y-9426666D01*
X51947142Y-9474285D01*
X52042380Y-8426666D02*
X51042380Y-8426666D01*
X51661428Y-8331428D02*
X52042380Y-8045714D01*
X51375714Y-8045714D02*
X51756666Y-8426666D01*
X52042380Y-7569523D02*
X52042380Y-7379047D01*
X51994761Y-7283809D01*
X51947142Y-7236190D01*
X51804285Y-7140952D01*
X51613809Y-7093333D01*
X51232857Y-7093333D01*
X51137619Y-7140952D01*
X51090000Y-7188571D01*
X51042380Y-7283809D01*
X51042380Y-7474285D01*
X51090000Y-7569523D01*
X51137619Y-7617142D01*
X51232857Y-7664761D01*
X51470952Y-7664761D01*
X51566190Y-7617142D01*
X51613809Y-7569523D01*
X51661428Y-7474285D01*
X51661428Y-7283809D01*
X51613809Y-7188571D01*
X51566190Y-7140952D01*
X51470952Y-7093333D01*
D11*
X53771904Y-8393333D02*
X53390952Y-8660000D01*
X53771904Y-8850476D02*
X52971904Y-8850476D01*
X52971904Y-8545714D01*
X53010000Y-8469523D01*
X53048095Y-8431428D01*
X53124285Y-8393333D01*
X53238571Y-8393333D01*
X53314761Y-8431428D01*
X53352857Y-8469523D01*
X53390952Y-8545714D01*
X53390952Y-8850476D01*
X53771904Y-7631428D02*
X53771904Y-8088571D01*
X53771904Y-7860000D02*
X52971904Y-7860000D01*
X53086190Y-7936190D01*
X53162380Y-8012380D01*
X53200476Y-8088571D01*
D10*
%TO.C,R85*%
X582380Y-39412333D02*
X582380Y-39983761D01*
X582380Y-39698047D02*
X-417619Y-39698047D01*
X-274761Y-39793285D01*
X-179523Y-39888523D01*
X-131904Y-39983761D01*
X487142Y-38983761D02*
X534761Y-38936142D01*
X582380Y-38983761D01*
X534761Y-39031380D01*
X487142Y-38983761D01*
X582380Y-38983761D01*
X-322380Y-38555190D02*
X-370000Y-38507571D01*
X-417619Y-38412333D01*
X-417619Y-38174238D01*
X-369999Y-38079000D01*
X-322380Y-38031380D01*
X-227142Y-37983761D01*
X-131904Y-37983761D01*
X10952Y-38031380D01*
X582380Y-38602809D01*
X582380Y-37983761D01*
X582380Y-37555190D02*
X-417619Y-37555190D01*
X201428Y-37459952D02*
X582380Y-37174238D01*
X-84285Y-37174238D02*
X296666Y-37555190D01*
X5322380Y-39221857D02*
X4846190Y-39555190D01*
X5322380Y-39793285D02*
X4322380Y-39793285D01*
X4322380Y-39412333D01*
X4370000Y-39317095D01*
X4417619Y-39269476D01*
X4512857Y-39221857D01*
X4655714Y-39221857D01*
X4750952Y-39269476D01*
X4798571Y-39317095D01*
X4846190Y-39412333D01*
X4846190Y-39793285D01*
X4750952Y-38650428D02*
X4703333Y-38745666D01*
X4655714Y-38793285D01*
X4560476Y-38840904D01*
X4512857Y-38840904D01*
X4417619Y-38793285D01*
X4370000Y-38745666D01*
X4322380Y-38650428D01*
X4322380Y-38459952D01*
X4370000Y-38364714D01*
X4417619Y-38317095D01*
X4512857Y-38269476D01*
X4560476Y-38269476D01*
X4655714Y-38317095D01*
X4703333Y-38364714D01*
X4750952Y-38459952D01*
X4750952Y-38650428D01*
X4798571Y-38745666D01*
X4846190Y-38793285D01*
X4941428Y-38840904D01*
X5131904Y-38840904D01*
X5227142Y-38793285D01*
X5274761Y-38745666D01*
X5322380Y-38650428D01*
X5322380Y-38459952D01*
X5274761Y-38364714D01*
X5227142Y-38317095D01*
X5131904Y-38269476D01*
X4941428Y-38269476D01*
X4846190Y-38317095D01*
X4798571Y-38364714D01*
X4750952Y-38459952D01*
X4322380Y-37364714D02*
X4322380Y-37840904D01*
X4798571Y-37888523D01*
X4750952Y-37840904D01*
X4703333Y-37745666D01*
X4703333Y-37507571D01*
X4750952Y-37412333D01*
X4798571Y-37364714D01*
X4893809Y-37317095D01*
X5131904Y-37317095D01*
X5227142Y-37364714D01*
X5274761Y-37412333D01*
X5322380Y-37507571D01*
X5322380Y-37745666D01*
X5274761Y-37840904D01*
X5227142Y-37888523D01*
%TO.C,R23*%
X30890380Y-28281238D02*
X30890380Y-28852666D01*
X30890380Y-28566952D02*
X29890380Y-28566952D01*
X30033238Y-28662190D01*
X30128476Y-28757428D01*
X30176095Y-28852666D01*
X30890380Y-27852666D02*
X29890380Y-27852666D01*
X30509428Y-27757428D02*
X30890380Y-27471714D01*
X30223714Y-27471714D02*
X30604666Y-27852666D01*
X29985619Y-27090761D02*
X29938000Y-27043142D01*
X29890380Y-26947904D01*
X29890380Y-26709809D01*
X29938000Y-26614571D01*
X29985619Y-26566952D01*
X30080857Y-26519333D01*
X30176095Y-26519333D01*
X30318952Y-26566952D01*
X30890380Y-27138380D01*
X30890380Y-26519333D01*
D11*
X32619904Y-28200285D02*
X32238952Y-28466952D01*
X32619904Y-28657428D02*
X31819904Y-28657428D01*
X31819904Y-28352666D01*
X31858000Y-28276476D01*
X31896095Y-28238380D01*
X31972285Y-28200285D01*
X32086571Y-28200285D01*
X32162761Y-28238380D01*
X32200857Y-28276476D01*
X32238952Y-28352666D01*
X32238952Y-28657428D01*
X31896095Y-27895523D02*
X31858000Y-27857428D01*
X31819904Y-27781238D01*
X31819904Y-27590761D01*
X31858000Y-27514571D01*
X31896095Y-27476476D01*
X31972285Y-27438380D01*
X32048476Y-27438380D01*
X32162761Y-27476476D01*
X32619904Y-27933619D01*
X32619904Y-27438380D01*
X31819904Y-27171714D02*
X31819904Y-26676476D01*
X32124666Y-26943142D01*
X32124666Y-26828857D01*
X32162761Y-26752666D01*
X32200857Y-26714571D01*
X32277047Y-26676476D01*
X32467523Y-26676476D01*
X32543714Y-26714571D01*
X32581809Y-26752666D01*
X32619904Y-26828857D01*
X32619904Y-27057428D01*
X32581809Y-27133619D01*
X32543714Y-27171714D01*
D10*
%TO.C,Q13*%
X32480571Y-23955142D02*
X32528190Y-23812285D01*
X32575809Y-23764666D01*
X32671047Y-23717047D01*
X32813904Y-23717047D01*
X32909142Y-23764666D01*
X32956761Y-23812285D01*
X33004380Y-23907523D01*
X33004380Y-24288476D01*
X32004380Y-24288476D01*
X32004380Y-23955142D01*
X32052000Y-23859904D01*
X32099619Y-23812285D01*
X32194857Y-23764666D01*
X32290095Y-23764666D01*
X32385333Y-23812285D01*
X32432952Y-23859904D01*
X32480571Y-23955142D01*
X32480571Y-24288476D01*
X32909142Y-22717047D02*
X32956761Y-22764666D01*
X33004380Y-22907523D01*
X33004380Y-23002761D01*
X32956761Y-23145619D01*
X32861523Y-23240857D01*
X32766285Y-23288476D01*
X32575809Y-23336095D01*
X32432952Y-23336095D01*
X32242476Y-23288476D01*
X32147238Y-23240857D01*
X32052000Y-23145619D01*
X32004380Y-23002761D01*
X32004380Y-22907523D01*
X32052000Y-22764666D01*
X32099619Y-22717047D01*
X32432952Y-22145619D02*
X32385333Y-22240857D01*
X32337714Y-22288476D01*
X32242476Y-22336095D01*
X32194857Y-22336095D01*
X32099619Y-22288476D01*
X32052000Y-22240857D01*
X32004380Y-22145619D01*
X32004380Y-21955142D01*
X32052000Y-21859904D01*
X32099619Y-21812285D01*
X32194857Y-21764666D01*
X32242476Y-21764666D01*
X32337714Y-21812285D01*
X32385333Y-21859904D01*
X32432952Y-21955142D01*
X32432952Y-22145619D01*
X32480571Y-22240857D01*
X32528190Y-22288476D01*
X32623428Y-22336095D01*
X32813904Y-22336095D01*
X32909142Y-22288476D01*
X32956761Y-22240857D01*
X33004380Y-22145619D01*
X33004380Y-21955142D01*
X32956761Y-21859904D01*
X32909142Y-21812285D01*
X32813904Y-21764666D01*
X32623428Y-21764666D01*
X32528190Y-21812285D01*
X32480571Y-21859904D01*
X32432952Y-21955142D01*
X32337714Y-20907523D02*
X33004380Y-20907523D01*
X31956761Y-21145619D02*
X32671047Y-21383714D01*
X32671047Y-20764666D01*
X32004380Y-20478952D02*
X32004380Y-19812285D01*
X33004380Y-20240857D01*
D12*
X34766285Y-22371809D02*
X34718666Y-22348000D01*
X34671047Y-22300380D01*
X34599619Y-22228952D01*
X34552000Y-22205142D01*
X34504380Y-22205142D01*
X34528190Y-22324190D02*
X34480571Y-22300380D01*
X34432952Y-22252761D01*
X34409142Y-22157523D01*
X34409142Y-21990857D01*
X34432952Y-21895619D01*
X34480571Y-21848000D01*
X34528190Y-21824190D01*
X34623428Y-21824190D01*
X34671047Y-21848000D01*
X34718666Y-21895619D01*
X34742476Y-21990857D01*
X34742476Y-22157523D01*
X34718666Y-22252761D01*
X34671047Y-22300380D01*
X34623428Y-22324190D01*
X34528190Y-22324190D01*
X35218666Y-22324190D02*
X34932952Y-22324190D01*
X35075809Y-22324190D02*
X35075809Y-21824190D01*
X35028190Y-21895619D01*
X34980571Y-21943238D01*
X34932952Y-21967047D01*
X35385333Y-21824190D02*
X35694857Y-21824190D01*
X35528190Y-22014666D01*
X35599619Y-22014666D01*
X35647238Y-22038476D01*
X35671047Y-22062285D01*
X35694857Y-22109904D01*
X35694857Y-22228952D01*
X35671047Y-22276571D01*
X35647238Y-22300380D01*
X35599619Y-22324190D01*
X35456761Y-22324190D01*
X35409142Y-22300380D01*
X35385333Y-22276571D01*
D10*
%TO.C,R16*%
X36748380Y-9342285D02*
X36748380Y-8723238D01*
X37129333Y-9056571D01*
X37129333Y-8913714D01*
X37176952Y-8818476D01*
X37224571Y-8770857D01*
X37319809Y-8723238D01*
X37557904Y-8723238D01*
X37653142Y-8770857D01*
X37700761Y-8818476D01*
X37748380Y-8913714D01*
X37748380Y-9199428D01*
X37700761Y-9294666D01*
X37653142Y-9342285D01*
X37748380Y-8294666D02*
X36748380Y-8294666D01*
X37367428Y-8199428D02*
X37748380Y-7913714D01*
X37081714Y-7913714D02*
X37462666Y-8294666D01*
X37748380Y-7437523D02*
X37748380Y-7247047D01*
X37700761Y-7151809D01*
X37653142Y-7104190D01*
X37510285Y-7008952D01*
X37319809Y-6961333D01*
X36938857Y-6961333D01*
X36843619Y-7008952D01*
X36796000Y-7056571D01*
X36748380Y-7151809D01*
X36748380Y-7342285D01*
X36796000Y-7437523D01*
X36843619Y-7485142D01*
X36938857Y-7532761D01*
X37176952Y-7532761D01*
X37272190Y-7485142D01*
X37319809Y-7437523D01*
X37367428Y-7342285D01*
X37367428Y-7151809D01*
X37319809Y-7056571D01*
X37272190Y-7008952D01*
X37176952Y-6961333D01*
D11*
X39477904Y-8642285D02*
X39096952Y-8908952D01*
X39477904Y-9099428D02*
X38677904Y-9099428D01*
X38677904Y-8794666D01*
X38716000Y-8718476D01*
X38754095Y-8680380D01*
X38830285Y-8642285D01*
X38944571Y-8642285D01*
X39020761Y-8680380D01*
X39058857Y-8718476D01*
X39096952Y-8794666D01*
X39096952Y-9099428D01*
X39477904Y-7880380D02*
X39477904Y-8337523D01*
X39477904Y-8108952D02*
X38677904Y-8108952D01*
X38792190Y-8185142D01*
X38868380Y-8261333D01*
X38906476Y-8337523D01*
X38677904Y-7194666D02*
X38677904Y-7347047D01*
X38716000Y-7423238D01*
X38754095Y-7461333D01*
X38868380Y-7537523D01*
X39020761Y-7575619D01*
X39325523Y-7575619D01*
X39401714Y-7537523D01*
X39439809Y-7499428D01*
X39477904Y-7423238D01*
X39477904Y-7270857D01*
X39439809Y-7194666D01*
X39401714Y-7156571D01*
X39325523Y-7118476D01*
X39135047Y-7118476D01*
X39058857Y-7156571D01*
X39020761Y-7194666D01*
X38982666Y-7270857D01*
X38982666Y-7423238D01*
X39020761Y-7499428D01*
X39058857Y-7537523D01*
X39135047Y-7575619D01*
D10*
%TO.C,R86*%
X5643714Y-48787980D02*
X6262761Y-48787980D01*
X5929428Y-49168933D01*
X6072285Y-49168933D01*
X6167523Y-49216552D01*
X6215142Y-49264171D01*
X6262761Y-49359409D01*
X6262761Y-49597504D01*
X6215142Y-49692742D01*
X6167523Y-49740361D01*
X6072285Y-49787980D01*
X5786571Y-49787980D01*
X5691333Y-49740361D01*
X5643714Y-49692742D01*
X6881809Y-48787980D02*
X6977047Y-48787980D01*
X7072285Y-48835600D01*
X7119904Y-48883219D01*
X7167523Y-48978457D01*
X7215142Y-49168933D01*
X7215142Y-49407028D01*
X7167523Y-49597504D01*
X7119904Y-49692742D01*
X7072285Y-49740361D01*
X6977047Y-49787980D01*
X6881809Y-49787980D01*
X6786571Y-49740361D01*
X6738952Y-49692742D01*
X6691333Y-49597504D01*
X6643714Y-49407028D01*
X6643714Y-49168933D01*
X6691333Y-48978457D01*
X6738952Y-48883219D01*
X6786571Y-48835600D01*
X6881809Y-48787980D01*
X7643714Y-49787980D02*
X7643714Y-48787980D01*
X7738952Y-49407028D02*
X8024666Y-49787980D01*
X8024666Y-49121314D02*
X7643714Y-49502266D01*
D11*
X6343714Y-51517504D02*
X6077047Y-51136552D01*
X5886571Y-51517504D02*
X5886571Y-50717504D01*
X6191333Y-50717504D01*
X6267523Y-50755600D01*
X6305619Y-50793695D01*
X6343714Y-50869885D01*
X6343714Y-50984171D01*
X6305619Y-51060361D01*
X6267523Y-51098457D01*
X6191333Y-51136552D01*
X5886571Y-51136552D01*
X6800857Y-51060361D02*
X6724666Y-51022266D01*
X6686571Y-50984171D01*
X6648476Y-50907980D01*
X6648476Y-50869885D01*
X6686571Y-50793695D01*
X6724666Y-50755600D01*
X6800857Y-50717504D01*
X6953238Y-50717504D01*
X7029428Y-50755600D01*
X7067523Y-50793695D01*
X7105619Y-50869885D01*
X7105619Y-50907980D01*
X7067523Y-50984171D01*
X7029428Y-51022266D01*
X6953238Y-51060361D01*
X6800857Y-51060361D01*
X6724666Y-51098457D01*
X6686571Y-51136552D01*
X6648476Y-51212742D01*
X6648476Y-51365123D01*
X6686571Y-51441314D01*
X6724666Y-51479409D01*
X6800857Y-51517504D01*
X6953238Y-51517504D01*
X7029428Y-51479409D01*
X7067523Y-51441314D01*
X7105619Y-51365123D01*
X7105619Y-51212742D01*
X7067523Y-51136552D01*
X7029428Y-51098457D01*
X6953238Y-51060361D01*
X7791333Y-50717504D02*
X7638952Y-50717504D01*
X7562761Y-50755600D01*
X7524666Y-50793695D01*
X7448476Y-50907980D01*
X7410380Y-51060361D01*
X7410380Y-51365123D01*
X7448476Y-51441314D01*
X7486571Y-51479409D01*
X7562761Y-51517504D01*
X7715142Y-51517504D01*
X7791333Y-51479409D01*
X7829428Y-51441314D01*
X7867523Y-51365123D01*
X7867523Y-51174647D01*
X7829428Y-51098457D01*
X7791333Y-51060361D01*
X7715142Y-51022266D01*
X7562761Y-51022266D01*
X7486571Y-51060361D01*
X7448476Y-51098457D01*
X7410380Y-51174647D01*
D10*
%TO.C,Q3*%
X47466571Y-17313142D02*
X47514190Y-17170285D01*
X47561809Y-17122666D01*
X47657047Y-17075047D01*
X47799904Y-17075047D01*
X47895142Y-17122666D01*
X47942761Y-17170285D01*
X47990380Y-17265523D01*
X47990380Y-17646476D01*
X46990380Y-17646476D01*
X46990380Y-17313142D01*
X47038000Y-17217904D01*
X47085619Y-17170285D01*
X47180857Y-17122666D01*
X47276095Y-17122666D01*
X47371333Y-17170285D01*
X47418952Y-17217904D01*
X47466571Y-17313142D01*
X47466571Y-17646476D01*
X47895142Y-16075047D02*
X47942761Y-16122666D01*
X47990380Y-16265523D01*
X47990380Y-16360761D01*
X47942761Y-16503619D01*
X47847523Y-16598857D01*
X47752285Y-16646476D01*
X47561809Y-16694095D01*
X47418952Y-16694095D01*
X47228476Y-16646476D01*
X47133238Y-16598857D01*
X47038000Y-16503619D01*
X46990380Y-16360761D01*
X46990380Y-16265523D01*
X47038000Y-16122666D01*
X47085619Y-16075047D01*
X47418952Y-15503619D02*
X47371333Y-15598857D01*
X47323714Y-15646476D01*
X47228476Y-15694095D01*
X47180857Y-15694095D01*
X47085619Y-15646476D01*
X47038000Y-15598857D01*
X46990380Y-15503619D01*
X46990380Y-15313142D01*
X47038000Y-15217904D01*
X47085619Y-15170285D01*
X47180857Y-15122666D01*
X47228476Y-15122666D01*
X47323714Y-15170285D01*
X47371333Y-15217904D01*
X47418952Y-15313142D01*
X47418952Y-15503619D01*
X47466571Y-15598857D01*
X47514190Y-15646476D01*
X47609428Y-15694095D01*
X47799904Y-15694095D01*
X47895142Y-15646476D01*
X47942761Y-15598857D01*
X47990380Y-15503619D01*
X47990380Y-15313142D01*
X47942761Y-15217904D01*
X47895142Y-15170285D01*
X47799904Y-15122666D01*
X47609428Y-15122666D01*
X47514190Y-15170285D01*
X47466571Y-15217904D01*
X47418952Y-15313142D01*
X47323714Y-14265523D02*
X47990380Y-14265523D01*
X46942761Y-14503619D02*
X47657047Y-14741714D01*
X47657047Y-14122666D01*
X46990380Y-13836952D02*
X46990380Y-13170285D01*
X47990380Y-13598857D01*
D12*
X49990380Y-15729809D02*
X49942761Y-15706000D01*
X49895142Y-15658380D01*
X49823714Y-15586952D01*
X49776095Y-15563142D01*
X49728476Y-15563142D01*
X49752285Y-15682190D02*
X49704666Y-15658380D01*
X49657047Y-15610761D01*
X49633238Y-15515523D01*
X49633238Y-15348857D01*
X49657047Y-15253619D01*
X49704666Y-15206000D01*
X49752285Y-15182190D01*
X49847523Y-15182190D01*
X49895142Y-15206000D01*
X49942761Y-15253619D01*
X49966571Y-15348857D01*
X49966571Y-15515523D01*
X49942761Y-15610761D01*
X49895142Y-15658380D01*
X49847523Y-15682190D01*
X49752285Y-15682190D01*
X50133238Y-15182190D02*
X50442761Y-15182190D01*
X50276095Y-15372666D01*
X50347523Y-15372666D01*
X50395142Y-15396476D01*
X50418952Y-15420285D01*
X50442761Y-15467904D01*
X50442761Y-15586952D01*
X50418952Y-15634571D01*
X50395142Y-15658380D01*
X50347523Y-15682190D01*
X50204666Y-15682190D01*
X50157047Y-15658380D01*
X50133238Y-15634571D01*
D10*
%TO.C,U2*%
X3154761Y-23202380D02*
X3726190Y-23202380D01*
X3440476Y-24202380D02*
X3440476Y-23202380D01*
X4535714Y-24202380D02*
X4059523Y-24202380D01*
X4059523Y-23202380D01*
X5297619Y-23535714D02*
X5297619Y-24202380D01*
X5059523Y-23154761D02*
X4821428Y-23869047D01*
X5440476Y-23869047D01*
X5726190Y-23202380D02*
X6345238Y-23202380D01*
X6011904Y-23583333D01*
X6154761Y-23583333D01*
X6250000Y-23630952D01*
X6297619Y-23678571D01*
X6345238Y-23773809D01*
X6345238Y-24011904D01*
X6297619Y-24107142D01*
X6250000Y-24154761D01*
X6154761Y-24202380D01*
X5869047Y-24202380D01*
X5773809Y-24154761D01*
X5726190Y-24107142D01*
X7297619Y-24202380D02*
X6726190Y-24202380D01*
X7011904Y-24202380D02*
X7011904Y-23202380D01*
X6916666Y-23345238D01*
X6821428Y-23440476D01*
X6726190Y-23488095D01*
X7726190Y-24202380D02*
X7726190Y-23202380D01*
X7964285Y-23202380D01*
X8107142Y-23250000D01*
X8202380Y-23345238D01*
X8250000Y-23440476D01*
X8297619Y-23630952D01*
X8297619Y-23773809D01*
X8250000Y-23964285D01*
X8202380Y-24059523D01*
X8107142Y-24154761D01*
X7964285Y-24202380D01*
X7726190Y-24202380D01*
X9059523Y-23678571D02*
X9202380Y-23726190D01*
X9250000Y-23773809D01*
X9297619Y-23869047D01*
X9297619Y-24011904D01*
X9250000Y-24107142D01*
X9202380Y-24154761D01*
X9107142Y-24202380D01*
X8726190Y-24202380D01*
X8726190Y-23202380D01*
X9059523Y-23202380D01*
X9154761Y-23250000D01*
X9202380Y-23297619D01*
X9250000Y-23392857D01*
X9250000Y-23488095D01*
X9202380Y-23583333D01*
X9154761Y-23630952D01*
X9059523Y-23678571D01*
X8726190Y-23678571D01*
X9630952Y-23202380D02*
X10297619Y-23202380D01*
X9630952Y-24202380D01*
X10297619Y-24202380D01*
D12*
X6476190Y-21630952D02*
X6880952Y-21630952D01*
X6928571Y-21607142D01*
X6952380Y-21583333D01*
X6976190Y-21535714D01*
X6976190Y-21440476D01*
X6952380Y-21392857D01*
X6928571Y-21369047D01*
X6880952Y-21345238D01*
X6476190Y-21345238D01*
X6523809Y-21130952D02*
X6500000Y-21107142D01*
X6476190Y-21059523D01*
X6476190Y-20940476D01*
X6500000Y-20892857D01*
X6523809Y-20869047D01*
X6571428Y-20845238D01*
X6619047Y-20845238D01*
X6690476Y-20869047D01*
X6976190Y-21154761D01*
X6976190Y-20845238D01*
D10*
%TO.C,RV2*%
X18002380Y-21791666D02*
X18002380Y-22267857D01*
X18478571Y-22315476D01*
X18430952Y-22267857D01*
X18383333Y-22172619D01*
X18383333Y-21934523D01*
X18430952Y-21839285D01*
X18478571Y-21791666D01*
X18573809Y-21744047D01*
X18811904Y-21744047D01*
X18907142Y-21791666D01*
X18954761Y-21839285D01*
X19002380Y-21934523D01*
X19002380Y-22172619D01*
X18954761Y-22267857D01*
X18907142Y-22315476D01*
X19002380Y-21315476D02*
X18002380Y-21315476D01*
X18621428Y-21220238D02*
X19002380Y-20934523D01*
X18335714Y-20934523D02*
X18716666Y-21315476D01*
X14102380Y-22320238D02*
X13626190Y-22653571D01*
X14102380Y-22891666D02*
X13102380Y-22891666D01*
X13102380Y-22510714D01*
X13150000Y-22415476D01*
X13197619Y-22367857D01*
X13292857Y-22320238D01*
X13435714Y-22320238D01*
X13530952Y-22367857D01*
X13578571Y-22415476D01*
X13626190Y-22510714D01*
X13626190Y-22891666D01*
X13102380Y-22034523D02*
X14102380Y-21701190D01*
X13102380Y-21367857D01*
X13197619Y-21082142D02*
X13150000Y-21034523D01*
X13102380Y-20939285D01*
X13102380Y-20701190D01*
X13150000Y-20605952D01*
X13197619Y-20558333D01*
X13292857Y-20510714D01*
X13388095Y-20510714D01*
X13530952Y-20558333D01*
X14102380Y-21129761D01*
X14102380Y-20510714D01*
%TO.C,RV3*%
X17952380Y-30491666D02*
X17952380Y-30967857D01*
X18428571Y-31015476D01*
X18380952Y-30967857D01*
X18333333Y-30872619D01*
X18333333Y-30634523D01*
X18380952Y-30539285D01*
X18428571Y-30491666D01*
X18523809Y-30444047D01*
X18761904Y-30444047D01*
X18857142Y-30491666D01*
X18904761Y-30539285D01*
X18952380Y-30634523D01*
X18952380Y-30872619D01*
X18904761Y-30967857D01*
X18857142Y-31015476D01*
X18952380Y-30015476D02*
X17952380Y-30015476D01*
X18571428Y-29920238D02*
X18952380Y-29634523D01*
X18285714Y-29634523D02*
X18666666Y-30015476D01*
X14052380Y-31020238D02*
X13576190Y-31353571D01*
X14052380Y-31591666D02*
X13052380Y-31591666D01*
X13052380Y-31210714D01*
X13100000Y-31115476D01*
X13147619Y-31067857D01*
X13242857Y-31020238D01*
X13385714Y-31020238D01*
X13480952Y-31067857D01*
X13528571Y-31115476D01*
X13576190Y-31210714D01*
X13576190Y-31591666D01*
X13052380Y-30734523D02*
X14052380Y-30401190D01*
X13052380Y-30067857D01*
X13052380Y-29829761D02*
X13052380Y-29210714D01*
X13433333Y-29544047D01*
X13433333Y-29401190D01*
X13480952Y-29305952D01*
X13528571Y-29258333D01*
X13623809Y-29210714D01*
X13861904Y-29210714D01*
X13957142Y-29258333D01*
X14004761Y-29305952D01*
X14052380Y-29401190D01*
X14052380Y-29686904D01*
X14004761Y-29782142D01*
X13957142Y-29829761D01*
%TO.C,Q5*%
X43656571Y-23701142D02*
X43704190Y-23558285D01*
X43751809Y-23510666D01*
X43847047Y-23463047D01*
X43989904Y-23463047D01*
X44085142Y-23510666D01*
X44132761Y-23558285D01*
X44180380Y-23653523D01*
X44180380Y-24034476D01*
X43180380Y-24034476D01*
X43180380Y-23701142D01*
X43228000Y-23605904D01*
X43275619Y-23558285D01*
X43370857Y-23510666D01*
X43466095Y-23510666D01*
X43561333Y-23558285D01*
X43608952Y-23605904D01*
X43656571Y-23701142D01*
X43656571Y-24034476D01*
X44085142Y-22463047D02*
X44132761Y-22510666D01*
X44180380Y-22653523D01*
X44180380Y-22748761D01*
X44132761Y-22891619D01*
X44037523Y-22986857D01*
X43942285Y-23034476D01*
X43751809Y-23082095D01*
X43608952Y-23082095D01*
X43418476Y-23034476D01*
X43323238Y-22986857D01*
X43228000Y-22891619D01*
X43180380Y-22748761D01*
X43180380Y-22653523D01*
X43228000Y-22510666D01*
X43275619Y-22463047D01*
X43608952Y-21891619D02*
X43561333Y-21986857D01*
X43513714Y-22034476D01*
X43418476Y-22082095D01*
X43370857Y-22082095D01*
X43275619Y-22034476D01*
X43228000Y-21986857D01*
X43180380Y-21891619D01*
X43180380Y-21701142D01*
X43228000Y-21605904D01*
X43275619Y-21558285D01*
X43370857Y-21510666D01*
X43418476Y-21510666D01*
X43513714Y-21558285D01*
X43561333Y-21605904D01*
X43608952Y-21701142D01*
X43608952Y-21891619D01*
X43656571Y-21986857D01*
X43704190Y-22034476D01*
X43799428Y-22082095D01*
X43989904Y-22082095D01*
X44085142Y-22034476D01*
X44132761Y-21986857D01*
X44180380Y-21891619D01*
X44180380Y-21701142D01*
X44132761Y-21605904D01*
X44085142Y-21558285D01*
X43989904Y-21510666D01*
X43799428Y-21510666D01*
X43704190Y-21558285D01*
X43656571Y-21605904D01*
X43608952Y-21701142D01*
X43513714Y-20653523D02*
X44180380Y-20653523D01*
X43132761Y-20891619D02*
X43847047Y-21129714D01*
X43847047Y-20510666D01*
X43180380Y-20224952D02*
X43180380Y-19558285D01*
X44180380Y-19986857D01*
D12*
X46180380Y-22117809D02*
X46132761Y-22094000D01*
X46085142Y-22046380D01*
X46013714Y-21974952D01*
X45966095Y-21951142D01*
X45918476Y-21951142D01*
X45942285Y-22070190D02*
X45894666Y-22046380D01*
X45847047Y-21998761D01*
X45823238Y-21903523D01*
X45823238Y-21736857D01*
X45847047Y-21641619D01*
X45894666Y-21594000D01*
X45942285Y-21570190D01*
X46037523Y-21570190D01*
X46085142Y-21594000D01*
X46132761Y-21641619D01*
X46156571Y-21736857D01*
X46156571Y-21903523D01*
X46132761Y-21998761D01*
X46085142Y-22046380D01*
X46037523Y-22070190D01*
X45942285Y-22070190D01*
X46608952Y-21570190D02*
X46370857Y-21570190D01*
X46347047Y-21808285D01*
X46370857Y-21784476D01*
X46418476Y-21760666D01*
X46537523Y-21760666D01*
X46585142Y-21784476D01*
X46608952Y-21808285D01*
X46632761Y-21855904D01*
X46632761Y-21974952D01*
X46608952Y-22022571D01*
X46585142Y-22046380D01*
X46537523Y-22070190D01*
X46418476Y-22070190D01*
X46370857Y-22046380D01*
X46347047Y-22022571D01*
D10*
%TO.C,U5*%
X3262761Y-49805980D02*
X3834190Y-49805980D01*
X3548476Y-50805980D02*
X3548476Y-49805980D01*
X4643714Y-50805980D02*
X4167523Y-50805980D01*
X4167523Y-49805980D01*
X5405619Y-50139314D02*
X5405619Y-50805980D01*
X5167523Y-49758361D02*
X4929428Y-50472647D01*
X5548476Y-50472647D01*
X5834190Y-49805980D02*
X6453238Y-49805980D01*
X6119904Y-50186933D01*
X6262761Y-50186933D01*
X6358000Y-50234552D01*
X6405619Y-50282171D01*
X6453238Y-50377409D01*
X6453238Y-50615504D01*
X6405619Y-50710742D01*
X6358000Y-50758361D01*
X6262761Y-50805980D01*
X5977047Y-50805980D01*
X5881809Y-50758361D01*
X5834190Y-50710742D01*
X7405619Y-50805980D02*
X6834190Y-50805980D01*
X7119904Y-50805980D02*
X7119904Y-49805980D01*
X7024666Y-49948838D01*
X6929428Y-50044076D01*
X6834190Y-50091695D01*
X7834190Y-50805980D02*
X7834190Y-49805980D01*
X8072285Y-49805980D01*
X8215142Y-49853600D01*
X8310380Y-49948838D01*
X8358000Y-50044076D01*
X8405619Y-50234552D01*
X8405619Y-50377409D01*
X8358000Y-50567885D01*
X8310380Y-50663123D01*
X8215142Y-50758361D01*
X8072285Y-50805980D01*
X7834190Y-50805980D01*
X9167523Y-50282171D02*
X9310380Y-50329790D01*
X9358000Y-50377409D01*
X9405619Y-50472647D01*
X9405619Y-50615504D01*
X9358000Y-50710742D01*
X9310380Y-50758361D01*
X9215142Y-50805980D01*
X8834190Y-50805980D01*
X8834190Y-49805980D01*
X9167523Y-49805980D01*
X9262761Y-49853600D01*
X9310380Y-49901219D01*
X9358000Y-49996457D01*
X9358000Y-50091695D01*
X9310380Y-50186933D01*
X9262761Y-50234552D01*
X9167523Y-50282171D01*
X8834190Y-50282171D01*
X9738952Y-49805980D02*
X10405619Y-49805980D01*
X9738952Y-50805980D01*
X10405619Y-50805980D01*
D12*
X6584190Y-48234552D02*
X6988952Y-48234552D01*
X7036571Y-48210742D01*
X7060380Y-48186933D01*
X7084190Y-48139314D01*
X7084190Y-48044076D01*
X7060380Y-47996457D01*
X7036571Y-47972647D01*
X6988952Y-47948838D01*
X6584190Y-47948838D01*
X6584190Y-47472647D02*
X6584190Y-47710742D01*
X6822285Y-47734552D01*
X6798476Y-47710742D01*
X6774666Y-47663123D01*
X6774666Y-47544076D01*
X6798476Y-47496457D01*
X6822285Y-47472647D01*
X6869904Y-47448838D01*
X6988952Y-47448838D01*
X7036571Y-47472647D01*
X7060380Y-47496457D01*
X7084190Y-47544076D01*
X7084190Y-47663123D01*
X7060380Y-47710742D01*
X7036571Y-47734552D01*
D10*
%TO.C,R4*%
X48662380Y-9444285D02*
X48662380Y-8825238D01*
X49043333Y-9158571D01*
X49043333Y-9015714D01*
X49090952Y-8920476D01*
X49138571Y-8872857D01*
X49233809Y-8825238D01*
X49471904Y-8825238D01*
X49567142Y-8872857D01*
X49614761Y-8920476D01*
X49662380Y-9015714D01*
X49662380Y-9301428D01*
X49614761Y-9396666D01*
X49567142Y-9444285D01*
X49662380Y-8396666D02*
X48662380Y-8396666D01*
X49281428Y-8301428D02*
X49662380Y-8015714D01*
X48995714Y-8015714D02*
X49376666Y-8396666D01*
X49662380Y-7539523D02*
X49662380Y-7349047D01*
X49614761Y-7253809D01*
X49567142Y-7206190D01*
X49424285Y-7110952D01*
X49233809Y-7063333D01*
X48852857Y-7063333D01*
X48757619Y-7110952D01*
X48710000Y-7158571D01*
X48662380Y-7253809D01*
X48662380Y-7444285D01*
X48710000Y-7539523D01*
X48757619Y-7587142D01*
X48852857Y-7634761D01*
X49090952Y-7634761D01*
X49186190Y-7587142D01*
X49233809Y-7539523D01*
X49281428Y-7444285D01*
X49281428Y-7253809D01*
X49233809Y-7158571D01*
X49186190Y-7110952D01*
X49090952Y-7063333D01*
D11*
X51391904Y-8363333D02*
X51010952Y-8630000D01*
X51391904Y-8820476D02*
X50591904Y-8820476D01*
X50591904Y-8515714D01*
X50630000Y-8439523D01*
X50668095Y-8401428D01*
X50744285Y-8363333D01*
X50858571Y-8363333D01*
X50934761Y-8401428D01*
X50972857Y-8439523D01*
X51010952Y-8515714D01*
X51010952Y-8820476D01*
X50858571Y-7677619D02*
X51391904Y-7677619D01*
X50553809Y-7868095D02*
X51125238Y-8058571D01*
X51125238Y-7563333D01*
D10*
%TO.C,RV4*%
X17952380Y-39591666D02*
X17952380Y-40067857D01*
X18428571Y-40115476D01*
X18380952Y-40067857D01*
X18333333Y-39972619D01*
X18333333Y-39734523D01*
X18380952Y-39639285D01*
X18428571Y-39591666D01*
X18523809Y-39544047D01*
X18761904Y-39544047D01*
X18857142Y-39591666D01*
X18904761Y-39639285D01*
X18952380Y-39734523D01*
X18952380Y-39972619D01*
X18904761Y-40067857D01*
X18857142Y-40115476D01*
X18952380Y-39115476D02*
X17952380Y-39115476D01*
X18571428Y-39020238D02*
X18952380Y-38734523D01*
X18285714Y-38734523D02*
X18666666Y-39115476D01*
X14052380Y-40120238D02*
X13576190Y-40453571D01*
X14052380Y-40691666D02*
X13052380Y-40691666D01*
X13052380Y-40310714D01*
X13100000Y-40215476D01*
X13147619Y-40167857D01*
X13242857Y-40120238D01*
X13385714Y-40120238D01*
X13480952Y-40167857D01*
X13528571Y-40215476D01*
X13576190Y-40310714D01*
X13576190Y-40691666D01*
X13052380Y-39834523D02*
X14052380Y-39501190D01*
X13052380Y-39167857D01*
X13385714Y-38405952D02*
X14052380Y-38405952D01*
X13004761Y-38644047D02*
X13719047Y-38882142D01*
X13719047Y-38263095D01*
%TO.C,R8*%
X44860380Y-28281238D02*
X44860380Y-28852666D01*
X44860380Y-28566952D02*
X43860380Y-28566952D01*
X44003238Y-28662190D01*
X44098476Y-28757428D01*
X44146095Y-28852666D01*
X44860380Y-27852666D02*
X43860380Y-27852666D01*
X44479428Y-27757428D02*
X44860380Y-27471714D01*
X44193714Y-27471714D02*
X44574666Y-27852666D01*
X43955619Y-27090761D02*
X43908000Y-27043142D01*
X43860380Y-26947904D01*
X43860380Y-26709809D01*
X43908000Y-26614571D01*
X43955619Y-26566952D01*
X44050857Y-26519333D01*
X44146095Y-26519333D01*
X44288952Y-26566952D01*
X44860380Y-27138380D01*
X44860380Y-26519333D01*
D11*
X46589904Y-27819333D02*
X46208952Y-28086000D01*
X46589904Y-28276476D02*
X45789904Y-28276476D01*
X45789904Y-27971714D01*
X45828000Y-27895523D01*
X45866095Y-27857428D01*
X45942285Y-27819333D01*
X46056571Y-27819333D01*
X46132761Y-27857428D01*
X46170857Y-27895523D01*
X46208952Y-27971714D01*
X46208952Y-28276476D01*
X46132761Y-27362190D02*
X46094666Y-27438380D01*
X46056571Y-27476476D01*
X45980380Y-27514571D01*
X45942285Y-27514571D01*
X45866095Y-27476476D01*
X45828000Y-27438380D01*
X45789904Y-27362190D01*
X45789904Y-27209809D01*
X45828000Y-27133619D01*
X45866095Y-27095523D01*
X45942285Y-27057428D01*
X45980380Y-27057428D01*
X46056571Y-27095523D01*
X46094666Y-27133619D01*
X46132761Y-27209809D01*
X46132761Y-27362190D01*
X46170857Y-27438380D01*
X46208952Y-27476476D01*
X46285142Y-27514571D01*
X46437523Y-27514571D01*
X46513714Y-27476476D01*
X46551809Y-27438380D01*
X46589904Y-27362190D01*
X46589904Y-27209809D01*
X46551809Y-27133619D01*
X46513714Y-27095523D01*
X46437523Y-27057428D01*
X46285142Y-27057428D01*
X46208952Y-27095523D01*
X46170857Y-27133619D01*
X46132761Y-27209809D01*
D10*
%TO.C,RV1*%
X17952380Y-13316666D02*
X17952380Y-13792857D01*
X18428571Y-13840476D01*
X18380952Y-13792857D01*
X18333333Y-13697619D01*
X18333333Y-13459523D01*
X18380952Y-13364285D01*
X18428571Y-13316666D01*
X18523809Y-13269047D01*
X18761904Y-13269047D01*
X18857142Y-13316666D01*
X18904761Y-13364285D01*
X18952380Y-13459523D01*
X18952380Y-13697619D01*
X18904761Y-13792857D01*
X18857142Y-13840476D01*
X18952380Y-12840476D02*
X17952380Y-12840476D01*
X18571428Y-12745238D02*
X18952380Y-12459523D01*
X18285714Y-12459523D02*
X18666666Y-12840476D01*
X14052380Y-13845238D02*
X13576190Y-14178571D01*
X14052380Y-14416666D02*
X13052380Y-14416666D01*
X13052380Y-14035714D01*
X13100000Y-13940476D01*
X13147619Y-13892857D01*
X13242857Y-13845238D01*
X13385714Y-13845238D01*
X13480952Y-13892857D01*
X13528571Y-13940476D01*
X13576190Y-14035714D01*
X13576190Y-14416666D01*
X13052380Y-13559523D02*
X14052380Y-13226190D01*
X13052380Y-12892857D01*
X14052380Y-12035714D02*
X14052380Y-12607142D01*
X14052380Y-12321428D02*
X13052380Y-12321428D01*
X13195238Y-12416666D01*
X13290476Y-12511904D01*
X13338095Y-12607142D01*
%TO.C,U1*%
X3008761Y-14398380D02*
X3580190Y-14398380D01*
X3294476Y-15398380D02*
X3294476Y-14398380D01*
X4389714Y-15398380D02*
X3913523Y-15398380D01*
X3913523Y-14398380D01*
X5151619Y-14731714D02*
X5151619Y-15398380D01*
X4913523Y-14350761D02*
X4675428Y-15065047D01*
X5294476Y-15065047D01*
X5580190Y-14398380D02*
X6199238Y-14398380D01*
X5865904Y-14779333D01*
X6008761Y-14779333D01*
X6104000Y-14826952D01*
X6151619Y-14874571D01*
X6199238Y-14969809D01*
X6199238Y-15207904D01*
X6151619Y-15303142D01*
X6104000Y-15350761D01*
X6008761Y-15398380D01*
X5723047Y-15398380D01*
X5627809Y-15350761D01*
X5580190Y-15303142D01*
X7151619Y-15398380D02*
X6580190Y-15398380D01*
X6865904Y-15398380D02*
X6865904Y-14398380D01*
X6770666Y-14541238D01*
X6675428Y-14636476D01*
X6580190Y-14684095D01*
X7580190Y-15398380D02*
X7580190Y-14398380D01*
X7818285Y-14398380D01*
X7961142Y-14446000D01*
X8056380Y-14541238D01*
X8104000Y-14636476D01*
X8151619Y-14826952D01*
X8151619Y-14969809D01*
X8104000Y-15160285D01*
X8056380Y-15255523D01*
X7961142Y-15350761D01*
X7818285Y-15398380D01*
X7580190Y-15398380D01*
X8913523Y-14874571D02*
X9056380Y-14922190D01*
X9104000Y-14969809D01*
X9151619Y-15065047D01*
X9151619Y-15207904D01*
X9104000Y-15303142D01*
X9056380Y-15350761D01*
X8961142Y-15398380D01*
X8580190Y-15398380D01*
X8580190Y-14398380D01*
X8913523Y-14398380D01*
X9008761Y-14446000D01*
X9056380Y-14493619D01*
X9104000Y-14588857D01*
X9104000Y-14684095D01*
X9056380Y-14779333D01*
X9008761Y-14826952D01*
X8913523Y-14874571D01*
X8580190Y-14874571D01*
X9484952Y-14398380D02*
X10151619Y-14398380D01*
X9484952Y-15398380D01*
X10151619Y-15398380D01*
D12*
X6330190Y-12826952D02*
X6734952Y-12826952D01*
X6782571Y-12803142D01*
X6806380Y-12779333D01*
X6830190Y-12731714D01*
X6830190Y-12636476D01*
X6806380Y-12588857D01*
X6782571Y-12565047D01*
X6734952Y-12541238D01*
X6330190Y-12541238D01*
X6830190Y-12041238D02*
X6830190Y-12326952D01*
X6830190Y-12184095D02*
X6330190Y-12184095D01*
X6401619Y-12231714D01*
X6449238Y-12279333D01*
X6473047Y-12326952D01*
D10*
%TO.C,R80*%
X5643714Y-30703180D02*
X6262761Y-30703180D01*
X5929428Y-31084133D01*
X6072285Y-31084133D01*
X6167523Y-31131752D01*
X6215142Y-31179371D01*
X6262761Y-31274609D01*
X6262761Y-31512704D01*
X6215142Y-31607942D01*
X6167523Y-31655561D01*
X6072285Y-31703180D01*
X5786571Y-31703180D01*
X5691333Y-31655561D01*
X5643714Y-31607942D01*
X6881809Y-30703180D02*
X6977047Y-30703180D01*
X7072285Y-30750800D01*
X7119904Y-30798419D01*
X7167523Y-30893657D01*
X7215142Y-31084133D01*
X7215142Y-31322228D01*
X7167523Y-31512704D01*
X7119904Y-31607942D01*
X7072285Y-31655561D01*
X6977047Y-31703180D01*
X6881809Y-31703180D01*
X6786571Y-31655561D01*
X6738952Y-31607942D01*
X6691333Y-31512704D01*
X6643714Y-31322228D01*
X6643714Y-31084133D01*
X6691333Y-30893657D01*
X6738952Y-30798419D01*
X6786571Y-30750800D01*
X6881809Y-30703180D01*
X7643714Y-31703180D02*
X7643714Y-30703180D01*
X7738952Y-31322228D02*
X8024666Y-31703180D01*
X8024666Y-31036514D02*
X7643714Y-31417466D01*
D11*
X6343714Y-33432704D02*
X6077047Y-33051752D01*
X5886571Y-33432704D02*
X5886571Y-32632704D01*
X6191333Y-32632704D01*
X6267523Y-32670800D01*
X6305619Y-32708895D01*
X6343714Y-32785085D01*
X6343714Y-32899371D01*
X6305619Y-32975561D01*
X6267523Y-33013657D01*
X6191333Y-33051752D01*
X5886571Y-33051752D01*
X6800857Y-32975561D02*
X6724666Y-32937466D01*
X6686571Y-32899371D01*
X6648476Y-32823180D01*
X6648476Y-32785085D01*
X6686571Y-32708895D01*
X6724666Y-32670800D01*
X6800857Y-32632704D01*
X6953238Y-32632704D01*
X7029428Y-32670800D01*
X7067523Y-32708895D01*
X7105619Y-32785085D01*
X7105619Y-32823180D01*
X7067523Y-32899371D01*
X7029428Y-32937466D01*
X6953238Y-32975561D01*
X6800857Y-32975561D01*
X6724666Y-33013657D01*
X6686571Y-33051752D01*
X6648476Y-33127942D01*
X6648476Y-33280323D01*
X6686571Y-33356514D01*
X6724666Y-33394609D01*
X6800857Y-33432704D01*
X6953238Y-33432704D01*
X7029428Y-33394609D01*
X7067523Y-33356514D01*
X7105619Y-33280323D01*
X7105619Y-33127942D01*
X7067523Y-33051752D01*
X7029428Y-33013657D01*
X6953238Y-32975561D01*
X7600857Y-32632704D02*
X7677047Y-32632704D01*
X7753238Y-32670800D01*
X7791333Y-32708895D01*
X7829428Y-32785085D01*
X7867523Y-32937466D01*
X7867523Y-33127942D01*
X7829428Y-33280323D01*
X7791333Y-33356514D01*
X7753238Y-33394609D01*
X7677047Y-33432704D01*
X7600857Y-33432704D01*
X7524666Y-33394609D01*
X7486571Y-33356514D01*
X7448476Y-33280323D01*
X7410380Y-33127942D01*
X7410380Y-32937466D01*
X7448476Y-32785085D01*
X7486571Y-32708895D01*
X7524666Y-32670800D01*
X7600857Y-32632704D01*
D10*
%TO.C,R90*%
X1426380Y-8697238D02*
X1426380Y-9268666D01*
X1426380Y-8982952D02*
X426380Y-8982952D01*
X569238Y-9078190D01*
X664476Y-9173428D01*
X712095Y-9268666D01*
X426380Y-8078190D02*
X426380Y-7982952D01*
X474000Y-7887714D01*
X521619Y-7840095D01*
X616857Y-7792476D01*
X807333Y-7744857D01*
X1045428Y-7744857D01*
X1235904Y-7792476D01*
X1331142Y-7840095D01*
X1378761Y-7887714D01*
X1426380Y-7982952D01*
X1426380Y-8078190D01*
X1378761Y-8173428D01*
X1331142Y-8221047D01*
X1235904Y-8268666D01*
X1045428Y-8316285D01*
X807333Y-8316285D01*
X616857Y-8268666D01*
X521619Y-8221047D01*
X474000Y-8173428D01*
X426380Y-8078190D01*
X1426380Y-7316285D02*
X426380Y-7316285D01*
X1045428Y-7221047D02*
X1426380Y-6935333D01*
X759714Y-6935333D02*
X1140666Y-7316285D01*
D11*
X3155904Y-8616285D02*
X2774952Y-8882952D01*
X3155904Y-9073428D02*
X2355904Y-9073428D01*
X2355904Y-8768666D01*
X2394000Y-8692476D01*
X2432095Y-8654380D01*
X2508285Y-8616285D01*
X2622571Y-8616285D01*
X2698761Y-8654380D01*
X2736857Y-8692476D01*
X2774952Y-8768666D01*
X2774952Y-9073428D01*
X3155904Y-8235333D02*
X3155904Y-8082952D01*
X3117809Y-8006761D01*
X3079714Y-7968666D01*
X2965428Y-7892476D01*
X2813047Y-7854380D01*
X2508285Y-7854380D01*
X2432095Y-7892476D01*
X2394000Y-7930571D01*
X2355904Y-8006761D01*
X2355904Y-8159142D01*
X2394000Y-8235333D01*
X2432095Y-8273428D01*
X2508285Y-8311523D01*
X2698761Y-8311523D01*
X2774952Y-8273428D01*
X2813047Y-8235333D01*
X2851142Y-8159142D01*
X2851142Y-8006761D01*
X2813047Y-7930571D01*
X2774952Y-7892476D01*
X2698761Y-7854380D01*
X2355904Y-7359142D02*
X2355904Y-7282952D01*
X2394000Y-7206761D01*
X2432095Y-7168666D01*
X2508285Y-7130571D01*
X2660666Y-7092476D01*
X2851142Y-7092476D01*
X3003523Y-7130571D01*
X3079714Y-7168666D01*
X3117809Y-7206761D01*
X3155904Y-7282952D01*
X3155904Y-7359142D01*
X3117809Y-7435333D01*
X3079714Y-7473428D01*
X3003523Y-7511523D01*
X2851142Y-7549619D01*
X2660666Y-7549619D01*
X2508285Y-7511523D01*
X2432095Y-7473428D01*
X2394000Y-7435333D01*
X2355904Y-7359142D01*
D10*
%TO.C,Q9*%
X38068571Y-23955142D02*
X38116190Y-23812285D01*
X38163809Y-23764666D01*
X38259047Y-23717047D01*
X38401904Y-23717047D01*
X38497142Y-23764666D01*
X38544761Y-23812285D01*
X38592380Y-23907523D01*
X38592380Y-24288476D01*
X37592380Y-24288476D01*
X37592380Y-23955142D01*
X37640000Y-23859904D01*
X37687619Y-23812285D01*
X37782857Y-23764666D01*
X37878095Y-23764666D01*
X37973333Y-23812285D01*
X38020952Y-23859904D01*
X38068571Y-23955142D01*
X38068571Y-24288476D01*
X38497142Y-22717047D02*
X38544761Y-22764666D01*
X38592380Y-22907523D01*
X38592380Y-23002761D01*
X38544761Y-23145619D01*
X38449523Y-23240857D01*
X38354285Y-23288476D01*
X38163809Y-23336095D01*
X38020952Y-23336095D01*
X37830476Y-23288476D01*
X37735238Y-23240857D01*
X37640000Y-23145619D01*
X37592380Y-23002761D01*
X37592380Y-22907523D01*
X37640000Y-22764666D01*
X37687619Y-22717047D01*
X38020952Y-22145619D02*
X37973333Y-22240857D01*
X37925714Y-22288476D01*
X37830476Y-22336095D01*
X37782857Y-22336095D01*
X37687619Y-22288476D01*
X37640000Y-22240857D01*
X37592380Y-22145619D01*
X37592380Y-21955142D01*
X37640000Y-21859904D01*
X37687619Y-21812285D01*
X37782857Y-21764666D01*
X37830476Y-21764666D01*
X37925714Y-21812285D01*
X37973333Y-21859904D01*
X38020952Y-21955142D01*
X38020952Y-22145619D01*
X38068571Y-22240857D01*
X38116190Y-22288476D01*
X38211428Y-22336095D01*
X38401904Y-22336095D01*
X38497142Y-22288476D01*
X38544761Y-22240857D01*
X38592380Y-22145619D01*
X38592380Y-21955142D01*
X38544761Y-21859904D01*
X38497142Y-21812285D01*
X38401904Y-21764666D01*
X38211428Y-21764666D01*
X38116190Y-21812285D01*
X38068571Y-21859904D01*
X38020952Y-21955142D01*
X37925714Y-20907523D02*
X38592380Y-20907523D01*
X37544761Y-21145619D02*
X38259047Y-21383714D01*
X38259047Y-20764666D01*
X37592380Y-20478952D02*
X37592380Y-19812285D01*
X38592380Y-20240857D01*
D12*
X40592380Y-22371809D02*
X40544761Y-22348000D01*
X40497142Y-22300380D01*
X40425714Y-22228952D01*
X40378095Y-22205142D01*
X40330476Y-22205142D01*
X40354285Y-22324190D02*
X40306666Y-22300380D01*
X40259047Y-22252761D01*
X40235238Y-22157523D01*
X40235238Y-21990857D01*
X40259047Y-21895619D01*
X40306666Y-21848000D01*
X40354285Y-21824190D01*
X40449523Y-21824190D01*
X40497142Y-21848000D01*
X40544761Y-21895619D01*
X40568571Y-21990857D01*
X40568571Y-22157523D01*
X40544761Y-22252761D01*
X40497142Y-22300380D01*
X40449523Y-22324190D01*
X40354285Y-22324190D01*
X40806666Y-22324190D02*
X40901904Y-22324190D01*
X40949523Y-22300380D01*
X40973333Y-22276571D01*
X41020952Y-22205142D01*
X41044761Y-22109904D01*
X41044761Y-21919428D01*
X41020952Y-21871809D01*
X40997142Y-21848000D01*
X40949523Y-21824190D01*
X40854285Y-21824190D01*
X40806666Y-21848000D01*
X40782857Y-21871809D01*
X40759047Y-21919428D01*
X40759047Y-22038476D01*
X40782857Y-22086095D01*
X40806666Y-22109904D01*
X40854285Y-22133714D01*
X40949523Y-22133714D01*
X40997142Y-22109904D01*
X41020952Y-22086095D01*
X41044761Y-22038476D01*
D10*
%TO.C,R19*%
X34208380Y-9342285D02*
X34208380Y-8723238D01*
X34589333Y-9056571D01*
X34589333Y-8913714D01*
X34636952Y-8818476D01*
X34684571Y-8770857D01*
X34779809Y-8723238D01*
X35017904Y-8723238D01*
X35113142Y-8770857D01*
X35160761Y-8818476D01*
X35208380Y-8913714D01*
X35208380Y-9199428D01*
X35160761Y-9294666D01*
X35113142Y-9342285D01*
X35208380Y-8294666D02*
X34208380Y-8294666D01*
X34827428Y-8199428D02*
X35208380Y-7913714D01*
X34541714Y-7913714D02*
X34922666Y-8294666D01*
X35208380Y-7437523D02*
X35208380Y-7247047D01*
X35160761Y-7151809D01*
X35113142Y-7104190D01*
X34970285Y-7008952D01*
X34779809Y-6961333D01*
X34398857Y-6961333D01*
X34303619Y-7008952D01*
X34256000Y-7056571D01*
X34208380Y-7151809D01*
X34208380Y-7342285D01*
X34256000Y-7437523D01*
X34303619Y-7485142D01*
X34398857Y-7532761D01*
X34636952Y-7532761D01*
X34732190Y-7485142D01*
X34779809Y-7437523D01*
X34827428Y-7342285D01*
X34827428Y-7151809D01*
X34779809Y-7056571D01*
X34732190Y-7008952D01*
X34636952Y-6961333D01*
D11*
X36937904Y-8642285D02*
X36556952Y-8908952D01*
X36937904Y-9099428D02*
X36137904Y-9099428D01*
X36137904Y-8794666D01*
X36176000Y-8718476D01*
X36214095Y-8680380D01*
X36290285Y-8642285D01*
X36404571Y-8642285D01*
X36480761Y-8680380D01*
X36518857Y-8718476D01*
X36556952Y-8794666D01*
X36556952Y-9099428D01*
X36937904Y-7880380D02*
X36937904Y-8337523D01*
X36937904Y-8108952D02*
X36137904Y-8108952D01*
X36252190Y-8185142D01*
X36328380Y-8261333D01*
X36366476Y-8337523D01*
X36937904Y-7499428D02*
X36937904Y-7347047D01*
X36899809Y-7270857D01*
X36861714Y-7232761D01*
X36747428Y-7156571D01*
X36595047Y-7118476D01*
X36290285Y-7118476D01*
X36214095Y-7156571D01*
X36176000Y-7194666D01*
X36137904Y-7270857D01*
X36137904Y-7423238D01*
X36176000Y-7499428D01*
X36214095Y-7537523D01*
X36290285Y-7575619D01*
X36480761Y-7575619D01*
X36556952Y-7537523D01*
X36595047Y-7499428D01*
X36633142Y-7423238D01*
X36633142Y-7270857D01*
X36595047Y-7194666D01*
X36556952Y-7156571D01*
X36480761Y-7118476D01*
D10*
%TO.C,R20*%
X33684380Y-28281238D02*
X33684380Y-28852666D01*
X33684380Y-28566952D02*
X32684380Y-28566952D01*
X32827238Y-28662190D01*
X32922476Y-28757428D01*
X32970095Y-28852666D01*
X33684380Y-27852666D02*
X32684380Y-27852666D01*
X33303428Y-27757428D02*
X33684380Y-27471714D01*
X33017714Y-27471714D02*
X33398666Y-27852666D01*
X32779619Y-27090761D02*
X32732000Y-27043142D01*
X32684380Y-26947904D01*
X32684380Y-26709809D01*
X32732000Y-26614571D01*
X32779619Y-26566952D01*
X32874857Y-26519333D01*
X32970095Y-26519333D01*
X33112952Y-26566952D01*
X33684380Y-27138380D01*
X33684380Y-26519333D01*
D11*
X35413904Y-28200285D02*
X35032952Y-28466952D01*
X35413904Y-28657428D02*
X34613904Y-28657428D01*
X34613904Y-28352666D01*
X34652000Y-28276476D01*
X34690095Y-28238380D01*
X34766285Y-28200285D01*
X34880571Y-28200285D01*
X34956761Y-28238380D01*
X34994857Y-28276476D01*
X35032952Y-28352666D01*
X35032952Y-28657428D01*
X34690095Y-27895523D02*
X34652000Y-27857428D01*
X34613904Y-27781238D01*
X34613904Y-27590761D01*
X34652000Y-27514571D01*
X34690095Y-27476476D01*
X34766285Y-27438380D01*
X34842476Y-27438380D01*
X34956761Y-27476476D01*
X35413904Y-27933619D01*
X35413904Y-27438380D01*
X34613904Y-26943142D02*
X34613904Y-26866952D01*
X34652000Y-26790761D01*
X34690095Y-26752666D01*
X34766285Y-26714571D01*
X34918666Y-26676476D01*
X35109142Y-26676476D01*
X35261523Y-26714571D01*
X35337714Y-26752666D01*
X35375809Y-26790761D01*
X35413904Y-26866952D01*
X35413904Y-26943142D01*
X35375809Y-27019333D01*
X35337714Y-27057428D01*
X35261523Y-27095523D01*
X35109142Y-27133619D01*
X34918666Y-27133619D01*
X34766285Y-27095523D01*
X34690095Y-27057428D01*
X34652000Y-27019333D01*
X34613904Y-26943142D01*
D10*
%TO.C,R11*%
X42066380Y-28281238D02*
X42066380Y-28852666D01*
X42066380Y-28566952D02*
X41066380Y-28566952D01*
X41209238Y-28662190D01*
X41304476Y-28757428D01*
X41352095Y-28852666D01*
X42066380Y-27852666D02*
X41066380Y-27852666D01*
X41685428Y-27757428D02*
X42066380Y-27471714D01*
X41399714Y-27471714D02*
X41780666Y-27852666D01*
X41161619Y-27090761D02*
X41114000Y-27043142D01*
X41066380Y-26947904D01*
X41066380Y-26709809D01*
X41114000Y-26614571D01*
X41161619Y-26566952D01*
X41256857Y-26519333D01*
X41352095Y-26519333D01*
X41494952Y-26566952D01*
X42066380Y-27138380D01*
X42066380Y-26519333D01*
D11*
X43795904Y-28200285D02*
X43414952Y-28466952D01*
X43795904Y-28657428D02*
X42995904Y-28657428D01*
X42995904Y-28352666D01*
X43034000Y-28276476D01*
X43072095Y-28238380D01*
X43148285Y-28200285D01*
X43262571Y-28200285D01*
X43338761Y-28238380D01*
X43376857Y-28276476D01*
X43414952Y-28352666D01*
X43414952Y-28657428D01*
X43795904Y-27438380D02*
X43795904Y-27895523D01*
X43795904Y-27666952D02*
X42995904Y-27666952D01*
X43110190Y-27743142D01*
X43186380Y-27819333D01*
X43224476Y-27895523D01*
X43795904Y-26676476D02*
X43795904Y-27133619D01*
X43795904Y-26905047D02*
X42995904Y-26905047D01*
X43110190Y-26981238D01*
X43186380Y-27057428D01*
X43224476Y-27133619D01*
D10*
%TO.C,R77*%
X5643714Y-22132380D02*
X6262761Y-22132380D01*
X5929428Y-22513333D01*
X6072285Y-22513333D01*
X6167523Y-22560952D01*
X6215142Y-22608571D01*
X6262761Y-22703809D01*
X6262761Y-22941904D01*
X6215142Y-23037142D01*
X6167523Y-23084761D01*
X6072285Y-23132380D01*
X5786571Y-23132380D01*
X5691333Y-23084761D01*
X5643714Y-23037142D01*
X6881809Y-22132380D02*
X6977047Y-22132380D01*
X7072285Y-22180000D01*
X7119904Y-22227619D01*
X7167523Y-22322857D01*
X7215142Y-22513333D01*
X7215142Y-22751428D01*
X7167523Y-22941904D01*
X7119904Y-23037142D01*
X7072285Y-23084761D01*
X6977047Y-23132380D01*
X6881809Y-23132380D01*
X6786571Y-23084761D01*
X6738952Y-23037142D01*
X6691333Y-22941904D01*
X6643714Y-22751428D01*
X6643714Y-22513333D01*
X6691333Y-22322857D01*
X6738952Y-22227619D01*
X6786571Y-22180000D01*
X6881809Y-22132380D01*
X7643714Y-23132380D02*
X7643714Y-22132380D01*
X7738952Y-22751428D02*
X8024666Y-23132380D01*
X8024666Y-22465714D02*
X7643714Y-22846666D01*
D11*
X6343714Y-24861904D02*
X6077047Y-24480952D01*
X5886571Y-24861904D02*
X5886571Y-24061904D01*
X6191333Y-24061904D01*
X6267523Y-24100000D01*
X6305619Y-24138095D01*
X6343714Y-24214285D01*
X6343714Y-24328571D01*
X6305619Y-24404761D01*
X6267523Y-24442857D01*
X6191333Y-24480952D01*
X5886571Y-24480952D01*
X6610380Y-24061904D02*
X7143714Y-24061904D01*
X6800857Y-24861904D01*
X7372285Y-24061904D02*
X7905619Y-24061904D01*
X7562761Y-24861904D01*
D10*
%TO.C,R78*%
X6262761Y-16666380D02*
X5691333Y-16666380D01*
X5977047Y-16666380D02*
X5977047Y-15666380D01*
X5881809Y-15809238D01*
X5786571Y-15904476D01*
X5691333Y-15952095D01*
X6881809Y-15666380D02*
X6977047Y-15666380D01*
X7072285Y-15714000D01*
X7119904Y-15761619D01*
X7167523Y-15856857D01*
X7215142Y-16047333D01*
X7215142Y-16285428D01*
X7167523Y-16475904D01*
X7119904Y-16571142D01*
X7072285Y-16618761D01*
X6977047Y-16666380D01*
X6881809Y-16666380D01*
X6786571Y-16618761D01*
X6738952Y-16571142D01*
X6691333Y-16475904D01*
X6643714Y-16285428D01*
X6643714Y-16047333D01*
X6691333Y-15856857D01*
X6738952Y-15761619D01*
X6786571Y-15714000D01*
X6881809Y-15666380D01*
X7643714Y-16666380D02*
X7643714Y-15666380D01*
X7738952Y-16285428D02*
X8024666Y-16666380D01*
X8024666Y-15999714D02*
X7643714Y-16380666D01*
D11*
X6343714Y-18395904D02*
X6077047Y-18014952D01*
X5886571Y-18395904D02*
X5886571Y-17595904D01*
X6191333Y-17595904D01*
X6267523Y-17634000D01*
X6305619Y-17672095D01*
X6343714Y-17748285D01*
X6343714Y-17862571D01*
X6305619Y-17938761D01*
X6267523Y-17976857D01*
X6191333Y-18014952D01*
X5886571Y-18014952D01*
X6610380Y-17595904D02*
X7143714Y-17595904D01*
X6800857Y-18395904D01*
X7562761Y-17938761D02*
X7486571Y-17900666D01*
X7448476Y-17862571D01*
X7410380Y-17786380D01*
X7410380Y-17748285D01*
X7448476Y-17672095D01*
X7486571Y-17634000D01*
X7562761Y-17595904D01*
X7715142Y-17595904D01*
X7791333Y-17634000D01*
X7829428Y-17672095D01*
X7867523Y-17748285D01*
X7867523Y-17786380D01*
X7829428Y-17862571D01*
X7791333Y-17900666D01*
X7715142Y-17938761D01*
X7562761Y-17938761D01*
X7486571Y-17976857D01*
X7448476Y-18014952D01*
X7410380Y-18091142D01*
X7410380Y-18243523D01*
X7448476Y-18319714D01*
X7486571Y-18357809D01*
X7562761Y-18395904D01*
X7715142Y-18395904D01*
X7791333Y-18357809D01*
X7829428Y-18319714D01*
X7867523Y-18243523D01*
X7867523Y-18091142D01*
X7829428Y-18014952D01*
X7791333Y-17976857D01*
X7715142Y-17938761D01*
D10*
%TO.C,R88*%
X920380Y-47058333D02*
X920380Y-47629761D01*
X920380Y-47344047D02*
X-79619Y-47344047D01*
X63238Y-47439285D01*
X158476Y-47534523D01*
X206095Y-47629761D01*
X825142Y-46629761D02*
X872761Y-46582142D01*
X920380Y-46629761D01*
X872761Y-46677380D01*
X825142Y-46629761D01*
X920380Y-46629761D01*
X15619Y-46201190D02*
X-32000Y-46153571D01*
X-79619Y-46058333D01*
X-79619Y-45820238D01*
X-31999Y-45725000D01*
X15619Y-45677380D01*
X110857Y-45629761D01*
X206095Y-45629761D01*
X348952Y-45677380D01*
X920380Y-46248809D01*
X920380Y-45629761D01*
X920380Y-45201190D02*
X-79619Y-45201190D01*
X539428Y-45105952D02*
X920380Y-44820238D01*
X253714Y-44820238D02*
X634666Y-45201190D01*
X5322380Y-46867857D02*
X4846190Y-47201190D01*
X5322380Y-47439285D02*
X4322380Y-47439285D01*
X4322380Y-47058333D01*
X4370000Y-46963095D01*
X4417619Y-46915476D01*
X4512857Y-46867857D01*
X4655714Y-46867857D01*
X4750952Y-46915476D01*
X4798571Y-46963095D01*
X4846190Y-47058333D01*
X4846190Y-47439285D01*
X4750952Y-46296428D02*
X4703333Y-46391666D01*
X4655714Y-46439285D01*
X4560476Y-46486904D01*
X4512857Y-46486904D01*
X4417619Y-46439285D01*
X4370000Y-46391666D01*
X4322380Y-46296428D01*
X4322380Y-46105952D01*
X4370000Y-46010714D01*
X4417619Y-45963095D01*
X4512857Y-45915476D01*
X4560476Y-45915476D01*
X4655714Y-45963095D01*
X4703333Y-46010714D01*
X4750952Y-46105952D01*
X4750952Y-46296428D01*
X4798571Y-46391666D01*
X4846190Y-46439285D01*
X4941428Y-46486904D01*
X5131904Y-46486904D01*
X5227142Y-46439285D01*
X5274761Y-46391666D01*
X5322380Y-46296428D01*
X5322380Y-46105952D01*
X5274761Y-46010714D01*
X5227142Y-45963095D01*
X5131904Y-45915476D01*
X4941428Y-45915476D01*
X4846190Y-45963095D01*
X4798571Y-46010714D01*
X4750952Y-46105952D01*
X4750952Y-45344047D02*
X4703333Y-45439285D01*
X4655714Y-45486904D01*
X4560476Y-45534523D01*
X4512857Y-45534523D01*
X4417619Y-45486904D01*
X4370000Y-45439285D01*
X4322380Y-45344047D01*
X4322380Y-45153571D01*
X4370000Y-45058333D01*
X4417619Y-45010714D01*
X4512857Y-44963095D01*
X4560476Y-44963095D01*
X4655714Y-45010714D01*
X4703333Y-45058333D01*
X4750952Y-45153571D01*
X4750952Y-45344047D01*
X4798571Y-45439285D01*
X4846190Y-45486904D01*
X4941428Y-45534523D01*
X5131904Y-45534523D01*
X5227142Y-45486904D01*
X5274761Y-45439285D01*
X5322380Y-45344047D01*
X5322380Y-45153571D01*
X5274761Y-45058333D01*
X5227142Y-45010714D01*
X5131904Y-44963095D01*
X4941428Y-44963095D01*
X4846190Y-45010714D01*
X4798571Y-45058333D01*
X4750952Y-45153571D01*
%TO.C,R81*%
X6404761Y-25454780D02*
X5833333Y-25454780D01*
X6119047Y-25454780D02*
X6119047Y-24454780D01*
X6023809Y-24597638D01*
X5928571Y-24692876D01*
X5833333Y-24740495D01*
X7023809Y-24454780D02*
X7119047Y-24454780D01*
X7214285Y-24502400D01*
X7261904Y-24550019D01*
X7309523Y-24645257D01*
X7357142Y-24835733D01*
X7357142Y-25073828D01*
X7309523Y-25264304D01*
X7261904Y-25359542D01*
X7214285Y-25407161D01*
X7119047Y-25454780D01*
X7023809Y-25454780D01*
X6928571Y-25407161D01*
X6880952Y-25359542D01*
X6833333Y-25264304D01*
X6785714Y-25073828D01*
X6785714Y-24835733D01*
X6833333Y-24645257D01*
X6880952Y-24550019D01*
X6928571Y-24502400D01*
X7023809Y-24454780D01*
X7785714Y-25454780D02*
X7785714Y-24454780D01*
X7880952Y-25073828D02*
X8166666Y-25454780D01*
X8166666Y-24788114D02*
X7785714Y-25169066D01*
D11*
X6485714Y-27184304D02*
X6219047Y-26803352D01*
X6028571Y-27184304D02*
X6028571Y-26384304D01*
X6333333Y-26384304D01*
X6409523Y-26422400D01*
X6447619Y-26460495D01*
X6485714Y-26536685D01*
X6485714Y-26650971D01*
X6447619Y-26727161D01*
X6409523Y-26765257D01*
X6333333Y-26803352D01*
X6028571Y-26803352D01*
X6942857Y-26727161D02*
X6866666Y-26689066D01*
X6828571Y-26650971D01*
X6790476Y-26574780D01*
X6790476Y-26536685D01*
X6828571Y-26460495D01*
X6866666Y-26422400D01*
X6942857Y-26384304D01*
X7095238Y-26384304D01*
X7171428Y-26422400D01*
X7209523Y-26460495D01*
X7247619Y-26536685D01*
X7247619Y-26574780D01*
X7209523Y-26650971D01*
X7171428Y-26689066D01*
X7095238Y-26727161D01*
X6942857Y-26727161D01*
X6866666Y-26765257D01*
X6828571Y-26803352D01*
X6790476Y-26879542D01*
X6790476Y-27031923D01*
X6828571Y-27108114D01*
X6866666Y-27146209D01*
X6942857Y-27184304D01*
X7095238Y-27184304D01*
X7171428Y-27146209D01*
X7209523Y-27108114D01*
X7247619Y-27031923D01*
X7247619Y-26879542D01*
X7209523Y-26803352D01*
X7171428Y-26765257D01*
X7095238Y-26727161D01*
X8009523Y-27184304D02*
X7552380Y-27184304D01*
X7780952Y-27184304D02*
X7780952Y-26384304D01*
X7704761Y-26498590D01*
X7628571Y-26574780D01*
X7552380Y-26612876D01*
D10*
%TO.C,R2*%
X50956380Y-28281238D02*
X50956380Y-28852666D01*
X50956380Y-28566952D02*
X49956380Y-28566952D01*
X50099238Y-28662190D01*
X50194476Y-28757428D01*
X50242095Y-28852666D01*
X50956380Y-27852666D02*
X49956380Y-27852666D01*
X50575428Y-27757428D02*
X50956380Y-27471714D01*
X50289714Y-27471714D02*
X50670666Y-27852666D01*
X50051619Y-27090761D02*
X50004000Y-27043142D01*
X49956380Y-26947904D01*
X49956380Y-26709809D01*
X50004000Y-26614571D01*
X50051619Y-26566952D01*
X50146857Y-26519333D01*
X50242095Y-26519333D01*
X50384952Y-26566952D01*
X50956380Y-27138380D01*
X50956380Y-26519333D01*
D11*
X52685904Y-27819333D02*
X52304952Y-28086000D01*
X52685904Y-28276476D02*
X51885904Y-28276476D01*
X51885904Y-27971714D01*
X51924000Y-27895523D01*
X51962095Y-27857428D01*
X52038285Y-27819333D01*
X52152571Y-27819333D01*
X52228761Y-27857428D01*
X52266857Y-27895523D01*
X52304952Y-27971714D01*
X52304952Y-28276476D01*
X51962095Y-27514571D02*
X51924000Y-27476476D01*
X51885904Y-27400285D01*
X51885904Y-27209809D01*
X51924000Y-27133619D01*
X51962095Y-27095523D01*
X52038285Y-27057428D01*
X52114476Y-27057428D01*
X52228761Y-27095523D01*
X52685904Y-27552666D01*
X52685904Y-27057428D01*
D10*
%TO.C,R76*%
X1172380Y-15633333D02*
X1172380Y-16204761D01*
X1172380Y-15919047D02*
X172380Y-15919047D01*
X315238Y-16014285D01*
X410476Y-16109523D01*
X458095Y-16204761D01*
X1077142Y-15204761D02*
X1124761Y-15157142D01*
X1172380Y-15204761D01*
X1124761Y-15252380D01*
X1077142Y-15204761D01*
X1172380Y-15204761D01*
X267619Y-14776190D02*
X220000Y-14728571D01*
X172380Y-14633333D01*
X172380Y-14395238D01*
X220000Y-14300000D01*
X267619Y-14252380D01*
X362857Y-14204761D01*
X458095Y-14204761D01*
X600952Y-14252380D01*
X1172380Y-14823809D01*
X1172380Y-14204761D01*
X1172380Y-13776190D02*
X172380Y-13776190D01*
X791428Y-13680952D02*
X1172380Y-13395238D01*
X505714Y-13395238D02*
X886666Y-13776190D01*
D11*
X2901904Y-15314285D02*
X2520952Y-15580952D01*
X2901904Y-15771428D02*
X2101904Y-15771428D01*
X2101904Y-15466666D01*
X2140000Y-15390476D01*
X2178095Y-15352380D01*
X2254285Y-15314285D01*
X2368571Y-15314285D01*
X2444761Y-15352380D01*
X2482857Y-15390476D01*
X2520952Y-15466666D01*
X2520952Y-15771428D01*
X2101904Y-15047619D02*
X2101904Y-14514285D01*
X2901904Y-14857142D01*
X2101904Y-13866666D02*
X2101904Y-14019047D01*
X2140000Y-14095238D01*
X2178095Y-14133333D01*
X2292380Y-14209523D01*
X2444761Y-14247619D01*
X2749523Y-14247619D01*
X2825714Y-14209523D01*
X2863809Y-14171428D01*
X2901904Y-14095238D01*
X2901904Y-13942857D01*
X2863809Y-13866666D01*
X2825714Y-13828571D01*
X2749523Y-13790476D01*
X2559047Y-13790476D01*
X2482857Y-13828571D01*
X2444761Y-13866666D01*
X2406666Y-13942857D01*
X2406666Y-14095238D01*
X2444761Y-14171428D01*
X2482857Y-14209523D01*
X2559047Y-14247619D01*
D10*
%TO.C,Q1*%
X49752571Y-24401142D02*
X49800190Y-24258285D01*
X49847809Y-24210666D01*
X49943047Y-24163047D01*
X50085904Y-24163047D01*
X50181142Y-24210666D01*
X50228761Y-24258285D01*
X50276380Y-24353523D01*
X50276380Y-24734476D01*
X49276380Y-24734476D01*
X49276380Y-24401142D01*
X49324000Y-24305904D01*
X49371619Y-24258285D01*
X49466857Y-24210666D01*
X49562095Y-24210666D01*
X49657333Y-24258285D01*
X49704952Y-24305904D01*
X49752571Y-24401142D01*
X49752571Y-24734476D01*
X50181142Y-23163047D02*
X50228761Y-23210666D01*
X50276380Y-23353523D01*
X50276380Y-23448761D01*
X50228761Y-23591619D01*
X50133523Y-23686857D01*
X50038285Y-23734476D01*
X49847809Y-23782095D01*
X49704952Y-23782095D01*
X49514476Y-23734476D01*
X49419238Y-23686857D01*
X49324000Y-23591619D01*
X49276380Y-23448761D01*
X49276380Y-23353523D01*
X49324000Y-23210666D01*
X49371619Y-23163047D01*
X49704952Y-22591619D02*
X49657333Y-22686857D01*
X49609714Y-22734476D01*
X49514476Y-22782095D01*
X49466857Y-22782095D01*
X49371619Y-22734476D01*
X49324000Y-22686857D01*
X49276380Y-22591619D01*
X49276380Y-22401142D01*
X49324000Y-22305904D01*
X49371619Y-22258285D01*
X49466857Y-22210666D01*
X49514476Y-22210666D01*
X49609714Y-22258285D01*
X49657333Y-22305904D01*
X49704952Y-22401142D01*
X49704952Y-22591619D01*
X49752571Y-22686857D01*
X49800190Y-22734476D01*
X49895428Y-22782095D01*
X50085904Y-22782095D01*
X50181142Y-22734476D01*
X50228761Y-22686857D01*
X50276380Y-22591619D01*
X50276380Y-22401142D01*
X50228761Y-22305904D01*
X50181142Y-22258285D01*
X50085904Y-22210666D01*
X49895428Y-22210666D01*
X49800190Y-22258285D01*
X49752571Y-22305904D01*
X49704952Y-22401142D01*
X49609714Y-21353523D02*
X50276380Y-21353523D01*
X49228761Y-21591619D02*
X49943047Y-21829714D01*
X49943047Y-21210666D01*
X49276380Y-20924952D02*
X49276380Y-20258285D01*
X50276380Y-20686857D01*
D12*
X52276380Y-22817809D02*
X52228761Y-22794000D01*
X52181142Y-22746380D01*
X52109714Y-22674952D01*
X52062095Y-22651142D01*
X52014476Y-22651142D01*
X52038285Y-22770190D02*
X51990666Y-22746380D01*
X51943047Y-22698761D01*
X51919238Y-22603523D01*
X51919238Y-22436857D01*
X51943047Y-22341619D01*
X51990666Y-22294000D01*
X52038285Y-22270190D01*
X52133523Y-22270190D01*
X52181142Y-22294000D01*
X52228761Y-22341619D01*
X52252571Y-22436857D01*
X52252571Y-22603523D01*
X52228761Y-22698761D01*
X52181142Y-22746380D01*
X52133523Y-22770190D01*
X52038285Y-22770190D01*
X52728761Y-22770190D02*
X52443047Y-22770190D01*
X52585904Y-22770190D02*
X52585904Y-22270190D01*
X52538285Y-22341619D01*
X52490666Y-22389238D01*
X52443047Y-22413047D01*
D10*
%TO.C,Q15*%
X30448571Y-17605142D02*
X30496190Y-17462285D01*
X30543809Y-17414666D01*
X30639047Y-17367047D01*
X30781904Y-17367047D01*
X30877142Y-17414666D01*
X30924761Y-17462285D01*
X30972380Y-17557523D01*
X30972380Y-17938476D01*
X29972380Y-17938476D01*
X29972380Y-17605142D01*
X30020000Y-17509904D01*
X30067619Y-17462285D01*
X30162857Y-17414666D01*
X30258095Y-17414666D01*
X30353333Y-17462285D01*
X30400952Y-17509904D01*
X30448571Y-17605142D01*
X30448571Y-17938476D01*
X30877142Y-16367047D02*
X30924761Y-16414666D01*
X30972380Y-16557523D01*
X30972380Y-16652761D01*
X30924761Y-16795619D01*
X30829523Y-16890857D01*
X30734285Y-16938476D01*
X30543809Y-16986095D01*
X30400952Y-16986095D01*
X30210476Y-16938476D01*
X30115238Y-16890857D01*
X30020000Y-16795619D01*
X29972380Y-16652761D01*
X29972380Y-16557523D01*
X30020000Y-16414666D01*
X30067619Y-16367047D01*
X30400952Y-15795619D02*
X30353333Y-15890857D01*
X30305714Y-15938476D01*
X30210476Y-15986095D01*
X30162857Y-15986095D01*
X30067619Y-15938476D01*
X30020000Y-15890857D01*
X29972380Y-15795619D01*
X29972380Y-15605142D01*
X30020000Y-15509904D01*
X30067619Y-15462285D01*
X30162857Y-15414666D01*
X30210476Y-15414666D01*
X30305714Y-15462285D01*
X30353333Y-15509904D01*
X30400952Y-15605142D01*
X30400952Y-15795619D01*
X30448571Y-15890857D01*
X30496190Y-15938476D01*
X30591428Y-15986095D01*
X30781904Y-15986095D01*
X30877142Y-15938476D01*
X30924761Y-15890857D01*
X30972380Y-15795619D01*
X30972380Y-15605142D01*
X30924761Y-15509904D01*
X30877142Y-15462285D01*
X30781904Y-15414666D01*
X30591428Y-15414666D01*
X30496190Y-15462285D01*
X30448571Y-15509904D01*
X30400952Y-15605142D01*
X30305714Y-14557523D02*
X30972380Y-14557523D01*
X29924761Y-14795619D02*
X30639047Y-15033714D01*
X30639047Y-14414666D01*
X29972380Y-14128952D02*
X29972380Y-13462285D01*
X30972380Y-13890857D01*
D12*
X32734285Y-16021809D02*
X32686666Y-15998000D01*
X32639047Y-15950380D01*
X32567619Y-15878952D01*
X32520000Y-15855142D01*
X32472380Y-15855142D01*
X32496190Y-15974190D02*
X32448571Y-15950380D01*
X32400952Y-15902761D01*
X32377142Y-15807523D01*
X32377142Y-15640857D01*
X32400952Y-15545619D01*
X32448571Y-15498000D01*
X32496190Y-15474190D01*
X32591428Y-15474190D01*
X32639047Y-15498000D01*
X32686666Y-15545619D01*
X32710476Y-15640857D01*
X32710476Y-15807523D01*
X32686666Y-15902761D01*
X32639047Y-15950380D01*
X32591428Y-15974190D01*
X32496190Y-15974190D01*
X33186666Y-15974190D02*
X32900952Y-15974190D01*
X33043809Y-15974190D02*
X33043809Y-15474190D01*
X32996190Y-15545619D01*
X32948571Y-15593238D01*
X32900952Y-15617047D01*
X33639047Y-15474190D02*
X33400952Y-15474190D01*
X33377142Y-15712285D01*
X33400952Y-15688476D01*
X33448571Y-15664666D01*
X33567619Y-15664666D01*
X33615238Y-15688476D01*
X33639047Y-15712285D01*
X33662857Y-15759904D01*
X33662857Y-15878952D01*
X33639047Y-15926571D01*
X33615238Y-15950380D01*
X33567619Y-15974190D01*
X33448571Y-15974190D01*
X33400952Y-15950380D01*
X33377142Y-15926571D01*
D10*
%TO.C,R84*%
X6354761Y-34132380D02*
X5783333Y-34132380D01*
X6069047Y-34132380D02*
X6069047Y-33132380D01*
X5973809Y-33275238D01*
X5878571Y-33370476D01*
X5783333Y-33418095D01*
X6973809Y-33132380D02*
X7069047Y-33132380D01*
X7164285Y-33180000D01*
X7211904Y-33227619D01*
X7259523Y-33322857D01*
X7307142Y-33513333D01*
X7307142Y-33751428D01*
X7259523Y-33941904D01*
X7211904Y-34037142D01*
X7164285Y-34084761D01*
X7069047Y-34132380D01*
X6973809Y-34132380D01*
X6878571Y-34084761D01*
X6830952Y-34037142D01*
X6783333Y-33941904D01*
X6735714Y-33751428D01*
X6735714Y-33513333D01*
X6783333Y-33322857D01*
X6830952Y-33227619D01*
X6878571Y-33180000D01*
X6973809Y-33132380D01*
X7735714Y-34132380D02*
X7735714Y-33132380D01*
X7830952Y-33751428D02*
X8116666Y-34132380D01*
X8116666Y-33465714D02*
X7735714Y-33846666D01*
D11*
X6435714Y-35861904D02*
X6169047Y-35480952D01*
X5978571Y-35861904D02*
X5978571Y-35061904D01*
X6283333Y-35061904D01*
X6359523Y-35100000D01*
X6397619Y-35138095D01*
X6435714Y-35214285D01*
X6435714Y-35328571D01*
X6397619Y-35404761D01*
X6359523Y-35442857D01*
X6283333Y-35480952D01*
X5978571Y-35480952D01*
X6892857Y-35404761D02*
X6816666Y-35366666D01*
X6778571Y-35328571D01*
X6740476Y-35252380D01*
X6740476Y-35214285D01*
X6778571Y-35138095D01*
X6816666Y-35100000D01*
X6892857Y-35061904D01*
X7045238Y-35061904D01*
X7121428Y-35100000D01*
X7159523Y-35138095D01*
X7197619Y-35214285D01*
X7197619Y-35252380D01*
X7159523Y-35328571D01*
X7121428Y-35366666D01*
X7045238Y-35404761D01*
X6892857Y-35404761D01*
X6816666Y-35442857D01*
X6778571Y-35480952D01*
X6740476Y-35557142D01*
X6740476Y-35709523D01*
X6778571Y-35785714D01*
X6816666Y-35823809D01*
X6892857Y-35861904D01*
X7045238Y-35861904D01*
X7121428Y-35823809D01*
X7159523Y-35785714D01*
X7197619Y-35709523D01*
X7197619Y-35557142D01*
X7159523Y-35480952D01*
X7121428Y-35442857D01*
X7045238Y-35404761D01*
X7883333Y-35328571D02*
X7883333Y-35861904D01*
X7692857Y-35023809D02*
X7502380Y-35595238D01*
X7997619Y-35595238D01*
D10*
%TO.C,R74*%
X5643714Y-13126380D02*
X6262761Y-13126380D01*
X5929428Y-13507333D01*
X6072285Y-13507333D01*
X6167523Y-13554952D01*
X6215142Y-13602571D01*
X6262761Y-13697809D01*
X6262761Y-13935904D01*
X6215142Y-14031142D01*
X6167523Y-14078761D01*
X6072285Y-14126380D01*
X5786571Y-14126380D01*
X5691333Y-14078761D01*
X5643714Y-14031142D01*
X6881809Y-13126380D02*
X6977047Y-13126380D01*
X7072285Y-13174000D01*
X7119904Y-13221619D01*
X7167523Y-13316857D01*
X7215142Y-13507333D01*
X7215142Y-13745428D01*
X7167523Y-13935904D01*
X7119904Y-14031142D01*
X7072285Y-14078761D01*
X6977047Y-14126380D01*
X6881809Y-14126380D01*
X6786571Y-14078761D01*
X6738952Y-14031142D01*
X6691333Y-13935904D01*
X6643714Y-13745428D01*
X6643714Y-13507333D01*
X6691333Y-13316857D01*
X6738952Y-13221619D01*
X6786571Y-13174000D01*
X6881809Y-13126380D01*
X7643714Y-14126380D02*
X7643714Y-13126380D01*
X7738952Y-13745428D02*
X8024666Y-14126380D01*
X8024666Y-13459714D02*
X7643714Y-13840666D01*
D11*
X6343714Y-15855904D02*
X6077047Y-15474952D01*
X5886571Y-15855904D02*
X5886571Y-15055904D01*
X6191333Y-15055904D01*
X6267523Y-15094000D01*
X6305619Y-15132095D01*
X6343714Y-15208285D01*
X6343714Y-15322571D01*
X6305619Y-15398761D01*
X6267523Y-15436857D01*
X6191333Y-15474952D01*
X5886571Y-15474952D01*
X6610380Y-15055904D02*
X7143714Y-15055904D01*
X6800857Y-15855904D01*
X7791333Y-15322571D02*
X7791333Y-15855904D01*
X7600857Y-15017809D02*
X7410380Y-15589238D01*
X7905619Y-15589238D01*
D10*
%TO.C,R14*%
X39526380Y-28281238D02*
X39526380Y-28852666D01*
X39526380Y-28566952D02*
X38526380Y-28566952D01*
X38669238Y-28662190D01*
X38764476Y-28757428D01*
X38812095Y-28852666D01*
X39526380Y-27852666D02*
X38526380Y-27852666D01*
X39145428Y-27757428D02*
X39526380Y-27471714D01*
X38859714Y-27471714D02*
X39240666Y-27852666D01*
X38621619Y-27090761D02*
X38574000Y-27043142D01*
X38526380Y-26947904D01*
X38526380Y-26709809D01*
X38574000Y-26614571D01*
X38621619Y-26566952D01*
X38716857Y-26519333D01*
X38812095Y-26519333D01*
X38954952Y-26566952D01*
X39526380Y-27138380D01*
X39526380Y-26519333D01*
D11*
X41255904Y-28200285D02*
X40874952Y-28466952D01*
X41255904Y-28657428D02*
X40455904Y-28657428D01*
X40455904Y-28352666D01*
X40494000Y-28276476D01*
X40532095Y-28238380D01*
X40608285Y-28200285D01*
X40722571Y-28200285D01*
X40798761Y-28238380D01*
X40836857Y-28276476D01*
X40874952Y-28352666D01*
X40874952Y-28657428D01*
X41255904Y-27438380D02*
X41255904Y-27895523D01*
X41255904Y-27666952D02*
X40455904Y-27666952D01*
X40570190Y-27743142D01*
X40646380Y-27819333D01*
X40684476Y-27895523D01*
X40722571Y-26752666D02*
X41255904Y-26752666D01*
X40417809Y-26943142D02*
X40989238Y-27133619D01*
X40989238Y-26638380D01*
D10*
%TO.C,Q11*%
X36290571Y-17605142D02*
X36338190Y-17462285D01*
X36385809Y-17414666D01*
X36481047Y-17367047D01*
X36623904Y-17367047D01*
X36719142Y-17414666D01*
X36766761Y-17462285D01*
X36814380Y-17557523D01*
X36814380Y-17938476D01*
X35814380Y-17938476D01*
X35814380Y-17605142D01*
X35862000Y-17509904D01*
X35909619Y-17462285D01*
X36004857Y-17414666D01*
X36100095Y-17414666D01*
X36195333Y-17462285D01*
X36242952Y-17509904D01*
X36290571Y-17605142D01*
X36290571Y-17938476D01*
X36719142Y-16367047D02*
X36766761Y-16414666D01*
X36814380Y-16557523D01*
X36814380Y-16652761D01*
X36766761Y-16795619D01*
X36671523Y-16890857D01*
X36576285Y-16938476D01*
X36385809Y-16986095D01*
X36242952Y-16986095D01*
X36052476Y-16938476D01*
X35957238Y-16890857D01*
X35862000Y-16795619D01*
X35814380Y-16652761D01*
X35814380Y-16557523D01*
X35862000Y-16414666D01*
X35909619Y-16367047D01*
X36242952Y-15795619D02*
X36195333Y-15890857D01*
X36147714Y-15938476D01*
X36052476Y-15986095D01*
X36004857Y-15986095D01*
X35909619Y-15938476D01*
X35862000Y-15890857D01*
X35814380Y-15795619D01*
X35814380Y-15605142D01*
X35862000Y-15509904D01*
X35909619Y-15462285D01*
X36004857Y-15414666D01*
X36052476Y-15414666D01*
X36147714Y-15462285D01*
X36195333Y-15509904D01*
X36242952Y-15605142D01*
X36242952Y-15795619D01*
X36290571Y-15890857D01*
X36338190Y-15938476D01*
X36433428Y-15986095D01*
X36623904Y-15986095D01*
X36719142Y-15938476D01*
X36766761Y-15890857D01*
X36814380Y-15795619D01*
X36814380Y-15605142D01*
X36766761Y-15509904D01*
X36719142Y-15462285D01*
X36623904Y-15414666D01*
X36433428Y-15414666D01*
X36338190Y-15462285D01*
X36290571Y-15509904D01*
X36242952Y-15605142D01*
X36147714Y-14557523D02*
X36814380Y-14557523D01*
X35766761Y-14795619D02*
X36481047Y-15033714D01*
X36481047Y-14414666D01*
X35814380Y-14128952D02*
X35814380Y-13462285D01*
X36814380Y-13890857D01*
D12*
X38576285Y-16021809D02*
X38528666Y-15998000D01*
X38481047Y-15950380D01*
X38409619Y-15878952D01*
X38362000Y-15855142D01*
X38314380Y-15855142D01*
X38338190Y-15974190D02*
X38290571Y-15950380D01*
X38242952Y-15902761D01*
X38219142Y-15807523D01*
X38219142Y-15640857D01*
X38242952Y-15545619D01*
X38290571Y-15498000D01*
X38338190Y-15474190D01*
X38433428Y-15474190D01*
X38481047Y-15498000D01*
X38528666Y-15545619D01*
X38552476Y-15640857D01*
X38552476Y-15807523D01*
X38528666Y-15902761D01*
X38481047Y-15950380D01*
X38433428Y-15974190D01*
X38338190Y-15974190D01*
X39028666Y-15974190D02*
X38742952Y-15974190D01*
X38885809Y-15974190D02*
X38885809Y-15474190D01*
X38838190Y-15545619D01*
X38790571Y-15593238D01*
X38742952Y-15617047D01*
X39504857Y-15974190D02*
X39219142Y-15974190D01*
X39362000Y-15974190D02*
X39362000Y-15474190D01*
X39314380Y-15545619D01*
X39266761Y-15593238D01*
X39219142Y-15617047D01*
D10*
%TO.C,R79*%
X582380Y-25603333D02*
X582380Y-26174761D01*
X582380Y-25889047D02*
X-417619Y-25889047D01*
X-274761Y-25984285D01*
X-179523Y-26079523D01*
X-131904Y-26174761D01*
X487142Y-25174761D02*
X534761Y-25127142D01*
X582380Y-25174761D01*
X534761Y-25222380D01*
X487142Y-25174761D01*
X582380Y-25174761D01*
X-322380Y-24746190D02*
X-370000Y-24698571D01*
X-417619Y-24603333D01*
X-417619Y-24365238D01*
X-369999Y-24270000D01*
X-322380Y-24222380D01*
X-227142Y-24174761D01*
X-131904Y-24174761D01*
X10952Y-24222380D01*
X582380Y-24793809D01*
X582380Y-24174761D01*
X582380Y-23746190D02*
X-417619Y-23746190D01*
X201428Y-23650952D02*
X582380Y-23365238D01*
X-84285Y-23365238D02*
X296666Y-23746190D01*
X5322380Y-25412857D02*
X4846190Y-25746190D01*
X5322380Y-25984285D02*
X4322380Y-25984285D01*
X4322380Y-25603333D01*
X4370000Y-25508095D01*
X4417619Y-25460476D01*
X4512857Y-25412857D01*
X4655714Y-25412857D01*
X4750952Y-25460476D01*
X4798571Y-25508095D01*
X4846190Y-25603333D01*
X4846190Y-25984285D01*
X4322380Y-25079523D02*
X4322380Y-24412857D01*
X5322380Y-24841428D01*
X5322380Y-23984285D02*
X5322380Y-23793809D01*
X5274761Y-23698571D01*
X5227142Y-23650952D01*
X5084285Y-23555714D01*
X4893809Y-23508095D01*
X4512857Y-23508095D01*
X4417619Y-23555714D01*
X4370000Y-23603333D01*
X4322380Y-23698571D01*
X4322380Y-23889047D01*
X4370000Y-23984285D01*
X4417619Y-24031904D01*
X4512857Y-24079523D01*
X4750952Y-24079523D01*
X4846190Y-24031904D01*
X4893809Y-23984285D01*
X4941428Y-23889047D01*
X4941428Y-23698571D01*
X4893809Y-23603333D01*
X4846190Y-23555714D01*
X4750952Y-23508095D01*
%TO.C,R5*%
X48162380Y-28307238D02*
X48162380Y-28878666D01*
X48162380Y-28592952D02*
X47162380Y-28592952D01*
X47305238Y-28688190D01*
X47400476Y-28783428D01*
X47448095Y-28878666D01*
X48162380Y-27878666D02*
X47162380Y-27878666D01*
X47781428Y-27783428D02*
X48162380Y-27497714D01*
X47495714Y-27497714D02*
X47876666Y-27878666D01*
X47257619Y-27116761D02*
X47210000Y-27069142D01*
X47162380Y-26973904D01*
X47162380Y-26735809D01*
X47210000Y-26640571D01*
X47257619Y-26592952D01*
X47352857Y-26545333D01*
X47448095Y-26545333D01*
X47590952Y-26592952D01*
X48162380Y-27164380D01*
X48162380Y-26545333D01*
D11*
X49891904Y-27845333D02*
X49510952Y-28112000D01*
X49891904Y-28302476D02*
X49091904Y-28302476D01*
X49091904Y-27997714D01*
X49130000Y-27921523D01*
X49168095Y-27883428D01*
X49244285Y-27845333D01*
X49358571Y-27845333D01*
X49434761Y-27883428D01*
X49472857Y-27921523D01*
X49510952Y-27997714D01*
X49510952Y-28302476D01*
X49091904Y-27121523D02*
X49091904Y-27502476D01*
X49472857Y-27540571D01*
X49434761Y-27502476D01*
X49396666Y-27426285D01*
X49396666Y-27235809D01*
X49434761Y-27159619D01*
X49472857Y-27121523D01*
X49549047Y-27083428D01*
X49739523Y-27083428D01*
X49815714Y-27121523D01*
X49853809Y-27159619D01*
X49891904Y-27235809D01*
X49891904Y-27426285D01*
X49853809Y-27502476D01*
X49815714Y-27540571D01*
D10*
%TO.C,U4*%
X3154761Y-40661980D02*
X3726190Y-40661980D01*
X3440476Y-41661980D02*
X3440476Y-40661980D01*
X4535714Y-41661980D02*
X4059523Y-41661980D01*
X4059523Y-40661980D01*
X5297619Y-40995314D02*
X5297619Y-41661980D01*
X5059523Y-40614361D02*
X4821428Y-41328647D01*
X5440476Y-41328647D01*
X5726190Y-40661980D02*
X6345238Y-40661980D01*
X6011904Y-41042933D01*
X6154761Y-41042933D01*
X6250000Y-41090552D01*
X6297619Y-41138171D01*
X6345238Y-41233409D01*
X6345238Y-41471504D01*
X6297619Y-41566742D01*
X6250000Y-41614361D01*
X6154761Y-41661980D01*
X5869047Y-41661980D01*
X5773809Y-41614361D01*
X5726190Y-41566742D01*
X7297619Y-41661980D02*
X6726190Y-41661980D01*
X7011904Y-41661980D02*
X7011904Y-40661980D01*
X6916666Y-40804838D01*
X6821428Y-40900076D01*
X6726190Y-40947695D01*
X7726190Y-41661980D02*
X7726190Y-40661980D01*
X7964285Y-40661980D01*
X8107142Y-40709600D01*
X8202380Y-40804838D01*
X8250000Y-40900076D01*
X8297619Y-41090552D01*
X8297619Y-41233409D01*
X8250000Y-41423885D01*
X8202380Y-41519123D01*
X8107142Y-41614361D01*
X7964285Y-41661980D01*
X7726190Y-41661980D01*
X9059523Y-41138171D02*
X9202380Y-41185790D01*
X9250000Y-41233409D01*
X9297619Y-41328647D01*
X9297619Y-41471504D01*
X9250000Y-41566742D01*
X9202380Y-41614361D01*
X9107142Y-41661980D01*
X8726190Y-41661980D01*
X8726190Y-40661980D01*
X9059523Y-40661980D01*
X9154761Y-40709600D01*
X9202380Y-40757219D01*
X9250000Y-40852457D01*
X9250000Y-40947695D01*
X9202380Y-41042933D01*
X9154761Y-41090552D01*
X9059523Y-41138171D01*
X8726190Y-41138171D01*
X9630952Y-40661980D02*
X10297619Y-40661980D01*
X9630952Y-41661980D01*
X10297619Y-41661980D01*
D12*
X6476190Y-39090552D02*
X6880952Y-39090552D01*
X6928571Y-39066742D01*
X6952380Y-39042933D01*
X6976190Y-38995314D01*
X6976190Y-38900076D01*
X6952380Y-38852457D01*
X6928571Y-38828647D01*
X6880952Y-38804838D01*
X6476190Y-38804838D01*
X6642857Y-38352457D02*
X6976190Y-38352457D01*
X6452380Y-38471504D02*
X6809523Y-38590552D01*
X6809523Y-38281028D01*
D10*
%TO.C,R87*%
X6262761Y-43082380D02*
X5691333Y-43082380D01*
X5977047Y-43082380D02*
X5977047Y-42082380D01*
X5881809Y-42225238D01*
X5786571Y-42320476D01*
X5691333Y-42368095D01*
X6881809Y-42082380D02*
X6977047Y-42082380D01*
X7072285Y-42130000D01*
X7119904Y-42177619D01*
X7167523Y-42272857D01*
X7215142Y-42463333D01*
X7215142Y-42701428D01*
X7167523Y-42891904D01*
X7119904Y-42987142D01*
X7072285Y-43034761D01*
X6977047Y-43082380D01*
X6881809Y-43082380D01*
X6786571Y-43034761D01*
X6738952Y-42987142D01*
X6691333Y-42891904D01*
X6643714Y-42701428D01*
X6643714Y-42463333D01*
X6691333Y-42272857D01*
X6738952Y-42177619D01*
X6786571Y-42130000D01*
X6881809Y-42082380D01*
X7643714Y-43082380D02*
X7643714Y-42082380D01*
X7738952Y-42701428D02*
X8024666Y-43082380D01*
X8024666Y-42415714D02*
X7643714Y-42796666D01*
D11*
X6343714Y-44811904D02*
X6077047Y-44430952D01*
X5886571Y-44811904D02*
X5886571Y-44011904D01*
X6191333Y-44011904D01*
X6267523Y-44050000D01*
X6305619Y-44088095D01*
X6343714Y-44164285D01*
X6343714Y-44278571D01*
X6305619Y-44354761D01*
X6267523Y-44392857D01*
X6191333Y-44430952D01*
X5886571Y-44430952D01*
X6800857Y-44354761D02*
X6724666Y-44316666D01*
X6686571Y-44278571D01*
X6648476Y-44202380D01*
X6648476Y-44164285D01*
X6686571Y-44088095D01*
X6724666Y-44050000D01*
X6800857Y-44011904D01*
X6953238Y-44011904D01*
X7029428Y-44050000D01*
X7067523Y-44088095D01*
X7105619Y-44164285D01*
X7105619Y-44202380D01*
X7067523Y-44278571D01*
X7029428Y-44316666D01*
X6953238Y-44354761D01*
X6800857Y-44354761D01*
X6724666Y-44392857D01*
X6686571Y-44430952D01*
X6648476Y-44507142D01*
X6648476Y-44659523D01*
X6686571Y-44735714D01*
X6724666Y-44773809D01*
X6800857Y-44811904D01*
X6953238Y-44811904D01*
X7029428Y-44773809D01*
X7067523Y-44735714D01*
X7105619Y-44659523D01*
X7105619Y-44507142D01*
X7067523Y-44430952D01*
X7029428Y-44392857D01*
X6953238Y-44354761D01*
X7372285Y-44011904D02*
X7905619Y-44011904D01*
X7562761Y-44811904D01*
D10*
%TO.C,R22*%
X31414380Y-9342285D02*
X31414380Y-8723238D01*
X31795333Y-9056571D01*
X31795333Y-8913714D01*
X31842952Y-8818476D01*
X31890571Y-8770857D01*
X31985809Y-8723238D01*
X32223904Y-8723238D01*
X32319142Y-8770857D01*
X32366761Y-8818476D01*
X32414380Y-8913714D01*
X32414380Y-9199428D01*
X32366761Y-9294666D01*
X32319142Y-9342285D01*
X32414380Y-8294666D02*
X31414380Y-8294666D01*
X32033428Y-8199428D02*
X32414380Y-7913714D01*
X31747714Y-7913714D02*
X32128666Y-8294666D01*
X32414380Y-7437523D02*
X32414380Y-7247047D01*
X32366761Y-7151809D01*
X32319142Y-7104190D01*
X32176285Y-7008952D01*
X31985809Y-6961333D01*
X31604857Y-6961333D01*
X31509619Y-7008952D01*
X31462000Y-7056571D01*
X31414380Y-7151809D01*
X31414380Y-7342285D01*
X31462000Y-7437523D01*
X31509619Y-7485142D01*
X31604857Y-7532761D01*
X31842952Y-7532761D01*
X31938190Y-7485142D01*
X31985809Y-7437523D01*
X32033428Y-7342285D01*
X32033428Y-7151809D01*
X31985809Y-7056571D01*
X31938190Y-7008952D01*
X31842952Y-6961333D01*
D11*
X34143904Y-8642285D02*
X33762952Y-8908952D01*
X34143904Y-9099428D02*
X33343904Y-9099428D01*
X33343904Y-8794666D01*
X33382000Y-8718476D01*
X33420095Y-8680380D01*
X33496285Y-8642285D01*
X33610571Y-8642285D01*
X33686761Y-8680380D01*
X33724857Y-8718476D01*
X33762952Y-8794666D01*
X33762952Y-9099428D01*
X33420095Y-8337523D02*
X33382000Y-8299428D01*
X33343904Y-8223238D01*
X33343904Y-8032761D01*
X33382000Y-7956571D01*
X33420095Y-7918476D01*
X33496285Y-7880380D01*
X33572476Y-7880380D01*
X33686761Y-7918476D01*
X34143904Y-8375619D01*
X34143904Y-7880380D01*
X33420095Y-7575619D02*
X33382000Y-7537523D01*
X33343904Y-7461333D01*
X33343904Y-7270857D01*
X33382000Y-7194666D01*
X33420095Y-7156571D01*
X33496285Y-7118476D01*
X33572476Y-7118476D01*
X33686761Y-7156571D01*
X34143904Y-7613714D01*
X34143904Y-7118476D01*
D10*
%TO.C,RV0*%
X22733333Y-42602380D02*
X22257142Y-42602380D01*
X22209523Y-43078571D01*
X22257142Y-43030952D01*
X22352380Y-42983333D01*
X22590476Y-42983333D01*
X22685714Y-43030952D01*
X22733333Y-43078571D01*
X22780952Y-43173809D01*
X22780952Y-43411904D01*
X22733333Y-43507142D01*
X22685714Y-43554761D01*
X22590476Y-43602380D01*
X22352380Y-43602380D01*
X22257142Y-43554761D01*
X22209523Y-43507142D01*
X23209523Y-43602380D02*
X23209523Y-42602380D01*
X23304761Y-43221428D02*
X23590476Y-43602380D01*
X23590476Y-42935714D02*
X23209523Y-43316666D01*
X22404761Y-48502380D02*
X22071428Y-48026190D01*
X21833333Y-48502380D02*
X21833333Y-47502380D01*
X22214285Y-47502380D01*
X22309523Y-47550000D01*
X22357142Y-47597619D01*
X22404761Y-47692857D01*
X22404761Y-47835714D01*
X22357142Y-47930952D01*
X22309523Y-47978571D01*
X22214285Y-48026190D01*
X21833333Y-48026190D01*
X22690476Y-47502380D02*
X23023809Y-48502380D01*
X23357142Y-47502380D01*
X23880952Y-47502380D02*
X23976190Y-47502380D01*
X24071428Y-47550000D01*
X24119047Y-47597619D01*
X24166666Y-47692857D01*
X24214285Y-47883333D01*
X24214285Y-48121428D01*
X24166666Y-48311904D01*
X24119047Y-48407142D01*
X24071428Y-48454761D01*
X23976190Y-48502380D01*
X23880952Y-48502380D01*
X23785714Y-48454761D01*
X23738095Y-48407142D01*
X23690476Y-48311904D01*
X23642857Y-48121428D01*
X23642857Y-47883333D01*
X23690476Y-47692857D01*
X23738095Y-47597619D01*
X23785714Y-47550000D01*
X23880952Y-47502380D01*
%TO.C,J6*%
X20063142Y-28039142D02*
X20015523Y-28086761D01*
X19872666Y-28134380D01*
X19777428Y-28134380D01*
X19634571Y-28086761D01*
X19539333Y-27991523D01*
X19491714Y-27896285D01*
X19444095Y-27705809D01*
X19444095Y-27562952D01*
X19491714Y-27372476D01*
X19539333Y-27277238D01*
X19634571Y-27182000D01*
X19777428Y-27134380D01*
X19872666Y-27134380D01*
X20015523Y-27182000D01*
X20063142Y-27229619D01*
X20634571Y-28134380D02*
X20539333Y-28086761D01*
X20491714Y-28039142D01*
X20444095Y-27943904D01*
X20444095Y-27658190D01*
X20491714Y-27562952D01*
X20539333Y-27515333D01*
X20634571Y-27467714D01*
X20777428Y-27467714D01*
X20872666Y-27515333D01*
X20920285Y-27562952D01*
X20967904Y-27658190D01*
X20967904Y-27943904D01*
X20920285Y-28039142D01*
X20872666Y-28086761D01*
X20777428Y-28134380D01*
X20634571Y-28134380D01*
X21396476Y-27467714D02*
X21396476Y-28134380D01*
X21396476Y-27562952D02*
X21444095Y-27515333D01*
X21539333Y-27467714D01*
X21682190Y-27467714D01*
X21777428Y-27515333D01*
X21825047Y-27610571D01*
X21825047Y-28134380D01*
X22301238Y-27467714D02*
X22301238Y-28134380D01*
X22301238Y-27562952D02*
X22348857Y-27515333D01*
X22444095Y-27467714D01*
X22586952Y-27467714D01*
X22682190Y-27515333D01*
X22729809Y-27610571D01*
X22729809Y-28134380D01*
X22967904Y-28229619D02*
X23729809Y-28229619D01*
X24158380Y-27134380D02*
X24253619Y-27134380D01*
X24348857Y-27182000D01*
X24396476Y-27229619D01*
X24444095Y-27324857D01*
X24491714Y-27515333D01*
X24491714Y-27753428D01*
X24444095Y-27943904D01*
X24396476Y-28039142D01*
X24348857Y-28086761D01*
X24253619Y-28134380D01*
X24158380Y-28134380D01*
X24063142Y-28086761D01*
X24015523Y-28039142D01*
X23967904Y-27943904D01*
X23920285Y-27753428D01*
X23920285Y-27515333D01*
X23967904Y-27324857D01*
X24015523Y-27229619D01*
X24063142Y-27182000D01*
X24158380Y-27134380D01*
X24872666Y-27229619D02*
X24920285Y-27182000D01*
X25015523Y-27134380D01*
X25253619Y-27134380D01*
X25348857Y-27182000D01*
X25396476Y-27229619D01*
X25444095Y-27324857D01*
X25444095Y-27420095D01*
X25396476Y-27562952D01*
X24825047Y-28134380D01*
X25444095Y-28134380D01*
X25777428Y-28134380D02*
X26301238Y-27467714D01*
X25777428Y-27467714D02*
X26301238Y-28134380D01*
X26872666Y-27134380D02*
X26967904Y-27134380D01*
X27063142Y-27182000D01*
X27110761Y-27229619D01*
X27158380Y-27324857D01*
X27205999Y-27515333D01*
X27205999Y-27753428D01*
X27158380Y-27943904D01*
X27110761Y-28039142D01*
X27063142Y-28086761D01*
X26967904Y-28134380D01*
X26872666Y-28134380D01*
X26777428Y-28086761D01*
X26729809Y-28039142D01*
X26682190Y-27943904D01*
X26634571Y-27753428D01*
X26634571Y-27515333D01*
X26682190Y-27324857D01*
X26729809Y-27229619D01*
X26777428Y-27182000D01*
X26872666Y-27134380D01*
X27539333Y-27134380D02*
X28205999Y-27134380D01*
X27777428Y-28134380D01*
X28348857Y-28229619D02*
X29110761Y-28229619D01*
X29539333Y-27134380D02*
X29729809Y-27134380D01*
X29825047Y-27182000D01*
X29920285Y-27277238D01*
X29967904Y-27467714D01*
X29967904Y-27801047D01*
X29920285Y-27991523D01*
X29825047Y-28086761D01*
X29729809Y-28134380D01*
X29539333Y-28134380D01*
X29444095Y-28086761D01*
X29348857Y-27991523D01*
X29301238Y-27801047D01*
X29301238Y-27467714D01*
X29348857Y-27277238D01*
X29444095Y-27182000D01*
X29539333Y-27134380D01*
X30825047Y-28134380D02*
X30825047Y-27134380D01*
X30825047Y-28086761D02*
X30729809Y-28134380D01*
X30539333Y-28134380D01*
X30444095Y-28086761D01*
X30396476Y-28039142D01*
X30348857Y-27943904D01*
X30348857Y-27658190D01*
X30396476Y-27562952D01*
X30444095Y-27515333D01*
X30539333Y-27467714D01*
X30729809Y-27467714D01*
X30825047Y-27515333D01*
X31729809Y-28134380D02*
X31729809Y-27134380D01*
X31729809Y-28086761D02*
X31634571Y-28134380D01*
X31444095Y-28134380D01*
X31348857Y-28086761D01*
X31301238Y-28039142D01*
X31253619Y-27943904D01*
X31253619Y-27658190D01*
X31301238Y-27562952D01*
X31348857Y-27515333D01*
X31444095Y-27467714D01*
X31634571Y-27467714D01*
X31729809Y-27515333D01*
X31967904Y-28229619D02*
X32729809Y-28229619D01*
X32967904Y-27610571D02*
X33301238Y-27610571D01*
X33444095Y-28134380D02*
X32967904Y-28134380D01*
X32967904Y-27134380D01*
X33444095Y-27134380D01*
X33777428Y-27467714D02*
X34015523Y-28134380D01*
X34253619Y-27467714D01*
X35015523Y-28086761D02*
X34920285Y-28134380D01*
X34729809Y-28134380D01*
X34634571Y-28086761D01*
X34586952Y-27991523D01*
X34586952Y-27610571D01*
X34634571Y-27515333D01*
X34729809Y-27467714D01*
X34920285Y-27467714D01*
X35015523Y-27515333D01*
X35063142Y-27610571D01*
X35063142Y-27705809D01*
X34586952Y-27801047D01*
X35491714Y-27467714D02*
X35491714Y-28134380D01*
X35491714Y-27562952D02*
X35539333Y-27515333D01*
X35634571Y-27467714D01*
X35777428Y-27467714D01*
X35872666Y-27515333D01*
X35920285Y-27610571D01*
X35920285Y-28134380D01*
X27158380Y-17625333D02*
X27872666Y-17625333D01*
X28015523Y-17672952D01*
X28110761Y-17768190D01*
X28158380Y-17911047D01*
X28158380Y-18006285D01*
X27158380Y-16720571D02*
X27158380Y-16911047D01*
X27206000Y-17006285D01*
X27253619Y-17053904D01*
X27396476Y-17149142D01*
X27586952Y-17196761D01*
X27967904Y-17196761D01*
X28063142Y-17149142D01*
X28110761Y-17101523D01*
X28158380Y-17006285D01*
X28158380Y-16815809D01*
X28110761Y-16720571D01*
X28063142Y-16672952D01*
X27967904Y-16625333D01*
X27729809Y-16625333D01*
X27634571Y-16672952D01*
X27586952Y-16720571D01*
X27539333Y-16815809D01*
X27539333Y-17006285D01*
X27586952Y-17101523D01*
X27634571Y-17149142D01*
X27729809Y-17196761D01*
D13*
%TO.C,R13*%
X41110000Y-9728000D02*
X41110000Y-6528000D01*
X41110000Y-6528000D02*
X42710000Y-6528000D01*
X42710000Y-9728000D02*
X41110000Y-9728000D01*
X42710000Y-6528000D02*
X42710000Y-9728000D01*
%TO.C,Q7*%
X46224000Y-15536000D02*
X46224000Y-16386000D01*
X45654000Y-14986000D02*
X43204000Y-14986000D01*
X45654000Y-14986000D02*
X46224000Y-15536000D01*
X46224000Y-16386000D02*
X43184000Y-16386000D01*
X43184000Y-14986000D02*
X43184000Y-16386000D01*
%TO.C,U3*%
X6050000Y-29050000D02*
X6600000Y-28480000D01*
X7450000Y-28480000D02*
X7450000Y-31520000D01*
X6050000Y-29050000D02*
X6050000Y-31500000D01*
X6050000Y-31520000D02*
X7450000Y-31520000D01*
X6600000Y-28480000D02*
X7450000Y-28480000D01*
%TO.C,J5*%
X27686000Y-36576000D02*
X27686000Y-34036000D01*
X63246000Y-36576000D02*
X27686000Y-36576000D01*
X62611000Y-34036000D02*
X63246000Y-34671000D01*
X27686000Y-34036000D02*
X62611000Y-34036000D01*
X63246000Y-34671000D02*
X63246000Y-36576000D01*
%TO.C,U6*%
X7558000Y-4677600D02*
X6158000Y-4677600D01*
X7558000Y-7147600D02*
X7558000Y-4697600D01*
X6158000Y-7717600D02*
X6158000Y-4677600D01*
X7558000Y-7147600D02*
X7008000Y-7717600D01*
X7008000Y-7717600D02*
X6158000Y-7717600D01*
%TO.C,R17*%
X37300000Y-29286000D02*
X37300000Y-26086000D01*
X38900000Y-26086000D02*
X38900000Y-29286000D01*
X37300000Y-26086000D02*
X38900000Y-26086000D01*
X38900000Y-29286000D02*
X37300000Y-29286000D01*
%TO.C,R7*%
X49314000Y-6630000D02*
X49314000Y-9830000D01*
X47714000Y-9830000D02*
X47714000Y-6630000D01*
X49314000Y-9830000D02*
X47714000Y-9830000D01*
X47714000Y-6630000D02*
X49314000Y-6630000D01*
%TO.C,RV6*%
X16900000Y-7475000D02*
X17100000Y-7475000D01*
X17100000Y-2475000D02*
X16900000Y-2475000D01*
X11300000Y-7575000D02*
X16900000Y-7575000D01*
X17100000Y-6275000D02*
X16900000Y-6275000D01*
X17100000Y-1275000D02*
X17100000Y-2475000D01*
X11300000Y-1175000D02*
X16900000Y-1175000D01*
X10100000Y-2375000D02*
X10100000Y-6375000D01*
X17100000Y-7475000D02*
X17100000Y-6285000D01*
X16900000Y-1275000D02*
X17100000Y-1275000D01*
X16900000Y-7575000D02*
X16900000Y-1175000D01*
X11300000Y-1175000D02*
G75*
G03*
X10100000Y-2375000I0J-1200000D01*
G01*
X10100000Y-6375000D02*
G75*
G03*
X11300000Y-7575000I1200000J0D01*
G01*
X16300000Y-4375000D02*
G75*
G03*
X16300000Y-4375000I-3000000J0D01*
G01*
%TO.C,R10*%
X46620000Y-9790000D02*
X45020000Y-9790000D01*
X45020000Y-6590000D02*
X46620000Y-6590000D01*
X46620000Y-6590000D02*
X46620000Y-9790000D01*
X45020000Y-9790000D02*
X45020000Y-6590000D01*
%TO.C,RV5*%
X10025000Y-51875000D02*
X9825000Y-51875000D01*
X9825000Y-51875000D02*
X9825000Y-50675000D01*
X9825000Y-46875000D02*
X10025000Y-46875000D01*
X15625000Y-51975000D02*
X10025000Y-51975000D01*
X15625000Y-45575000D02*
X10025000Y-45575000D01*
X16825000Y-50775000D02*
X16825000Y-46775000D01*
X10025000Y-45575000D02*
X10025000Y-51975000D01*
X9825000Y-50675000D02*
X10025000Y-50675000D01*
X9825000Y-45675000D02*
X9825000Y-46865000D01*
X10025000Y-45675000D02*
X9825000Y-45675000D01*
X15625000Y-51975000D02*
G75*
G03*
X16825000Y-50775000I0J1200000D01*
G01*
X16825000Y-46775000D02*
G75*
G03*
X15625000Y-45575000I-1200000J0D01*
G01*
X16625000Y-48775000D02*
G75*
G03*
X16625000Y-48775000I-3000000J0D01*
G01*
%TO.C,R82*%
X2500000Y-29750000D02*
X2500000Y-32290000D01*
X3750000Y-29750000D02*
G75*
G03*
X3750000Y-29750000I-1250000J0D01*
G01*
%TO.C,R83*%
X8432000Y-42800000D02*
X5232000Y-42800000D01*
X5232000Y-42800000D02*
X5232000Y-41200000D01*
X8432000Y-41200000D02*
X8432000Y-42800000D01*
X5232000Y-41200000D02*
X8432000Y-41200000D01*
%TO.C,R75*%
X5258000Y-8496400D02*
X8458000Y-8496400D01*
X8458000Y-8496400D02*
X8458000Y-10096400D01*
X5258000Y-10096400D02*
X5258000Y-8496400D01*
X8458000Y-10096400D02*
X5258000Y-10096400D01*
%TO.C,R1*%
X54210000Y-9860000D02*
X52610000Y-9860000D01*
X54210000Y-6660000D02*
X54210000Y-9860000D01*
X52610000Y-9860000D02*
X52610000Y-6660000D01*
X52610000Y-6660000D02*
X54210000Y-6660000D01*
%TO.C,R85*%
X2500000Y-37309000D02*
X2500000Y-39849000D01*
X3750000Y-37309000D02*
G75*
G03*
X3750000Y-37309000I-1250000J0D01*
G01*
%TO.C,R23*%
X31458000Y-29286000D02*
X31458000Y-26086000D01*
X31458000Y-26086000D02*
X33058000Y-26086000D01*
X33058000Y-29286000D02*
X31458000Y-29286000D01*
X33058000Y-26086000D02*
X33058000Y-29286000D01*
%TO.C,Q13*%
X36572000Y-21948000D02*
X36572000Y-22798000D01*
X33532000Y-21398000D02*
X33532000Y-22798000D01*
X36002000Y-21398000D02*
X36572000Y-21948000D01*
X36002000Y-21398000D02*
X33552000Y-21398000D01*
X36572000Y-22798000D02*
X33532000Y-22798000D01*
%TO.C,R16*%
X39916000Y-6528000D02*
X39916000Y-9728000D01*
X38316000Y-9728000D02*
X38316000Y-6528000D01*
X38316000Y-6528000D02*
X39916000Y-6528000D01*
X39916000Y-9728000D02*
X38316000Y-9728000D01*
%TO.C,R86*%
X8458000Y-50355600D02*
X8458000Y-51955600D01*
X5258000Y-51955600D02*
X5258000Y-50355600D01*
X5258000Y-50355600D02*
X8458000Y-50355600D01*
X8458000Y-51955600D02*
X5258000Y-51955600D01*
%TO.C,Q3*%
X50988000Y-14756000D02*
X51558000Y-15306000D01*
X50988000Y-14756000D02*
X48538000Y-14756000D01*
X48518000Y-14756000D02*
X48518000Y-16156000D01*
X51558000Y-15306000D02*
X51558000Y-16156000D01*
X51558000Y-16156000D02*
X48518000Y-16156000D01*
%TO.C,U2*%
X7450000Y-19730000D02*
X7450000Y-22770000D01*
X6050000Y-20300000D02*
X6050000Y-22750000D01*
X6050000Y-22770000D02*
X7450000Y-22770000D01*
X6600000Y-19730000D02*
X7450000Y-19730000D01*
X6050000Y-20300000D02*
X6600000Y-19730000D01*
%TO.C,RV2*%
X10050000Y-24825000D02*
X9850000Y-24825000D01*
X9850000Y-18625000D02*
X9850000Y-19815000D01*
X16850000Y-23725000D02*
X16850000Y-19725000D01*
X10050000Y-18625000D02*
X9850000Y-18625000D01*
X10050000Y-18525000D02*
X10050000Y-24925000D01*
X9850000Y-24825000D02*
X9850000Y-23625000D01*
X15650000Y-24925000D02*
X10050000Y-24925000D01*
X9850000Y-19825000D02*
X10050000Y-19825000D01*
X9850000Y-23625000D02*
X10050000Y-23625000D01*
X15650000Y-18525000D02*
X10050000Y-18525000D01*
X15650000Y-24925000D02*
G75*
G03*
X16850000Y-23725000I0J1200000D01*
G01*
X16850000Y-19725000D02*
G75*
G03*
X15650000Y-18525000I-1200000J0D01*
G01*
X16650000Y-21725000D02*
G75*
G03*
X16650000Y-21725000I-3000000J0D01*
G01*
%TO.C,RV3*%
X9800000Y-33525000D02*
X9800000Y-32325000D01*
X15600000Y-27225000D02*
X10000000Y-27225000D01*
X9800000Y-28525000D02*
X10000000Y-28525000D01*
X9800000Y-32325000D02*
X10000000Y-32325000D01*
X10000000Y-33525000D02*
X9800000Y-33525000D01*
X16800000Y-32425000D02*
X16800000Y-28425000D01*
X15600000Y-33625000D02*
X10000000Y-33625000D01*
X10000000Y-27325000D02*
X9800000Y-27325000D01*
X10000000Y-27225000D02*
X10000000Y-33625000D01*
X9800000Y-27325000D02*
X9800000Y-28515000D01*
X16800000Y-28425000D02*
G75*
G03*
X15600000Y-27225000I-1200000J0D01*
G01*
X15600000Y-33625000D02*
G75*
G03*
X16800000Y-32425000I0J1200000D01*
G01*
X16600000Y-30425000D02*
G75*
G03*
X16600000Y-30425000I-3000000J0D01*
G01*
%TO.C,Q5*%
X47178000Y-21144000D02*
X47748000Y-21694000D01*
X44708000Y-21144000D02*
X44708000Y-22544000D01*
X47748000Y-22544000D02*
X44708000Y-22544000D01*
X47178000Y-21144000D02*
X44728000Y-21144000D01*
X47748000Y-21694000D02*
X47748000Y-22544000D01*
%TO.C,U5*%
X7558000Y-46333600D02*
X7558000Y-49373600D01*
X6158000Y-49373600D02*
X7558000Y-49373600D01*
X6158000Y-46903600D02*
X6708000Y-46333600D01*
X6158000Y-46903600D02*
X6158000Y-49353600D01*
X6708000Y-46333600D02*
X7558000Y-46333600D01*
%TO.C,R4*%
X50230000Y-9830000D02*
X50230000Y-6630000D01*
X51830000Y-6630000D02*
X51830000Y-9830000D01*
X50230000Y-6630000D02*
X51830000Y-6630000D01*
X51830000Y-9830000D02*
X50230000Y-9830000D01*
%TO.C,RV4*%
X9800000Y-37625000D02*
X10000000Y-37625000D01*
X10000000Y-36325000D02*
X10000000Y-42725000D01*
X10000000Y-42625000D02*
X9800000Y-42625000D01*
X15600000Y-36325000D02*
X10000000Y-36325000D01*
X9800000Y-41425000D02*
X10000000Y-41425000D01*
X9800000Y-36425000D02*
X9800000Y-37615000D01*
X10000000Y-36425000D02*
X9800000Y-36425000D01*
X16800000Y-41525000D02*
X16800000Y-37525000D01*
X15600000Y-42725000D02*
X10000000Y-42725000D01*
X9800000Y-42625000D02*
X9800000Y-41425000D01*
X16800000Y-37525000D02*
G75*
G03*
X15600000Y-36325000I-1200000J0D01*
G01*
X15600000Y-42725000D02*
G75*
G03*
X16800000Y-41525000I0J1200000D01*
G01*
X16600000Y-39525000D02*
G75*
G03*
X16600000Y-39525000I-3000000J0D01*
G01*
%TO.C,R8*%
X47028000Y-26086000D02*
X47028000Y-29286000D01*
X45428000Y-29286000D02*
X45428000Y-26086000D01*
X47028000Y-29286000D02*
X45428000Y-29286000D01*
X45428000Y-26086000D02*
X47028000Y-26086000D01*
%TO.C,RV1*%
X9800000Y-16350000D02*
X9800000Y-15150000D01*
X16800000Y-15250000D02*
X16800000Y-11250000D01*
X10000000Y-10150000D02*
X9800000Y-10150000D01*
X9800000Y-11350000D02*
X10000000Y-11350000D01*
X15600000Y-10050000D02*
X10000000Y-10050000D01*
X15600000Y-16450000D02*
X10000000Y-16450000D01*
X9800000Y-10150000D02*
X9800000Y-11340000D01*
X10000000Y-16350000D02*
X9800000Y-16350000D01*
X10000000Y-10050000D02*
X10000000Y-16450000D01*
X9800000Y-15150000D02*
X10000000Y-15150000D01*
X16800000Y-11250000D02*
G75*
G03*
X15600000Y-10050000I-1200000J0D01*
G01*
X15600000Y-16450000D02*
G75*
G03*
X16800000Y-15250000I0J1200000D01*
G01*
X16600000Y-13250000D02*
G75*
G03*
X16600000Y-13250000I-3000000J0D01*
G01*
%TO.C,U1*%
X6454000Y-10926000D02*
X7304000Y-10926000D01*
X7304000Y-10926000D02*
X7304000Y-13966000D01*
X5904000Y-13966000D02*
X7304000Y-13966000D01*
X5904000Y-11496000D02*
X6454000Y-10926000D01*
X5904000Y-11496000D02*
X5904000Y-13946000D01*
%TO.C,R80*%
X8458000Y-33870800D02*
X5258000Y-33870800D01*
X8458000Y-32270800D02*
X8458000Y-33870800D01*
X5258000Y-32270800D02*
X8458000Y-32270800D01*
X5258000Y-33870800D02*
X5258000Y-32270800D01*
%TO.C,R90*%
X1994000Y-6502000D02*
X3594000Y-6502000D01*
X1994000Y-9702000D02*
X1994000Y-6502000D01*
X3594000Y-6502000D02*
X3594000Y-9702000D01*
X3594000Y-9702000D02*
X1994000Y-9702000D01*
%TO.C,Q9*%
X42160000Y-21948000D02*
X42160000Y-22798000D01*
X41590000Y-21398000D02*
X39140000Y-21398000D01*
X42160000Y-22798000D02*
X39120000Y-22798000D01*
X39120000Y-21398000D02*
X39120000Y-22798000D01*
X41590000Y-21398000D02*
X42160000Y-21948000D01*
%TO.C,R19*%
X35776000Y-9728000D02*
X35776000Y-6528000D01*
X35776000Y-6528000D02*
X37376000Y-6528000D01*
X37376000Y-6528000D02*
X37376000Y-9728000D01*
X37376000Y-9728000D02*
X35776000Y-9728000D01*
%TO.C,R20*%
X34252000Y-29286000D02*
X34252000Y-26086000D01*
X34252000Y-26086000D02*
X35852000Y-26086000D01*
X35852000Y-26086000D02*
X35852000Y-29286000D01*
X35852000Y-29286000D02*
X34252000Y-29286000D01*
%TO.C,R11*%
X42634000Y-29286000D02*
X42634000Y-26086000D01*
X42634000Y-26086000D02*
X44234000Y-26086000D01*
X44234000Y-26086000D02*
X44234000Y-29286000D01*
X44234000Y-29286000D02*
X42634000Y-29286000D01*
%TO.C,R77*%
X5258000Y-23700000D02*
X8458000Y-23700000D01*
X5258000Y-25300000D02*
X5258000Y-23700000D01*
X8458000Y-23700000D02*
X8458000Y-25300000D01*
X8458000Y-25300000D02*
X5258000Y-25300000D01*
%TO.C,R78*%
X5258000Y-17234000D02*
X8458000Y-17234000D01*
X8458000Y-17234000D02*
X8458000Y-18834000D01*
X8458000Y-18834000D02*
X5258000Y-18834000D01*
X5258000Y-18834000D02*
X5258000Y-17234000D01*
%TO.C,R88*%
X2500000Y-44955000D02*
X2500000Y-47495000D01*
X3750000Y-44955000D02*
G75*
G03*
X3750000Y-44955000I-1250000J0D01*
G01*
%TO.C,R81*%
X8600000Y-27622400D02*
X5400000Y-27622400D01*
X5400000Y-26022400D02*
X8600000Y-26022400D01*
X5400000Y-27622400D02*
X5400000Y-26022400D01*
X8600000Y-26022400D02*
X8600000Y-27622400D01*
%TO.C,R2*%
X53124000Y-26086000D02*
X53124000Y-29286000D01*
X51524000Y-29286000D02*
X51524000Y-26086000D01*
X51524000Y-26086000D02*
X53124000Y-26086000D01*
X53124000Y-29286000D02*
X51524000Y-29286000D01*
%TO.C,R76*%
X3340000Y-16400000D02*
X1740000Y-16400000D01*
X1740000Y-13200000D02*
X3340000Y-13200000D01*
X1740000Y-16400000D02*
X1740000Y-13200000D01*
X3340000Y-13200000D02*
X3340000Y-16400000D01*
%TO.C,Q1*%
X53844000Y-21694000D02*
X53844000Y-22544000D01*
X53274000Y-21144000D02*
X50824000Y-21144000D01*
X53274000Y-21144000D02*
X53844000Y-21694000D01*
X53844000Y-22544000D02*
X50804000Y-22544000D01*
X50804000Y-21144000D02*
X50804000Y-22544000D01*
%TO.C,Q15*%
X33970000Y-15048000D02*
X34540000Y-15598000D01*
X34540000Y-15598000D02*
X34540000Y-16448000D01*
X33970000Y-15048000D02*
X31520000Y-15048000D01*
X34540000Y-16448000D02*
X31500000Y-16448000D01*
X31500000Y-15048000D02*
X31500000Y-16448000D01*
%TO.C,R84*%
X8550000Y-36300000D02*
X5350000Y-36300000D01*
X5350000Y-34700000D02*
X8550000Y-34700000D01*
X8550000Y-34700000D02*
X8550000Y-36300000D01*
X5350000Y-36300000D02*
X5350000Y-34700000D01*
%TO.C,R74*%
X5258000Y-14694000D02*
X8458000Y-14694000D01*
X8458000Y-14694000D02*
X8458000Y-16294000D01*
X5258000Y-16294000D02*
X5258000Y-14694000D01*
X8458000Y-16294000D02*
X5258000Y-16294000D01*
%TO.C,R14*%
X41694000Y-29286000D02*
X40094000Y-29286000D01*
X40094000Y-26086000D02*
X41694000Y-26086000D01*
X41694000Y-26086000D02*
X41694000Y-29286000D01*
X40094000Y-29286000D02*
X40094000Y-26086000D01*
%TO.C,Q11*%
X39812000Y-15048000D02*
X40382000Y-15598000D01*
X39812000Y-15048000D02*
X37362000Y-15048000D01*
X40382000Y-16448000D02*
X37342000Y-16448000D01*
X40382000Y-15598000D02*
X40382000Y-16448000D01*
X37342000Y-15048000D02*
X37342000Y-16448000D01*
%TO.C,R79*%
X2500000Y-23500000D02*
X2500000Y-26040000D01*
X3750000Y-23500000D02*
G75*
G03*
X3750000Y-23500000I-1250000J0D01*
G01*
%TO.C,R5*%
X48730000Y-26112000D02*
X50330000Y-26112000D01*
X50330000Y-26112000D02*
X50330000Y-29312000D01*
X48730000Y-29312000D02*
X48730000Y-26112000D01*
X50330000Y-29312000D02*
X48730000Y-29312000D01*
%TO.C,U4*%
X7450000Y-37189600D02*
X7450000Y-40229600D01*
X6600000Y-37189600D02*
X7450000Y-37189600D01*
X6050000Y-40229600D02*
X7450000Y-40229600D01*
X6050000Y-37759600D02*
X6050000Y-40209600D01*
X6050000Y-37759600D02*
X6600000Y-37189600D01*
%TO.C,R87*%
X5258000Y-45250000D02*
X5258000Y-43650000D01*
X8458000Y-43650000D02*
X8458000Y-45250000D01*
X5258000Y-43650000D02*
X8458000Y-43650000D01*
X8458000Y-45250000D02*
X5258000Y-45250000D01*
%TO.C,R22*%
X34582000Y-9728000D02*
X32982000Y-9728000D01*
X32982000Y-6528000D02*
X34582000Y-6528000D01*
X34582000Y-6528000D02*
X34582000Y-9728000D01*
X32982000Y-9728000D02*
X32982000Y-6528000D01*
%TO.C,RV0*%
X21100000Y-51850000D02*
X21100000Y-51650000D01*
X26100000Y-51650000D02*
X26100000Y-51850000D01*
X19900000Y-51850000D02*
X21090000Y-51850000D01*
X19900000Y-51650000D02*
X19900000Y-51850000D01*
X19800000Y-46050000D02*
X19800000Y-51650000D01*
X26100000Y-51850000D02*
X24900000Y-51850000D01*
X19800000Y-51650000D02*
X26200000Y-51650000D01*
X25000000Y-44850000D02*
X21000000Y-44850000D01*
X24900000Y-51850000D02*
X24900000Y-51650000D01*
X26200000Y-46050000D02*
X26200000Y-51650000D01*
X21000000Y-44850000D02*
G75*
G03*
X19800000Y-46050000I0J-1200000D01*
G01*
X26200000Y-46050000D02*
G75*
G03*
X25000000Y-44850000I-1200000J0D01*
G01*
X26000000Y-48050000D02*
G75*
G03*
X26000000Y-48050000I-3000000J0D01*
G01*
%TO.C,J6*%
X29246000Y-8402000D02*
X30246000Y-9402000D01*
X30246000Y-9402000D02*
X30246000Y-26182000D01*
X25166000Y-26182000D02*
X25166000Y-8402000D01*
X30246000Y-26182000D02*
X25166000Y-26182000D01*
X25166000Y-8402000D02*
X29246000Y-8402000D01*
%TD*%
D14*
%TO.C,R13*%
D13*
X42611161Y-5994128D02*
X42675729Y-6037271D01*
X42718872Y-6101839D01*
X42735000Y-6182923D01*
X42735000Y-6973077D01*
X42718872Y-7054161D01*
X42675729Y-7118729D01*
X42611161Y-7161872D01*
X42530077Y-7178000D01*
X41289923Y-7178000D01*
X41208839Y-7161872D01*
X41144271Y-7118729D01*
X41101128Y-7054161D01*
X41085000Y-6973077D01*
X41085000Y-6182923D01*
X41101128Y-6101839D01*
X41144271Y-6037271D01*
X41208839Y-5994128D01*
X41289923Y-5978000D01*
X42530077Y-5978000D01*
X42611161Y-5994128D01*
D14*
D13*
X42611161Y-9094128D02*
X42675729Y-9137271D01*
X42718872Y-9201839D01*
X42735000Y-9282923D01*
X42735000Y-10073077D01*
X42718872Y-10154161D01*
X42675729Y-10218729D01*
X42611161Y-10261872D01*
X42530077Y-10278000D01*
X41289923Y-10278000D01*
X41208839Y-10261872D01*
X41144271Y-10218729D01*
X41101128Y-10154161D01*
X41085000Y-10073077D01*
X41085000Y-9282923D01*
X41101128Y-9201839D01*
X41144271Y-9137271D01*
X41208839Y-9094128D01*
X41289923Y-9078000D01*
X42530077Y-9078000D01*
X42611161Y-9094128D01*
%TD*%
%TO.C,Q7*%
X45304000Y-13286000D02*
X45304000Y-15086000D01*
X46004000Y-15086000D01*
X46004000Y-13286000D01*
X45304000Y-13286000D01*
X43404000Y-13286000D02*
X43404000Y-15086000D01*
X44104000Y-15086000D01*
X44104000Y-13286000D01*
X43404000Y-13286000D01*
X44354000Y-16286000D02*
X44354000Y-18086000D01*
X45054000Y-18086000D01*
X45054000Y-16286000D01*
X44354000Y-16286000D01*
%TD*%
%TO.C,U3*%
X4350000Y-28700000D02*
X4350000Y-29400000D01*
X6150000Y-29400000D01*
X6150000Y-28700000D01*
X4350000Y-28700000D01*
X4350000Y-30600000D02*
X4350000Y-31300000D01*
X6150000Y-31300000D01*
X6150000Y-30600000D01*
X4350000Y-30600000D01*
X7350000Y-29650000D02*
X7350000Y-30350000D01*
X9150000Y-30350000D01*
X9150000Y-29650000D01*
X7350000Y-29650000D01*
%TD*%
%TO.C,J5*%
X61176000Y-34506000D02*
X61176000Y-36106000D01*
X62776000Y-36106000D01*
X62776000Y-34506000D01*
X61176000Y-34506000D01*
X59436000Y-34506000D02*
X59436000Y-34506000D01*
X59436000Y-36106000D02*
X59436000Y-36106000D01*
X59436000Y-34506000D02*
G75*
G03*
X59436000Y-36106000I0J-800000D01*
G01*
X59436000Y-36106000D02*
G75*
G03*
X59436000Y-34506000I0J800000D01*
G01*
X56896000Y-34506000D02*
X56896000Y-34506000D01*
X56896000Y-36106000D02*
X56896000Y-36106000D01*
X56896000Y-34506000D02*
G75*
G03*
X56896000Y-36106000I0J-800000D01*
G01*
X56896000Y-36106000D02*
G75*
G03*
X56896000Y-34506000I0J800000D01*
G01*
X54356000Y-34506000D02*
X54356000Y-34506000D01*
X54356000Y-36106000D02*
X54356000Y-36106000D01*
X54356000Y-34506000D02*
G75*
G03*
X54356000Y-36106000I0J-800000D01*
G01*
X54356000Y-36106000D02*
G75*
G03*
X54356000Y-34506000I0J800000D01*
G01*
X51816000Y-34506000D02*
X51816000Y-34506000D01*
X51816000Y-36106000D02*
X51816000Y-36106000D01*
X51816000Y-34506000D02*
G75*
G03*
X51816000Y-36106000I0J-800000D01*
G01*
X51816000Y-36106000D02*
G75*
G03*
X51816000Y-34506000I0J800000D01*
G01*
X49276000Y-34506000D02*
X49276000Y-34506000D01*
X49276000Y-36106000D02*
X49276000Y-36106000D01*
X49276000Y-34506000D02*
G75*
G03*
X49276000Y-36106000I0J-800000D01*
G01*
X49276000Y-36106000D02*
G75*
G03*
X49276000Y-34506000I0J800000D01*
G01*
X46736000Y-34506000D02*
X46736000Y-34506000D01*
X46736000Y-36106000D02*
X46736000Y-36106000D01*
X46736000Y-34506000D02*
G75*
G03*
X46736000Y-36106000I0J-800000D01*
G01*
X46736000Y-36106000D02*
G75*
G03*
X46736000Y-34506000I0J800000D01*
G01*
X44196000Y-34506000D02*
X44196000Y-34506000D01*
X44196000Y-36106000D02*
X44196000Y-36106000D01*
X44196000Y-34506000D02*
G75*
G03*
X44196000Y-36106000I0J-800000D01*
G01*
X44196000Y-36106000D02*
G75*
G03*
X44196000Y-34506000I0J800000D01*
G01*
X41656000Y-34506000D02*
X41656000Y-34506000D01*
X41656000Y-36106000D02*
X41656000Y-36106000D01*
X41656000Y-34506000D02*
G75*
G03*
X41656000Y-36106000I0J-800000D01*
G01*
X41656000Y-36106000D02*
G75*
G03*
X41656000Y-34506000I0J800000D01*
G01*
X39116000Y-34506000D02*
X39116000Y-34506000D01*
X39116000Y-36106000D02*
X39116000Y-36106000D01*
X39116000Y-34506000D02*
G75*
G03*
X39116000Y-36106000I0J-800000D01*
G01*
X39116000Y-36106000D02*
G75*
G03*
X39116000Y-34506000I0J800000D01*
G01*
X36576000Y-34506000D02*
X36576000Y-34506000D01*
X36576000Y-36106000D02*
X36576000Y-36106000D01*
X36576000Y-34506000D02*
G75*
G03*
X36576000Y-36106000I0J-800000D01*
G01*
X36576000Y-36106000D02*
G75*
G03*
X36576000Y-34506000I0J800000D01*
G01*
X34036000Y-34506000D02*
X34036000Y-34506000D01*
X34036000Y-36106000D02*
X34036000Y-36106000D01*
X34036000Y-34506000D02*
G75*
G03*
X34036000Y-36106000I0J-800000D01*
G01*
X34036000Y-36106000D02*
G75*
G03*
X34036000Y-34506000I0J800000D01*
G01*
X31496000Y-34506000D02*
X31496000Y-34506000D01*
X31496000Y-36106000D02*
X31496000Y-36106000D01*
X31496000Y-34506000D02*
G75*
G03*
X31496000Y-36106000I0J-800000D01*
G01*
X31496000Y-36106000D02*
G75*
G03*
X31496000Y-34506000I0J800000D01*
G01*
X28956000Y-34506000D02*
X28956000Y-34506000D01*
X28956000Y-36106000D02*
X28956000Y-36106000D01*
X28956000Y-34506000D02*
G75*
G03*
X28956000Y-36106000I0J-800000D01*
G01*
X28956000Y-36106000D02*
G75*
G03*
X28956000Y-34506000I0J800000D01*
G01*
%TD*%
%TO.C,U6*%
X7458000Y-6797600D02*
X7458000Y-7497600D01*
X9258000Y-7497600D01*
X9258000Y-6797600D01*
X7458000Y-6797600D01*
X7458000Y-4897600D02*
X7458000Y-5597600D01*
X9258000Y-5597600D01*
X9258000Y-4897600D01*
X7458000Y-4897600D01*
X4458000Y-5847600D02*
X4458000Y-6547600D01*
X6258000Y-6547600D01*
X6258000Y-5847600D01*
X4458000Y-5847600D01*
%TD*%
D14*
%TO.C,R17*%
D13*
X38801161Y-25552128D02*
X38865729Y-25595271D01*
X38908872Y-25659839D01*
X38925000Y-25740923D01*
X38925000Y-26531077D01*
X38908872Y-26612161D01*
X38865729Y-26676729D01*
X38801161Y-26719872D01*
X38720077Y-26736000D01*
X37479923Y-26736000D01*
X37398839Y-26719872D01*
X37334271Y-26676729D01*
X37291128Y-26612161D01*
X37275000Y-26531077D01*
X37275000Y-25740923D01*
X37291128Y-25659839D01*
X37334271Y-25595271D01*
X37398839Y-25552128D01*
X37479923Y-25536000D01*
X38720077Y-25536000D01*
X38801161Y-25552128D01*
D14*
D13*
X38801161Y-28652128D02*
X38865729Y-28695271D01*
X38908872Y-28759839D01*
X38925000Y-28840923D01*
X38925000Y-29631077D01*
X38908872Y-29712161D01*
X38865729Y-29776729D01*
X38801161Y-29819872D01*
X38720077Y-29836000D01*
X37479923Y-29836000D01*
X37398839Y-29819872D01*
X37334271Y-29776729D01*
X37291128Y-29712161D01*
X37275000Y-29631077D01*
X37275000Y-28840923D01*
X37291128Y-28759839D01*
X37334271Y-28695271D01*
X37398839Y-28652128D01*
X37479923Y-28636000D01*
X38720077Y-28636000D01*
X38801161Y-28652128D01*
%TD*%
D14*
%TO.C,R7*%
D13*
X49215161Y-6096128D02*
X49279729Y-6139271D01*
X49322872Y-6203839D01*
X49339000Y-6284923D01*
X49339000Y-7075077D01*
X49322872Y-7156161D01*
X49279729Y-7220729D01*
X49215161Y-7263872D01*
X49134077Y-7280000D01*
X47893923Y-7280000D01*
X47812839Y-7263872D01*
X47748271Y-7220729D01*
X47705128Y-7156161D01*
X47689000Y-7075077D01*
X47689000Y-6284923D01*
X47705128Y-6203839D01*
X47748271Y-6139271D01*
X47812839Y-6096128D01*
X47893923Y-6080000D01*
X49134077Y-6080000D01*
X49215161Y-6096128D01*
D14*
D13*
X49215161Y-9196128D02*
X49279729Y-9239271D01*
X49322872Y-9303839D01*
X49339000Y-9384923D01*
X49339000Y-10175077D01*
X49322872Y-10256161D01*
X49279729Y-10320729D01*
X49215161Y-10363872D01*
X49134077Y-10380000D01*
X47893923Y-10380000D01*
X47812839Y-10363872D01*
X47748271Y-10320729D01*
X47705128Y-10256161D01*
X47689000Y-10175077D01*
X47689000Y-9384923D01*
X47705128Y-9303839D01*
X47748271Y-9239271D01*
X47812839Y-9196128D01*
X47893923Y-9180000D01*
X49134077Y-9180000D01*
X49215161Y-9196128D01*
%TD*%
%TO.C,RV6*%
X15075000Y-1150000D02*
X15075000Y-2600000D01*
X16525000Y-2600000D01*
X16525000Y-1150000D01*
X15075000Y-1150000D01*
X11525000Y-4375000D02*
G75*
G03*
X11525000Y-4375000I-725000J0D01*
G01*
X16525000Y-6875000D02*
G75*
G03*
X16525000Y-6875000I-725000J0D01*
G01*
%TD*%
D14*
%TO.C,R10*%
D13*
X46521161Y-6056128D02*
X46585729Y-6099271D01*
X46628872Y-6163839D01*
X46645000Y-6244923D01*
X46645000Y-7035077D01*
X46628872Y-7116161D01*
X46585729Y-7180729D01*
X46521161Y-7223872D01*
X46440077Y-7240000D01*
X45199923Y-7240000D01*
X45118839Y-7223872D01*
X45054271Y-7180729D01*
X45011128Y-7116161D01*
X44995000Y-7035077D01*
X44995000Y-6244923D01*
X45011128Y-6163839D01*
X45054271Y-6099271D01*
X45118839Y-6056128D01*
X45199923Y-6040000D01*
X46440077Y-6040000D01*
X46521161Y-6056128D01*
D14*
D13*
X46521161Y-9156128D02*
X46585729Y-9199271D01*
X46628872Y-9263839D01*
X46645000Y-9344923D01*
X46645000Y-10135077D01*
X46628872Y-10216161D01*
X46585729Y-10280729D01*
X46521161Y-10323872D01*
X46440077Y-10340000D01*
X45199923Y-10340000D01*
X45118839Y-10323872D01*
X45054271Y-10280729D01*
X45011128Y-10216161D01*
X44995000Y-10135077D01*
X44995000Y-9344923D01*
X45011128Y-9263839D01*
X45054271Y-9199271D01*
X45118839Y-9156128D01*
X45199923Y-9140000D01*
X46440077Y-9140000D01*
X46521161Y-9156128D01*
%TD*%
%TO.C,RV5*%
X10400000Y-50550000D02*
X10400000Y-52000000D01*
X11850000Y-52000000D01*
X11850000Y-50550000D01*
X10400000Y-50550000D01*
X16850000Y-48775000D02*
G75*
G03*
X16850000Y-48775000I-725000J0D01*
G01*
X11850000Y-46275000D02*
G75*
G03*
X11850000Y-46275000I-725000J0D01*
G01*
%TD*%
%TO.C,R82*%
X3250000Y-29750000D02*
G75*
G03*
X3250000Y-29750000I-750000J0D01*
G01*
X2500000Y-31540000D02*
X2500000Y-31540000D01*
X2500000Y-33040000D02*
X2500000Y-33040000D01*
X2500000Y-31540000D02*
G75*
G03*
X2500000Y-33040000I0J-750000D01*
G01*
X2500000Y-33040000D02*
G75*
G03*
X2500000Y-31540000I0J750000D01*
G01*
%TD*%
D14*
%TO.C,R83*%
D13*
X8858161Y-41191128D02*
X8922729Y-41234271D01*
X8965872Y-41298839D01*
X8982000Y-41379923D01*
X8982000Y-42620077D01*
X8965872Y-42701161D01*
X8922729Y-42765729D01*
X8858161Y-42808872D01*
X8777077Y-42825000D01*
X7986923Y-42825000D01*
X7905839Y-42808872D01*
X7841271Y-42765729D01*
X7798128Y-42701161D01*
X7782000Y-42620077D01*
X7782000Y-41379923D01*
X7798128Y-41298839D01*
X7841271Y-41234271D01*
X7905839Y-41191128D01*
X7986923Y-41175000D01*
X8777077Y-41175000D01*
X8858161Y-41191128D01*
D14*
D13*
X5758161Y-41191128D02*
X5822729Y-41234271D01*
X5865872Y-41298839D01*
X5882000Y-41379923D01*
X5882000Y-42620077D01*
X5865872Y-42701161D01*
X5822729Y-42765729D01*
X5758161Y-42808872D01*
X5677077Y-42825000D01*
X4886923Y-42825000D01*
X4805839Y-42808872D01*
X4741271Y-42765729D01*
X4698128Y-42701161D01*
X4682000Y-42620077D01*
X4682000Y-41379923D01*
X4698128Y-41298839D01*
X4741271Y-41234271D01*
X4805839Y-41191128D01*
X4886923Y-41175000D01*
X5677077Y-41175000D01*
X5758161Y-41191128D01*
%TD*%
D14*
%TO.C,R75*%
D13*
X8884161Y-8487528D02*
X8948729Y-8530671D01*
X8991872Y-8595239D01*
X9008000Y-8676323D01*
X9008000Y-9916477D01*
X8991872Y-9997561D01*
X8948729Y-10062129D01*
X8884161Y-10105272D01*
X8803077Y-10121400D01*
X8012923Y-10121400D01*
X7931839Y-10105272D01*
X7867271Y-10062129D01*
X7824128Y-9997561D01*
X7808000Y-9916477D01*
X7808000Y-8676323D01*
X7824128Y-8595239D01*
X7867271Y-8530671D01*
X7931839Y-8487528D01*
X8012923Y-8471400D01*
X8803077Y-8471400D01*
X8884161Y-8487528D01*
D14*
D13*
X5784161Y-8487528D02*
X5848729Y-8530671D01*
X5891872Y-8595239D01*
X5908000Y-8676323D01*
X5908000Y-9916477D01*
X5891872Y-9997561D01*
X5848729Y-10062129D01*
X5784161Y-10105272D01*
X5703077Y-10121400D01*
X4912923Y-10121400D01*
X4831839Y-10105272D01*
X4767271Y-10062129D01*
X4724128Y-9997561D01*
X4708000Y-9916477D01*
X4708000Y-8676323D01*
X4724128Y-8595239D01*
X4767271Y-8530671D01*
X4831839Y-8487528D01*
X4912923Y-8471400D01*
X5703077Y-8471400D01*
X5784161Y-8487528D01*
%TD*%
D14*
%TO.C,R1*%
D13*
X54111161Y-6126128D02*
X54175729Y-6169271D01*
X54218872Y-6233839D01*
X54235000Y-6314923D01*
X54235000Y-7105077D01*
X54218872Y-7186161D01*
X54175729Y-7250729D01*
X54111161Y-7293872D01*
X54030077Y-7310000D01*
X52789923Y-7310000D01*
X52708839Y-7293872D01*
X52644271Y-7250729D01*
X52601128Y-7186161D01*
X52585000Y-7105077D01*
X52585000Y-6314923D01*
X52601128Y-6233839D01*
X52644271Y-6169271D01*
X52708839Y-6126128D01*
X52789923Y-6110000D01*
X54030077Y-6110000D01*
X54111161Y-6126128D01*
D14*
D13*
X54111161Y-9226128D02*
X54175729Y-9269271D01*
X54218872Y-9333839D01*
X54235000Y-9414923D01*
X54235000Y-10205077D01*
X54218872Y-10286161D01*
X54175729Y-10350729D01*
X54111161Y-10393872D01*
X54030077Y-10410000D01*
X52789923Y-10410000D01*
X52708839Y-10393872D01*
X52644271Y-10350729D01*
X52601128Y-10286161D01*
X52585000Y-10205077D01*
X52585000Y-9414923D01*
X52601128Y-9333839D01*
X52644271Y-9269271D01*
X52708839Y-9226128D01*
X52789923Y-9210000D01*
X54030077Y-9210000D01*
X54111161Y-9226128D01*
%TD*%
%TO.C,R85*%
X3250000Y-37309000D02*
G75*
G03*
X3250000Y-37309000I-750000J0D01*
G01*
X2500000Y-39099000D02*
X2500000Y-39099000D01*
X2500000Y-40599000D02*
X2500000Y-40599000D01*
X2500000Y-39099000D02*
G75*
G03*
X2500000Y-40599000I0J-750000D01*
G01*
X2500000Y-40599000D02*
G75*
G03*
X2500000Y-39099000I0J750000D01*
G01*
%TD*%
D14*
%TO.C,R23*%
D13*
X32959161Y-25552128D02*
X33023729Y-25595271D01*
X33066872Y-25659839D01*
X33083000Y-25740923D01*
X33083000Y-26531077D01*
X33066872Y-26612161D01*
X33023729Y-26676729D01*
X32959161Y-26719872D01*
X32878077Y-26736000D01*
X31637923Y-26736000D01*
X31556839Y-26719872D01*
X31492271Y-26676729D01*
X31449128Y-26612161D01*
X31433000Y-26531077D01*
X31433000Y-25740923D01*
X31449128Y-25659839D01*
X31492271Y-25595271D01*
X31556839Y-25552128D01*
X31637923Y-25536000D01*
X32878077Y-25536000D01*
X32959161Y-25552128D01*
D14*
D13*
X32959161Y-28652128D02*
X33023729Y-28695271D01*
X33066872Y-28759839D01*
X33083000Y-28840923D01*
X33083000Y-29631077D01*
X33066872Y-29712161D01*
X33023729Y-29776729D01*
X32959161Y-29819872D01*
X32878077Y-29836000D01*
X31637923Y-29836000D01*
X31556839Y-29819872D01*
X31492271Y-29776729D01*
X31449128Y-29712161D01*
X31433000Y-29631077D01*
X31433000Y-28840923D01*
X31449128Y-28759839D01*
X31492271Y-28695271D01*
X31556839Y-28652128D01*
X31637923Y-28636000D01*
X32878077Y-28636000D01*
X32959161Y-28652128D01*
%TD*%
%TO.C,Q13*%
X35652000Y-19698000D02*
X35652000Y-21498000D01*
X36352000Y-21498000D01*
X36352000Y-19698000D01*
X35652000Y-19698000D01*
X33752000Y-19698000D02*
X33752000Y-21498000D01*
X34452000Y-21498000D01*
X34452000Y-19698000D01*
X33752000Y-19698000D01*
X34702000Y-22698000D02*
X34702000Y-24498000D01*
X35402000Y-24498000D01*
X35402000Y-22698000D01*
X34702000Y-22698000D01*
%TD*%
D14*
%TO.C,R16*%
D13*
X39817161Y-5994128D02*
X39881729Y-6037271D01*
X39924872Y-6101839D01*
X39941000Y-6182923D01*
X39941000Y-6973077D01*
X39924872Y-7054161D01*
X39881729Y-7118729D01*
X39817161Y-7161872D01*
X39736077Y-7178000D01*
X38495923Y-7178000D01*
X38414839Y-7161872D01*
X38350271Y-7118729D01*
X38307128Y-7054161D01*
X38291000Y-6973077D01*
X38291000Y-6182923D01*
X38307128Y-6101839D01*
X38350271Y-6037271D01*
X38414839Y-5994128D01*
X38495923Y-5978000D01*
X39736077Y-5978000D01*
X39817161Y-5994128D01*
D14*
D13*
X39817161Y-9094128D02*
X39881729Y-9137271D01*
X39924872Y-9201839D01*
X39941000Y-9282923D01*
X39941000Y-10073077D01*
X39924872Y-10154161D01*
X39881729Y-10218729D01*
X39817161Y-10261872D01*
X39736077Y-10278000D01*
X38495923Y-10278000D01*
X38414839Y-10261872D01*
X38350271Y-10218729D01*
X38307128Y-10154161D01*
X38291000Y-10073077D01*
X38291000Y-9282923D01*
X38307128Y-9201839D01*
X38350271Y-9137271D01*
X38414839Y-9094128D01*
X38495923Y-9078000D01*
X39736077Y-9078000D01*
X39817161Y-9094128D01*
%TD*%
D14*
%TO.C,R86*%
D13*
X8884161Y-50346728D02*
X8948729Y-50389871D01*
X8991872Y-50454439D01*
X9008000Y-50535523D01*
X9008000Y-51775677D01*
X8991872Y-51856761D01*
X8948729Y-51921329D01*
X8884161Y-51964472D01*
X8803077Y-51980600D01*
X8012923Y-51980600D01*
X7931839Y-51964472D01*
X7867271Y-51921329D01*
X7824128Y-51856761D01*
X7808000Y-51775677D01*
X7808000Y-50535523D01*
X7824128Y-50454439D01*
X7867271Y-50389871D01*
X7931839Y-50346728D01*
X8012923Y-50330600D01*
X8803077Y-50330600D01*
X8884161Y-50346728D01*
D14*
D13*
X5784161Y-50346728D02*
X5848729Y-50389871D01*
X5891872Y-50454439D01*
X5908000Y-50535523D01*
X5908000Y-51775677D01*
X5891872Y-51856761D01*
X5848729Y-51921329D01*
X5784161Y-51964472D01*
X5703077Y-51980600D01*
X4912923Y-51980600D01*
X4831839Y-51964472D01*
X4767271Y-51921329D01*
X4724128Y-51856761D01*
X4708000Y-51775677D01*
X4708000Y-50535523D01*
X4724128Y-50454439D01*
X4767271Y-50389871D01*
X4831839Y-50346728D01*
X4912923Y-50330600D01*
X5703077Y-50330600D01*
X5784161Y-50346728D01*
%TD*%
%TO.C,Q3*%
X50638000Y-13056000D02*
X50638000Y-14856000D01*
X51338000Y-14856000D01*
X51338000Y-13056000D01*
X50638000Y-13056000D01*
X48738000Y-13056000D02*
X48738000Y-14856000D01*
X49438000Y-14856000D01*
X49438000Y-13056000D01*
X48738000Y-13056000D01*
X49688000Y-16056000D02*
X49688000Y-17856000D01*
X50388000Y-17856000D01*
X50388000Y-16056000D01*
X49688000Y-16056000D01*
%TD*%
%TO.C,U2*%
X4350000Y-19950000D02*
X4350000Y-20650000D01*
X6150000Y-20650000D01*
X6150000Y-19950000D01*
X4350000Y-19950000D01*
X4350000Y-21850000D02*
X4350000Y-22550000D01*
X6150000Y-22550000D01*
X6150000Y-21850000D01*
X4350000Y-21850000D01*
X7350000Y-20900000D02*
X7350000Y-21600000D01*
X9150000Y-21600000D01*
X9150000Y-20900000D01*
X7350000Y-20900000D01*
%TD*%
%TO.C,RV2*%
X10425000Y-23500000D02*
X10425000Y-24950000D01*
X11875000Y-24950000D01*
X11875000Y-23500000D01*
X10425000Y-23500000D01*
X16875000Y-21725000D02*
G75*
G03*
X16875000Y-21725000I-725000J0D01*
G01*
X11875000Y-19225000D02*
G75*
G03*
X11875000Y-19225000I-725000J0D01*
G01*
%TD*%
%TO.C,RV3*%
X10375000Y-32200000D02*
X10375000Y-33650000D01*
X11825000Y-33650000D01*
X11825000Y-32200000D01*
X10375000Y-32200000D01*
X16825000Y-30425000D02*
G75*
G03*
X16825000Y-30425000I-725000J0D01*
G01*
X11825000Y-27925000D02*
G75*
G03*
X11825000Y-27925000I-725000J0D01*
G01*
%TD*%
%TO.C,Q5*%
X46828000Y-19444000D02*
X46828000Y-21244000D01*
X47528000Y-21244000D01*
X47528000Y-19444000D01*
X46828000Y-19444000D01*
X44928000Y-19444000D02*
X44928000Y-21244000D01*
X45628000Y-21244000D01*
X45628000Y-19444000D01*
X44928000Y-19444000D01*
X45878000Y-22444000D02*
X45878000Y-24244000D01*
X46578000Y-24244000D01*
X46578000Y-22444000D01*
X45878000Y-22444000D01*
%TD*%
%TO.C,U5*%
X4458000Y-46553600D02*
X4458000Y-47253600D01*
X6258000Y-47253600D01*
X6258000Y-46553600D01*
X4458000Y-46553600D01*
X4458000Y-48453600D02*
X4458000Y-49153600D01*
X6258000Y-49153600D01*
X6258000Y-48453600D01*
X4458000Y-48453600D01*
X7458000Y-47503600D02*
X7458000Y-48203600D01*
X9258000Y-48203600D01*
X9258000Y-47503600D01*
X7458000Y-47503600D01*
%TD*%
D14*
%TO.C,R4*%
D13*
X51731161Y-6096128D02*
X51795729Y-6139271D01*
X51838872Y-6203839D01*
X51855000Y-6284923D01*
X51855000Y-7075077D01*
X51838872Y-7156161D01*
X51795729Y-7220729D01*
X51731161Y-7263872D01*
X51650077Y-7280000D01*
X50409923Y-7280000D01*
X50328839Y-7263872D01*
X50264271Y-7220729D01*
X50221128Y-7156161D01*
X50205000Y-7075077D01*
X50205000Y-6284923D01*
X50221128Y-6203839D01*
X50264271Y-6139271D01*
X50328839Y-6096128D01*
X50409923Y-6080000D01*
X51650077Y-6080000D01*
X51731161Y-6096128D01*
D14*
D13*
X51731161Y-9196128D02*
X51795729Y-9239271D01*
X51838872Y-9303839D01*
X51855000Y-9384923D01*
X51855000Y-10175077D01*
X51838872Y-10256161D01*
X51795729Y-10320729D01*
X51731161Y-10363872D01*
X51650077Y-10380000D01*
X50409923Y-10380000D01*
X50328839Y-10363872D01*
X50264271Y-10320729D01*
X50221128Y-10256161D01*
X50205000Y-10175077D01*
X50205000Y-9384923D01*
X50221128Y-9303839D01*
X50264271Y-9239271D01*
X50328839Y-9196128D01*
X50409923Y-9180000D01*
X51650077Y-9180000D01*
X51731161Y-9196128D01*
%TD*%
%TO.C,RV4*%
X10375000Y-41300000D02*
X10375000Y-42750000D01*
X11825000Y-42750000D01*
X11825000Y-41300000D01*
X10375000Y-41300000D01*
X16825000Y-39525000D02*
G75*
G03*
X16825000Y-39525000I-725000J0D01*
G01*
X11825000Y-37025000D02*
G75*
G03*
X11825000Y-37025000I-725000J0D01*
G01*
%TD*%
D14*
%TO.C,R8*%
D13*
X46929161Y-25552128D02*
X46993729Y-25595271D01*
X47036872Y-25659839D01*
X47053000Y-25740923D01*
X47053000Y-26531077D01*
X47036872Y-26612161D01*
X46993729Y-26676729D01*
X46929161Y-26719872D01*
X46848077Y-26736000D01*
X45607923Y-26736000D01*
X45526839Y-26719872D01*
X45462271Y-26676729D01*
X45419128Y-26612161D01*
X45403000Y-26531077D01*
X45403000Y-25740923D01*
X45419128Y-25659839D01*
X45462271Y-25595271D01*
X45526839Y-25552128D01*
X45607923Y-25536000D01*
X46848077Y-25536000D01*
X46929161Y-25552128D01*
D14*
D13*
X46929161Y-28652128D02*
X46993729Y-28695271D01*
X47036872Y-28759839D01*
X47053000Y-28840923D01*
X47053000Y-29631077D01*
X47036872Y-29712161D01*
X46993729Y-29776729D01*
X46929161Y-29819872D01*
X46848077Y-29836000D01*
X45607923Y-29836000D01*
X45526839Y-29819872D01*
X45462271Y-29776729D01*
X45419128Y-29712161D01*
X45403000Y-29631077D01*
X45403000Y-28840923D01*
X45419128Y-28759839D01*
X45462271Y-28695271D01*
X45526839Y-28652128D01*
X45607923Y-28636000D01*
X46848077Y-28636000D01*
X46929161Y-28652128D01*
%TD*%
%TO.C,RV1*%
X10375000Y-15025000D02*
X10375000Y-16475000D01*
X11825000Y-16475000D01*
X11825000Y-15025000D01*
X10375000Y-15025000D01*
X16825000Y-13250000D02*
G75*
G03*
X16825000Y-13250000I-725000J0D01*
G01*
X11825000Y-10750000D02*
G75*
G03*
X11825000Y-10750000I-725000J0D01*
G01*
%TD*%
%TO.C,U1*%
X4204000Y-11146000D02*
X4204000Y-11846000D01*
X6004000Y-11846000D01*
X6004000Y-11146000D01*
X4204000Y-11146000D01*
X4204000Y-13046000D02*
X4204000Y-13746000D01*
X6004000Y-13746000D01*
X6004000Y-13046000D01*
X4204000Y-13046000D01*
X7204000Y-12096000D02*
X7204000Y-12796000D01*
X9004000Y-12796000D01*
X9004000Y-12096000D01*
X7204000Y-12096000D01*
%TD*%
D14*
%TO.C,R80*%
D13*
X8884161Y-32261928D02*
X8948729Y-32305071D01*
X8991872Y-32369639D01*
X9008000Y-32450723D01*
X9008000Y-33690877D01*
X8991872Y-33771961D01*
X8948729Y-33836529D01*
X8884161Y-33879672D01*
X8803077Y-33895800D01*
X8012923Y-33895800D01*
X7931839Y-33879672D01*
X7867271Y-33836529D01*
X7824128Y-33771961D01*
X7808000Y-33690877D01*
X7808000Y-32450723D01*
X7824128Y-32369639D01*
X7867271Y-32305071D01*
X7931839Y-32261928D01*
X8012923Y-32245800D01*
X8803077Y-32245800D01*
X8884161Y-32261928D01*
D14*
D13*
X5784161Y-32261928D02*
X5848729Y-32305071D01*
X5891872Y-32369639D01*
X5908000Y-32450723D01*
X5908000Y-33690877D01*
X5891872Y-33771961D01*
X5848729Y-33836529D01*
X5784161Y-33879672D01*
X5703077Y-33895800D01*
X4912923Y-33895800D01*
X4831839Y-33879672D01*
X4767271Y-33836529D01*
X4724128Y-33771961D01*
X4708000Y-33690877D01*
X4708000Y-32450723D01*
X4724128Y-32369639D01*
X4767271Y-32305071D01*
X4831839Y-32261928D01*
X4912923Y-32245800D01*
X5703077Y-32245800D01*
X5784161Y-32261928D01*
%TD*%
D14*
%TO.C,R90*%
D13*
X3495161Y-5968128D02*
X3559729Y-6011271D01*
X3602872Y-6075839D01*
X3619000Y-6156923D01*
X3619000Y-6947077D01*
X3602872Y-7028161D01*
X3559729Y-7092729D01*
X3495161Y-7135872D01*
X3414077Y-7152000D01*
X2173923Y-7152000D01*
X2092839Y-7135872D01*
X2028271Y-7092729D01*
X1985128Y-7028161D01*
X1969000Y-6947077D01*
X1969000Y-6156923D01*
X1985128Y-6075839D01*
X2028271Y-6011271D01*
X2092839Y-5968128D01*
X2173923Y-5952000D01*
X3414077Y-5952000D01*
X3495161Y-5968128D01*
D14*
D13*
X3495161Y-9068128D02*
X3559729Y-9111271D01*
X3602872Y-9175839D01*
X3619000Y-9256923D01*
X3619000Y-10047077D01*
X3602872Y-10128161D01*
X3559729Y-10192729D01*
X3495161Y-10235872D01*
X3414077Y-10252000D01*
X2173923Y-10252000D01*
X2092839Y-10235872D01*
X2028271Y-10192729D01*
X1985128Y-10128161D01*
X1969000Y-10047077D01*
X1969000Y-9256923D01*
X1985128Y-9175839D01*
X2028271Y-9111271D01*
X2092839Y-9068128D01*
X2173923Y-9052000D01*
X3414077Y-9052000D01*
X3495161Y-9068128D01*
%TD*%
%TO.C,Q9*%
X41240000Y-19698000D02*
X41240000Y-21498000D01*
X41940000Y-21498000D01*
X41940000Y-19698000D01*
X41240000Y-19698000D01*
X39340000Y-19698000D02*
X39340000Y-21498000D01*
X40040000Y-21498000D01*
X40040000Y-19698000D01*
X39340000Y-19698000D01*
X40290000Y-22698000D02*
X40290000Y-24498000D01*
X40990000Y-24498000D01*
X40990000Y-22698000D01*
X40290000Y-22698000D01*
%TD*%
D14*
%TO.C,R19*%
D13*
X37277161Y-5994128D02*
X37341729Y-6037271D01*
X37384872Y-6101839D01*
X37401000Y-6182923D01*
X37401000Y-6973077D01*
X37384872Y-7054161D01*
X37341729Y-7118729D01*
X37277161Y-7161872D01*
X37196077Y-7178000D01*
X35955923Y-7178000D01*
X35874839Y-7161872D01*
X35810271Y-7118729D01*
X35767128Y-7054161D01*
X35751000Y-6973077D01*
X35751000Y-6182923D01*
X35767128Y-6101839D01*
X35810271Y-6037271D01*
X35874839Y-5994128D01*
X35955923Y-5978000D01*
X37196077Y-5978000D01*
X37277161Y-5994128D01*
D14*
D13*
X37277161Y-9094128D02*
X37341729Y-9137271D01*
X37384872Y-9201839D01*
X37401000Y-9282923D01*
X37401000Y-10073077D01*
X37384872Y-10154161D01*
X37341729Y-10218729D01*
X37277161Y-10261872D01*
X37196077Y-10278000D01*
X35955923Y-10278000D01*
X35874839Y-10261872D01*
X35810271Y-10218729D01*
X35767128Y-10154161D01*
X35751000Y-10073077D01*
X35751000Y-9282923D01*
X35767128Y-9201839D01*
X35810271Y-9137271D01*
X35874839Y-9094128D01*
X35955923Y-9078000D01*
X37196077Y-9078000D01*
X37277161Y-9094128D01*
%TD*%
D14*
%TO.C,R20*%
D13*
X35753161Y-25552128D02*
X35817729Y-25595271D01*
X35860872Y-25659839D01*
X35877000Y-25740923D01*
X35877000Y-26531077D01*
X35860872Y-26612161D01*
X35817729Y-26676729D01*
X35753161Y-26719872D01*
X35672077Y-26736000D01*
X34431923Y-26736000D01*
X34350839Y-26719872D01*
X34286271Y-26676729D01*
X34243128Y-26612161D01*
X34227000Y-26531077D01*
X34227000Y-25740923D01*
X34243128Y-25659839D01*
X34286271Y-25595271D01*
X34350839Y-25552128D01*
X34431923Y-25536000D01*
X35672077Y-25536000D01*
X35753161Y-25552128D01*
D14*
D13*
X35753161Y-28652128D02*
X35817729Y-28695271D01*
X35860872Y-28759839D01*
X35877000Y-28840923D01*
X35877000Y-29631077D01*
X35860872Y-29712161D01*
X35817729Y-29776729D01*
X35753161Y-29819872D01*
X35672077Y-29836000D01*
X34431923Y-29836000D01*
X34350839Y-29819872D01*
X34286271Y-29776729D01*
X34243128Y-29712161D01*
X34227000Y-29631077D01*
X34227000Y-28840923D01*
X34243128Y-28759839D01*
X34286271Y-28695271D01*
X34350839Y-28652128D01*
X34431923Y-28636000D01*
X35672077Y-28636000D01*
X35753161Y-28652128D01*
%TD*%
D14*
%TO.C,R11*%
D13*
X44135161Y-25552128D02*
X44199729Y-25595271D01*
X44242872Y-25659839D01*
X44259000Y-25740923D01*
X44259000Y-26531077D01*
X44242872Y-26612161D01*
X44199729Y-26676729D01*
X44135161Y-26719872D01*
X44054077Y-26736000D01*
X42813923Y-26736000D01*
X42732839Y-26719872D01*
X42668271Y-26676729D01*
X42625128Y-26612161D01*
X42609000Y-26531077D01*
X42609000Y-25740923D01*
X42625128Y-25659839D01*
X42668271Y-25595271D01*
X42732839Y-25552128D01*
X42813923Y-25536000D01*
X44054077Y-25536000D01*
X44135161Y-25552128D01*
D14*
D13*
X44135161Y-28652128D02*
X44199729Y-28695271D01*
X44242872Y-28759839D01*
X44259000Y-28840923D01*
X44259000Y-29631077D01*
X44242872Y-29712161D01*
X44199729Y-29776729D01*
X44135161Y-29819872D01*
X44054077Y-29836000D01*
X42813923Y-29836000D01*
X42732839Y-29819872D01*
X42668271Y-29776729D01*
X42625128Y-29712161D01*
X42609000Y-29631077D01*
X42609000Y-28840923D01*
X42625128Y-28759839D01*
X42668271Y-28695271D01*
X42732839Y-28652128D01*
X42813923Y-28636000D01*
X44054077Y-28636000D01*
X44135161Y-28652128D01*
%TD*%
D14*
%TO.C,R77*%
D13*
X8884161Y-23691128D02*
X8948729Y-23734271D01*
X8991872Y-23798839D01*
X9008000Y-23879923D01*
X9008000Y-25120077D01*
X8991872Y-25201161D01*
X8948729Y-25265729D01*
X8884161Y-25308872D01*
X8803077Y-25325000D01*
X8012923Y-25325000D01*
X7931839Y-25308872D01*
X7867271Y-25265729D01*
X7824128Y-25201161D01*
X7808000Y-25120077D01*
X7808000Y-23879923D01*
X7824128Y-23798839D01*
X7867271Y-23734271D01*
X7931839Y-23691128D01*
X8012923Y-23675000D01*
X8803077Y-23675000D01*
X8884161Y-23691128D01*
D14*
D13*
X5784161Y-23691128D02*
X5848729Y-23734271D01*
X5891872Y-23798839D01*
X5908000Y-23879923D01*
X5908000Y-25120077D01*
X5891872Y-25201161D01*
X5848729Y-25265729D01*
X5784161Y-25308872D01*
X5703077Y-25325000D01*
X4912923Y-25325000D01*
X4831839Y-25308872D01*
X4767271Y-25265729D01*
X4724128Y-25201161D01*
X4708000Y-25120077D01*
X4708000Y-23879923D01*
X4724128Y-23798839D01*
X4767271Y-23734271D01*
X4831839Y-23691128D01*
X4912923Y-23675000D01*
X5703077Y-23675000D01*
X5784161Y-23691128D01*
%TD*%
D14*
%TO.C,R78*%
D13*
X8884161Y-17225128D02*
X8948729Y-17268271D01*
X8991872Y-17332839D01*
X9008000Y-17413923D01*
X9008000Y-18654077D01*
X8991872Y-18735161D01*
X8948729Y-18799729D01*
X8884161Y-18842872D01*
X8803077Y-18859000D01*
X8012923Y-18859000D01*
X7931839Y-18842872D01*
X7867271Y-18799729D01*
X7824128Y-18735161D01*
X7808000Y-18654077D01*
X7808000Y-17413923D01*
X7824128Y-17332839D01*
X7867271Y-17268271D01*
X7931839Y-17225128D01*
X8012923Y-17209000D01*
X8803077Y-17209000D01*
X8884161Y-17225128D01*
D14*
D13*
X5784161Y-17225128D02*
X5848729Y-17268271D01*
X5891872Y-17332839D01*
X5908000Y-17413923D01*
X5908000Y-18654077D01*
X5891872Y-18735161D01*
X5848729Y-18799729D01*
X5784161Y-18842872D01*
X5703077Y-18859000D01*
X4912923Y-18859000D01*
X4831839Y-18842872D01*
X4767271Y-18799729D01*
X4724128Y-18735161D01*
X4708000Y-18654077D01*
X4708000Y-17413923D01*
X4724128Y-17332839D01*
X4767271Y-17268271D01*
X4831839Y-17225128D01*
X4912923Y-17209000D01*
X5703077Y-17209000D01*
X5784161Y-17225128D01*
%TD*%
%TO.C,R88*%
X3250000Y-44955000D02*
G75*
G03*
X3250000Y-44955000I-750000J0D01*
G01*
X2500000Y-46745000D02*
X2500000Y-46745000D01*
X2500000Y-48245000D02*
X2500000Y-48245000D01*
X2500000Y-46745000D02*
G75*
G03*
X2500000Y-48245000I0J-750000D01*
G01*
X2500000Y-48245000D02*
G75*
G03*
X2500000Y-46745000I0J750000D01*
G01*
%TD*%
D14*
%TO.C,R81*%
D13*
X9026161Y-26013528D02*
X9090729Y-26056671D01*
X9133872Y-26121239D01*
X9150000Y-26202323D01*
X9150000Y-27442477D01*
X9133872Y-27523561D01*
X9090729Y-27588129D01*
X9026161Y-27631272D01*
X8945077Y-27647400D01*
X8154923Y-27647400D01*
X8073839Y-27631272D01*
X8009271Y-27588129D01*
X7966128Y-27523561D01*
X7950000Y-27442477D01*
X7950000Y-26202323D01*
X7966128Y-26121239D01*
X8009271Y-26056671D01*
X8073839Y-26013528D01*
X8154923Y-25997400D01*
X8945077Y-25997400D01*
X9026161Y-26013528D01*
D14*
D13*
X5926161Y-26013528D02*
X5990729Y-26056671D01*
X6033872Y-26121239D01*
X6050000Y-26202323D01*
X6050000Y-27442477D01*
X6033872Y-27523561D01*
X5990729Y-27588129D01*
X5926161Y-27631272D01*
X5845077Y-27647400D01*
X5054923Y-27647400D01*
X4973839Y-27631272D01*
X4909271Y-27588129D01*
X4866128Y-27523561D01*
X4850000Y-27442477D01*
X4850000Y-26202323D01*
X4866128Y-26121239D01*
X4909271Y-26056671D01*
X4973839Y-26013528D01*
X5054923Y-25997400D01*
X5845077Y-25997400D01*
X5926161Y-26013528D01*
%TD*%
D14*
%TO.C,R2*%
D13*
X53025161Y-25552128D02*
X53089729Y-25595271D01*
X53132872Y-25659839D01*
X53149000Y-25740923D01*
X53149000Y-26531077D01*
X53132872Y-26612161D01*
X53089729Y-26676729D01*
X53025161Y-26719872D01*
X52944077Y-26736000D01*
X51703923Y-26736000D01*
X51622839Y-26719872D01*
X51558271Y-26676729D01*
X51515128Y-26612161D01*
X51499000Y-26531077D01*
X51499000Y-25740923D01*
X51515128Y-25659839D01*
X51558271Y-25595271D01*
X51622839Y-25552128D01*
X51703923Y-25536000D01*
X52944077Y-25536000D01*
X53025161Y-25552128D01*
D14*
D13*
X53025161Y-28652128D02*
X53089729Y-28695271D01*
X53132872Y-28759839D01*
X53149000Y-28840923D01*
X53149000Y-29631077D01*
X53132872Y-29712161D01*
X53089729Y-29776729D01*
X53025161Y-29819872D01*
X52944077Y-29836000D01*
X51703923Y-29836000D01*
X51622839Y-29819872D01*
X51558271Y-29776729D01*
X51515128Y-29712161D01*
X51499000Y-29631077D01*
X51499000Y-28840923D01*
X51515128Y-28759839D01*
X51558271Y-28695271D01*
X51622839Y-28652128D01*
X51703923Y-28636000D01*
X52944077Y-28636000D01*
X53025161Y-28652128D01*
%TD*%
D14*
%TO.C,R76*%
D13*
X3241161Y-12666128D02*
X3305729Y-12709271D01*
X3348872Y-12773839D01*
X3365000Y-12854923D01*
X3365000Y-13645077D01*
X3348872Y-13726161D01*
X3305729Y-13790729D01*
X3241161Y-13833872D01*
X3160077Y-13850000D01*
X1919923Y-13850000D01*
X1838839Y-13833872D01*
X1774271Y-13790729D01*
X1731128Y-13726161D01*
X1715000Y-13645077D01*
X1715000Y-12854923D01*
X1731128Y-12773839D01*
X1774271Y-12709271D01*
X1838839Y-12666128D01*
X1919923Y-12650000D01*
X3160077Y-12650000D01*
X3241161Y-12666128D01*
D14*
D13*
X3241161Y-15766128D02*
X3305729Y-15809271D01*
X3348872Y-15873839D01*
X3365000Y-15954923D01*
X3365000Y-16745077D01*
X3348872Y-16826161D01*
X3305729Y-16890729D01*
X3241161Y-16933872D01*
X3160077Y-16950000D01*
X1919923Y-16950000D01*
X1838839Y-16933872D01*
X1774271Y-16890729D01*
X1731128Y-16826161D01*
X1715000Y-16745077D01*
X1715000Y-15954923D01*
X1731128Y-15873839D01*
X1774271Y-15809271D01*
X1838839Y-15766128D01*
X1919923Y-15750000D01*
X3160077Y-15750000D01*
X3241161Y-15766128D01*
%TD*%
%TO.C,Q1*%
X52924000Y-19444000D02*
X52924000Y-21244000D01*
X53624000Y-21244000D01*
X53624000Y-19444000D01*
X52924000Y-19444000D01*
X51024000Y-19444000D02*
X51024000Y-21244000D01*
X51724000Y-21244000D01*
X51724000Y-19444000D01*
X51024000Y-19444000D01*
X51974000Y-22444000D02*
X51974000Y-24244000D01*
X52674000Y-24244000D01*
X52674000Y-22444000D01*
X51974000Y-22444000D01*
%TD*%
%TO.C,Q15*%
X33620000Y-13348000D02*
X33620000Y-15148000D01*
X34320000Y-15148000D01*
X34320000Y-13348000D01*
X33620000Y-13348000D01*
X31720000Y-13348000D02*
X31720000Y-15148000D01*
X32420000Y-15148000D01*
X32420000Y-13348000D01*
X31720000Y-13348000D01*
X32670000Y-16348000D02*
X32670000Y-18148000D01*
X33370000Y-18148000D01*
X33370000Y-16348000D01*
X32670000Y-16348000D01*
%TD*%
D14*
%TO.C,R84*%
D13*
X8976161Y-34691128D02*
X9040729Y-34734271D01*
X9083872Y-34798839D01*
X9100000Y-34879923D01*
X9100000Y-36120077D01*
X9083872Y-36201161D01*
X9040729Y-36265729D01*
X8976161Y-36308872D01*
X8895077Y-36325000D01*
X8104923Y-36325000D01*
X8023839Y-36308872D01*
X7959271Y-36265729D01*
X7916128Y-36201161D01*
X7900000Y-36120077D01*
X7900000Y-34879923D01*
X7916128Y-34798839D01*
X7959271Y-34734271D01*
X8023839Y-34691128D01*
X8104923Y-34675000D01*
X8895077Y-34675000D01*
X8976161Y-34691128D01*
D14*
D13*
X5876161Y-34691128D02*
X5940729Y-34734271D01*
X5983872Y-34798839D01*
X6000000Y-34879923D01*
X6000000Y-36120077D01*
X5983872Y-36201161D01*
X5940729Y-36265729D01*
X5876161Y-36308872D01*
X5795077Y-36325000D01*
X5004923Y-36325000D01*
X4923839Y-36308872D01*
X4859271Y-36265729D01*
X4816128Y-36201161D01*
X4800000Y-36120077D01*
X4800000Y-34879923D01*
X4816128Y-34798839D01*
X4859271Y-34734271D01*
X4923839Y-34691128D01*
X5004923Y-34675000D01*
X5795077Y-34675000D01*
X5876161Y-34691128D01*
%TD*%
D14*
%TO.C,R74*%
D13*
X8884161Y-14685128D02*
X8948729Y-14728271D01*
X8991872Y-14792839D01*
X9008000Y-14873923D01*
X9008000Y-16114077D01*
X8991872Y-16195161D01*
X8948729Y-16259729D01*
X8884161Y-16302872D01*
X8803077Y-16319000D01*
X8012923Y-16319000D01*
X7931839Y-16302872D01*
X7867271Y-16259729D01*
X7824128Y-16195161D01*
X7808000Y-16114077D01*
X7808000Y-14873923D01*
X7824128Y-14792839D01*
X7867271Y-14728271D01*
X7931839Y-14685128D01*
X8012923Y-14669000D01*
X8803077Y-14669000D01*
X8884161Y-14685128D01*
D14*
D13*
X5784161Y-14685128D02*
X5848729Y-14728271D01*
X5891872Y-14792839D01*
X5908000Y-14873923D01*
X5908000Y-16114077D01*
X5891872Y-16195161D01*
X5848729Y-16259729D01*
X5784161Y-16302872D01*
X5703077Y-16319000D01*
X4912923Y-16319000D01*
X4831839Y-16302872D01*
X4767271Y-16259729D01*
X4724128Y-16195161D01*
X4708000Y-16114077D01*
X4708000Y-14873923D01*
X4724128Y-14792839D01*
X4767271Y-14728271D01*
X4831839Y-14685128D01*
X4912923Y-14669000D01*
X5703077Y-14669000D01*
X5784161Y-14685128D01*
%TD*%
D14*
%TO.C,R14*%
D13*
X41595161Y-25552128D02*
X41659729Y-25595271D01*
X41702872Y-25659839D01*
X41719000Y-25740923D01*
X41719000Y-26531077D01*
X41702872Y-26612161D01*
X41659729Y-26676729D01*
X41595161Y-26719872D01*
X41514077Y-26736000D01*
X40273923Y-26736000D01*
X40192839Y-26719872D01*
X40128271Y-26676729D01*
X40085128Y-26612161D01*
X40069000Y-26531077D01*
X40069000Y-25740923D01*
X40085128Y-25659839D01*
X40128271Y-25595271D01*
X40192839Y-25552128D01*
X40273923Y-25536000D01*
X41514077Y-25536000D01*
X41595161Y-25552128D01*
D14*
D13*
X41595161Y-28652128D02*
X41659729Y-28695271D01*
X41702872Y-28759839D01*
X41719000Y-28840923D01*
X41719000Y-29631077D01*
X41702872Y-29712161D01*
X41659729Y-29776729D01*
X41595161Y-29819872D01*
X41514077Y-29836000D01*
X40273923Y-29836000D01*
X40192839Y-29819872D01*
X40128271Y-29776729D01*
X40085128Y-29712161D01*
X40069000Y-29631077D01*
X40069000Y-28840923D01*
X40085128Y-28759839D01*
X40128271Y-28695271D01*
X40192839Y-28652128D01*
X40273923Y-28636000D01*
X41514077Y-28636000D01*
X41595161Y-28652128D01*
%TD*%
%TO.C,Q11*%
X39462000Y-13348000D02*
X39462000Y-15148000D01*
X40162000Y-15148000D01*
X40162000Y-13348000D01*
X39462000Y-13348000D01*
X37562000Y-13348000D02*
X37562000Y-15148000D01*
X38262000Y-15148000D01*
X38262000Y-13348000D01*
X37562000Y-13348000D01*
X38512000Y-16348000D02*
X38512000Y-18148000D01*
X39212000Y-18148000D01*
X39212000Y-16348000D01*
X38512000Y-16348000D01*
%TD*%
%TO.C,R79*%
X3250000Y-23500000D02*
G75*
G03*
X3250000Y-23500000I-750000J0D01*
G01*
X2500000Y-25290000D02*
X2500000Y-25290000D01*
X2500000Y-26790000D02*
X2500000Y-26790000D01*
X2500000Y-25290000D02*
G75*
G03*
X2500000Y-26790000I0J-750000D01*
G01*
X2500000Y-26790000D02*
G75*
G03*
X2500000Y-25290000I0J750000D01*
G01*
%TD*%
D14*
%TO.C,R5*%
D13*
X50231161Y-25578128D02*
X50295729Y-25621271D01*
X50338872Y-25685839D01*
X50355000Y-25766923D01*
X50355000Y-26557077D01*
X50338872Y-26638161D01*
X50295729Y-26702729D01*
X50231161Y-26745872D01*
X50150077Y-26762000D01*
X48909923Y-26762000D01*
X48828839Y-26745872D01*
X48764271Y-26702729D01*
X48721128Y-26638161D01*
X48705000Y-26557077D01*
X48705000Y-25766923D01*
X48721128Y-25685839D01*
X48764271Y-25621271D01*
X48828839Y-25578128D01*
X48909923Y-25562000D01*
X50150077Y-25562000D01*
X50231161Y-25578128D01*
D14*
D13*
X50231161Y-28678128D02*
X50295729Y-28721271D01*
X50338872Y-28785839D01*
X50355000Y-28866923D01*
X50355000Y-29657077D01*
X50338872Y-29738161D01*
X50295729Y-29802729D01*
X50231161Y-29845872D01*
X50150077Y-29862000D01*
X48909923Y-29862000D01*
X48828839Y-29845872D01*
X48764271Y-29802729D01*
X48721128Y-29738161D01*
X48705000Y-29657077D01*
X48705000Y-28866923D01*
X48721128Y-28785839D01*
X48764271Y-28721271D01*
X48828839Y-28678128D01*
X48909923Y-28662000D01*
X50150077Y-28662000D01*
X50231161Y-28678128D01*
%TD*%
%TO.C,U4*%
X4350000Y-37409600D02*
X4350000Y-38109600D01*
X6150000Y-38109600D01*
X6150000Y-37409600D01*
X4350000Y-37409600D01*
X4350000Y-39309600D02*
X4350000Y-40009600D01*
X6150000Y-40009600D01*
X6150000Y-39309600D01*
X4350000Y-39309600D01*
X7350000Y-38359600D02*
X7350000Y-39059600D01*
X9150000Y-39059600D01*
X9150000Y-38359600D01*
X7350000Y-38359600D01*
%TD*%
D14*
%TO.C,R87*%
D13*
X8884161Y-43641128D02*
X8948729Y-43684271D01*
X8991872Y-43748839D01*
X9008000Y-43829923D01*
X9008000Y-45070077D01*
X8991872Y-45151161D01*
X8948729Y-45215729D01*
X8884161Y-45258872D01*
X8803077Y-45275000D01*
X8012923Y-45275000D01*
X7931839Y-45258872D01*
X7867271Y-45215729D01*
X7824128Y-45151161D01*
X7808000Y-45070077D01*
X7808000Y-43829923D01*
X7824128Y-43748839D01*
X7867271Y-43684271D01*
X7931839Y-43641128D01*
X8012923Y-43625000D01*
X8803077Y-43625000D01*
X8884161Y-43641128D01*
D14*
D13*
X5784161Y-43641128D02*
X5848729Y-43684271D01*
X5891872Y-43748839D01*
X5908000Y-43829923D01*
X5908000Y-45070077D01*
X5891872Y-45151161D01*
X5848729Y-45215729D01*
X5784161Y-45258872D01*
X5703077Y-45275000D01*
X4912923Y-45275000D01*
X4831839Y-45258872D01*
X4767271Y-45215729D01*
X4724128Y-45151161D01*
X4708000Y-45070077D01*
X4708000Y-43829923D01*
X4724128Y-43748839D01*
X4767271Y-43684271D01*
X4831839Y-43641128D01*
X4912923Y-43625000D01*
X5703077Y-43625000D01*
X5784161Y-43641128D01*
%TD*%
D14*
%TO.C,R22*%
D13*
X34483161Y-5994128D02*
X34547729Y-6037271D01*
X34590872Y-6101839D01*
X34607000Y-6182923D01*
X34607000Y-6973077D01*
X34590872Y-7054161D01*
X34547729Y-7118729D01*
X34483161Y-7161872D01*
X34402077Y-7178000D01*
X33161923Y-7178000D01*
X33080839Y-7161872D01*
X33016271Y-7118729D01*
X32973128Y-7054161D01*
X32957000Y-6973077D01*
X32957000Y-6182923D01*
X32973128Y-6101839D01*
X33016271Y-6037271D01*
X33080839Y-5994128D01*
X33161923Y-5978000D01*
X34402077Y-5978000D01*
X34483161Y-5994128D01*
D14*
D13*
X34483161Y-9094128D02*
X34547729Y-9137271D01*
X34590872Y-9201839D01*
X34607000Y-9282923D01*
X34607000Y-10073077D01*
X34590872Y-10154161D01*
X34547729Y-10218729D01*
X34483161Y-10261872D01*
X34402077Y-10278000D01*
X33161923Y-10278000D01*
X33080839Y-10261872D01*
X33016271Y-10218729D01*
X32973128Y-10154161D01*
X32957000Y-10073077D01*
X32957000Y-9282923D01*
X32973128Y-9201839D01*
X33016271Y-9137271D01*
X33080839Y-9094128D01*
X33161923Y-9078000D01*
X34402077Y-9078000D01*
X34483161Y-9094128D01*
%TD*%
%TO.C,RV0*%
X24775000Y-49825000D02*
X24775000Y-51275000D01*
X26225000Y-51275000D01*
X26225000Y-49825000D01*
X24775000Y-49825000D01*
X23725000Y-45550000D02*
G75*
G03*
X23725000Y-45550000I-725000J0D01*
G01*
X21225000Y-50550000D02*
G75*
G03*
X21225000Y-50550000I-725000J0D01*
G01*
%TD*%
%TO.C,J6*%
X28176000Y-8872000D02*
X28176000Y-10472000D01*
X29776000Y-10472000D01*
X29776000Y-8872000D01*
X28176000Y-8872000D01*
X25636000Y-9672000D02*
X25636000Y-9672000D01*
X27236000Y-9672000D02*
X27236000Y-9672000D01*
X25636000Y-9672000D02*
G75*
G03*
X27236000Y-9672000I800000J0D01*
G01*
X27236000Y-9672000D02*
G75*
G03*
X25636000Y-9672000I-800000J0D01*
G01*
X28176000Y-12212000D02*
X28176000Y-12212000D01*
X29776000Y-12212000D02*
X29776000Y-12212000D01*
X28176000Y-12212000D02*
G75*
G03*
X29776000Y-12212000I800000J0D01*
G01*
X29776000Y-12212000D02*
G75*
G03*
X28176000Y-12212000I-800000J0D01*
G01*
X25636000Y-12212000D02*
X25636000Y-12212000D01*
X27236000Y-12212000D02*
X27236000Y-12212000D01*
X25636000Y-12212000D02*
G75*
G03*
X27236000Y-12212000I800000J0D01*
G01*
X27236000Y-12212000D02*
G75*
G03*
X25636000Y-12212000I-800000J0D01*
G01*
X28176000Y-14752000D02*
X28176000Y-14752000D01*
X29776000Y-14752000D02*
X29776000Y-14752000D01*
X28176000Y-14752000D02*
G75*
G03*
X29776000Y-14752000I800000J0D01*
G01*
X29776000Y-14752000D02*
G75*
G03*
X28176000Y-14752000I-800000J0D01*
G01*
X25636000Y-14752000D02*
X25636000Y-14752000D01*
X27236000Y-14752000D02*
X27236000Y-14752000D01*
X25636000Y-14752000D02*
G75*
G03*
X27236000Y-14752000I800000J0D01*
G01*
X27236000Y-14752000D02*
G75*
G03*
X25636000Y-14752000I-800000J0D01*
G01*
X28176000Y-17292000D02*
X28176000Y-17292000D01*
X29776000Y-17292000D02*
X29776000Y-17292000D01*
X28176000Y-17292000D02*
G75*
G03*
X29776000Y-17292000I800000J0D01*
G01*
X29776000Y-17292000D02*
G75*
G03*
X28176000Y-17292000I-800000J0D01*
G01*
X25636000Y-17292000D02*
X25636000Y-17292000D01*
X27236000Y-17292000D02*
X27236000Y-17292000D01*
X25636000Y-17292000D02*
G75*
G03*
X27236000Y-17292000I800000J0D01*
G01*
X27236000Y-17292000D02*
G75*
G03*
X25636000Y-17292000I-800000J0D01*
G01*
X28176000Y-19832000D02*
X28176000Y-19832000D01*
X29776000Y-19832000D02*
X29776000Y-19832000D01*
X28176000Y-19832000D02*
G75*
G03*
X29776000Y-19832000I800000J0D01*
G01*
X29776000Y-19832000D02*
G75*
G03*
X28176000Y-19832000I-800000J0D01*
G01*
X25636000Y-19832000D02*
X25636000Y-19832000D01*
X27236000Y-19832000D02*
X27236000Y-19832000D01*
X25636000Y-19832000D02*
G75*
G03*
X27236000Y-19832000I800000J0D01*
G01*
X27236000Y-19832000D02*
G75*
G03*
X25636000Y-19832000I-800000J0D01*
G01*
X28176000Y-22372000D02*
X28176000Y-22372000D01*
X29776000Y-22372000D02*
X29776000Y-22372000D01*
X28176000Y-22372000D02*
G75*
G03*
X29776000Y-22372000I800000J0D01*
G01*
X29776000Y-22372000D02*
G75*
G03*
X28176000Y-22372000I-800000J0D01*
G01*
X25636000Y-22372000D02*
X25636000Y-22372000D01*
X27236000Y-22372000D02*
X27236000Y-22372000D01*
X25636000Y-22372000D02*
G75*
G03*
X27236000Y-22372000I800000J0D01*
G01*
X27236000Y-22372000D02*
G75*
G03*
X25636000Y-22372000I-800000J0D01*
G01*
X28176000Y-24912000D02*
X28176000Y-24912000D01*
X29776000Y-24912000D02*
X29776000Y-24912000D01*
X28176000Y-24912000D02*
G75*
G03*
X29776000Y-24912000I800000J0D01*
G01*
X29776000Y-24912000D02*
G75*
G03*
X28176000Y-24912000I-800000J0D01*
G01*
X25636000Y-24912000D02*
X25636000Y-24912000D01*
X27236000Y-24912000D02*
X27236000Y-24912000D01*
X25636000Y-24912000D02*
G75*
G03*
X27236000Y-24912000I800000J0D01*
G01*
X27236000Y-24912000D02*
G75*
G03*
X25636000Y-24912000I-800000J0D01*
G01*
%TD*%
%TO.C,J1*%
X40760000Y-1780000D02*
X40760000Y-3380000D01*
X42360000Y-3380000D01*
X42360000Y-1780000D01*
X40760000Y-1780000D01*
X39020000Y-3380000D02*
X39020000Y-3380000D01*
X39020000Y-1780000D02*
X39020000Y-1780000D01*
X39020000Y-3380000D02*
G75*
G03*
X39020000Y-1780000I0J800000D01*
G01*
X39020000Y-1780000D02*
G75*
G03*
X39020000Y-3380000I0J-800000D01*
G01*
X36480000Y-3380000D02*
X36480000Y-3380000D01*
X36480000Y-1780000D02*
X36480000Y-1780000D01*
X36480000Y-3380000D02*
G75*
G03*
X36480000Y-1780000I0J800000D01*
G01*
X36480000Y-1780000D02*
G75*
G03*
X36480000Y-3380000I0J-800000D01*
G01*
X33940000Y-3380000D02*
X33940000Y-3380000D01*
X33940000Y-1780000D02*
X33940000Y-1780000D01*
X33940000Y-3380000D02*
G75*
G03*
X33940000Y-1780000I0J800000D01*
G01*
X33940000Y-1780000D02*
G75*
G03*
X33940000Y-3380000I0J-800000D01*
G01*
X31400000Y-3380000D02*
X31400000Y-3380000D01*
X31400000Y-1780000D02*
X31400000Y-1780000D01*
X31400000Y-3380000D02*
G75*
G03*
X31400000Y-1780000I0J800000D01*
G01*
X31400000Y-1780000D02*
G75*
G03*
X31400000Y-3380000I0J-800000D01*
G01*
X28860000Y-3380000D02*
X28860000Y-3380000D01*
X28860000Y-1780000D02*
X28860000Y-1780000D01*
X28860000Y-3380000D02*
G75*
G03*
X28860000Y-1780000I0J800000D01*
G01*
X28860000Y-1780000D02*
G75*
G03*
X28860000Y-3380000I0J-800000D01*
G01*
X26320000Y-3380000D02*
X26320000Y-3380000D01*
X26320000Y-1780000D02*
X26320000Y-1780000D01*
X26320000Y-3380000D02*
G75*
G03*
X26320000Y-1780000I0J800000D01*
G01*
X26320000Y-1780000D02*
G75*
G03*
X26320000Y-3380000I0J-800000D01*
G01*
X23780000Y-3380000D02*
X23780000Y-3380000D01*
X23780000Y-1780000D02*
X23780000Y-1780000D01*
X23780000Y-3380000D02*
G75*
G03*
X23780000Y-1780000I0J800000D01*
G01*
X23780000Y-1780000D02*
G75*
G03*
X23780000Y-3380000I0J-800000D01*
G01*
%TD*%
%TO.C,J4*%
X65800000Y-49700000D02*
X65800000Y-51300000D01*
X67400000Y-51300000D01*
X67400000Y-49700000D01*
X65800000Y-49700000D01*
X64060000Y-51300000D02*
X64060000Y-51300000D01*
X64060000Y-49700000D02*
X64060000Y-49700000D01*
X64060000Y-51300000D02*
G75*
G03*
X64060000Y-49700000I0J800000D01*
G01*
X64060000Y-49700000D02*
G75*
G03*
X64060000Y-51300000I0J-800000D01*
G01*
X61520000Y-51300000D02*
X61520000Y-51300000D01*
X61520000Y-49700000D02*
X61520000Y-49700000D01*
X61520000Y-51300000D02*
G75*
G03*
X61520000Y-49700000I0J800000D01*
G01*
X61520000Y-49700000D02*
G75*
G03*
X61520000Y-51300000I0J-800000D01*
G01*
X58980000Y-51300000D02*
X58980000Y-51300000D01*
X58980000Y-49700000D02*
X58980000Y-49700000D01*
X58980000Y-51300000D02*
G75*
G03*
X58980000Y-49700000I0J800000D01*
G01*
X58980000Y-49700000D02*
G75*
G03*
X58980000Y-51300000I0J-800000D01*
G01*
X56440000Y-51300000D02*
X56440000Y-51300000D01*
X56440000Y-49700000D02*
X56440000Y-49700000D01*
X56440000Y-51300000D02*
G75*
G03*
X56440000Y-49700000I0J800000D01*
G01*
X56440000Y-49700000D02*
G75*
G03*
X56440000Y-51300000I0J-800000D01*
G01*
X53900000Y-51300000D02*
X53900000Y-51300000D01*
X53900000Y-49700000D02*
X53900000Y-49700000D01*
X53900000Y-51300000D02*
G75*
G03*
X53900000Y-49700000I0J800000D01*
G01*
X53900000Y-49700000D02*
G75*
G03*
X53900000Y-51300000I0J-800000D01*
G01*
X51360000Y-51300000D02*
X51360000Y-51300000D01*
X51360000Y-49700000D02*
X51360000Y-49700000D01*
X51360000Y-51300000D02*
G75*
G03*
X51360000Y-49700000I0J800000D01*
G01*
X51360000Y-49700000D02*
G75*
G03*
X51360000Y-51300000I0J-800000D01*
G01*
%TD*%
%TO.C,J3*%
X45260000Y-49700000D02*
X45260000Y-51300000D01*
X46860000Y-51300000D01*
X46860000Y-49700000D01*
X45260000Y-49700000D01*
X43520000Y-51300000D02*
X43520000Y-51300000D01*
X43520000Y-49700000D02*
X43520000Y-49700000D01*
X43520000Y-51300000D02*
G75*
G03*
X43520000Y-49700000I0J800000D01*
G01*
X43520000Y-49700000D02*
G75*
G03*
X43520000Y-51300000I0J-800000D01*
G01*
X40980000Y-51300000D02*
X40980000Y-51300000D01*
X40980000Y-49700000D02*
X40980000Y-49700000D01*
X40980000Y-51300000D02*
G75*
G03*
X40980000Y-49700000I0J800000D01*
G01*
X40980000Y-49700000D02*
G75*
G03*
X40980000Y-51300000I0J-800000D01*
G01*
X38440000Y-51300000D02*
X38440000Y-51300000D01*
X38440000Y-49700000D02*
X38440000Y-49700000D01*
X38440000Y-51300000D02*
G75*
G03*
X38440000Y-49700000I0J800000D01*
G01*
X38440000Y-49700000D02*
G75*
G03*
X38440000Y-51300000I0J-800000D01*
G01*
X35900000Y-51300000D02*
X35900000Y-51300000D01*
X35900000Y-49700000D02*
X35900000Y-49700000D01*
X35900000Y-51300000D02*
G75*
G03*
X35900000Y-49700000I0J800000D01*
G01*
X35900000Y-49700000D02*
G75*
G03*
X35900000Y-51300000I0J-800000D01*
G01*
X33360000Y-51300000D02*
X33360000Y-51300000D01*
X33360000Y-49700000D02*
X33360000Y-49700000D01*
X33360000Y-51300000D02*
G75*
G03*
X33360000Y-49700000I0J800000D01*
G01*
X33360000Y-49700000D02*
G75*
G03*
X33360000Y-51300000I0J-800000D01*
G01*
X30820000Y-51300000D02*
X30820000Y-51300000D01*
X30820000Y-49700000D02*
X30820000Y-49700000D01*
X30820000Y-51300000D02*
G75*
G03*
X30820000Y-49700000I0J800000D01*
G01*
X30820000Y-49700000D02*
G75*
G03*
X30820000Y-51300000I0J-800000D01*
G01*
X28280000Y-51300000D02*
X28280000Y-51300000D01*
X28280000Y-49700000D02*
X28280000Y-49700000D01*
X28280000Y-51300000D02*
G75*
G03*
X28280000Y-49700000I0J800000D01*
G01*
X28280000Y-49700000D02*
G75*
G03*
X28280000Y-51300000I0J-800000D01*
G01*
%TD*%
%TO.C,J2*%
X62780000Y-1780000D02*
X62780000Y-3380000D01*
X64380000Y-3380000D01*
X64380000Y-1780000D01*
X62780000Y-1780000D01*
X61040000Y-3380000D02*
X61040000Y-3380000D01*
X61040000Y-1780000D02*
X61040000Y-1780000D01*
X61040000Y-3380000D02*
G75*
G03*
X61040000Y-1780000I0J800000D01*
G01*
X61040000Y-1780000D02*
G75*
G03*
X61040000Y-3380000I0J-800000D01*
G01*
X58500000Y-3380000D02*
X58500000Y-3380000D01*
X58500000Y-1780000D02*
X58500000Y-1780000D01*
X58500000Y-3380000D02*
G75*
G03*
X58500000Y-1780000I0J800000D01*
G01*
X58500000Y-1780000D02*
G75*
G03*
X58500000Y-3380000I0J-800000D01*
G01*
X55960000Y-3380000D02*
X55960000Y-3380000D01*
X55960000Y-1780000D02*
X55960000Y-1780000D01*
X55960000Y-3380000D02*
G75*
G03*
X55960000Y-1780000I0J800000D01*
G01*
X55960000Y-1780000D02*
G75*
G03*
X55960000Y-3380000I0J-800000D01*
G01*
X53420000Y-3380000D02*
X53420000Y-3380000D01*
X53420000Y-1780000D02*
X53420000Y-1780000D01*
X53420000Y-3380000D02*
G75*
G03*
X53420000Y-1780000I0J800000D01*
G01*
X53420000Y-1780000D02*
G75*
G03*
X53420000Y-3380000I0J-800000D01*
G01*
X50880000Y-3380000D02*
X50880000Y-3380000D01*
X50880000Y-1780000D02*
X50880000Y-1780000D01*
X50880000Y-3380000D02*
G75*
G03*
X50880000Y-1780000I0J800000D01*
G01*
X50880000Y-1780000D02*
G75*
G03*
X50880000Y-3380000I0J-800000D01*
G01*
X48340000Y-3380000D02*
X48340000Y-3380000D01*
X48340000Y-1780000D02*
X48340000Y-1780000D01*
X48340000Y-3380000D02*
G75*
G03*
X48340000Y-1780000I0J800000D01*
G01*
X48340000Y-1780000D02*
G75*
G03*
X48340000Y-3380000I0J-800000D01*
G01*
X45800000Y-3380000D02*
X45800000Y-3380000D01*
X45800000Y-1780000D02*
X45800000Y-1780000D01*
X45800000Y-3380000D02*
G75*
G03*
X45800000Y-1780000I0J800000D01*
G01*
X45800000Y-1780000D02*
G75*
G03*
X45800000Y-3380000I0J-800000D01*
G01*
%TD*%
M02*
