%TF.GenerationSoftware,KiCad,Pcbnew,6.0.0*%
%TF.CreationDate,2022-04-09T17:08:47-03:00*%
%TF.ProjectId,cwc5.5,63776335-2e35-42e6-9b69-6361645f7063,rev?*%
%TF.SameCoordinates,Original*%
%TF.FileFunction,Legend,Top*%
%TF.FilePolarity,Positive*%
%FSLAX46Y46*%
G04 Gerber Fmt 4.6, Leading zero omitted, Abs format (unit mm)*
G04 Created by KiCad (PCBNEW 6.0.0) date 2022-04-09 17:08:47*
%MOMM*%
%LPD*%
G01*
G04 APERTURE LIST*
%ADD10C,0.200000*%
%ADD11C,0.150000*%
%ADD12C,0.120000*%
G04 APERTURE END LIST*
D10*
X30819285Y-44959000D02*
X30705000Y-44901857D01*
X30533571Y-44901857D01*
X30362142Y-44959000D01*
X30247857Y-45073285D01*
X30190714Y-45187571D01*
X30133571Y-45416142D01*
X30133571Y-45587571D01*
X30190714Y-45816142D01*
X30247857Y-45930428D01*
X30362142Y-46044714D01*
X30533571Y-46101857D01*
X30647857Y-46101857D01*
X30819285Y-46044714D01*
X30876428Y-45987571D01*
X30876428Y-45587571D01*
X30647857Y-45587571D01*
X31390714Y-46101857D02*
X31390714Y-45301857D01*
X31390714Y-44901857D02*
X31333571Y-44959000D01*
X31390714Y-45016142D01*
X31447857Y-44959000D01*
X31390714Y-44901857D01*
X31390714Y-45016142D01*
X31790714Y-45301857D02*
X32247857Y-45301857D01*
X31962142Y-44901857D02*
X31962142Y-45930428D01*
X32019285Y-46044714D01*
X32133571Y-46101857D01*
X32247857Y-46101857D01*
X32647857Y-46101857D02*
X32647857Y-44901857D01*
X33162142Y-46101857D02*
X33162142Y-45473285D01*
X33105000Y-45359000D01*
X32990714Y-45301857D01*
X32819285Y-45301857D01*
X32705000Y-45359000D01*
X32647857Y-45416142D01*
X34247857Y-45301857D02*
X34247857Y-46101857D01*
X33733571Y-45301857D02*
X33733571Y-45930428D01*
X33790714Y-46044714D01*
X33905000Y-46101857D01*
X34076428Y-46101857D01*
X34190714Y-46044714D01*
X34247857Y-45987571D01*
X34819285Y-46101857D02*
X34819285Y-44901857D01*
X34819285Y-45359000D02*
X34933571Y-45301857D01*
X35162142Y-45301857D01*
X35276428Y-45359000D01*
X35333571Y-45416142D01*
X35390714Y-45530428D01*
X35390714Y-45873285D01*
X35333571Y-45987571D01*
X35276428Y-46044714D01*
X35162142Y-46101857D01*
X34933571Y-46101857D01*
X34819285Y-46044714D01*
X35905000Y-45987571D02*
X35962142Y-46044714D01*
X35905000Y-46101857D01*
X35847857Y-46044714D01*
X35905000Y-45987571D01*
X35905000Y-46101857D01*
X35905000Y-45359000D02*
X35962142Y-45416142D01*
X35905000Y-45473285D01*
X35847857Y-45416142D01*
X35905000Y-45359000D01*
X35905000Y-45473285D01*
X30876428Y-48033857D02*
X30476428Y-47462428D01*
X30190714Y-48033857D02*
X30190714Y-46833857D01*
X30647857Y-46833857D01*
X30762142Y-46891000D01*
X30819285Y-46948142D01*
X30876428Y-47062428D01*
X30876428Y-47233857D01*
X30819285Y-47348142D01*
X30762142Y-47405285D01*
X30647857Y-47462428D01*
X30190714Y-47462428D01*
X31905000Y-47233857D02*
X31905000Y-48033857D01*
X31390714Y-47233857D02*
X31390714Y-47862428D01*
X31447857Y-47976714D01*
X31562142Y-48033857D01*
X31733571Y-48033857D01*
X31847857Y-47976714D01*
X31905000Y-47919571D01*
X32990714Y-48033857D02*
X32990714Y-47405285D01*
X32933571Y-47291000D01*
X32819285Y-47233857D01*
X32590714Y-47233857D01*
X32476428Y-47291000D01*
X32990714Y-47976714D02*
X32876428Y-48033857D01*
X32590714Y-48033857D01*
X32476428Y-47976714D01*
X32419285Y-47862428D01*
X32419285Y-47748142D01*
X32476428Y-47633857D01*
X32590714Y-47576714D01*
X32876428Y-47576714D01*
X32990714Y-47519571D01*
X33562142Y-47233857D02*
X33562142Y-48033857D01*
X33562142Y-47348142D02*
X33619285Y-47291000D01*
X33733571Y-47233857D01*
X33905000Y-47233857D01*
X34019285Y-47291000D01*
X34076428Y-47405285D01*
X34076428Y-48033857D01*
X34476428Y-47233857D02*
X34933571Y-47233857D01*
X34647857Y-48033857D02*
X34647857Y-47005285D01*
X34705000Y-46891000D01*
X34819285Y-46833857D01*
X34933571Y-46833857D01*
X35847857Y-47976714D02*
X35733571Y-48033857D01*
X35505000Y-48033857D01*
X35390714Y-47976714D01*
X35333571Y-47919571D01*
X35276428Y-47805285D01*
X35276428Y-47462428D01*
X35333571Y-47348142D01*
X35390714Y-47291000D01*
X35505000Y-47233857D01*
X35733571Y-47233857D01*
X35847857Y-47291000D01*
X37219285Y-46776714D02*
X36190714Y-48319571D01*
X38133571Y-47976714D02*
X38019285Y-48033857D01*
X37790714Y-48033857D01*
X37676428Y-47976714D01*
X37619285Y-47919571D01*
X37562142Y-47805285D01*
X37562142Y-47462428D01*
X37619285Y-47348142D01*
X37676428Y-47291000D01*
X37790714Y-47233857D01*
X38019285Y-47233857D01*
X38133571Y-47291000D01*
X38533571Y-47233857D02*
X38762142Y-48033857D01*
X38990714Y-47462428D01*
X39219285Y-48033857D01*
X39447857Y-47233857D01*
X40419285Y-47976714D02*
X40305000Y-48033857D01*
X40076428Y-48033857D01*
X39962142Y-47976714D01*
X39905000Y-47919571D01*
X39847857Y-47805285D01*
X39847857Y-47462428D01*
X39905000Y-47348142D01*
X39962142Y-47291000D01*
X40076428Y-47233857D01*
X40305000Y-47233857D01*
X40419285Y-47291000D01*
X40647857Y-48148142D02*
X41562142Y-48148142D01*
X42362142Y-47976714D02*
X42247857Y-48033857D01*
X42019285Y-48033857D01*
X41905000Y-47976714D01*
X41847857Y-47919571D01*
X41790714Y-47805285D01*
X41790714Y-47462428D01*
X41847857Y-47348142D01*
X41905000Y-47291000D01*
X42019285Y-47233857D01*
X42247857Y-47233857D01*
X42362142Y-47291000D01*
X42876428Y-48033857D02*
X42876428Y-47233857D01*
X42876428Y-46833857D02*
X42819285Y-46891000D01*
X42876428Y-46948142D01*
X42933571Y-46891000D01*
X42876428Y-46833857D01*
X42876428Y-46948142D01*
X43447857Y-48033857D02*
X43447857Y-47233857D01*
X43447857Y-47462428D02*
X43505000Y-47348142D01*
X43562142Y-47291000D01*
X43676428Y-47233857D01*
X43790714Y-47233857D01*
X44705000Y-47976714D02*
X44590714Y-48033857D01*
X44362142Y-48033857D01*
X44247857Y-47976714D01*
X44190714Y-47919571D01*
X44133571Y-47805285D01*
X44133571Y-47462428D01*
X44190714Y-47348142D01*
X44247857Y-47291000D01*
X44362142Y-47233857D01*
X44590714Y-47233857D01*
X44705000Y-47291000D01*
X45733571Y-47233857D02*
X45733571Y-48033857D01*
X45219285Y-47233857D02*
X45219285Y-47862428D01*
X45276428Y-47976714D01*
X45390714Y-48033857D01*
X45562142Y-48033857D01*
X45676428Y-47976714D01*
X45733571Y-47919571D01*
X46476428Y-48033857D02*
X46362142Y-47976714D01*
X46305000Y-47862428D01*
X46305000Y-46833857D01*
X47447857Y-48033857D02*
X47447857Y-47405285D01*
X47390714Y-47291000D01*
X47276428Y-47233857D01*
X47047857Y-47233857D01*
X46933571Y-47291000D01*
X47447857Y-47976714D02*
X47333571Y-48033857D01*
X47047857Y-48033857D01*
X46933571Y-47976714D01*
X46876428Y-47862428D01*
X46876428Y-47748142D01*
X46933571Y-47633857D01*
X47047857Y-47576714D01*
X47333571Y-47576714D01*
X47447857Y-47519571D01*
X47847857Y-47233857D02*
X48305000Y-47233857D01*
X48019285Y-46833857D02*
X48019285Y-47862428D01*
X48076428Y-47976714D01*
X48190714Y-48033857D01*
X48305000Y-48033857D01*
X48705000Y-48033857D02*
X48705000Y-47233857D01*
X48705000Y-46833857D02*
X48647857Y-46891000D01*
X48705000Y-46948142D01*
X48762142Y-46891000D01*
X48705000Y-46833857D01*
X48705000Y-46948142D01*
X49276428Y-47233857D02*
X49276428Y-48033857D01*
X49276428Y-47348142D02*
X49333571Y-47291000D01*
X49447857Y-47233857D01*
X49619285Y-47233857D01*
X49733571Y-47291000D01*
X49790714Y-47405285D01*
X49790714Y-48033857D01*
X50876428Y-47233857D02*
X50876428Y-48205285D01*
X50819285Y-48319571D01*
X50762142Y-48376714D01*
X50647857Y-48433857D01*
X50476428Y-48433857D01*
X50362142Y-48376714D01*
X50876428Y-47976714D02*
X50762142Y-48033857D01*
X50533571Y-48033857D01*
X50419285Y-47976714D01*
X50362142Y-47919571D01*
X50305000Y-47805285D01*
X50305000Y-47462428D01*
X50362142Y-47348142D01*
X50419285Y-47291000D01*
X50533571Y-47233857D01*
X50762142Y-47233857D01*
X50876428Y-47291000D01*
X51162142Y-48148142D02*
X52076428Y-48148142D01*
X52247857Y-47233857D02*
X52476428Y-48033857D01*
X52705000Y-47462428D01*
X52933571Y-48033857D01*
X53162142Y-47233857D01*
X54133571Y-48033857D02*
X54133571Y-47405285D01*
X54076428Y-47291000D01*
X53962142Y-47233857D01*
X53733571Y-47233857D01*
X53619285Y-47291000D01*
X54133571Y-47976714D02*
X54019285Y-48033857D01*
X53733571Y-48033857D01*
X53619285Y-47976714D01*
X53562142Y-47862428D01*
X53562142Y-47748142D01*
X53619285Y-47633857D01*
X53733571Y-47576714D01*
X54019285Y-47576714D01*
X54133571Y-47519571D01*
X54533571Y-47233857D02*
X54990714Y-47233857D01*
X54705000Y-46833857D02*
X54705000Y-47862428D01*
X54762142Y-47976714D01*
X54876428Y-48033857D01*
X54990714Y-48033857D01*
X55847857Y-47976714D02*
X55733571Y-48033857D01*
X55505000Y-48033857D01*
X55390714Y-47976714D01*
X55333571Y-47862428D01*
X55333571Y-47405285D01*
X55390714Y-47291000D01*
X55505000Y-47233857D01*
X55733571Y-47233857D01*
X55847857Y-47291000D01*
X55905000Y-47405285D01*
X55905000Y-47519571D01*
X55333571Y-47633857D01*
X56419285Y-48033857D02*
X56419285Y-47233857D01*
X56419285Y-47462428D02*
X56476428Y-47348142D01*
X56533571Y-47291000D01*
X56647857Y-47233857D01*
X56762142Y-47233857D01*
X56876428Y-48148142D02*
X57790714Y-48148142D01*
X58590714Y-47976714D02*
X58476428Y-48033857D01*
X58247857Y-48033857D01*
X58133571Y-47976714D01*
X58076428Y-47919571D01*
X58019285Y-47805285D01*
X58019285Y-47462428D01*
X58076428Y-47348142D01*
X58133571Y-47291000D01*
X58247857Y-47233857D01*
X58476428Y-47233857D01*
X58590714Y-47291000D01*
X59105000Y-48033857D02*
X59105000Y-46833857D01*
X59619285Y-48033857D02*
X59619285Y-47405285D01*
X59562142Y-47291000D01*
X59447857Y-47233857D01*
X59276428Y-47233857D01*
X59162142Y-47291000D01*
X59105000Y-47348142D01*
X60705000Y-48033857D02*
X60705000Y-47405285D01*
X60647857Y-47291000D01*
X60533571Y-47233857D01*
X60305000Y-47233857D01*
X60190714Y-47291000D01*
X60705000Y-47976714D02*
X60590714Y-48033857D01*
X60305000Y-48033857D01*
X60190714Y-47976714D01*
X60133571Y-47862428D01*
X60133571Y-47748142D01*
X60190714Y-47633857D01*
X60305000Y-47576714D01*
X60590714Y-47576714D01*
X60705000Y-47519571D01*
X61276428Y-47233857D02*
X61276428Y-48033857D01*
X61276428Y-47348142D02*
X61333571Y-47291000D01*
X61447857Y-47233857D01*
X61619285Y-47233857D01*
X61733571Y-47291000D01*
X61790714Y-47405285D01*
X61790714Y-48033857D01*
X62362142Y-47233857D02*
X62362142Y-48033857D01*
X62362142Y-47348142D02*
X62419285Y-47291000D01*
X62533571Y-47233857D01*
X62705000Y-47233857D01*
X62819285Y-47291000D01*
X62876428Y-47405285D01*
X62876428Y-48033857D01*
X63905000Y-47976714D02*
X63790714Y-48033857D01*
X63562142Y-48033857D01*
X63447857Y-47976714D01*
X63390714Y-47862428D01*
X63390714Y-47405285D01*
X63447857Y-47291000D01*
X63562142Y-47233857D01*
X63790714Y-47233857D01*
X63905000Y-47291000D01*
X63962142Y-47405285D01*
X63962142Y-47519571D01*
X63390714Y-47633857D01*
X64647857Y-48033857D02*
X64533571Y-47976714D01*
X64476428Y-47862428D01*
X64476428Y-46833857D01*
D11*
X22860095Y-10056761D02*
X23002952Y-10104380D01*
X23241047Y-10104380D01*
X23336285Y-10056761D01*
X23383904Y-10009142D01*
X23431523Y-9913904D01*
X23431523Y-9818666D01*
X23383904Y-9723428D01*
X23336285Y-9675809D01*
X23241047Y-9628190D01*
X23050571Y-9580571D01*
X22955333Y-9532952D01*
X22907714Y-9485333D01*
X22860095Y-9390095D01*
X22860095Y-9294857D01*
X22907714Y-9199619D01*
X22955333Y-9152000D01*
X23050571Y-9104380D01*
X23288666Y-9104380D01*
X23431523Y-9152000D01*
X24288666Y-9104380D02*
X24098190Y-9104380D01*
X24002952Y-9152000D01*
X23955333Y-9199619D01*
X23860095Y-9342476D01*
X23812476Y-9532952D01*
X23812476Y-9913904D01*
X23860095Y-10009142D01*
X23907714Y-10056761D01*
X24002952Y-10104380D01*
X24193428Y-10104380D01*
X24288666Y-10056761D01*
X24336285Y-10009142D01*
X24383904Y-9913904D01*
X24383904Y-9675809D01*
X24336285Y-9580571D01*
X24288666Y-9532952D01*
X24193428Y-9485333D01*
X24002952Y-9485333D01*
X23907714Y-9532952D01*
X23860095Y-9580571D01*
X23812476Y-9675809D01*
X28456000Y-7111904D02*
X28408380Y-7207142D01*
X28408380Y-7350000D01*
X28456000Y-7492857D01*
X28551238Y-7588095D01*
X28646476Y-7635714D01*
X28836952Y-7683333D01*
X28979809Y-7683333D01*
X29170285Y-7635714D01*
X29265523Y-7588095D01*
X29360761Y-7492857D01*
X29408380Y-7350000D01*
X29408380Y-7254761D01*
X29360761Y-7111904D01*
X29313142Y-7064285D01*
X28979809Y-7064285D01*
X28979809Y-7254761D01*
X29408380Y-6635714D02*
X28408380Y-6635714D01*
X29408380Y-6064285D01*
X28408380Y-6064285D01*
X29408380Y-5588095D02*
X28408380Y-5588095D01*
X28408380Y-5350000D01*
X28456000Y-5207142D01*
X28551238Y-5111904D01*
X28646476Y-5064285D01*
X28836952Y-5016666D01*
X28979809Y-5016666D01*
X29170285Y-5064285D01*
X29265523Y-5111904D01*
X29360761Y-5207142D01*
X29408380Y-5350000D01*
X29408380Y-5588095D01*
X57396000Y-38100095D02*
X57443619Y-38004857D01*
X57443619Y-37862000D01*
X57396000Y-37719142D01*
X57300761Y-37623904D01*
X57205523Y-37576285D01*
X57015047Y-37528666D01*
X56872190Y-37528666D01*
X56681714Y-37576285D01*
X56586476Y-37623904D01*
X56491238Y-37719142D01*
X56443619Y-37862000D01*
X56443619Y-37957238D01*
X56491238Y-38100095D01*
X56538857Y-38147714D01*
X56872190Y-38147714D01*
X56872190Y-37957238D01*
X56443619Y-38576285D02*
X57443619Y-38576285D01*
X56443619Y-39147714D01*
X57443619Y-39147714D01*
X56443619Y-39623904D02*
X57443619Y-39623904D01*
X57443619Y-39862000D01*
X57396000Y-40004857D01*
X57300761Y-40100095D01*
X57205523Y-40147714D01*
X57015047Y-40195333D01*
X56872190Y-40195333D01*
X56681714Y-40147714D01*
X56586476Y-40100095D01*
X56491238Y-40004857D01*
X56443619Y-39862000D01*
X56443619Y-39623904D01*
X46283619Y-38020761D02*
X46759809Y-37687428D01*
X46283619Y-37449333D02*
X47283619Y-37449333D01*
X47283619Y-37830285D01*
X47236000Y-37925523D01*
X47188380Y-37973142D01*
X47093142Y-38020761D01*
X46950285Y-38020761D01*
X46855047Y-37973142D01*
X46807428Y-37925523D01*
X46759809Y-37830285D01*
X46759809Y-37449333D01*
X46807428Y-38449333D02*
X46807428Y-38782666D01*
X46283619Y-38925523D02*
X46283619Y-38449333D01*
X47283619Y-38449333D01*
X47283619Y-38925523D01*
X47283619Y-39258857D02*
X46283619Y-39925523D01*
X47283619Y-39925523D02*
X46283619Y-39258857D01*
X46283619Y-40830285D02*
X46283619Y-40258857D01*
X46283619Y-40544571D02*
X47283619Y-40544571D01*
X47140761Y-40449333D01*
X47045523Y-40354095D01*
X46997904Y-40258857D01*
X49522000Y-38100095D02*
X49569619Y-38004857D01*
X49569619Y-37862000D01*
X49522000Y-37719142D01*
X49426761Y-37623904D01*
X49331523Y-37576285D01*
X49141047Y-37528666D01*
X48998190Y-37528666D01*
X48807714Y-37576285D01*
X48712476Y-37623904D01*
X48617238Y-37719142D01*
X48569619Y-37862000D01*
X48569619Y-37957238D01*
X48617238Y-38100095D01*
X48664857Y-38147714D01*
X48998190Y-38147714D01*
X48998190Y-37957238D01*
X48569619Y-38576285D02*
X49569619Y-38576285D01*
X48569619Y-39147714D01*
X49569619Y-39147714D01*
X48569619Y-39623904D02*
X49569619Y-39623904D01*
X49569619Y-39862000D01*
X49522000Y-40004857D01*
X49426761Y-40100095D01*
X49331523Y-40147714D01*
X49141047Y-40195333D01*
X48998190Y-40195333D01*
X48807714Y-40147714D01*
X48712476Y-40100095D01*
X48617238Y-40004857D01*
X48569619Y-39862000D01*
X48569619Y-39623904D01*
X22860095Y-22756761D02*
X23002952Y-22804380D01*
X23241047Y-22804380D01*
X23336285Y-22756761D01*
X23383904Y-22709142D01*
X23431523Y-22613904D01*
X23431523Y-22518666D01*
X23383904Y-22423428D01*
X23336285Y-22375809D01*
X23241047Y-22328190D01*
X23050571Y-22280571D01*
X22955333Y-22232952D01*
X22907714Y-22185333D01*
X22860095Y-22090095D01*
X22860095Y-21994857D01*
X22907714Y-21899619D01*
X22955333Y-21852000D01*
X23050571Y-21804380D01*
X23288666Y-21804380D01*
X23431523Y-21852000D01*
X24336285Y-21804380D02*
X23860095Y-21804380D01*
X23812476Y-22280571D01*
X23860095Y-22232952D01*
X23955333Y-22185333D01*
X24193428Y-22185333D01*
X24288666Y-22232952D01*
X24336285Y-22280571D01*
X24383904Y-22375809D01*
X24383904Y-22613904D01*
X24336285Y-22709142D01*
X24288666Y-22756761D01*
X24193428Y-22804380D01*
X23955333Y-22804380D01*
X23860095Y-22756761D01*
X23812476Y-22709142D01*
X33583619Y-38171523D02*
X34059809Y-37838190D01*
X33583619Y-37600095D02*
X34583619Y-37600095D01*
X34583619Y-37981047D01*
X34536000Y-38076285D01*
X34488380Y-38123904D01*
X34393142Y-38171523D01*
X34250285Y-38171523D01*
X34155047Y-38123904D01*
X34107428Y-38076285D01*
X34059809Y-37981047D01*
X34059809Y-37600095D01*
X33583619Y-38600095D02*
X34583619Y-38600095D01*
X34107428Y-38600095D02*
X34107428Y-39171523D01*
X33583619Y-39171523D02*
X34583619Y-39171523D01*
X34488380Y-39600095D02*
X34536000Y-39647714D01*
X34583619Y-39742952D01*
X34583619Y-39981047D01*
X34536000Y-40076285D01*
X34488380Y-40123904D01*
X34393142Y-40171523D01*
X34297904Y-40171523D01*
X34155047Y-40123904D01*
X33583619Y-39552476D01*
X33583619Y-40171523D01*
X28249619Y-38036571D02*
X28725809Y-37703238D01*
X28249619Y-37465142D02*
X29249619Y-37465142D01*
X29249619Y-37846095D01*
X29202000Y-37941333D01*
X29154380Y-37988952D01*
X29059142Y-38036571D01*
X28916285Y-38036571D01*
X28821047Y-37988952D01*
X28773428Y-37941333D01*
X28725809Y-37846095D01*
X28725809Y-37465142D01*
X28249619Y-38941333D02*
X28249619Y-38465142D01*
X29249619Y-38465142D01*
X29154380Y-39227047D02*
X29202000Y-39274666D01*
X29249619Y-39369904D01*
X29249619Y-39608000D01*
X29202000Y-39703238D01*
X29154380Y-39750857D01*
X29059142Y-39798476D01*
X28963904Y-39798476D01*
X28821047Y-39750857D01*
X28249619Y-39179428D01*
X28249619Y-39798476D01*
X38663619Y-38290571D02*
X39139809Y-37957238D01*
X38663619Y-37719142D02*
X39663619Y-37719142D01*
X39663619Y-38100095D01*
X39616000Y-38195333D01*
X39568380Y-38242952D01*
X39473142Y-38290571D01*
X39330285Y-38290571D01*
X39235047Y-38242952D01*
X39187428Y-38195333D01*
X39139809Y-38100095D01*
X39139809Y-37719142D01*
X38663619Y-39195333D02*
X38663619Y-38719142D01*
X39663619Y-38719142D01*
X38663619Y-40052476D02*
X38663619Y-39481047D01*
X38663619Y-39766761D02*
X39663619Y-39766761D01*
X39520761Y-39671523D01*
X39425523Y-39576285D01*
X39377904Y-39481047D01*
X36123619Y-38020761D02*
X36599809Y-37687428D01*
X36123619Y-37449333D02*
X37123619Y-37449333D01*
X37123619Y-37830285D01*
X37076000Y-37925523D01*
X37028380Y-37973142D01*
X36933142Y-38020761D01*
X36790285Y-38020761D01*
X36695047Y-37973142D01*
X36647428Y-37925523D01*
X36599809Y-37830285D01*
X36599809Y-37449333D01*
X36647428Y-38449333D02*
X36647428Y-38782666D01*
X36123619Y-38925523D02*
X36123619Y-38449333D01*
X37123619Y-38449333D01*
X37123619Y-38925523D01*
X37123619Y-39258857D02*
X36123619Y-39925523D01*
X37123619Y-39925523D02*
X36123619Y-39258857D01*
X37028380Y-40258857D02*
X37076000Y-40306476D01*
X37123619Y-40401714D01*
X37123619Y-40639809D01*
X37076000Y-40735047D01*
X37028380Y-40782666D01*
X36933142Y-40830285D01*
X36837904Y-40830285D01*
X36695047Y-40782666D01*
X36123619Y-40211238D01*
X36123619Y-40830285D01*
X22860095Y-20216761D02*
X23002952Y-20264380D01*
X23241047Y-20264380D01*
X23336285Y-20216761D01*
X23383904Y-20169142D01*
X23431523Y-20073904D01*
X23431523Y-19978666D01*
X23383904Y-19883428D01*
X23336285Y-19835809D01*
X23241047Y-19788190D01*
X23050571Y-19740571D01*
X22955333Y-19692952D01*
X22907714Y-19645333D01*
X22860095Y-19550095D01*
X22860095Y-19454857D01*
X22907714Y-19359619D01*
X22955333Y-19312000D01*
X23050571Y-19264380D01*
X23288666Y-19264380D01*
X23431523Y-19312000D01*
X24288666Y-19597714D02*
X24288666Y-20264380D01*
X24050571Y-19216761D02*
X23812476Y-19931047D01*
X24431523Y-19931047D01*
X22860095Y-25296761D02*
X23002952Y-25344380D01*
X23241047Y-25344380D01*
X23336285Y-25296761D01*
X23383904Y-25249142D01*
X23431523Y-25153904D01*
X23431523Y-25058666D01*
X23383904Y-24963428D01*
X23336285Y-24915809D01*
X23241047Y-24868190D01*
X23050571Y-24820571D01*
X22955333Y-24772952D01*
X22907714Y-24725333D01*
X22860095Y-24630095D01*
X22860095Y-24534857D01*
X22907714Y-24439619D01*
X22955333Y-24392000D01*
X23050571Y-24344380D01*
X23288666Y-24344380D01*
X23431523Y-24392000D01*
X24050571Y-24344380D02*
X24145809Y-24344380D01*
X24241047Y-24392000D01*
X24288666Y-24439619D01*
X24336285Y-24534857D01*
X24383904Y-24725333D01*
X24383904Y-24963428D01*
X24336285Y-25153904D01*
X24288666Y-25249142D01*
X24241047Y-25296761D01*
X24145809Y-25344380D01*
X24050571Y-25344380D01*
X23955333Y-25296761D01*
X23907714Y-25249142D01*
X23860095Y-25153904D01*
X23812476Y-24963428D01*
X23812476Y-24725333D01*
X23860095Y-24534857D01*
X23907714Y-24439619D01*
X23955333Y-24392000D01*
X24050571Y-24344380D01*
X22860095Y-15136761D02*
X23002952Y-15184380D01*
X23241047Y-15184380D01*
X23336285Y-15136761D01*
X23383904Y-15089142D01*
X23431523Y-14993904D01*
X23431523Y-14898666D01*
X23383904Y-14803428D01*
X23336285Y-14755809D01*
X23241047Y-14708190D01*
X23050571Y-14660571D01*
X22955333Y-14612952D01*
X22907714Y-14565333D01*
X22860095Y-14470095D01*
X22860095Y-14374857D01*
X22907714Y-14279619D01*
X22955333Y-14232000D01*
X23050571Y-14184380D01*
X23288666Y-14184380D01*
X23431523Y-14232000D01*
X23812476Y-14279619D02*
X23860095Y-14232000D01*
X23955333Y-14184380D01*
X24193428Y-14184380D01*
X24288666Y-14232000D01*
X24336285Y-14279619D01*
X24383904Y-14374857D01*
X24383904Y-14470095D01*
X24336285Y-14612952D01*
X23764857Y-15184380D01*
X24383904Y-15184380D01*
X30789619Y-38123904D02*
X31265809Y-37790571D01*
X30789619Y-37552476D02*
X31789619Y-37552476D01*
X31789619Y-37933428D01*
X31742000Y-38028666D01*
X31694380Y-38076285D01*
X31599142Y-38123904D01*
X31456285Y-38123904D01*
X31361047Y-38076285D01*
X31313428Y-38028666D01*
X31265809Y-37933428D01*
X31265809Y-37552476D01*
X30789619Y-38552476D02*
X31789619Y-38552476D01*
X31075333Y-38885809D01*
X31789619Y-39219142D01*
X30789619Y-39219142D01*
X31694380Y-39647714D02*
X31742000Y-39695333D01*
X31789619Y-39790571D01*
X31789619Y-40028666D01*
X31742000Y-40123904D01*
X31694380Y-40171523D01*
X31599142Y-40219142D01*
X31503904Y-40219142D01*
X31361047Y-40171523D01*
X30789619Y-39600095D01*
X30789619Y-40219142D01*
X52316000Y-38100095D02*
X52363619Y-38004857D01*
X52363619Y-37862000D01*
X52316000Y-37719142D01*
X52220761Y-37623904D01*
X52125523Y-37576285D01*
X51935047Y-37528666D01*
X51792190Y-37528666D01*
X51601714Y-37576285D01*
X51506476Y-37623904D01*
X51411238Y-37719142D01*
X51363619Y-37862000D01*
X51363619Y-37957238D01*
X51411238Y-38100095D01*
X51458857Y-38147714D01*
X51792190Y-38147714D01*
X51792190Y-37957238D01*
X51363619Y-38576285D02*
X52363619Y-38576285D01*
X51363619Y-39147714D01*
X52363619Y-39147714D01*
X51363619Y-39623904D02*
X52363619Y-39623904D01*
X52363619Y-39862000D01*
X52316000Y-40004857D01*
X52220761Y-40100095D01*
X52125523Y-40147714D01*
X51935047Y-40195333D01*
X51792190Y-40195333D01*
X51601714Y-40147714D01*
X51506476Y-40100095D01*
X51411238Y-40004857D01*
X51363619Y-39862000D01*
X51363619Y-39623904D01*
X43743619Y-38171523D02*
X44219809Y-37838190D01*
X43743619Y-37600095D02*
X44743619Y-37600095D01*
X44743619Y-37981047D01*
X44696000Y-38076285D01*
X44648380Y-38123904D01*
X44553142Y-38171523D01*
X44410285Y-38171523D01*
X44315047Y-38123904D01*
X44267428Y-38076285D01*
X44219809Y-37981047D01*
X44219809Y-37600095D01*
X43743619Y-38600095D02*
X44743619Y-38600095D01*
X44267428Y-38600095D02*
X44267428Y-39171523D01*
X43743619Y-39171523D02*
X44743619Y-39171523D01*
X43743619Y-40171523D02*
X43743619Y-39600095D01*
X43743619Y-39885809D02*
X44743619Y-39885809D01*
X44600761Y-39790571D01*
X44505523Y-39695333D01*
X44457904Y-39600095D01*
X58729619Y-37425714D02*
X59729619Y-37425714D01*
X59253428Y-37425714D02*
X59253428Y-37997142D01*
X58729619Y-37997142D02*
X59729619Y-37997142D01*
X59015333Y-38425714D02*
X59015333Y-38901904D01*
X58729619Y-38330476D02*
X59729619Y-38663809D01*
X58729619Y-38997142D01*
X58729619Y-39806666D02*
X58729619Y-39330476D01*
X59729619Y-39330476D01*
X58729619Y-40616190D02*
X58729619Y-40140000D01*
X59729619Y-40140000D01*
X58729619Y-41711428D02*
X59729619Y-41711428D01*
X58729619Y-42187619D02*
X59729619Y-42187619D01*
X59015333Y-42520952D01*
X59729619Y-42854285D01*
X58729619Y-42854285D01*
X58729619Y-43330476D02*
X59729619Y-43330476D01*
X59729619Y-43711428D01*
X59682000Y-43806666D01*
X59634380Y-43854285D01*
X59539142Y-43901904D01*
X59396285Y-43901904D01*
X59301047Y-43854285D01*
X59253428Y-43806666D01*
X59205809Y-43711428D01*
X59205809Y-43330476D01*
X22860095Y-17676761D02*
X23002952Y-17724380D01*
X23241047Y-17724380D01*
X23336285Y-17676761D01*
X23383904Y-17629142D01*
X23431523Y-17533904D01*
X23431523Y-17438666D01*
X23383904Y-17343428D01*
X23336285Y-17295809D01*
X23241047Y-17248190D01*
X23050571Y-17200571D01*
X22955333Y-17152952D01*
X22907714Y-17105333D01*
X22860095Y-17010095D01*
X22860095Y-16914857D01*
X22907714Y-16819619D01*
X22955333Y-16772000D01*
X23050571Y-16724380D01*
X23288666Y-16724380D01*
X23431523Y-16772000D01*
X23764857Y-16724380D02*
X24383904Y-16724380D01*
X24050571Y-17105333D01*
X24193428Y-17105333D01*
X24288666Y-17152952D01*
X24336285Y-17200571D01*
X24383904Y-17295809D01*
X24383904Y-17533904D01*
X24336285Y-17629142D01*
X24288666Y-17676761D01*
X24193428Y-17724380D01*
X23907714Y-17724380D01*
X23812476Y-17676761D01*
X23764857Y-17629142D01*
X54856000Y-38100095D02*
X54903619Y-38004857D01*
X54903619Y-37862000D01*
X54856000Y-37719142D01*
X54760761Y-37623904D01*
X54665523Y-37576285D01*
X54475047Y-37528666D01*
X54332190Y-37528666D01*
X54141714Y-37576285D01*
X54046476Y-37623904D01*
X53951238Y-37719142D01*
X53903619Y-37862000D01*
X53903619Y-37957238D01*
X53951238Y-38100095D01*
X53998857Y-38147714D01*
X54332190Y-38147714D01*
X54332190Y-37957238D01*
X53903619Y-38576285D02*
X54903619Y-38576285D01*
X53903619Y-39147714D01*
X54903619Y-39147714D01*
X53903619Y-39623904D02*
X54903619Y-39623904D01*
X54903619Y-39862000D01*
X54856000Y-40004857D01*
X54760761Y-40100095D01*
X54665523Y-40147714D01*
X54475047Y-40195333D01*
X54332190Y-40195333D01*
X54141714Y-40147714D01*
X54046476Y-40100095D01*
X53951238Y-40004857D01*
X53903619Y-39862000D01*
X53903619Y-39623904D01*
X28456000Y-28955904D02*
X28408380Y-29051142D01*
X28408380Y-29194000D01*
X28456000Y-29336857D01*
X28551238Y-29432095D01*
X28646476Y-29479714D01*
X28836952Y-29527333D01*
X28979809Y-29527333D01*
X29170285Y-29479714D01*
X29265523Y-29432095D01*
X29360761Y-29336857D01*
X29408380Y-29194000D01*
X29408380Y-29098761D01*
X29360761Y-28955904D01*
X29313142Y-28908285D01*
X28979809Y-28908285D01*
X28979809Y-29098761D01*
X29408380Y-28479714D02*
X28408380Y-28479714D01*
X29408380Y-27908285D01*
X28408380Y-27908285D01*
X29408380Y-27432095D02*
X28408380Y-27432095D01*
X28408380Y-27194000D01*
X28456000Y-27051142D01*
X28551238Y-26955904D01*
X28646476Y-26908285D01*
X28836952Y-26860666D01*
X28979809Y-26860666D01*
X29170285Y-26908285D01*
X29265523Y-26955904D01*
X29360761Y-27051142D01*
X29408380Y-27194000D01*
X29408380Y-27432095D01*
X22860095Y-12596761D02*
X23002952Y-12644380D01*
X23241047Y-12644380D01*
X23336285Y-12596761D01*
X23383904Y-12549142D01*
X23431523Y-12453904D01*
X23431523Y-12358666D01*
X23383904Y-12263428D01*
X23336285Y-12215809D01*
X23241047Y-12168190D01*
X23050571Y-12120571D01*
X22955333Y-12072952D01*
X22907714Y-12025333D01*
X22860095Y-11930095D01*
X22860095Y-11834857D01*
X22907714Y-11739619D01*
X22955333Y-11692000D01*
X23050571Y-11644380D01*
X23288666Y-11644380D01*
X23431523Y-11692000D01*
X24383904Y-12644380D02*
X23812476Y-12644380D01*
X24098190Y-12644380D02*
X24098190Y-11644380D01*
X24002952Y-11787238D01*
X23907714Y-11882476D01*
X23812476Y-11930095D01*
X61523619Y-37576666D02*
X62523619Y-37576666D01*
X62047428Y-37576666D02*
X62047428Y-38148095D01*
X61523619Y-38148095D02*
X62523619Y-38148095D01*
X61809333Y-38576666D02*
X61809333Y-39052857D01*
X61523619Y-38481428D02*
X62523619Y-38814761D01*
X61523619Y-39148095D01*
X61523619Y-39957619D02*
X61523619Y-39481428D01*
X62523619Y-39481428D01*
X61523619Y-40767142D02*
X61523619Y-40290952D01*
X62523619Y-40290952D01*
X61523619Y-42433809D02*
X61999809Y-42100476D01*
X61523619Y-41862380D02*
X62523619Y-41862380D01*
X62523619Y-42243333D01*
X62476000Y-42338571D01*
X62428380Y-42386190D01*
X62333142Y-42433809D01*
X62190285Y-42433809D01*
X62095047Y-42386190D01*
X62047428Y-42338571D01*
X61999809Y-42243333D01*
X61999809Y-41862380D01*
X62523619Y-43052857D02*
X62523619Y-43243333D01*
X62476000Y-43338571D01*
X62380761Y-43433809D01*
X62190285Y-43481428D01*
X61856952Y-43481428D01*
X61666476Y-43433809D01*
X61571238Y-43338571D01*
X61523619Y-43243333D01*
X61523619Y-43052857D01*
X61571238Y-42957619D01*
X61666476Y-42862380D01*
X61856952Y-42814761D01*
X62190285Y-42814761D01*
X62380761Y-42862380D01*
X62476000Y-42957619D01*
X62523619Y-43052857D01*
X62523619Y-43767142D02*
X62523619Y-44338571D01*
X61523619Y-44052857D02*
X62523619Y-44052857D01*
X62523619Y-44862380D02*
X62523619Y-45052857D01*
X62476000Y-45148095D01*
X62380761Y-45243333D01*
X62190285Y-45290952D01*
X61856952Y-45290952D01*
X61666476Y-45243333D01*
X61571238Y-45148095D01*
X61523619Y-45052857D01*
X61523619Y-44862380D01*
X61571238Y-44767142D01*
X61666476Y-44671904D01*
X61856952Y-44624285D01*
X62190285Y-44624285D01*
X62380761Y-44671904D01*
X62476000Y-44767142D01*
X62523619Y-44862380D01*
X61523619Y-46290952D02*
X61999809Y-45957619D01*
X61523619Y-45719523D02*
X62523619Y-45719523D01*
X62523619Y-46100476D01*
X62476000Y-46195714D01*
X62428380Y-46243333D01*
X62333142Y-46290952D01*
X62190285Y-46290952D01*
X62095047Y-46243333D01*
X62047428Y-46195714D01*
X61999809Y-46100476D01*
X61999809Y-45719523D01*
X41203619Y-38123904D02*
X41679809Y-37790571D01*
X41203619Y-37552476D02*
X42203619Y-37552476D01*
X42203619Y-37933428D01*
X42156000Y-38028666D01*
X42108380Y-38076285D01*
X42013142Y-38123904D01*
X41870285Y-38123904D01*
X41775047Y-38076285D01*
X41727428Y-38028666D01*
X41679809Y-37933428D01*
X41679809Y-37552476D01*
X41203619Y-38552476D02*
X42203619Y-38552476D01*
X41489333Y-38885809D01*
X42203619Y-39219142D01*
X41203619Y-39219142D01*
X41203619Y-40219142D02*
X41203619Y-39647714D01*
X41203619Y-39933428D02*
X42203619Y-39933428D01*
X42060761Y-39838190D01*
X41965523Y-39742952D01*
X41917904Y-39647714D01*
%TO.C,R13*%
X41775142Y-5278380D02*
X41441809Y-4802190D01*
X41203714Y-5278380D02*
X41203714Y-4278380D01*
X41584666Y-4278380D01*
X41679904Y-4326000D01*
X41727523Y-4373619D01*
X41775142Y-4468857D01*
X41775142Y-4611714D01*
X41727523Y-4706952D01*
X41679904Y-4754571D01*
X41584666Y-4802190D01*
X41203714Y-4802190D01*
X42727523Y-5278380D02*
X42156095Y-5278380D01*
X42441809Y-5278380D02*
X42441809Y-4278380D01*
X42346571Y-4421238D01*
X42251333Y-4516476D01*
X42156095Y-4564095D01*
X43060857Y-4278380D02*
X43679904Y-4278380D01*
X43346571Y-4659333D01*
X43489428Y-4659333D01*
X43584666Y-4706952D01*
X43632285Y-4754571D01*
X43679904Y-4849809D01*
X43679904Y-5087904D01*
X43632285Y-5183142D01*
X43584666Y-5230761D01*
X43489428Y-5278380D01*
X43203714Y-5278380D01*
X43108476Y-5230761D01*
X43060857Y-5183142D01*
%TO.C,Q7*%
X42711619Y-14573238D02*
X42664000Y-14668476D01*
X42568761Y-14763714D01*
X42425904Y-14906571D01*
X42378285Y-15001809D01*
X42378285Y-15097047D01*
X42616380Y-15049428D02*
X42568761Y-15144666D01*
X42473523Y-15239904D01*
X42283047Y-15287523D01*
X41949714Y-15287523D01*
X41759238Y-15239904D01*
X41664000Y-15144666D01*
X41616380Y-15049428D01*
X41616380Y-14858952D01*
X41664000Y-14763714D01*
X41759238Y-14668476D01*
X41949714Y-14620857D01*
X42283047Y-14620857D01*
X42473523Y-14668476D01*
X42568761Y-14763714D01*
X42616380Y-14858952D01*
X42616380Y-15049428D01*
X41616380Y-14287523D02*
X41616380Y-13620857D01*
X42616380Y-14049428D01*
%TO.C,U3*%
X7738095Y-28452380D02*
X7738095Y-29261904D01*
X7785714Y-29357142D01*
X7833333Y-29404761D01*
X7928571Y-29452380D01*
X8119047Y-29452380D01*
X8214285Y-29404761D01*
X8261904Y-29357142D01*
X8309523Y-29261904D01*
X8309523Y-28452380D01*
X8690476Y-28452380D02*
X9309523Y-28452380D01*
X8976190Y-28833333D01*
X9119047Y-28833333D01*
X9214285Y-28880952D01*
X9261904Y-28928571D01*
X9309523Y-29023809D01*
X9309523Y-29261904D01*
X9261904Y-29357142D01*
X9214285Y-29404761D01*
X9119047Y-29452380D01*
X8833333Y-29452380D01*
X8738095Y-29404761D01*
X8690476Y-29357142D01*
%TO.C,J5*%
X63758380Y-35639333D02*
X64472666Y-35639333D01*
X64615523Y-35686952D01*
X64710761Y-35782190D01*
X64758380Y-35925047D01*
X64758380Y-36020285D01*
X63758380Y-34686952D02*
X63758380Y-35163142D01*
X64234571Y-35210761D01*
X64186952Y-35163142D01*
X64139333Y-35067904D01*
X64139333Y-34829809D01*
X64186952Y-34734571D01*
X64234571Y-34686952D01*
X64329809Y-34639333D01*
X64567904Y-34639333D01*
X64663142Y-34686952D01*
X64710761Y-34734571D01*
X64758380Y-34829809D01*
X64758380Y-35067904D01*
X64710761Y-35163142D01*
X64663142Y-35210761D01*
%TO.C,U6*%
X4988095Y-2952380D02*
X4988095Y-3761904D01*
X5035714Y-3857142D01*
X5083333Y-3904761D01*
X5178571Y-3952380D01*
X5369047Y-3952380D01*
X5464285Y-3904761D01*
X5511904Y-3857142D01*
X5559523Y-3761904D01*
X5559523Y-2952380D01*
X6464285Y-2952380D02*
X6273809Y-2952380D01*
X6178571Y-3000000D01*
X6130952Y-3047619D01*
X6035714Y-3190476D01*
X5988095Y-3380952D01*
X5988095Y-3761904D01*
X6035714Y-3857142D01*
X6083333Y-3904761D01*
X6178571Y-3952380D01*
X6369047Y-3952380D01*
X6464285Y-3904761D01*
X6511904Y-3857142D01*
X6559523Y-3761904D01*
X6559523Y-3523809D01*
X6511904Y-3428571D01*
X6464285Y-3380952D01*
X6369047Y-3333333D01*
X6178571Y-3333333D01*
X6083333Y-3380952D01*
X6035714Y-3428571D01*
X5988095Y-3523809D01*
%TO.C,R17*%
X38831780Y-32138857D02*
X38355590Y-32472190D01*
X38831780Y-32710285D02*
X37831780Y-32710285D01*
X37831780Y-32329333D01*
X37879400Y-32234095D01*
X37927019Y-32186476D01*
X38022257Y-32138857D01*
X38165114Y-32138857D01*
X38260352Y-32186476D01*
X38307971Y-32234095D01*
X38355590Y-32329333D01*
X38355590Y-32710285D01*
X38831780Y-31186476D02*
X38831780Y-31757904D01*
X38831780Y-31472190D02*
X37831780Y-31472190D01*
X37974638Y-31567428D01*
X38069876Y-31662666D01*
X38117495Y-31757904D01*
X37831780Y-30853142D02*
X37831780Y-30186476D01*
X38831780Y-30615047D01*
%TO.C,R7*%
X48347333Y-5278380D02*
X48014000Y-4802190D01*
X47775904Y-5278380D02*
X47775904Y-4278380D01*
X48156857Y-4278380D01*
X48252095Y-4326000D01*
X48299714Y-4373619D01*
X48347333Y-4468857D01*
X48347333Y-4611714D01*
X48299714Y-4706952D01*
X48252095Y-4754571D01*
X48156857Y-4802190D01*
X47775904Y-4802190D01*
X48680666Y-4278380D02*
X49347333Y-4278380D01*
X48918761Y-5278380D01*
%TO.C,RV6*%
X18752380Y-5070238D02*
X18276190Y-5403571D01*
X18752380Y-5641666D02*
X17752380Y-5641666D01*
X17752380Y-5260714D01*
X17800000Y-5165476D01*
X17847619Y-5117857D01*
X17942857Y-5070238D01*
X18085714Y-5070238D01*
X18180952Y-5117857D01*
X18228571Y-5165476D01*
X18276190Y-5260714D01*
X18276190Y-5641666D01*
X17752380Y-4784523D02*
X18752380Y-4451190D01*
X17752380Y-4117857D01*
X17752380Y-3355952D02*
X17752380Y-3546428D01*
X17800000Y-3641666D01*
X17847619Y-3689285D01*
X17990476Y-3784523D01*
X18180952Y-3832142D01*
X18561904Y-3832142D01*
X18657142Y-3784523D01*
X18704761Y-3736904D01*
X18752380Y-3641666D01*
X18752380Y-3451190D01*
X18704761Y-3355952D01*
X18657142Y-3308333D01*
X18561904Y-3260714D01*
X18323809Y-3260714D01*
X18228571Y-3308333D01*
X18180952Y-3355952D01*
X18133333Y-3451190D01*
X18133333Y-3641666D01*
X18180952Y-3736904D01*
X18228571Y-3784523D01*
X18323809Y-3832142D01*
%TO.C,R10*%
X45077142Y-5278380D02*
X44743809Y-4802190D01*
X44505714Y-5278380D02*
X44505714Y-4278380D01*
X44886666Y-4278380D01*
X44981904Y-4326000D01*
X45029523Y-4373619D01*
X45077142Y-4468857D01*
X45077142Y-4611714D01*
X45029523Y-4706952D01*
X44981904Y-4754571D01*
X44886666Y-4802190D01*
X44505714Y-4802190D01*
X46029523Y-5278380D02*
X45458095Y-5278380D01*
X45743809Y-5278380D02*
X45743809Y-4278380D01*
X45648571Y-4421238D01*
X45553333Y-4516476D01*
X45458095Y-4564095D01*
X46648571Y-4278380D02*
X46743809Y-4278380D01*
X46839047Y-4326000D01*
X46886666Y-4373619D01*
X46934285Y-4468857D01*
X46981904Y-4659333D01*
X46981904Y-4897428D01*
X46934285Y-5087904D01*
X46886666Y-5183142D01*
X46839047Y-5230761D01*
X46743809Y-5278380D01*
X46648571Y-5278380D01*
X46553333Y-5230761D01*
X46505714Y-5183142D01*
X46458095Y-5087904D01*
X46410476Y-4897428D01*
X46410476Y-4659333D01*
X46458095Y-4468857D01*
X46505714Y-4373619D01*
X46553333Y-4326000D01*
X46648571Y-4278380D01*
%TO.C,RV5*%
X11477380Y-49370238D02*
X11001190Y-49703571D01*
X11477380Y-49941666D02*
X10477380Y-49941666D01*
X10477380Y-49560714D01*
X10525000Y-49465476D01*
X10572619Y-49417857D01*
X10667857Y-49370238D01*
X10810714Y-49370238D01*
X10905952Y-49417857D01*
X10953571Y-49465476D01*
X11001190Y-49560714D01*
X11001190Y-49941666D01*
X10477380Y-49084523D02*
X11477380Y-48751190D01*
X10477380Y-48417857D01*
X10477380Y-47608333D02*
X10477380Y-48084523D01*
X10953571Y-48132142D01*
X10905952Y-48084523D01*
X10858333Y-47989285D01*
X10858333Y-47751190D01*
X10905952Y-47655952D01*
X10953571Y-47608333D01*
X11048809Y-47560714D01*
X11286904Y-47560714D01*
X11382142Y-47608333D01*
X11429761Y-47655952D01*
X11477380Y-47751190D01*
X11477380Y-47989285D01*
X11429761Y-48084523D01*
X11382142Y-48132142D01*
%TO.C,R82*%
X1174380Y-32424857D02*
X698190Y-32758190D01*
X1174380Y-32996285D02*
X174380Y-32996285D01*
X174380Y-32615333D01*
X221999Y-32520095D01*
X269619Y-32472476D01*
X364857Y-32424857D01*
X507714Y-32424857D01*
X602952Y-32472476D01*
X650571Y-32520095D01*
X698190Y-32615333D01*
X698190Y-32996285D01*
X602952Y-31853428D02*
X555333Y-31948666D01*
X507714Y-31996285D01*
X412476Y-32043904D01*
X364857Y-32043904D01*
X269619Y-31996285D01*
X222000Y-31948666D01*
X174380Y-31853428D01*
X174380Y-31662952D01*
X222000Y-31567714D01*
X269619Y-31520095D01*
X364857Y-31472476D01*
X412476Y-31472476D01*
X507714Y-31520095D01*
X555333Y-31567714D01*
X602952Y-31662952D01*
X602952Y-31853428D01*
X650571Y-31948666D01*
X698190Y-31996285D01*
X793428Y-32043904D01*
X983904Y-32043904D01*
X1079142Y-31996285D01*
X1126761Y-31948666D01*
X1174380Y-31853428D01*
X1174380Y-31662952D01*
X1126761Y-31567714D01*
X1079142Y-31520095D01*
X983904Y-31472476D01*
X793428Y-31472476D01*
X698190Y-31520095D01*
X650571Y-31567714D01*
X602952Y-31662952D01*
X269619Y-31091523D02*
X222000Y-31043904D01*
X174380Y-30948666D01*
X174380Y-30710571D01*
X222000Y-30615333D01*
X269619Y-30567714D01*
X364857Y-30520095D01*
X460095Y-30520095D01*
X602952Y-30567714D01*
X1174380Y-31139142D01*
X1174380Y-30520095D01*
%TO.C,R83*%
X2151142Y-43112780D02*
X1817809Y-42636590D01*
X1579714Y-43112780D02*
X1579714Y-42112780D01*
X1960666Y-42112780D01*
X2055904Y-42160400D01*
X2103523Y-42208019D01*
X2151142Y-42303257D01*
X2151142Y-42446114D01*
X2103523Y-42541352D01*
X2055904Y-42588971D01*
X1960666Y-42636590D01*
X1579714Y-42636590D01*
X2722571Y-42541352D02*
X2627333Y-42493733D01*
X2579714Y-42446114D01*
X2532095Y-42350876D01*
X2532095Y-42303257D01*
X2579714Y-42208019D01*
X2627333Y-42160400D01*
X2722571Y-42112780D01*
X2913047Y-42112780D01*
X3008285Y-42160400D01*
X3055904Y-42208019D01*
X3103523Y-42303257D01*
X3103523Y-42350876D01*
X3055904Y-42446114D01*
X3008285Y-42493733D01*
X2913047Y-42541352D01*
X2722571Y-42541352D01*
X2627333Y-42588971D01*
X2579714Y-42636590D01*
X2532095Y-42731828D01*
X2532095Y-42922304D01*
X2579714Y-43017542D01*
X2627333Y-43065161D01*
X2722571Y-43112780D01*
X2913047Y-43112780D01*
X3008285Y-43065161D01*
X3055904Y-43017542D01*
X3103523Y-42922304D01*
X3103523Y-42731828D01*
X3055904Y-42636590D01*
X3008285Y-42588971D01*
X2913047Y-42541352D01*
X3436857Y-42112780D02*
X4055904Y-42112780D01*
X3722571Y-42493733D01*
X3865428Y-42493733D01*
X3960666Y-42541352D01*
X4008285Y-42588971D01*
X4055904Y-42684209D01*
X4055904Y-42922304D01*
X4008285Y-43017542D01*
X3960666Y-43065161D01*
X3865428Y-43112780D01*
X3579714Y-43112780D01*
X3484476Y-43065161D01*
X3436857Y-43017542D01*
%TO.C,R75*%
X12565142Y-9088380D02*
X12231809Y-8612190D01*
X11993714Y-9088380D02*
X11993714Y-8088380D01*
X12374666Y-8088380D01*
X12469904Y-8136000D01*
X12517523Y-8183619D01*
X12565142Y-8278857D01*
X12565142Y-8421714D01*
X12517523Y-8516952D01*
X12469904Y-8564571D01*
X12374666Y-8612190D01*
X11993714Y-8612190D01*
X12898476Y-8088380D02*
X13565142Y-8088380D01*
X13136571Y-9088380D01*
X14422285Y-8088380D02*
X13946095Y-8088380D01*
X13898476Y-8564571D01*
X13946095Y-8516952D01*
X14041333Y-8469333D01*
X14279428Y-8469333D01*
X14374666Y-8516952D01*
X14422285Y-8564571D01*
X14469904Y-8659809D01*
X14469904Y-8897904D01*
X14422285Y-8993142D01*
X14374666Y-9040761D01*
X14279428Y-9088380D01*
X14041333Y-9088380D01*
X13946095Y-9040761D01*
X13898476Y-8993142D01*
%TO.C,R1*%
X53173333Y-5532380D02*
X52840000Y-5056190D01*
X52601904Y-5532380D02*
X52601904Y-4532380D01*
X52982857Y-4532380D01*
X53078095Y-4580000D01*
X53125714Y-4627619D01*
X53173333Y-4722857D01*
X53173333Y-4865714D01*
X53125714Y-4960952D01*
X53078095Y-5008571D01*
X52982857Y-5056190D01*
X52601904Y-5056190D01*
X54125714Y-5532380D02*
X53554285Y-5532380D01*
X53840000Y-5532380D02*
X53840000Y-4532380D01*
X53744761Y-4675238D01*
X53649523Y-4770476D01*
X53554285Y-4818095D01*
%TO.C,R85*%
X1174380Y-40012857D02*
X698190Y-40346190D01*
X1174380Y-40584285D02*
X174380Y-40584285D01*
X174380Y-40203333D01*
X221999Y-40108095D01*
X269619Y-40060476D01*
X364857Y-40012857D01*
X507714Y-40012857D01*
X602952Y-40060476D01*
X650571Y-40108095D01*
X698190Y-40203333D01*
X698190Y-40584285D01*
X602952Y-39441428D02*
X555333Y-39536666D01*
X507714Y-39584285D01*
X412476Y-39631904D01*
X364857Y-39631904D01*
X269619Y-39584285D01*
X222000Y-39536666D01*
X174380Y-39441428D01*
X174380Y-39250952D01*
X222000Y-39155714D01*
X269619Y-39108095D01*
X364857Y-39060476D01*
X412476Y-39060476D01*
X507714Y-39108095D01*
X555333Y-39155714D01*
X602952Y-39250952D01*
X602952Y-39441428D01*
X650571Y-39536666D01*
X698190Y-39584285D01*
X793428Y-39631904D01*
X983904Y-39631904D01*
X1079142Y-39584285D01*
X1126761Y-39536666D01*
X1174380Y-39441428D01*
X1174380Y-39250952D01*
X1126761Y-39155714D01*
X1079142Y-39108095D01*
X983904Y-39060476D01*
X793428Y-39060476D01*
X698190Y-39108095D01*
X650571Y-39155714D01*
X602952Y-39250952D01*
X174380Y-38155714D02*
X174380Y-38631904D01*
X650571Y-38679523D01*
X602952Y-38631904D01*
X555333Y-38536666D01*
X555333Y-38298571D01*
X602952Y-38203333D01*
X650571Y-38155714D01*
X745809Y-38108095D01*
X983904Y-38108095D01*
X1079142Y-38155714D01*
X1126761Y-38203333D01*
X1174380Y-38298571D01*
X1174380Y-38536666D01*
X1126761Y-38631904D01*
X1079142Y-38679523D01*
%TO.C,R23*%
X32888180Y-32367457D02*
X32411990Y-32700790D01*
X32888180Y-32938885D02*
X31888180Y-32938885D01*
X31888180Y-32557933D01*
X31935800Y-32462695D01*
X31983419Y-32415076D01*
X32078657Y-32367457D01*
X32221514Y-32367457D01*
X32316752Y-32415076D01*
X32364371Y-32462695D01*
X32411990Y-32557933D01*
X32411990Y-32938885D01*
X31983419Y-31986504D02*
X31935800Y-31938885D01*
X31888180Y-31843647D01*
X31888180Y-31605552D01*
X31935800Y-31510314D01*
X31983419Y-31462695D01*
X32078657Y-31415076D01*
X32173895Y-31415076D01*
X32316752Y-31462695D01*
X32888180Y-32034123D01*
X32888180Y-31415076D01*
X31888180Y-31081742D02*
X31888180Y-30462695D01*
X32269133Y-30796028D01*
X32269133Y-30653171D01*
X32316752Y-30557933D01*
X32364371Y-30510314D01*
X32459609Y-30462695D01*
X32697704Y-30462695D01*
X32792942Y-30510314D01*
X32840561Y-30557933D01*
X32888180Y-30653171D01*
X32888180Y-30938885D01*
X32840561Y-31034123D01*
X32792942Y-31081742D01*
%TO.C,Q13*%
X33313619Y-21653428D02*
X33266000Y-21748666D01*
X33170761Y-21843904D01*
X33027904Y-21986761D01*
X32980285Y-22082000D01*
X32980285Y-22177238D01*
X33218380Y-22129619D02*
X33170761Y-22224857D01*
X33075523Y-22320095D01*
X32885047Y-22367714D01*
X32551714Y-22367714D01*
X32361238Y-22320095D01*
X32266000Y-22224857D01*
X32218380Y-22129619D01*
X32218380Y-21939142D01*
X32266000Y-21843904D01*
X32361238Y-21748666D01*
X32551714Y-21701047D01*
X32885047Y-21701047D01*
X33075523Y-21748666D01*
X33170761Y-21843904D01*
X33218380Y-21939142D01*
X33218380Y-22129619D01*
X33218380Y-20748666D02*
X33218380Y-21320095D01*
X33218380Y-21034380D02*
X32218380Y-21034380D01*
X32361238Y-21129619D01*
X32456476Y-21224857D01*
X32504095Y-21320095D01*
X32218380Y-20415333D02*
X32218380Y-19796285D01*
X32599333Y-20129619D01*
X32599333Y-19986761D01*
X32646952Y-19891523D01*
X32694571Y-19843904D01*
X32789809Y-19796285D01*
X33027904Y-19796285D01*
X33123142Y-19843904D01*
X33170761Y-19891523D01*
X33218380Y-19986761D01*
X33218380Y-20272476D01*
X33170761Y-20367714D01*
X33123142Y-20415333D01*
%TO.C,R16*%
X38981142Y-5278380D02*
X38647809Y-4802190D01*
X38409714Y-5278380D02*
X38409714Y-4278380D01*
X38790666Y-4278380D01*
X38885904Y-4326000D01*
X38933523Y-4373619D01*
X38981142Y-4468857D01*
X38981142Y-4611714D01*
X38933523Y-4706952D01*
X38885904Y-4754571D01*
X38790666Y-4802190D01*
X38409714Y-4802190D01*
X39933523Y-5278380D02*
X39362095Y-5278380D01*
X39647809Y-5278380D02*
X39647809Y-4278380D01*
X39552571Y-4421238D01*
X39457333Y-4516476D01*
X39362095Y-4564095D01*
X40790666Y-4278380D02*
X40600190Y-4278380D01*
X40504952Y-4326000D01*
X40457333Y-4373619D01*
X40362095Y-4516476D01*
X40314476Y-4706952D01*
X40314476Y-5087904D01*
X40362095Y-5183142D01*
X40409714Y-5230761D01*
X40504952Y-5278380D01*
X40695428Y-5278380D01*
X40790666Y-5230761D01*
X40838285Y-5183142D01*
X40885904Y-5087904D01*
X40885904Y-4849809D01*
X40838285Y-4754571D01*
X40790666Y-4706952D01*
X40695428Y-4659333D01*
X40504952Y-4659333D01*
X40409714Y-4706952D01*
X40362095Y-4754571D01*
X40314476Y-4849809D01*
%TO.C,R86*%
X1643142Y-52014380D02*
X1309809Y-51538190D01*
X1071714Y-52014380D02*
X1071714Y-51014380D01*
X1452666Y-51014380D01*
X1547904Y-51062000D01*
X1595523Y-51109619D01*
X1643142Y-51204857D01*
X1643142Y-51347714D01*
X1595523Y-51442952D01*
X1547904Y-51490571D01*
X1452666Y-51538190D01*
X1071714Y-51538190D01*
X2214571Y-51442952D02*
X2119333Y-51395333D01*
X2071714Y-51347714D01*
X2024095Y-51252476D01*
X2024095Y-51204857D01*
X2071714Y-51109619D01*
X2119333Y-51062000D01*
X2214571Y-51014380D01*
X2405047Y-51014380D01*
X2500285Y-51062000D01*
X2547904Y-51109619D01*
X2595523Y-51204857D01*
X2595523Y-51252476D01*
X2547904Y-51347714D01*
X2500285Y-51395333D01*
X2405047Y-51442952D01*
X2214571Y-51442952D01*
X2119333Y-51490571D01*
X2071714Y-51538190D01*
X2024095Y-51633428D01*
X2024095Y-51823904D01*
X2071714Y-51919142D01*
X2119333Y-51966761D01*
X2214571Y-52014380D01*
X2405047Y-52014380D01*
X2500285Y-51966761D01*
X2547904Y-51919142D01*
X2595523Y-51823904D01*
X2595523Y-51633428D01*
X2547904Y-51538190D01*
X2500285Y-51490571D01*
X2405047Y-51442952D01*
X3452666Y-51014380D02*
X3262190Y-51014380D01*
X3166952Y-51062000D01*
X3119333Y-51109619D01*
X3024095Y-51252476D01*
X2976476Y-51442952D01*
X2976476Y-51823904D01*
X3024095Y-51919142D01*
X3071714Y-51966761D01*
X3166952Y-52014380D01*
X3357428Y-52014380D01*
X3452666Y-51966761D01*
X3500285Y-51919142D01*
X3547904Y-51823904D01*
X3547904Y-51585809D01*
X3500285Y-51490571D01*
X3452666Y-51442952D01*
X3357428Y-51395333D01*
X3166952Y-51395333D01*
X3071714Y-51442952D01*
X3024095Y-51490571D01*
X2976476Y-51585809D01*
%TO.C,Q3*%
X48045619Y-14573238D02*
X47998000Y-14668476D01*
X47902761Y-14763714D01*
X47759904Y-14906571D01*
X47712285Y-15001809D01*
X47712285Y-15097047D01*
X47950380Y-15049428D02*
X47902761Y-15144666D01*
X47807523Y-15239904D01*
X47617047Y-15287523D01*
X47283714Y-15287523D01*
X47093238Y-15239904D01*
X46998000Y-15144666D01*
X46950380Y-15049428D01*
X46950380Y-14858952D01*
X46998000Y-14763714D01*
X47093238Y-14668476D01*
X47283714Y-14620857D01*
X47617047Y-14620857D01*
X47807523Y-14668476D01*
X47902761Y-14763714D01*
X47950380Y-14858952D01*
X47950380Y-15049428D01*
X46950380Y-14287523D02*
X46950380Y-13668476D01*
X47331333Y-14001809D01*
X47331333Y-13858952D01*
X47378952Y-13763714D01*
X47426571Y-13716095D01*
X47521809Y-13668476D01*
X47759904Y-13668476D01*
X47855142Y-13716095D01*
X47902761Y-13763714D01*
X47950380Y-13858952D01*
X47950380Y-14144666D01*
X47902761Y-14239904D01*
X47855142Y-14287523D01*
%TO.C,U2*%
X1738095Y-19202380D02*
X1738095Y-20011904D01*
X1785714Y-20107142D01*
X1833333Y-20154761D01*
X1928571Y-20202380D01*
X2119047Y-20202380D01*
X2214285Y-20154761D01*
X2261904Y-20107142D01*
X2309523Y-20011904D01*
X2309523Y-19202380D01*
X2738095Y-19297619D02*
X2785714Y-19250000D01*
X2880952Y-19202380D01*
X3119047Y-19202380D01*
X3214285Y-19250000D01*
X3261904Y-19297619D01*
X3309523Y-19392857D01*
X3309523Y-19488095D01*
X3261904Y-19630952D01*
X2690476Y-20202380D01*
X3309523Y-20202380D01*
%TO.C,RV2*%
X11477380Y-22320238D02*
X11001190Y-22653571D01*
X11477380Y-22891666D02*
X10477380Y-22891666D01*
X10477380Y-22510714D01*
X10525000Y-22415476D01*
X10572619Y-22367857D01*
X10667857Y-22320238D01*
X10810714Y-22320238D01*
X10905952Y-22367857D01*
X10953571Y-22415476D01*
X11001190Y-22510714D01*
X11001190Y-22891666D01*
X10477380Y-22034523D02*
X11477380Y-21701190D01*
X10477380Y-21367857D01*
X10572619Y-21082142D02*
X10525000Y-21034523D01*
X10477380Y-20939285D01*
X10477380Y-20701190D01*
X10525000Y-20605952D01*
X10572619Y-20558333D01*
X10667857Y-20510714D01*
X10763095Y-20510714D01*
X10905952Y-20558333D01*
X11477380Y-21129761D01*
X11477380Y-20510714D01*
%TO.C,RV3*%
X11502380Y-31095238D02*
X11026190Y-31428571D01*
X11502380Y-31666666D02*
X10502380Y-31666666D01*
X10502380Y-31285714D01*
X10550000Y-31190476D01*
X10597619Y-31142857D01*
X10692857Y-31095238D01*
X10835714Y-31095238D01*
X10930952Y-31142857D01*
X10978571Y-31190476D01*
X11026190Y-31285714D01*
X11026190Y-31666666D01*
X10502380Y-30809523D02*
X11502380Y-30476190D01*
X10502380Y-30142857D01*
X10502380Y-29904761D02*
X10502380Y-29285714D01*
X10883333Y-29619047D01*
X10883333Y-29476190D01*
X10930952Y-29380952D01*
X10978571Y-29333333D01*
X11073809Y-29285714D01*
X11311904Y-29285714D01*
X11407142Y-29333333D01*
X11454761Y-29380952D01*
X11502380Y-29476190D01*
X11502380Y-29761904D01*
X11454761Y-29857142D01*
X11407142Y-29904761D01*
%TO.C,Q5*%
X44489619Y-20923238D02*
X44442000Y-21018476D01*
X44346761Y-21113714D01*
X44203904Y-21256571D01*
X44156285Y-21351809D01*
X44156285Y-21447047D01*
X44394380Y-21399428D02*
X44346761Y-21494666D01*
X44251523Y-21589904D01*
X44061047Y-21637523D01*
X43727714Y-21637523D01*
X43537238Y-21589904D01*
X43442000Y-21494666D01*
X43394380Y-21399428D01*
X43394380Y-21208952D01*
X43442000Y-21113714D01*
X43537238Y-21018476D01*
X43727714Y-20970857D01*
X44061047Y-20970857D01*
X44251523Y-21018476D01*
X44346761Y-21113714D01*
X44394380Y-21208952D01*
X44394380Y-21399428D01*
X43394380Y-20066095D02*
X43394380Y-20542285D01*
X43870571Y-20589904D01*
X43822952Y-20542285D01*
X43775333Y-20447047D01*
X43775333Y-20208952D01*
X43822952Y-20113714D01*
X43870571Y-20066095D01*
X43965809Y-20018476D01*
X44203904Y-20018476D01*
X44299142Y-20066095D01*
X44346761Y-20113714D01*
X44394380Y-20208952D01*
X44394380Y-20447047D01*
X44346761Y-20542285D01*
X44299142Y-20589904D01*
%TO.C,U5*%
X7874095Y-46202380D02*
X7874095Y-47011904D01*
X7921714Y-47107142D01*
X7969333Y-47154761D01*
X8064571Y-47202380D01*
X8255047Y-47202380D01*
X8350285Y-47154761D01*
X8397904Y-47107142D01*
X8445523Y-47011904D01*
X8445523Y-46202380D01*
X9397904Y-46202380D02*
X8921714Y-46202380D01*
X8874095Y-46678571D01*
X8921714Y-46630952D01*
X9016952Y-46583333D01*
X9255047Y-46583333D01*
X9350285Y-46630952D01*
X9397904Y-46678571D01*
X9445523Y-46773809D01*
X9445523Y-47011904D01*
X9397904Y-47107142D01*
X9350285Y-47154761D01*
X9255047Y-47202380D01*
X9016952Y-47202380D01*
X8921714Y-47154761D01*
X8874095Y-47107142D01*
%TO.C,R4*%
X50633333Y-5532380D02*
X50300000Y-5056190D01*
X50061904Y-5532380D02*
X50061904Y-4532380D01*
X50442857Y-4532380D01*
X50538095Y-4580000D01*
X50585714Y-4627619D01*
X50633333Y-4722857D01*
X50633333Y-4865714D01*
X50585714Y-4960952D01*
X50538095Y-5008571D01*
X50442857Y-5056190D01*
X50061904Y-5056190D01*
X51490476Y-4865714D02*
X51490476Y-5532380D01*
X51252380Y-4484761D02*
X51014285Y-5199047D01*
X51633333Y-5199047D01*
%TO.C,RV4*%
X11552380Y-40095238D02*
X11076190Y-40428571D01*
X11552380Y-40666666D02*
X10552380Y-40666666D01*
X10552380Y-40285714D01*
X10600000Y-40190476D01*
X10647619Y-40142857D01*
X10742857Y-40095238D01*
X10885714Y-40095238D01*
X10980952Y-40142857D01*
X11028571Y-40190476D01*
X11076190Y-40285714D01*
X11076190Y-40666666D01*
X10552380Y-39809523D02*
X11552380Y-39476190D01*
X10552380Y-39142857D01*
X10885714Y-38380952D02*
X11552380Y-38380952D01*
X10504761Y-38619047D02*
X11219047Y-38857142D01*
X11219047Y-38238095D01*
%TO.C,R8*%
X46781980Y-31408666D02*
X46305790Y-31742000D01*
X46781980Y-31980095D02*
X45781980Y-31980095D01*
X45781980Y-31599142D01*
X45829600Y-31503904D01*
X45877219Y-31456285D01*
X45972457Y-31408666D01*
X46115314Y-31408666D01*
X46210552Y-31456285D01*
X46258171Y-31503904D01*
X46305790Y-31599142D01*
X46305790Y-31980095D01*
X46210552Y-30837238D02*
X46162933Y-30932476D01*
X46115314Y-30980095D01*
X46020076Y-31027714D01*
X45972457Y-31027714D01*
X45877219Y-30980095D01*
X45829600Y-30932476D01*
X45781980Y-30837238D01*
X45781980Y-30646761D01*
X45829600Y-30551523D01*
X45877219Y-30503904D01*
X45972457Y-30456285D01*
X46020076Y-30456285D01*
X46115314Y-30503904D01*
X46162933Y-30551523D01*
X46210552Y-30646761D01*
X46210552Y-30837238D01*
X46258171Y-30932476D01*
X46305790Y-30980095D01*
X46401028Y-31027714D01*
X46591504Y-31027714D01*
X46686742Y-30980095D01*
X46734361Y-30932476D01*
X46781980Y-30837238D01*
X46781980Y-30646761D01*
X46734361Y-30551523D01*
X46686742Y-30503904D01*
X46591504Y-30456285D01*
X46401028Y-30456285D01*
X46305790Y-30503904D01*
X46258171Y-30551523D01*
X46210552Y-30646761D01*
%TO.C,RV1*%
X11402380Y-13770238D02*
X10926190Y-14103571D01*
X11402380Y-14341666D02*
X10402380Y-14341666D01*
X10402380Y-13960714D01*
X10450000Y-13865476D01*
X10497619Y-13817857D01*
X10592857Y-13770238D01*
X10735714Y-13770238D01*
X10830952Y-13817857D01*
X10878571Y-13865476D01*
X10926190Y-13960714D01*
X10926190Y-14341666D01*
X10402380Y-13484523D02*
X11402380Y-13151190D01*
X10402380Y-12817857D01*
X11402380Y-11960714D02*
X11402380Y-12532142D01*
X11402380Y-12246428D02*
X10402380Y-12246428D01*
X10545238Y-12341666D01*
X10640476Y-12436904D01*
X10688095Y-12532142D01*
%TO.C,U1*%
X4488095Y-6952380D02*
X4488095Y-7761904D01*
X4535714Y-7857142D01*
X4583333Y-7904761D01*
X4678571Y-7952380D01*
X4869047Y-7952380D01*
X4964285Y-7904761D01*
X5011904Y-7857142D01*
X5059523Y-7761904D01*
X5059523Y-6952380D01*
X6059523Y-7952380D02*
X5488095Y-7952380D01*
X5773809Y-7952380D02*
X5773809Y-6952380D01*
X5678571Y-7095238D01*
X5583333Y-7190476D01*
X5488095Y-7238095D01*
%TO.C,R80*%
X2151142Y-34742380D02*
X1817809Y-34266190D01*
X1579714Y-34742380D02*
X1579714Y-33742380D01*
X1960666Y-33742380D01*
X2055904Y-33790000D01*
X2103523Y-33837619D01*
X2151142Y-33932857D01*
X2151142Y-34075714D01*
X2103523Y-34170952D01*
X2055904Y-34218571D01*
X1960666Y-34266190D01*
X1579714Y-34266190D01*
X2722571Y-34170952D02*
X2627333Y-34123333D01*
X2579714Y-34075714D01*
X2532095Y-33980476D01*
X2532095Y-33932857D01*
X2579714Y-33837619D01*
X2627333Y-33790000D01*
X2722571Y-33742380D01*
X2913047Y-33742380D01*
X3008285Y-33790000D01*
X3055904Y-33837619D01*
X3103523Y-33932857D01*
X3103523Y-33980476D01*
X3055904Y-34075714D01*
X3008285Y-34123333D01*
X2913047Y-34170952D01*
X2722571Y-34170952D01*
X2627333Y-34218571D01*
X2579714Y-34266190D01*
X2532095Y-34361428D01*
X2532095Y-34551904D01*
X2579714Y-34647142D01*
X2627333Y-34694761D01*
X2722571Y-34742380D01*
X2913047Y-34742380D01*
X3008285Y-34694761D01*
X3055904Y-34647142D01*
X3103523Y-34551904D01*
X3103523Y-34361428D01*
X3055904Y-34266190D01*
X3008285Y-34218571D01*
X2913047Y-34170952D01*
X3722571Y-33742380D02*
X3817809Y-33742380D01*
X3913047Y-33790000D01*
X3960666Y-33837619D01*
X4008285Y-33932857D01*
X4055904Y-34123333D01*
X4055904Y-34361428D01*
X4008285Y-34551904D01*
X3960666Y-34647142D01*
X3913047Y-34694761D01*
X3817809Y-34742380D01*
X3722571Y-34742380D01*
X3627333Y-34694761D01*
X3579714Y-34647142D01*
X3532095Y-34551904D01*
X3484476Y-34361428D01*
X3484476Y-34123333D01*
X3532095Y-33932857D01*
X3579714Y-33837619D01*
X3627333Y-33790000D01*
X3722571Y-33742380D01*
%TO.C,R90*%
X1468380Y-9024857D02*
X992190Y-9358190D01*
X1468380Y-9596285D02*
X468380Y-9596285D01*
X468380Y-9215333D01*
X515999Y-9120095D01*
X563619Y-9072476D01*
X658857Y-9024857D01*
X801714Y-9024857D01*
X896952Y-9072476D01*
X944571Y-9120095D01*
X992190Y-9215333D01*
X992190Y-9596285D01*
X1468380Y-8548666D02*
X1468380Y-8358190D01*
X1420761Y-8262952D01*
X1373142Y-8215333D01*
X1230285Y-8120095D01*
X1039809Y-8072476D01*
X658857Y-8072476D01*
X563619Y-8120095D01*
X516000Y-8167714D01*
X468380Y-8262952D01*
X468380Y-8453428D01*
X516000Y-8548666D01*
X563619Y-8596285D01*
X658857Y-8643904D01*
X896952Y-8643904D01*
X992190Y-8596285D01*
X1039809Y-8548666D01*
X1087428Y-8453428D01*
X1087428Y-8262952D01*
X1039809Y-8167714D01*
X992190Y-8120095D01*
X896952Y-8072476D01*
X468380Y-7453428D02*
X468380Y-7358190D01*
X516000Y-7262952D01*
X563619Y-7215333D01*
X658857Y-7167714D01*
X849333Y-7120095D01*
X1087428Y-7120095D01*
X1277904Y-7167714D01*
X1373142Y-7215333D01*
X1420761Y-7262952D01*
X1468380Y-7358190D01*
X1468380Y-7453428D01*
X1420761Y-7548666D01*
X1373142Y-7596285D01*
X1277904Y-7643904D01*
X1087428Y-7691523D01*
X849333Y-7691523D01*
X658857Y-7643904D01*
X563619Y-7596285D01*
X516000Y-7548666D01*
X468380Y-7453428D01*
%TO.C,Q9*%
X38647619Y-21431238D02*
X38600000Y-21526476D01*
X38504761Y-21621714D01*
X38361904Y-21764571D01*
X38314285Y-21859809D01*
X38314285Y-21955047D01*
X38552380Y-21907428D02*
X38504761Y-22002666D01*
X38409523Y-22097904D01*
X38219047Y-22145523D01*
X37885714Y-22145523D01*
X37695238Y-22097904D01*
X37600000Y-22002666D01*
X37552380Y-21907428D01*
X37552380Y-21716952D01*
X37600000Y-21621714D01*
X37695238Y-21526476D01*
X37885714Y-21478857D01*
X38219047Y-21478857D01*
X38409523Y-21526476D01*
X38504761Y-21621714D01*
X38552380Y-21716952D01*
X38552380Y-21907428D01*
X38552380Y-21002666D02*
X38552380Y-20812190D01*
X38504761Y-20716952D01*
X38457142Y-20669333D01*
X38314285Y-20574095D01*
X38123809Y-20526476D01*
X37742857Y-20526476D01*
X37647619Y-20574095D01*
X37600000Y-20621714D01*
X37552380Y-20716952D01*
X37552380Y-20907428D01*
X37600000Y-21002666D01*
X37647619Y-21050285D01*
X37742857Y-21097904D01*
X37980952Y-21097904D01*
X38076190Y-21050285D01*
X38123809Y-21002666D01*
X38171428Y-20907428D01*
X38171428Y-20716952D01*
X38123809Y-20621714D01*
X38076190Y-20574095D01*
X37980952Y-20526476D01*
%TO.C,R19*%
X35933142Y-5278380D02*
X35599809Y-4802190D01*
X35361714Y-5278380D02*
X35361714Y-4278380D01*
X35742666Y-4278380D01*
X35837904Y-4326000D01*
X35885523Y-4373619D01*
X35933142Y-4468857D01*
X35933142Y-4611714D01*
X35885523Y-4706952D01*
X35837904Y-4754571D01*
X35742666Y-4802190D01*
X35361714Y-4802190D01*
X36885523Y-5278380D02*
X36314095Y-5278380D01*
X36599809Y-5278380D02*
X36599809Y-4278380D01*
X36504571Y-4421238D01*
X36409333Y-4516476D01*
X36314095Y-4564095D01*
X37361714Y-5278380D02*
X37552190Y-5278380D01*
X37647428Y-5230761D01*
X37695047Y-5183142D01*
X37790285Y-5040285D01*
X37837904Y-4849809D01*
X37837904Y-4468857D01*
X37790285Y-4373619D01*
X37742666Y-4326000D01*
X37647428Y-4278380D01*
X37456952Y-4278380D01*
X37361714Y-4326000D01*
X37314095Y-4373619D01*
X37266476Y-4468857D01*
X37266476Y-4706952D01*
X37314095Y-4802190D01*
X37361714Y-4849809D01*
X37456952Y-4897428D01*
X37647428Y-4897428D01*
X37742666Y-4849809D01*
X37790285Y-4802190D01*
X37837904Y-4706952D01*
%TO.C,R20*%
X35555180Y-32342057D02*
X35078990Y-32675390D01*
X35555180Y-32913485D02*
X34555180Y-32913485D01*
X34555180Y-32532533D01*
X34602800Y-32437295D01*
X34650419Y-32389676D01*
X34745657Y-32342057D01*
X34888514Y-32342057D01*
X34983752Y-32389676D01*
X35031371Y-32437295D01*
X35078990Y-32532533D01*
X35078990Y-32913485D01*
X34650419Y-31961104D02*
X34602800Y-31913485D01*
X34555180Y-31818247D01*
X34555180Y-31580152D01*
X34602800Y-31484914D01*
X34650419Y-31437295D01*
X34745657Y-31389676D01*
X34840895Y-31389676D01*
X34983752Y-31437295D01*
X35555180Y-32008723D01*
X35555180Y-31389676D01*
X34555180Y-30770628D02*
X34555180Y-30675390D01*
X34602800Y-30580152D01*
X34650419Y-30532533D01*
X34745657Y-30484914D01*
X34936133Y-30437295D01*
X35174228Y-30437295D01*
X35364704Y-30484914D01*
X35459942Y-30532533D01*
X35507561Y-30580152D01*
X35555180Y-30675390D01*
X35555180Y-30770628D01*
X35507561Y-30865866D01*
X35459942Y-30913485D01*
X35364704Y-30961104D01*
X35174228Y-31008723D01*
X34936133Y-31008723D01*
X34745657Y-30961104D01*
X34650419Y-30913485D01*
X34602800Y-30865866D01*
X34555180Y-30770628D01*
%TO.C,R11*%
X43606980Y-32037257D02*
X43130790Y-32370590D01*
X43606980Y-32608685D02*
X42606980Y-32608685D01*
X42606980Y-32227733D01*
X42654600Y-32132495D01*
X42702219Y-32084876D01*
X42797457Y-32037257D01*
X42940314Y-32037257D01*
X43035552Y-32084876D01*
X43083171Y-32132495D01*
X43130790Y-32227733D01*
X43130790Y-32608685D01*
X43606980Y-31084876D02*
X43606980Y-31656304D01*
X43606980Y-31370590D02*
X42606980Y-31370590D01*
X42749838Y-31465828D01*
X42845076Y-31561066D01*
X42892695Y-31656304D01*
X43606980Y-30132495D02*
X43606980Y-30703923D01*
X43606980Y-30418209D02*
X42606980Y-30418209D01*
X42749838Y-30513447D01*
X42845076Y-30608685D01*
X42892695Y-30703923D01*
%TO.C,R77*%
X2607142Y-28202380D02*
X2273809Y-27726190D01*
X2035714Y-28202380D02*
X2035714Y-27202380D01*
X2416666Y-27202380D01*
X2511904Y-27250000D01*
X2559523Y-27297619D01*
X2607142Y-27392857D01*
X2607142Y-27535714D01*
X2559523Y-27630952D01*
X2511904Y-27678571D01*
X2416666Y-27726190D01*
X2035714Y-27726190D01*
X2940476Y-27202380D02*
X3607142Y-27202380D01*
X3178571Y-28202380D01*
X3892857Y-27202380D02*
X4559523Y-27202380D01*
X4130952Y-28202380D01*
%TO.C,R78*%
X10357142Y-18002380D02*
X10023809Y-17526190D01*
X9785714Y-18002380D02*
X9785714Y-17002380D01*
X10166666Y-17002380D01*
X10261904Y-17050000D01*
X10309523Y-17097619D01*
X10357142Y-17192857D01*
X10357142Y-17335714D01*
X10309523Y-17430952D01*
X10261904Y-17478571D01*
X10166666Y-17526190D01*
X9785714Y-17526190D01*
X10690476Y-17002380D02*
X11357142Y-17002380D01*
X10928571Y-18002380D01*
X11880952Y-17430952D02*
X11785714Y-17383333D01*
X11738095Y-17335714D01*
X11690476Y-17240476D01*
X11690476Y-17192857D01*
X11738095Y-17097619D01*
X11785714Y-17050000D01*
X11880952Y-17002380D01*
X12071428Y-17002380D01*
X12166666Y-17050000D01*
X12214285Y-17097619D01*
X12261904Y-17192857D01*
X12261904Y-17240476D01*
X12214285Y-17335714D01*
X12166666Y-17383333D01*
X12071428Y-17430952D01*
X11880952Y-17430952D01*
X11785714Y-17478571D01*
X11738095Y-17526190D01*
X11690476Y-17621428D01*
X11690476Y-17811904D01*
X11738095Y-17907142D01*
X11785714Y-17954761D01*
X11880952Y-18002380D01*
X12071428Y-18002380D01*
X12166666Y-17954761D01*
X12214285Y-17907142D01*
X12261904Y-17811904D01*
X12261904Y-17621428D01*
X12214285Y-17526190D01*
X12166666Y-17478571D01*
X12071428Y-17430952D01*
%TO.C,R88*%
X1174380Y-48137857D02*
X698190Y-48471190D01*
X1174380Y-48709285D02*
X174380Y-48709285D01*
X174380Y-48328333D01*
X221999Y-48233095D01*
X269619Y-48185476D01*
X364857Y-48137857D01*
X507714Y-48137857D01*
X602952Y-48185476D01*
X650571Y-48233095D01*
X698190Y-48328333D01*
X698190Y-48709285D01*
X602952Y-47566428D02*
X555333Y-47661666D01*
X507714Y-47709285D01*
X412476Y-47756904D01*
X364857Y-47756904D01*
X269619Y-47709285D01*
X222000Y-47661666D01*
X174380Y-47566428D01*
X174380Y-47375952D01*
X222000Y-47280714D01*
X269619Y-47233095D01*
X364857Y-47185476D01*
X412476Y-47185476D01*
X507714Y-47233095D01*
X555333Y-47280714D01*
X602952Y-47375952D01*
X602952Y-47566428D01*
X650571Y-47661666D01*
X698190Y-47709285D01*
X793428Y-47756904D01*
X983904Y-47756904D01*
X1079142Y-47709285D01*
X1126761Y-47661666D01*
X1174380Y-47566428D01*
X1174380Y-47375952D01*
X1126761Y-47280714D01*
X1079142Y-47233095D01*
X983904Y-47185476D01*
X793428Y-47185476D01*
X698190Y-47233095D01*
X650571Y-47280714D01*
X602952Y-47375952D01*
X602952Y-46614047D02*
X555333Y-46709285D01*
X507714Y-46756904D01*
X412476Y-46804523D01*
X364857Y-46804523D01*
X269619Y-46756904D01*
X222000Y-46709285D01*
X174380Y-46614047D01*
X174380Y-46423571D01*
X222000Y-46328333D01*
X269619Y-46280714D01*
X364857Y-46233095D01*
X412476Y-46233095D01*
X507714Y-46280714D01*
X555333Y-46328333D01*
X602952Y-46423571D01*
X602952Y-46614047D01*
X650571Y-46709285D01*
X698190Y-46756904D01*
X793428Y-46804523D01*
X983904Y-46804523D01*
X1079142Y-46756904D01*
X1126761Y-46709285D01*
X1174380Y-46614047D01*
X1174380Y-46423571D01*
X1126761Y-46328333D01*
X1079142Y-46280714D01*
X983904Y-46233095D01*
X793428Y-46233095D01*
X698190Y-46280714D01*
X650571Y-46328333D01*
X602952Y-46423571D01*
%TO.C,R81*%
X10421142Y-26360380D02*
X10087809Y-25884190D01*
X9849714Y-26360380D02*
X9849714Y-25360380D01*
X10230666Y-25360380D01*
X10325904Y-25408000D01*
X10373523Y-25455619D01*
X10421142Y-25550857D01*
X10421142Y-25693714D01*
X10373523Y-25788952D01*
X10325904Y-25836571D01*
X10230666Y-25884190D01*
X9849714Y-25884190D01*
X10992571Y-25788952D02*
X10897333Y-25741333D01*
X10849714Y-25693714D01*
X10802095Y-25598476D01*
X10802095Y-25550857D01*
X10849714Y-25455619D01*
X10897333Y-25408000D01*
X10992571Y-25360380D01*
X11183047Y-25360380D01*
X11278285Y-25408000D01*
X11325904Y-25455619D01*
X11373523Y-25550857D01*
X11373523Y-25598476D01*
X11325904Y-25693714D01*
X11278285Y-25741333D01*
X11183047Y-25788952D01*
X10992571Y-25788952D01*
X10897333Y-25836571D01*
X10849714Y-25884190D01*
X10802095Y-25979428D01*
X10802095Y-26169904D01*
X10849714Y-26265142D01*
X10897333Y-26312761D01*
X10992571Y-26360380D01*
X11183047Y-26360380D01*
X11278285Y-26312761D01*
X11325904Y-26265142D01*
X11373523Y-26169904D01*
X11373523Y-25979428D01*
X11325904Y-25884190D01*
X11278285Y-25836571D01*
X11183047Y-25788952D01*
X12325904Y-26360380D02*
X11754476Y-26360380D01*
X12040190Y-26360380D02*
X12040190Y-25360380D01*
X11944952Y-25503238D01*
X11849714Y-25598476D01*
X11754476Y-25646095D01*
%TO.C,R2*%
X52801780Y-31307066D02*
X52325590Y-31640400D01*
X52801780Y-31878495D02*
X51801780Y-31878495D01*
X51801780Y-31497542D01*
X51849400Y-31402304D01*
X51897019Y-31354685D01*
X51992257Y-31307066D01*
X52135114Y-31307066D01*
X52230352Y-31354685D01*
X52277971Y-31402304D01*
X52325590Y-31497542D01*
X52325590Y-31878495D01*
X51897019Y-30926114D02*
X51849400Y-30878495D01*
X51801780Y-30783257D01*
X51801780Y-30545161D01*
X51849400Y-30449923D01*
X51897019Y-30402304D01*
X51992257Y-30354685D01*
X52087495Y-30354685D01*
X52230352Y-30402304D01*
X52801780Y-30973733D01*
X52801780Y-30354685D01*
%TO.C,R76*%
X1214380Y-16458857D02*
X738190Y-16792190D01*
X1214380Y-17030285D02*
X214380Y-17030285D01*
X214380Y-16649333D01*
X261999Y-16554095D01*
X309619Y-16506476D01*
X404857Y-16458857D01*
X547714Y-16458857D01*
X642952Y-16506476D01*
X690571Y-16554095D01*
X738190Y-16649333D01*
X738190Y-17030285D01*
X214380Y-16125523D02*
X214380Y-15458857D01*
X1214380Y-15887428D01*
X214380Y-14649333D02*
X214380Y-14839809D01*
X262000Y-14935047D01*
X309619Y-14982666D01*
X452476Y-15077904D01*
X642952Y-15125523D01*
X1023904Y-15125523D01*
X1119142Y-15077904D01*
X1166761Y-15030285D01*
X1214380Y-14935047D01*
X1214380Y-14744571D01*
X1166761Y-14649333D01*
X1119142Y-14601714D01*
X1023904Y-14554095D01*
X785809Y-14554095D01*
X690571Y-14601714D01*
X642952Y-14649333D01*
X595333Y-14744571D01*
X595333Y-14935047D01*
X642952Y-15030285D01*
X690571Y-15077904D01*
X785809Y-15125523D01*
%TO.C,Q1*%
X50331619Y-20669238D02*
X50284000Y-20764476D01*
X50188761Y-20859714D01*
X50045904Y-21002571D01*
X49998285Y-21097809D01*
X49998285Y-21193047D01*
X50236380Y-21145428D02*
X50188761Y-21240666D01*
X50093523Y-21335904D01*
X49903047Y-21383523D01*
X49569714Y-21383523D01*
X49379238Y-21335904D01*
X49284000Y-21240666D01*
X49236380Y-21145428D01*
X49236380Y-20954952D01*
X49284000Y-20859714D01*
X49379238Y-20764476D01*
X49569714Y-20716857D01*
X49903047Y-20716857D01*
X50093523Y-20764476D01*
X50188761Y-20859714D01*
X50236380Y-20954952D01*
X50236380Y-21145428D01*
X50236380Y-19764476D02*
X50236380Y-20335904D01*
X50236380Y-20050190D02*
X49236380Y-20050190D01*
X49379238Y-20145428D01*
X49474476Y-20240666D01*
X49522095Y-20335904D01*
%TO.C,Q15*%
X33718571Y-12231619D02*
X33623333Y-12184000D01*
X33528095Y-12088761D01*
X33385238Y-11945904D01*
X33290000Y-11898285D01*
X33194761Y-11898285D01*
X33242380Y-12136380D02*
X33147142Y-12088761D01*
X33051904Y-11993523D01*
X33004285Y-11803047D01*
X33004285Y-11469714D01*
X33051904Y-11279238D01*
X33147142Y-11184000D01*
X33242380Y-11136380D01*
X33432857Y-11136380D01*
X33528095Y-11184000D01*
X33623333Y-11279238D01*
X33670952Y-11469714D01*
X33670952Y-11803047D01*
X33623333Y-11993523D01*
X33528095Y-12088761D01*
X33432857Y-12136380D01*
X33242380Y-12136380D01*
X34623333Y-12136380D02*
X34051904Y-12136380D01*
X34337619Y-12136380D02*
X34337619Y-11136380D01*
X34242380Y-11279238D01*
X34147142Y-11374476D01*
X34051904Y-11422095D01*
X35528095Y-11136380D02*
X35051904Y-11136380D01*
X35004285Y-11612571D01*
X35051904Y-11564952D01*
X35147142Y-11517333D01*
X35385238Y-11517333D01*
X35480476Y-11564952D01*
X35528095Y-11612571D01*
X35575714Y-11707809D01*
X35575714Y-11945904D01*
X35528095Y-12041142D01*
X35480476Y-12088761D01*
X35385238Y-12136380D01*
X35147142Y-12136380D01*
X35051904Y-12088761D01*
X35004285Y-12041142D01*
%TO.C,R84*%
X10397142Y-34885580D02*
X10063809Y-34409390D01*
X9825714Y-34885580D02*
X9825714Y-33885580D01*
X10206666Y-33885580D01*
X10301904Y-33933200D01*
X10349523Y-33980819D01*
X10397142Y-34076057D01*
X10397142Y-34218914D01*
X10349523Y-34314152D01*
X10301904Y-34361771D01*
X10206666Y-34409390D01*
X9825714Y-34409390D01*
X10968571Y-34314152D02*
X10873333Y-34266533D01*
X10825714Y-34218914D01*
X10778095Y-34123676D01*
X10778095Y-34076057D01*
X10825714Y-33980819D01*
X10873333Y-33933200D01*
X10968571Y-33885580D01*
X11159047Y-33885580D01*
X11254285Y-33933200D01*
X11301904Y-33980819D01*
X11349523Y-34076057D01*
X11349523Y-34123676D01*
X11301904Y-34218914D01*
X11254285Y-34266533D01*
X11159047Y-34314152D01*
X10968571Y-34314152D01*
X10873333Y-34361771D01*
X10825714Y-34409390D01*
X10778095Y-34504628D01*
X10778095Y-34695104D01*
X10825714Y-34790342D01*
X10873333Y-34837961D01*
X10968571Y-34885580D01*
X11159047Y-34885580D01*
X11254285Y-34837961D01*
X11301904Y-34790342D01*
X11349523Y-34695104D01*
X11349523Y-34504628D01*
X11301904Y-34409390D01*
X11254285Y-34361771D01*
X11159047Y-34314152D01*
X12206666Y-34218914D02*
X12206666Y-34885580D01*
X11968571Y-33837961D02*
X11730476Y-34552247D01*
X12349523Y-34552247D01*
%TO.C,R14*%
X41270180Y-32088057D02*
X40793990Y-32421390D01*
X41270180Y-32659485D02*
X40270180Y-32659485D01*
X40270180Y-32278533D01*
X40317800Y-32183295D01*
X40365419Y-32135676D01*
X40460657Y-32088057D01*
X40603514Y-32088057D01*
X40698752Y-32135676D01*
X40746371Y-32183295D01*
X40793990Y-32278533D01*
X40793990Y-32659485D01*
X41270180Y-31135676D02*
X41270180Y-31707104D01*
X41270180Y-31421390D02*
X40270180Y-31421390D01*
X40413038Y-31516628D01*
X40508276Y-31611866D01*
X40555895Y-31707104D01*
X40603514Y-30278533D02*
X41270180Y-30278533D01*
X40222561Y-30516628D02*
X40936847Y-30754723D01*
X40936847Y-30135676D01*
%TO.C,Q11*%
X36869619Y-15303428D02*
X36822000Y-15398666D01*
X36726761Y-15493904D01*
X36583904Y-15636761D01*
X36536285Y-15732000D01*
X36536285Y-15827238D01*
X36774380Y-15779619D02*
X36726761Y-15874857D01*
X36631523Y-15970095D01*
X36441047Y-16017714D01*
X36107714Y-16017714D01*
X35917238Y-15970095D01*
X35822000Y-15874857D01*
X35774380Y-15779619D01*
X35774380Y-15589142D01*
X35822000Y-15493904D01*
X35917238Y-15398666D01*
X36107714Y-15351047D01*
X36441047Y-15351047D01*
X36631523Y-15398666D01*
X36726761Y-15493904D01*
X36774380Y-15589142D01*
X36774380Y-15779619D01*
X36774380Y-14398666D02*
X36774380Y-14970095D01*
X36774380Y-14684380D02*
X35774380Y-14684380D01*
X35917238Y-14779619D01*
X36012476Y-14874857D01*
X36060095Y-14970095D01*
X36774380Y-13446285D02*
X36774380Y-14017714D01*
X36774380Y-13732000D02*
X35774380Y-13732000D01*
X35917238Y-13827238D01*
X36012476Y-13922476D01*
X36060095Y-14017714D01*
%TO.C,R79*%
X1857142Y-21702380D02*
X1523809Y-21226190D01*
X1285714Y-21702380D02*
X1285714Y-20702380D01*
X1666666Y-20702380D01*
X1761904Y-20750000D01*
X1809523Y-20797619D01*
X1857142Y-20892857D01*
X1857142Y-21035714D01*
X1809523Y-21130952D01*
X1761904Y-21178571D01*
X1666666Y-21226190D01*
X1285714Y-21226190D01*
X2190476Y-20702380D02*
X2857142Y-20702380D01*
X2428571Y-21702380D01*
X3285714Y-21702380D02*
X3476190Y-21702380D01*
X3571428Y-21654761D01*
X3619047Y-21607142D01*
X3714285Y-21464285D01*
X3761904Y-21273809D01*
X3761904Y-20892857D01*
X3714285Y-20797619D01*
X3666666Y-20750000D01*
X3571428Y-20702380D01*
X3380952Y-20702380D01*
X3285714Y-20750000D01*
X3238095Y-20797619D01*
X3190476Y-20892857D01*
X3190476Y-21130952D01*
X3238095Y-21226190D01*
X3285714Y-21273809D01*
X3380952Y-21321428D01*
X3571428Y-21321428D01*
X3666666Y-21273809D01*
X3714285Y-21226190D01*
X3761904Y-21130952D01*
%TO.C,R5*%
X50083980Y-31408666D02*
X49607790Y-31742000D01*
X50083980Y-31980095D02*
X49083980Y-31980095D01*
X49083980Y-31599142D01*
X49131600Y-31503904D01*
X49179219Y-31456285D01*
X49274457Y-31408666D01*
X49417314Y-31408666D01*
X49512552Y-31456285D01*
X49560171Y-31503904D01*
X49607790Y-31599142D01*
X49607790Y-31980095D01*
X49083980Y-30503904D02*
X49083980Y-30980095D01*
X49560171Y-31027714D01*
X49512552Y-30980095D01*
X49464933Y-30884857D01*
X49464933Y-30646761D01*
X49512552Y-30551523D01*
X49560171Y-30503904D01*
X49655409Y-30456285D01*
X49893504Y-30456285D01*
X49988742Y-30503904D01*
X50036361Y-30551523D01*
X50083980Y-30646761D01*
X50083980Y-30884857D01*
X50036361Y-30980095D01*
X49988742Y-31027714D01*
%TO.C,U4*%
X7874095Y-37044380D02*
X7874095Y-37853904D01*
X7921714Y-37949142D01*
X7969333Y-37996761D01*
X8064571Y-38044380D01*
X8255047Y-38044380D01*
X8350285Y-37996761D01*
X8397904Y-37949142D01*
X8445523Y-37853904D01*
X8445523Y-37044380D01*
X9350285Y-37377714D02*
X9350285Y-38044380D01*
X9112190Y-36996761D02*
X8874095Y-37711047D01*
X9493142Y-37711047D01*
%TO.C,R87*%
X10507142Y-44427380D02*
X10173809Y-43951190D01*
X9935714Y-44427380D02*
X9935714Y-43427380D01*
X10316666Y-43427380D01*
X10411904Y-43475000D01*
X10459523Y-43522619D01*
X10507142Y-43617857D01*
X10507142Y-43760714D01*
X10459523Y-43855952D01*
X10411904Y-43903571D01*
X10316666Y-43951190D01*
X9935714Y-43951190D01*
X11078571Y-43855952D02*
X10983333Y-43808333D01*
X10935714Y-43760714D01*
X10888095Y-43665476D01*
X10888095Y-43617857D01*
X10935714Y-43522619D01*
X10983333Y-43475000D01*
X11078571Y-43427380D01*
X11269047Y-43427380D01*
X11364285Y-43475000D01*
X11411904Y-43522619D01*
X11459523Y-43617857D01*
X11459523Y-43665476D01*
X11411904Y-43760714D01*
X11364285Y-43808333D01*
X11269047Y-43855952D01*
X11078571Y-43855952D01*
X10983333Y-43903571D01*
X10935714Y-43951190D01*
X10888095Y-44046428D01*
X10888095Y-44236904D01*
X10935714Y-44332142D01*
X10983333Y-44379761D01*
X11078571Y-44427380D01*
X11269047Y-44427380D01*
X11364285Y-44379761D01*
X11411904Y-44332142D01*
X11459523Y-44236904D01*
X11459523Y-44046428D01*
X11411904Y-43951190D01*
X11364285Y-43903571D01*
X11269047Y-43855952D01*
X11792857Y-43427380D02*
X12459523Y-43427380D01*
X12030952Y-44427380D01*
%TO.C,R22*%
X32885142Y-5278380D02*
X32551809Y-4802190D01*
X32313714Y-5278380D02*
X32313714Y-4278380D01*
X32694666Y-4278380D01*
X32789904Y-4326000D01*
X32837523Y-4373619D01*
X32885142Y-4468857D01*
X32885142Y-4611714D01*
X32837523Y-4706952D01*
X32789904Y-4754571D01*
X32694666Y-4802190D01*
X32313714Y-4802190D01*
X33266095Y-4373619D02*
X33313714Y-4326000D01*
X33408952Y-4278380D01*
X33647047Y-4278380D01*
X33742285Y-4326000D01*
X33789904Y-4373619D01*
X33837523Y-4468857D01*
X33837523Y-4564095D01*
X33789904Y-4706952D01*
X33218476Y-5278380D01*
X33837523Y-5278380D01*
X34218476Y-4373619D02*
X34266095Y-4326000D01*
X34361333Y-4278380D01*
X34599428Y-4278380D01*
X34694666Y-4326000D01*
X34742285Y-4373619D01*
X34789904Y-4468857D01*
X34789904Y-4564095D01*
X34742285Y-4706952D01*
X34170857Y-5278380D01*
X34789904Y-5278380D01*
%TO.C,RV0*%
X26077380Y-48545238D02*
X25601190Y-48878571D01*
X26077380Y-49116666D02*
X25077380Y-49116666D01*
X25077380Y-48735714D01*
X25125000Y-48640476D01*
X25172619Y-48592857D01*
X25267857Y-48545238D01*
X25410714Y-48545238D01*
X25505952Y-48592857D01*
X25553571Y-48640476D01*
X25601190Y-48735714D01*
X25601190Y-49116666D01*
X25077380Y-48259523D02*
X26077380Y-47926190D01*
X25077380Y-47592857D01*
X25077380Y-47069047D02*
X25077380Y-46973809D01*
X25125000Y-46878571D01*
X25172619Y-46830952D01*
X25267857Y-46783333D01*
X25458333Y-46735714D01*
X25696428Y-46735714D01*
X25886904Y-46783333D01*
X25982142Y-46830952D01*
X26029761Y-46878571D01*
X26077380Y-46973809D01*
X26077380Y-47069047D01*
X26029761Y-47164285D01*
X25982142Y-47211904D01*
X25886904Y-47259523D01*
X25696428Y-47307142D01*
X25458333Y-47307142D01*
X25267857Y-47259523D01*
X25172619Y-47211904D01*
X25125000Y-47164285D01*
X25077380Y-47069047D01*
%TO.C,J6*%
X26082666Y-6354380D02*
X26082666Y-7068666D01*
X26035047Y-7211523D01*
X25939809Y-7306761D01*
X25796952Y-7354380D01*
X25701714Y-7354380D01*
X26987428Y-6354380D02*
X26796952Y-6354380D01*
X26701714Y-6402000D01*
X26654095Y-6449619D01*
X26558857Y-6592476D01*
X26511238Y-6782952D01*
X26511238Y-7163904D01*
X26558857Y-7259142D01*
X26606476Y-7306761D01*
X26701714Y-7354380D01*
X26892190Y-7354380D01*
X26987428Y-7306761D01*
X27035047Y-7259142D01*
X27082666Y-7163904D01*
X27082666Y-6925809D01*
X27035047Y-6830571D01*
X26987428Y-6782952D01*
X26892190Y-6735333D01*
X26701714Y-6735333D01*
X26606476Y-6782952D01*
X26558857Y-6830571D01*
X26511238Y-6925809D01*
D12*
%TO.C,R13*%
X42820000Y-7400936D02*
X42820000Y-8855064D01*
X41000000Y-7400936D02*
X41000000Y-8855064D01*
%TO.C,Q7*%
X43124000Y-16446000D02*
X43124000Y-14986000D01*
X43124000Y-16446000D02*
X44054000Y-16446000D01*
X46284000Y-16446000D02*
X45354000Y-16446000D01*
X46284000Y-16446000D02*
X46284000Y-13286000D01*
%TO.C,U3*%
X7510000Y-28420000D02*
X7510000Y-29350000D01*
X7510000Y-31580000D02*
X7510000Y-30650000D01*
X7510000Y-31580000D02*
X6050000Y-31580000D01*
X7510000Y-28420000D02*
X4350000Y-28420000D01*
%TO.C,J5*%
X27626000Y-33976000D02*
X27626000Y-36636000D01*
X61976000Y-33976000D02*
X63306000Y-33976000D01*
X60706000Y-33976000D02*
X27626000Y-33976000D01*
X60706000Y-36636000D02*
X27626000Y-36636000D01*
X63306000Y-33976000D02*
X63306000Y-35306000D01*
X60706000Y-33976000D02*
X60706000Y-36636000D01*
%TO.C,U6*%
X6098000Y-4617600D02*
X6098000Y-5547600D01*
X6098000Y-7777600D02*
X6098000Y-6847600D01*
X6098000Y-4617600D02*
X7558000Y-4617600D01*
X6098000Y-7777600D02*
X9258000Y-7777600D01*
%TO.C,R17*%
X39010000Y-26958936D02*
X39010000Y-28413064D01*
X37190000Y-26958936D02*
X37190000Y-28413064D01*
%TO.C,R7*%
X49424000Y-7502936D02*
X49424000Y-8957064D01*
X47604000Y-7502936D02*
X47604000Y-8957064D01*
%TO.C,RV6*%
X17010000Y-2585000D02*
X17210000Y-2585000D01*
X9990000Y-6375000D02*
X9990000Y-4885000D01*
X17210000Y-1165000D02*
X17210000Y-2585000D01*
X17210000Y-1165000D02*
X17010000Y-1165000D01*
X17010000Y-1165000D02*
X17010000Y-1065000D01*
X17210000Y-7585000D02*
X17010000Y-7585000D01*
X17010000Y-7585000D02*
X17010000Y-7685000D01*
X17210000Y-6165000D02*
X17210000Y-7585000D01*
X17010000Y-6165000D02*
X17210000Y-6165000D01*
X17010000Y-1065000D02*
X16760000Y-1065000D01*
X9990000Y-3865000D02*
X9990000Y-2375000D01*
X11300000Y-1065000D02*
X14840000Y-1065000D01*
X17010000Y-2585000D02*
X17010000Y-6165000D01*
X17010000Y-7685000D02*
X16320000Y-7685000D01*
X15280000Y-7685000D02*
X11300000Y-7685000D01*
X9990000Y-6375000D02*
G75*
G03*
X11300000Y-7685000I1310000J0D01*
G01*
X11300000Y-1065000D02*
G75*
G03*
X9990000Y-2375000I0J-1310000D01*
G01*
%TO.C,R10*%
X46730000Y-7462936D02*
X46730000Y-8917064D01*
X44910000Y-7462936D02*
X44910000Y-8917064D01*
%TO.C,RV5*%
X16935000Y-49285000D02*
X16935000Y-50775000D01*
X9915000Y-45465000D02*
X10605000Y-45465000D01*
X9915000Y-52085000D02*
X10165000Y-52085000D01*
X9715000Y-45565000D02*
X9915000Y-45565000D01*
X9715000Y-51985000D02*
X9715000Y-50565000D01*
X11645000Y-45465000D02*
X15625000Y-45465000D01*
X9915000Y-50565000D02*
X9915000Y-46985000D01*
X16935000Y-46775000D02*
X16935000Y-48265000D01*
X9715000Y-51985000D02*
X9915000Y-51985000D01*
X9915000Y-45565000D02*
X9915000Y-45465000D01*
X15625000Y-52085000D02*
X12085000Y-52085000D01*
X9715000Y-46985000D02*
X9715000Y-45565000D01*
X9915000Y-51985000D02*
X9915000Y-52085000D01*
X9915000Y-50565000D02*
X9715000Y-50565000D01*
X9915000Y-46985000D02*
X9715000Y-46985000D01*
X15625000Y-52085000D02*
G75*
G03*
X16935000Y-50775000I0J1310000D01*
G01*
X16935000Y-46775000D02*
G75*
G03*
X15625000Y-45465000I-1310000J0D01*
G01*
%TO.C,R82*%
X2500000Y-31120000D02*
X2500000Y-31190000D01*
X3870000Y-29750000D02*
G75*
G03*
X3870000Y-29750000I-1370000J0D01*
G01*
%TO.C,R83*%
X7559064Y-42910000D02*
X6104936Y-42910000D01*
X7559064Y-41090000D02*
X6104936Y-41090000D01*
%TO.C,R75*%
X7585064Y-10206400D02*
X6130936Y-10206400D01*
X7585064Y-8386400D02*
X6130936Y-8386400D01*
%TO.C,R1*%
X52500000Y-7532936D02*
X52500000Y-8987064D01*
X54320000Y-7532936D02*
X54320000Y-8987064D01*
%TO.C,R85*%
X2500000Y-38679000D02*
X2500000Y-38749000D01*
X3870000Y-37309000D02*
G75*
G03*
X3870000Y-37309000I-1370000J0D01*
G01*
%TO.C,R23*%
X33168000Y-26958936D02*
X33168000Y-28413064D01*
X31348000Y-26958936D02*
X31348000Y-28413064D01*
%TO.C,Q13*%
X36632000Y-22858000D02*
X36632000Y-19698000D01*
X33472000Y-22858000D02*
X34402000Y-22858000D01*
X36632000Y-22858000D02*
X35702000Y-22858000D01*
X33472000Y-22858000D02*
X33472000Y-21398000D01*
%TO.C,R16*%
X40026000Y-7400936D02*
X40026000Y-8855064D01*
X38206000Y-7400936D02*
X38206000Y-8855064D01*
%TO.C,R86*%
X7585064Y-52065600D02*
X6130936Y-52065600D01*
X7585064Y-50245600D02*
X6130936Y-50245600D01*
%TO.C,Q3*%
X48458000Y-16216000D02*
X49388000Y-16216000D01*
X48458000Y-16216000D02*
X48458000Y-14756000D01*
X51618000Y-16216000D02*
X51618000Y-13056000D01*
X51618000Y-16216000D02*
X50688000Y-16216000D01*
%TO.C,U2*%
X7510000Y-22830000D02*
X6050000Y-22830000D01*
X7510000Y-19670000D02*
X4350000Y-19670000D01*
X7510000Y-22830000D02*
X7510000Y-21900000D01*
X7510000Y-19670000D02*
X7510000Y-20600000D01*
%TO.C,RV2*%
X9740000Y-24935000D02*
X9940000Y-24935000D01*
X9940000Y-23515000D02*
X9740000Y-23515000D01*
X9940000Y-25035000D02*
X10190000Y-25035000D01*
X9940000Y-23515000D02*
X9940000Y-19935000D01*
X16960000Y-22235000D02*
X16960000Y-23725000D01*
X9940000Y-18415000D02*
X10630000Y-18415000D01*
X16960000Y-19725000D02*
X16960000Y-21215000D01*
X15650000Y-25035000D02*
X12110000Y-25035000D01*
X9740000Y-18515000D02*
X9940000Y-18515000D01*
X9740000Y-24935000D02*
X9740000Y-23515000D01*
X9940000Y-19935000D02*
X9740000Y-19935000D01*
X9740000Y-19935000D02*
X9740000Y-18515000D01*
X9940000Y-24935000D02*
X9940000Y-25035000D01*
X11670000Y-18415000D02*
X15650000Y-18415000D01*
X9940000Y-18515000D02*
X9940000Y-18415000D01*
X15650000Y-25035000D02*
G75*
G03*
X16960000Y-23725000I0J1310000D01*
G01*
X16960000Y-19725000D02*
G75*
G03*
X15650000Y-18415000I-1310000J0D01*
G01*
%TO.C,RV3*%
X9890000Y-33635000D02*
X9890000Y-33735000D01*
X9690000Y-33635000D02*
X9890000Y-33635000D01*
X9690000Y-27215000D02*
X9890000Y-27215000D01*
X16910000Y-28425000D02*
X16910000Y-29915000D01*
X9890000Y-28635000D02*
X9690000Y-28635000D01*
X9890000Y-32215000D02*
X9690000Y-32215000D01*
X9890000Y-27115000D02*
X10580000Y-27115000D01*
X11620000Y-27115000D02*
X15600000Y-27115000D01*
X9690000Y-33635000D02*
X9690000Y-32215000D01*
X9890000Y-32215000D02*
X9890000Y-28635000D01*
X9890000Y-27215000D02*
X9890000Y-27115000D01*
X16910000Y-30935000D02*
X16910000Y-32425000D01*
X15600000Y-33735000D02*
X12060000Y-33735000D01*
X9690000Y-28635000D02*
X9690000Y-27215000D01*
X9890000Y-33735000D02*
X10140000Y-33735000D01*
X16910000Y-28425000D02*
G75*
G03*
X15600000Y-27115000I-1310000J0D01*
G01*
X15600000Y-33735000D02*
G75*
G03*
X16910000Y-32425000I0J1310000D01*
G01*
%TO.C,Q5*%
X44648000Y-22604000D02*
X45578000Y-22604000D01*
X47808000Y-22604000D02*
X47808000Y-19444000D01*
X44648000Y-22604000D02*
X44648000Y-21144000D01*
X47808000Y-22604000D02*
X46878000Y-22604000D01*
%TO.C,U5*%
X7618000Y-49433600D02*
X7618000Y-48503600D01*
X7618000Y-46273600D02*
X4458000Y-46273600D01*
X7618000Y-49433600D02*
X6158000Y-49433600D01*
X7618000Y-46273600D02*
X7618000Y-47203600D01*
%TO.C,R4*%
X51940000Y-7502936D02*
X51940000Y-8957064D01*
X50120000Y-7502936D02*
X50120000Y-8957064D01*
%TO.C,RV4*%
X9690000Y-36315000D02*
X9890000Y-36315000D01*
X16910000Y-40035000D02*
X16910000Y-41525000D01*
X9690000Y-42735000D02*
X9690000Y-41315000D01*
X9890000Y-42735000D02*
X9890000Y-42835000D01*
X9690000Y-37735000D02*
X9690000Y-36315000D01*
X15600000Y-42835000D02*
X12060000Y-42835000D01*
X9890000Y-36315000D02*
X9890000Y-36215000D01*
X16910000Y-37525000D02*
X16910000Y-39015000D01*
X9890000Y-42835000D02*
X10140000Y-42835000D01*
X9890000Y-41315000D02*
X9690000Y-41315000D01*
X9890000Y-37735000D02*
X9690000Y-37735000D01*
X9890000Y-36215000D02*
X10580000Y-36215000D01*
X9690000Y-42735000D02*
X9890000Y-42735000D01*
X9890000Y-41315000D02*
X9890000Y-37735000D01*
X11620000Y-36215000D02*
X15600000Y-36215000D01*
X16910000Y-37525000D02*
G75*
G03*
X15600000Y-36215000I-1310000J0D01*
G01*
X15600000Y-42835000D02*
G75*
G03*
X16910000Y-41525000I0J1310000D01*
G01*
%TO.C,R8*%
X47138000Y-26958936D02*
X47138000Y-28413064D01*
X45318000Y-26958936D02*
X45318000Y-28413064D01*
%TO.C,RV1*%
X9890000Y-11460000D02*
X9690000Y-11460000D01*
X9890000Y-15040000D02*
X9690000Y-15040000D01*
X16910000Y-13760000D02*
X16910000Y-15250000D01*
X9690000Y-11460000D02*
X9690000Y-10040000D01*
X9890000Y-16560000D02*
X10140000Y-16560000D01*
X9890000Y-16460000D02*
X9890000Y-16560000D01*
X15600000Y-16560000D02*
X12060000Y-16560000D01*
X9890000Y-10040000D02*
X9890000Y-9940000D01*
X11620000Y-9940000D02*
X15600000Y-9940000D01*
X9890000Y-9940000D02*
X10580000Y-9940000D01*
X9690000Y-10040000D02*
X9890000Y-10040000D01*
X9690000Y-16460000D02*
X9890000Y-16460000D01*
X9690000Y-16460000D02*
X9690000Y-15040000D01*
X9890000Y-15040000D02*
X9890000Y-11460000D01*
X16910000Y-11250000D02*
X16910000Y-12740000D01*
X16910000Y-11250000D02*
G75*
G03*
X15600000Y-9940000I-1310000J0D01*
G01*
X15600000Y-16560000D02*
G75*
G03*
X16910000Y-15250000I0J1310000D01*
G01*
%TO.C,U1*%
X7364000Y-10866000D02*
X7364000Y-11796000D01*
X7364000Y-14026000D02*
X7364000Y-13096000D01*
X7364000Y-10866000D02*
X4204000Y-10866000D01*
X7364000Y-14026000D02*
X5904000Y-14026000D01*
%TO.C,R80*%
X7585064Y-32160800D02*
X6130936Y-32160800D01*
X7585064Y-33980800D02*
X6130936Y-33980800D01*
%TO.C,R90*%
X3704000Y-7374936D02*
X3704000Y-8829064D01*
X1884000Y-7374936D02*
X1884000Y-8829064D01*
%TO.C,Q9*%
X42220000Y-22858000D02*
X42220000Y-19698000D01*
X42220000Y-22858000D02*
X41290000Y-22858000D01*
X39060000Y-22858000D02*
X39990000Y-22858000D01*
X39060000Y-22858000D02*
X39060000Y-21398000D01*
%TO.C,R19*%
X37486000Y-7400936D02*
X37486000Y-8855064D01*
X35666000Y-7400936D02*
X35666000Y-8855064D01*
%TO.C,R20*%
X35962000Y-26958936D02*
X35962000Y-28413064D01*
X34142000Y-26958936D02*
X34142000Y-28413064D01*
%TO.C,R11*%
X44344000Y-26958936D02*
X44344000Y-28413064D01*
X42524000Y-26958936D02*
X42524000Y-28413064D01*
%TO.C,R77*%
X7585064Y-25410000D02*
X6130936Y-25410000D01*
X7585064Y-23590000D02*
X6130936Y-23590000D01*
%TO.C,R78*%
X7585064Y-18944000D02*
X6130936Y-18944000D01*
X7585064Y-17124000D02*
X6130936Y-17124000D01*
%TO.C,R88*%
X2500000Y-46325000D02*
X2500000Y-46395000D01*
X3870000Y-44955000D02*
G75*
G03*
X3870000Y-44955000I-1370000J0D01*
G01*
%TO.C,R81*%
X7727064Y-25912400D02*
X6272936Y-25912400D01*
X7727064Y-27732400D02*
X6272936Y-27732400D01*
%TO.C,R2*%
X53234000Y-26958936D02*
X53234000Y-28413064D01*
X51414000Y-26958936D02*
X51414000Y-28413064D01*
%TO.C,R76*%
X3450000Y-14072936D02*
X3450000Y-15527064D01*
X1630000Y-14072936D02*
X1630000Y-15527064D01*
%TO.C,Q1*%
X50744000Y-22604000D02*
X51674000Y-22604000D01*
X50744000Y-22604000D02*
X50744000Y-21144000D01*
X53904000Y-22604000D02*
X53904000Y-19444000D01*
X53904000Y-22604000D02*
X52974000Y-22604000D01*
%TO.C,Q15*%
X34600000Y-16508000D02*
X34600000Y-13348000D01*
X34600000Y-16508000D02*
X33670000Y-16508000D01*
X31440000Y-16508000D02*
X32370000Y-16508000D01*
X31440000Y-16508000D02*
X31440000Y-15048000D01*
%TO.C,R84*%
X7677064Y-34590000D02*
X6222936Y-34590000D01*
X7677064Y-36410000D02*
X6222936Y-36410000D01*
%TO.C,R74*%
X7585064Y-14584000D02*
X6130936Y-14584000D01*
X7585064Y-16404000D02*
X6130936Y-16404000D01*
%TO.C,R14*%
X41804000Y-26958936D02*
X41804000Y-28413064D01*
X39984000Y-26958936D02*
X39984000Y-28413064D01*
%TO.C,Q11*%
X40442000Y-16508000D02*
X39512000Y-16508000D01*
X40442000Y-16508000D02*
X40442000Y-13348000D01*
X37282000Y-16508000D02*
X37282000Y-15048000D01*
X37282000Y-16508000D02*
X38212000Y-16508000D01*
%TO.C,R79*%
X2500000Y-24870000D02*
X2500000Y-24940000D01*
X3870000Y-23500000D02*
G75*
G03*
X3870000Y-23500000I-1370000J0D01*
G01*
%TO.C,R5*%
X50440000Y-26984936D02*
X50440000Y-28439064D01*
X48620000Y-26984936D02*
X48620000Y-28439064D01*
%TO.C,U4*%
X7510000Y-37129600D02*
X4350000Y-37129600D01*
X7510000Y-40289600D02*
X7510000Y-39359600D01*
X7510000Y-37129600D02*
X7510000Y-38059600D01*
X7510000Y-40289600D02*
X6050000Y-40289600D01*
%TO.C,R87*%
X7585064Y-43540000D02*
X6130936Y-43540000D01*
X7585064Y-45360000D02*
X6130936Y-45360000D01*
%TO.C,R22*%
X34692000Y-7400936D02*
X34692000Y-8855064D01*
X32872000Y-7400936D02*
X32872000Y-8855064D01*
%TO.C,RV0*%
X24790000Y-51760000D02*
X24790000Y-51960000D01*
X26310000Y-46050000D02*
X26310000Y-49590000D01*
X19690000Y-51760000D02*
X19690000Y-51070000D01*
X26310000Y-51760000D02*
X26310000Y-51510000D01*
X26210000Y-51960000D02*
X24790000Y-51960000D01*
X19690000Y-50030000D02*
X19690000Y-46050000D01*
X19790000Y-51960000D02*
X19790000Y-51760000D01*
X26210000Y-51760000D02*
X26310000Y-51760000D01*
X21210000Y-51960000D02*
X19790000Y-51960000D01*
X21000000Y-44740000D02*
X22490000Y-44740000D01*
X24790000Y-51760000D02*
X21210000Y-51760000D01*
X21210000Y-51760000D02*
X21210000Y-51960000D01*
X26210000Y-51960000D02*
X26210000Y-51760000D01*
X23510000Y-44740000D02*
X25000000Y-44740000D01*
X19790000Y-51760000D02*
X19690000Y-51760000D01*
X21000000Y-44740000D02*
G75*
G03*
X19690000Y-46050000I0J-1310000D01*
G01*
X26310000Y-46050000D02*
G75*
G03*
X25000000Y-44740000I-1310000J0D01*
G01*
%TO.C,J6*%
X25106000Y-8342000D02*
X27706000Y-8342000D01*
X30306000Y-8342000D02*
X30306000Y-9672000D01*
X28976000Y-8342000D02*
X30306000Y-8342000D01*
X27706000Y-10942000D02*
X30306000Y-10942000D01*
X27706000Y-8342000D02*
X27706000Y-10942000D01*
X25106000Y-8342000D02*
X25106000Y-26242000D01*
X25106000Y-26242000D02*
X30306000Y-26242000D01*
X30306000Y-10942000D02*
X30306000Y-26242000D01*
%TD*%
M02*
