%TF.GenerationSoftware,KiCad,Pcbnew,6.0.0*%
%TF.CreationDate,2022-04-09T17:08:54-03:00*%
%TF.ProjectId,cwc5.5,63776335-2e35-42e6-9b69-6361645f7063,rev?*%
%TF.SameCoordinates,Original*%
%TF.FileFunction,Other,User*%
%FSLAX46Y46*%
G04 Gerber Fmt 4.6, Leading zero omitted, Abs format (unit mm)*
G04 Created by KiCad (PCBNEW 6.0.0) date 2022-04-09 17:08:54*
%MOMM*%
%LPD*%
G01*
G04 APERTURE LIST*
%ADD10C,0.050000*%
G04 APERTURE END LIST*
D10*
%TO.C,R13*%
X43030000Y-5678000D02*
X43030000Y-10578000D01*
X40790000Y-5678000D02*
X43030000Y-5678000D01*
X40790000Y-10578000D02*
X40790000Y-5678000D01*
X43030000Y-10578000D02*
X40790000Y-10578000D01*
%TO.C,Q7*%
X42954000Y-12986000D02*
X46454000Y-12986000D01*
X46454000Y-18386000D02*
X42954000Y-18386000D01*
X46454000Y-12986000D02*
X46454000Y-18386000D01*
X42954000Y-18386000D02*
X42954000Y-12986000D01*
%TO.C,U3*%
X9450000Y-31750000D02*
X4050000Y-31750000D01*
X4050000Y-31750000D02*
X4050000Y-28250000D01*
X4050000Y-28250000D02*
X9450000Y-28250000D01*
X9450000Y-28250000D02*
X9450000Y-31750000D01*
%TO.C,J5*%
X63776000Y-37106000D02*
X63776000Y-33506000D01*
X63776000Y-33506000D02*
X27176000Y-33506000D01*
X27176000Y-37106000D02*
X63776000Y-37106000D01*
X27176000Y-33506000D02*
X27176000Y-37106000D01*
%TO.C,U6*%
X4158000Y-4447600D02*
X9558000Y-4447600D01*
X9558000Y-7947600D02*
X4158000Y-7947600D01*
X4158000Y-7947600D02*
X4158000Y-4447600D01*
X9558000Y-4447600D02*
X9558000Y-7947600D01*
%TO.C,R17*%
X36980000Y-30136000D02*
X36980000Y-25236000D01*
X39220000Y-25236000D02*
X39220000Y-30136000D01*
X39220000Y-30136000D02*
X36980000Y-30136000D01*
X36980000Y-25236000D02*
X39220000Y-25236000D01*
%TO.C,R7*%
X47394000Y-10680000D02*
X47394000Y-5780000D01*
X49634000Y-5780000D02*
X49634000Y-10680000D01*
X47394000Y-5780000D02*
X49634000Y-5780000D01*
X49634000Y-10680000D02*
X47394000Y-10680000D01*
%TO.C,RV6*%
X9770000Y-7925000D02*
X9770000Y-825000D01*
X17350000Y-845000D02*
X9750000Y-845000D01*
X9750000Y-7905000D02*
X17350000Y-7905000D01*
X17350000Y-845000D02*
X17350000Y-7905000D01*
%TO.C,R10*%
X44700000Y-10640000D02*
X44700000Y-5740000D01*
X46940000Y-10640000D02*
X44700000Y-10640000D01*
X46940000Y-5740000D02*
X46940000Y-10640000D01*
X44700000Y-5740000D02*
X46940000Y-5740000D01*
%TO.C,RV5*%
X9575000Y-52305000D02*
X9575000Y-45245000D01*
X9575000Y-52305000D02*
X17175000Y-52305000D01*
X17155000Y-45225000D02*
X17155000Y-52325000D01*
X17175000Y-45245000D02*
X9575000Y-45245000D01*
%TO.C,R82*%
X4000000Y-33340000D02*
X4000000Y-28250000D01*
X4000000Y-28250000D02*
X1000000Y-28250000D01*
X1000000Y-33340000D02*
X4000000Y-33340000D01*
X1000000Y-28250000D02*
X1000000Y-33340000D01*
%TO.C,R83*%
X4382000Y-40880000D02*
X9282000Y-40880000D01*
X9282000Y-40880000D02*
X9282000Y-43120000D01*
X4382000Y-43120000D02*
X4382000Y-40880000D01*
X9282000Y-43120000D02*
X4382000Y-43120000D01*
%TO.C,R75*%
X9308000Y-8176400D02*
X9308000Y-10416400D01*
X9308000Y-10416400D02*
X4408000Y-10416400D01*
X4408000Y-10416400D02*
X4408000Y-8176400D01*
X4408000Y-8176400D02*
X9308000Y-8176400D01*
%TO.C,R1*%
X54530000Y-10710000D02*
X52290000Y-10710000D01*
X52290000Y-5810000D02*
X54530000Y-5810000D01*
X54530000Y-5810000D02*
X54530000Y-10710000D01*
X52290000Y-10710000D02*
X52290000Y-5810000D01*
%TO.C,R85*%
X4000000Y-40899000D02*
X4000000Y-35809000D01*
X1000000Y-40899000D02*
X4000000Y-40899000D01*
X1000000Y-35809000D02*
X1000000Y-40899000D01*
X4000000Y-35809000D02*
X1000000Y-35809000D01*
%TO.C,R23*%
X33378000Y-25236000D02*
X33378000Y-30136000D01*
X33378000Y-30136000D02*
X31138000Y-30136000D01*
X31138000Y-25236000D02*
X33378000Y-25236000D01*
X31138000Y-30136000D02*
X31138000Y-25236000D01*
%TO.C,Q13*%
X36802000Y-19398000D02*
X36802000Y-24798000D01*
X36802000Y-24798000D02*
X33302000Y-24798000D01*
X33302000Y-19398000D02*
X36802000Y-19398000D01*
X33302000Y-24798000D02*
X33302000Y-19398000D01*
%TO.C,R16*%
X37996000Y-10578000D02*
X37996000Y-5678000D01*
X37996000Y-5678000D02*
X40236000Y-5678000D01*
X40236000Y-10578000D02*
X37996000Y-10578000D01*
X40236000Y-5678000D02*
X40236000Y-10578000D01*
%TO.C,R86*%
X9308000Y-50035600D02*
X9308000Y-52275600D01*
X4408000Y-50035600D02*
X9308000Y-50035600D01*
X9308000Y-52275600D02*
X4408000Y-52275600D01*
X4408000Y-52275600D02*
X4408000Y-50035600D01*
%TO.C,Q3*%
X48288000Y-18156000D02*
X48288000Y-12756000D01*
X51788000Y-12756000D02*
X51788000Y-18156000D01*
X48288000Y-12756000D02*
X51788000Y-12756000D01*
X51788000Y-18156000D02*
X48288000Y-18156000D01*
%TO.C,U2*%
X9450000Y-23000000D02*
X4050000Y-23000000D01*
X4050000Y-23000000D02*
X4050000Y-19500000D01*
X9450000Y-19500000D02*
X9450000Y-23000000D01*
X4050000Y-19500000D02*
X9450000Y-19500000D01*
%TO.C,RV2*%
X17180000Y-18175000D02*
X17180000Y-25275000D01*
X9600000Y-25255000D02*
X17200000Y-25255000D01*
X9600000Y-25255000D02*
X9600000Y-18195000D01*
X17200000Y-18195000D02*
X9600000Y-18195000D01*
%TO.C,RV3*%
X9550000Y-33955000D02*
X9550000Y-26895000D01*
X17150000Y-26895000D02*
X9550000Y-26895000D01*
X9550000Y-33955000D02*
X17150000Y-33955000D01*
X17130000Y-26875000D02*
X17130000Y-33975000D01*
%TO.C,Q5*%
X44478000Y-24544000D02*
X44478000Y-19144000D01*
X44478000Y-19144000D02*
X47978000Y-19144000D01*
X47978000Y-24544000D02*
X44478000Y-24544000D01*
X47978000Y-19144000D02*
X47978000Y-24544000D01*
%TO.C,U5*%
X9558000Y-46103600D02*
X9558000Y-49603600D01*
X4158000Y-46103600D02*
X9558000Y-46103600D01*
X4158000Y-49603600D02*
X4158000Y-46103600D01*
X9558000Y-49603600D02*
X4158000Y-49603600D01*
%TO.C,R4*%
X49910000Y-10680000D02*
X49910000Y-5780000D01*
X49910000Y-5780000D02*
X52150000Y-5780000D01*
X52150000Y-5780000D02*
X52150000Y-10680000D01*
X52150000Y-10680000D02*
X49910000Y-10680000D01*
%TO.C,RV4*%
X17150000Y-35995000D02*
X9550000Y-35995000D01*
X9550000Y-43055000D02*
X9550000Y-35995000D01*
X17130000Y-35975000D02*
X17130000Y-43075000D01*
X9550000Y-43055000D02*
X17150000Y-43055000D01*
%TO.C,R8*%
X47348000Y-25236000D02*
X47348000Y-30136000D01*
X45108000Y-30136000D02*
X45108000Y-25236000D01*
X47348000Y-30136000D02*
X45108000Y-30136000D01*
X45108000Y-25236000D02*
X47348000Y-25236000D01*
%TO.C,RV1*%
X9550000Y-16780000D02*
X17150000Y-16780000D01*
X9550000Y-16780000D02*
X9550000Y-9720000D01*
X17150000Y-9720000D02*
X9550000Y-9720000D01*
X17130000Y-9700000D02*
X17130000Y-16800000D01*
%TO.C,U1*%
X3904000Y-14196000D02*
X3904000Y-10696000D01*
X3904000Y-10696000D02*
X9304000Y-10696000D01*
X9304000Y-10696000D02*
X9304000Y-14196000D01*
X9304000Y-14196000D02*
X3904000Y-14196000D01*
%TO.C,R80*%
X9308000Y-34190800D02*
X4408000Y-34190800D01*
X4408000Y-31950800D02*
X9308000Y-31950800D01*
X4408000Y-34190800D02*
X4408000Y-31950800D01*
X9308000Y-31950800D02*
X9308000Y-34190800D01*
%TO.C,R90*%
X3914000Y-10552000D02*
X1674000Y-10552000D01*
X1674000Y-10552000D02*
X1674000Y-5652000D01*
X3914000Y-5652000D02*
X3914000Y-10552000D01*
X1674000Y-5652000D02*
X3914000Y-5652000D01*
%TO.C,Q9*%
X42390000Y-19398000D02*
X42390000Y-24798000D01*
X38890000Y-19398000D02*
X42390000Y-19398000D01*
X42390000Y-24798000D02*
X38890000Y-24798000D01*
X38890000Y-24798000D02*
X38890000Y-19398000D01*
%TO.C,R19*%
X37696000Y-10578000D02*
X35456000Y-10578000D01*
X35456000Y-10578000D02*
X35456000Y-5678000D01*
X37696000Y-5678000D02*
X37696000Y-10578000D01*
X35456000Y-5678000D02*
X37696000Y-5678000D01*
%TO.C,R20*%
X36172000Y-30136000D02*
X33932000Y-30136000D01*
X36172000Y-25236000D02*
X36172000Y-30136000D01*
X33932000Y-25236000D02*
X36172000Y-25236000D01*
X33932000Y-30136000D02*
X33932000Y-25236000D01*
%TO.C,R11*%
X42314000Y-25236000D02*
X44554000Y-25236000D01*
X44554000Y-25236000D02*
X44554000Y-30136000D01*
X44554000Y-30136000D02*
X42314000Y-30136000D01*
X42314000Y-30136000D02*
X42314000Y-25236000D01*
%TO.C,R77*%
X9308000Y-23380000D02*
X9308000Y-25620000D01*
X4408000Y-23380000D02*
X9308000Y-23380000D01*
X9308000Y-25620000D02*
X4408000Y-25620000D01*
X4408000Y-25620000D02*
X4408000Y-23380000D01*
%TO.C,R78*%
X9308000Y-19154000D02*
X4408000Y-19154000D01*
X9308000Y-16914000D02*
X9308000Y-19154000D01*
X4408000Y-19154000D02*
X4408000Y-16914000D01*
X4408000Y-16914000D02*
X9308000Y-16914000D01*
%TO.C,R88*%
X4000000Y-43455000D02*
X1000000Y-43455000D01*
X1000000Y-48545000D02*
X4000000Y-48545000D01*
X4000000Y-48545000D02*
X4000000Y-43455000D01*
X1000000Y-43455000D02*
X1000000Y-48545000D01*
%TO.C,R81*%
X4550000Y-25702400D02*
X9450000Y-25702400D01*
X9450000Y-27942400D02*
X4550000Y-27942400D01*
X9450000Y-25702400D02*
X9450000Y-27942400D01*
X4550000Y-27942400D02*
X4550000Y-25702400D01*
%TO.C,R2*%
X53444000Y-30136000D02*
X51204000Y-30136000D01*
X53444000Y-25236000D02*
X53444000Y-30136000D01*
X51204000Y-25236000D02*
X53444000Y-25236000D01*
X51204000Y-30136000D02*
X51204000Y-25236000D01*
%TO.C,R76*%
X1420000Y-17250000D02*
X1420000Y-12350000D01*
X3660000Y-12350000D02*
X3660000Y-17250000D01*
X1420000Y-12350000D02*
X3660000Y-12350000D01*
X3660000Y-17250000D02*
X1420000Y-17250000D01*
%TO.C,Q1*%
X50574000Y-19144000D02*
X54074000Y-19144000D01*
X54074000Y-24544000D02*
X50574000Y-24544000D01*
X54074000Y-19144000D02*
X54074000Y-24544000D01*
X50574000Y-24544000D02*
X50574000Y-19144000D01*
%TO.C,Q15*%
X31270000Y-18448000D02*
X31270000Y-13048000D01*
X31270000Y-13048000D02*
X34770000Y-13048000D01*
X34770000Y-13048000D02*
X34770000Y-18448000D01*
X34770000Y-18448000D02*
X31270000Y-18448000D01*
%TO.C,R84*%
X9400000Y-34380000D02*
X9400000Y-36620000D01*
X4500000Y-34380000D02*
X9400000Y-34380000D01*
X9400000Y-36620000D02*
X4500000Y-36620000D01*
X4500000Y-36620000D02*
X4500000Y-34380000D01*
%TO.C,R74*%
X9308000Y-14374000D02*
X9308000Y-16614000D01*
X9308000Y-16614000D02*
X4408000Y-16614000D01*
X4408000Y-14374000D02*
X9308000Y-14374000D01*
X4408000Y-16614000D02*
X4408000Y-14374000D01*
%TO.C,R14*%
X39774000Y-30136000D02*
X39774000Y-25236000D01*
X42014000Y-30136000D02*
X39774000Y-30136000D01*
X39774000Y-25236000D02*
X42014000Y-25236000D01*
X42014000Y-25236000D02*
X42014000Y-30136000D01*
%TO.C,Q11*%
X37112000Y-18448000D02*
X37112000Y-13048000D01*
X37112000Y-13048000D02*
X40612000Y-13048000D01*
X40612000Y-13048000D02*
X40612000Y-18448000D01*
X40612000Y-18448000D02*
X37112000Y-18448000D01*
%TO.C,R79*%
X4000000Y-22000000D02*
X1000000Y-22000000D01*
X4000000Y-27090000D02*
X4000000Y-22000000D01*
X1000000Y-27090000D02*
X4000000Y-27090000D01*
X1000000Y-22000000D02*
X1000000Y-27090000D01*
%TO.C,R5*%
X48410000Y-30162000D02*
X48410000Y-25262000D01*
X48410000Y-25262000D02*
X50650000Y-25262000D01*
X50650000Y-30162000D02*
X48410000Y-30162000D01*
X50650000Y-25262000D02*
X50650000Y-30162000D01*
%TO.C,U4*%
X9450000Y-40459600D02*
X4050000Y-40459600D01*
X9450000Y-36959600D02*
X9450000Y-40459600D01*
X4050000Y-36959600D02*
X9450000Y-36959600D01*
X4050000Y-40459600D02*
X4050000Y-36959600D01*
%TO.C,R87*%
X4408000Y-45570000D02*
X4408000Y-43330000D01*
X4408000Y-43330000D02*
X9308000Y-43330000D01*
X9308000Y-43330000D02*
X9308000Y-45570000D01*
X9308000Y-45570000D02*
X4408000Y-45570000D01*
%TO.C,R22*%
X34902000Y-5678000D02*
X34902000Y-10578000D01*
X32662000Y-5678000D02*
X34902000Y-5678000D01*
X34902000Y-10578000D02*
X32662000Y-10578000D01*
X32662000Y-10578000D02*
X32662000Y-5678000D01*
%TO.C,RV0*%
X19470000Y-44500000D02*
X19470000Y-52100000D01*
X26530000Y-52100000D02*
X26530000Y-44500000D01*
X26530000Y-52100000D02*
X19470000Y-52100000D01*
X19450000Y-44520000D02*
X26550000Y-44520000D01*
%TO.C,J6*%
X30736000Y-7872000D02*
X30736000Y-26672000D01*
X24636000Y-7872000D02*
X30736000Y-7872000D01*
X24636000Y-26672000D02*
X24636000Y-7872000D01*
X30736000Y-26672000D02*
X24636000Y-26672000D01*
%TD*%
M02*
