%TF.GenerationSoftware,KiCad,Pcbnew,6.0.0*%
%TF.CreationDate,2022-04-09T16:35:18-03:00*%
%TF.ProjectId,cwc5.5,63776335-2e35-42e6-9b69-6361645f7063,rev?*%
%TF.SameCoordinates,Original*%
%TF.FileFunction,Copper,L1,Top*%
%TF.FilePolarity,Positive*%
%FSLAX46Y46*%
G04 Gerber Fmt 4.6, Leading zero omitted, Abs format (unit mm)*
G04 Created by KiCad (PCBNEW 6.0.0) date 2022-04-09 16:35:18*
%MOMM*%
%LPD*%
G01*
G04 APERTURE LIST*
G04 Aperture macros list*
%AMRoundRect*
0 Rectangle with rounded corners*
0 $1 Rounding radius*
0 $2 $3 $4 $5 $6 $7 $8 $9 X,Y pos of 4 corners*
0 Add a 4 corners polygon primitive as box body*
4,1,4,$2,$3,$4,$5,$6,$7,$8,$9,$2,$3,0*
0 Add four circle primitives for the rounded corners*
1,1,$1+$1,$2,$3*
1,1,$1+$1,$4,$5*
1,1,$1+$1,$6,$7*
1,1,$1+$1,$8,$9*
0 Add four rect primitives between the rounded corners*
20,1,$1+$1,$2,$3,$4,$5,0*
20,1,$1+$1,$4,$5,$6,$7,0*
20,1,$1+$1,$6,$7,$8,$9,0*
20,1,$1+$1,$8,$9,$2,$3,0*%
G04 Aperture macros list end*
%TA.AperFunction,SMDPad,CuDef*%
%ADD10RoundRect,0.250000X-0.625000X0.400000X-0.625000X-0.400000X0.625000X-0.400000X0.625000X0.400000X0*%
%TD*%
%TA.AperFunction,SMDPad,CuDef*%
%ADD11R,0.800000X1.900000*%
%TD*%
%TA.AperFunction,SMDPad,CuDef*%
%ADD12R,1.900000X0.800000*%
%TD*%
%TA.AperFunction,ComponentPad*%
%ADD13R,1.700000X1.700000*%
%TD*%
%TA.AperFunction,ComponentPad*%
%ADD14O,1.700000X1.700000*%
%TD*%
%TA.AperFunction,ComponentPad*%
%ADD15R,1.550000X1.550000*%
%TD*%
%TA.AperFunction,ComponentPad*%
%ADD16C,1.550000*%
%TD*%
%TA.AperFunction,ComponentPad*%
%ADD17C,1.600000*%
%TD*%
%TA.AperFunction,ComponentPad*%
%ADD18O,1.600000X1.600000*%
%TD*%
%TA.AperFunction,SMDPad,CuDef*%
%ADD19RoundRect,0.250000X0.400000X0.625000X-0.400000X0.625000X-0.400000X-0.625000X0.400000X-0.625000X0*%
%TD*%
%TA.AperFunction,ViaPad*%
%ADD20C,1.700000*%
%TD*%
%TA.AperFunction,Conductor*%
%ADD21C,0.762000*%
%TD*%
G04 APERTURE END LIST*
D10*
%TO.P,R13,1*%
%TO.N,/D8*%
X41910000Y-6578000D03*
%TO.P,R13,2*%
%TO.N,Net-(Q9-Pad1)*%
X41910000Y-9678000D03*
%TD*%
D11*
%TO.P,Q7,1,B*%
%TO.N,Net-(Q7-Pad1)*%
X45654000Y-14186000D03*
%TO.P,Q7,2,E*%
%TO.N,Net-(Q7-Pad2)*%
X43754000Y-14186000D03*
%TO.P,Q7,3,C*%
%TO.N,Net-(Q7-Pad3)*%
X44704000Y-17186000D03*
%TD*%
D12*
%TO.P,U3,1,K*%
%TO.N,/sheet2/A3*%
X5250000Y-29050000D03*
%TO.P,U3,2,REF*%
%TO.N,Net-(RV3-Pad2)*%
X5250000Y-30950000D03*
%TO.P,U3,3,A*%
%TO.N,GND*%
X8250000Y-30000000D03*
%TD*%
D13*
%TO.P,J5,1,Pin_1*%
%TO.N,/HIR*%
X61976000Y-35306000D03*
D14*
%TO.P,J5,2,Pin_2*%
%TO.N,/HRR*%
X59436000Y-35306000D03*
%TO.P,J5,3,Pin_3*%
%TO.N,GND*%
X56896000Y-35306000D03*
%TO.P,J5,4,Pin_4*%
X54356000Y-35306000D03*
%TO.P,J5,5,Pin_5*%
X51816000Y-35306000D03*
%TO.P,J5,6,Pin_6*%
X49276000Y-35306000D03*
%TO.P,J5,7,Pin_7*%
%TO.N,/REX1*%
X46736000Y-35306000D03*
%TO.P,J5,8,Pin_8*%
%TO.N,/RH1*%
X44196000Y-35306000D03*
%TO.P,J5,9,Pin_9*%
%TO.N,/RM1*%
X41656000Y-35306000D03*
%TO.P,J5,10,Pin_10*%
%TO.N,/RL1*%
X39116000Y-35306000D03*
%TO.P,J5,11,Pin_11*%
%TO.N,/REX2*%
X36576000Y-35306000D03*
%TO.P,J5,12,Pin_12*%
%TO.N,/RH2*%
X34036000Y-35306000D03*
%TO.P,J5,13,Pin_13*%
%TO.N,/RM2*%
X31496000Y-35306000D03*
%TO.P,J5,14,Pin_14*%
%TO.N,/RL2*%
X28956000Y-35306000D03*
%TD*%
D12*
%TO.P,U6,1,K*%
%TO.N,/sheet2/A6*%
X8358000Y-7147600D03*
%TO.P,U6,2,REF*%
%TO.N,Net-(RV6-Pad2)*%
X8358000Y-5247600D03*
%TO.P,U6,3,A*%
%TO.N,GND*%
X5358000Y-6197600D03*
%TD*%
D10*
%TO.P,R17,1*%
%TO.N,Net-(Q11-Pad3)*%
X38100000Y-26136000D03*
%TO.P,R17,2*%
%TO.N,+5V*%
X38100000Y-29236000D03*
%TD*%
%TO.P,R7,1*%
%TO.N,/D6*%
X48514000Y-6680000D03*
%TO.P,R7,2*%
%TO.N,Net-(Q5-Pad1)*%
X48514000Y-9780000D03*
%TD*%
D15*
%TO.P,RV6,1,1*%
%TO.N,Net-(R89-Pad1)*%
X15800000Y-1875000D03*
D16*
%TO.P,RV6,2,2*%
%TO.N,Net-(RV6-Pad2)*%
X10800000Y-4375000D03*
%TO.P,RV6,3,3*%
%TO.N,Net-(R90-Pad1)*%
X15800000Y-6875000D03*
%TD*%
D10*
%TO.P,R10,1*%
%TO.N,/D7*%
X45820000Y-6640000D03*
%TO.P,R10,2*%
%TO.N,Net-(Q7-Pad1)*%
X45820000Y-9740000D03*
%TD*%
D15*
%TO.P,RV5,1,1*%
%TO.N,Net-(R86-Pad1)*%
X11125000Y-51275000D03*
D16*
%TO.P,RV5,2,2*%
%TO.N,Net-(RV5-Pad2)*%
X16125000Y-48775000D03*
%TO.P,RV5,3,3*%
%TO.N,Net-(R87-Pad1)*%
X11125000Y-46275000D03*
%TD*%
D17*
%TO.P,R82,1*%
%TO.N,/sheet2/A3*%
X2500000Y-29750000D03*
D18*
%TO.P,R82,2*%
%TO.N,/sheet2/S3*%
X2500000Y-32290000D03*
%TD*%
D19*
%TO.P,R83,1*%
%TO.N,Net-(R83-Pad1)*%
X8382000Y-42000000D03*
%TO.P,R83,2*%
%TO.N,/sheet2/S4*%
X5282000Y-42000000D03*
%TD*%
%TO.P,R75,1*%
%TO.N,Net-(R75-Pad1)*%
X8408000Y-9296400D03*
%TO.P,R75,2*%
%TO.N,GND*%
X5308000Y-9296400D03*
%TD*%
D10*
%TO.P,R1,1*%
%TO.N,/D4*%
X53410000Y-6710000D03*
%TO.P,R1,2*%
%TO.N,Net-(Q1-Pad1)*%
X53410000Y-9810000D03*
%TD*%
D17*
%TO.P,R85,1*%
%TO.N,/sheet2/A4*%
X2500000Y-37309000D03*
D18*
%TO.P,R85,2*%
%TO.N,/sheet2/S4*%
X2500000Y-39849000D03*
%TD*%
D10*
%TO.P,R23,1*%
%TO.N,Net-(Q15-Pad3)*%
X32258000Y-26136000D03*
%TO.P,R23,2*%
%TO.N,+5V*%
X32258000Y-29236000D03*
%TD*%
D11*
%TO.P,Q13,1,B*%
%TO.N,Net-(Q13-Pad1)*%
X36002000Y-20598000D03*
%TO.P,Q13,2,E*%
%TO.N,Net-(Q13-Pad2)*%
X34102000Y-20598000D03*
%TO.P,Q13,3,C*%
%TO.N,Net-(Q13-Pad3)*%
X35052000Y-23598000D03*
%TD*%
D10*
%TO.P,R16,1*%
%TO.N,/D9*%
X39116000Y-6578000D03*
%TO.P,R16,2*%
%TO.N,Net-(Q11-Pad1)*%
X39116000Y-9678000D03*
%TD*%
D19*
%TO.P,R86,1*%
%TO.N,Net-(R86-Pad1)*%
X8408000Y-51155600D03*
%TO.P,R86,2*%
%TO.N,/sheet2/S5*%
X5308000Y-51155600D03*
%TD*%
D11*
%TO.P,Q3,1,B*%
%TO.N,Net-(Q3-Pad1)*%
X50988000Y-13956000D03*
%TO.P,Q3,2,E*%
%TO.N,Net-(Q3-Pad2)*%
X49088000Y-13956000D03*
%TO.P,Q3,3,C*%
%TO.N,Net-(Q3-Pad3)*%
X50038000Y-16956000D03*
%TD*%
D12*
%TO.P,U2,1,K*%
%TO.N,/sheet2/A2*%
X5250000Y-20300000D03*
%TO.P,U2,2,REF*%
%TO.N,Net-(RV2-Pad2)*%
X5250000Y-22200000D03*
%TO.P,U2,3,A*%
%TO.N,GND*%
X8250000Y-21250000D03*
%TD*%
D15*
%TO.P,RV2,1,1*%
%TO.N,Net-(R77-Pad1)*%
X11150000Y-24225000D03*
D16*
%TO.P,RV2,2,2*%
%TO.N,Net-(RV2-Pad2)*%
X16150000Y-21725000D03*
%TO.P,RV2,3,3*%
%TO.N,Net-(R78-Pad1)*%
X11150000Y-19225000D03*
%TD*%
D15*
%TO.P,RV3,1,1*%
%TO.N,Net-(R80-Pad1)*%
X11100000Y-32925000D03*
D16*
%TO.P,RV3,2,2*%
%TO.N,Net-(RV3-Pad2)*%
X16100000Y-30425000D03*
%TO.P,RV3,3,3*%
%TO.N,Net-(R81-Pad1)*%
X11100000Y-27925000D03*
%TD*%
D11*
%TO.P,Q5,1,B*%
%TO.N,Net-(Q5-Pad1)*%
X47178000Y-20344000D03*
%TO.P,Q5,2,E*%
%TO.N,Net-(Q5-Pad2)*%
X45278000Y-20344000D03*
%TO.P,Q5,3,C*%
%TO.N,Net-(Q5-Pad3)*%
X46228000Y-23344000D03*
%TD*%
D12*
%TO.P,U5,1,K*%
%TO.N,/sheet2/A5*%
X5358000Y-46903600D03*
%TO.P,U5,2,REF*%
%TO.N,Net-(RV5-Pad2)*%
X5358000Y-48803600D03*
%TO.P,U5,3,A*%
%TO.N,GND*%
X8358000Y-47853600D03*
%TD*%
D10*
%TO.P,R4,1*%
%TO.N,/D5*%
X51030000Y-6680000D03*
%TO.P,R4,2*%
%TO.N,Net-(Q3-Pad1)*%
X51030000Y-9780000D03*
%TD*%
D15*
%TO.P,RV4,1,1*%
%TO.N,Net-(R83-Pad1)*%
X11100000Y-42025000D03*
D16*
%TO.P,RV4,2,2*%
%TO.N,Net-(RV4-Pad2)*%
X16100000Y-39525000D03*
%TO.P,RV4,3,3*%
%TO.N,Net-(R84-Pad1)*%
X11100000Y-37025000D03*
%TD*%
D10*
%TO.P,R8,1*%
%TO.N,Net-(Q5-Pad3)*%
X46228000Y-26136000D03*
%TO.P,R8,2*%
%TO.N,+5V*%
X46228000Y-29236000D03*
%TD*%
D15*
%TO.P,RV1,1,1*%
%TO.N,Net-(R74-Pad1)*%
X11100000Y-15750000D03*
D16*
%TO.P,RV1,2,2*%
%TO.N,Net-(RV1-Pad2)*%
X16100000Y-13250000D03*
%TO.P,RV1,3,3*%
%TO.N,Net-(R75-Pad1)*%
X11100000Y-10750000D03*
%TD*%
D12*
%TO.P,U1,1,K*%
%TO.N,/sheet2/A1*%
X5104000Y-11496000D03*
%TO.P,U1,2,REF*%
%TO.N,Net-(RV1-Pad2)*%
X5104000Y-13396000D03*
%TO.P,U1,3,A*%
%TO.N,GND*%
X8104000Y-12446000D03*
%TD*%
D19*
%TO.P,R80,1*%
%TO.N,Net-(R80-Pad1)*%
X8408000Y-33070800D03*
%TO.P,R80,2*%
%TO.N,/sheet2/S3*%
X5308000Y-33070800D03*
%TD*%
D10*
%TO.P,R90,1*%
%TO.N,Net-(R90-Pad1)*%
X2794000Y-6552000D03*
%TO.P,R90,2*%
%TO.N,GND*%
X2794000Y-9652000D03*
%TD*%
D11*
%TO.P,Q9,1,B*%
%TO.N,Net-(Q9-Pad1)*%
X41590000Y-20598000D03*
%TO.P,Q9,2,E*%
%TO.N,Net-(Q10-Pad1)*%
X39690000Y-20598000D03*
%TO.P,Q9,3,C*%
%TO.N,Net-(Q9-Pad3)*%
X40640000Y-23598000D03*
%TD*%
D10*
%TO.P,R19,1*%
%TO.N,/D10*%
X36576000Y-6578000D03*
%TO.P,R19,2*%
%TO.N,Net-(Q13-Pad1)*%
X36576000Y-9678000D03*
%TD*%
%TO.P,R20,1*%
%TO.N,Net-(Q13-Pad3)*%
X35052000Y-26136000D03*
%TO.P,R20,2*%
%TO.N,+5V*%
X35052000Y-29236000D03*
%TD*%
%TO.P,R11,1*%
%TO.N,Net-(Q7-Pad3)*%
X43434000Y-26136000D03*
%TO.P,R11,2*%
%TO.N,+5V*%
X43434000Y-29236000D03*
%TD*%
D19*
%TO.P,R77,1*%
%TO.N,Net-(R77-Pad1)*%
X8408000Y-24500000D03*
%TO.P,R77,2*%
%TO.N,/sheet2/S2*%
X5308000Y-24500000D03*
%TD*%
%TO.P,R78,1*%
%TO.N,Net-(R78-Pad1)*%
X8408000Y-18034000D03*
%TO.P,R78,2*%
%TO.N,GND*%
X5308000Y-18034000D03*
%TD*%
D17*
%TO.P,R88,1*%
%TO.N,/sheet2/A5*%
X2500000Y-44955000D03*
D18*
%TO.P,R88,2*%
%TO.N,/sheet2/S5*%
X2500000Y-47495000D03*
%TD*%
D19*
%TO.P,R81,1*%
%TO.N,Net-(R81-Pad1)*%
X8550000Y-26822400D03*
%TO.P,R81,2*%
%TO.N,GND*%
X5450000Y-26822400D03*
%TD*%
D10*
%TO.P,R2,1*%
%TO.N,Net-(Q1-Pad3)*%
X52324000Y-26136000D03*
%TO.P,R2,2*%
%TO.N,+5V*%
X52324000Y-29236000D03*
%TD*%
%TO.P,R76,1*%
%TO.N,/sheet2/A1*%
X2540000Y-13250000D03*
%TO.P,R76,2*%
%TO.N,/sheet2/S1*%
X2540000Y-16350000D03*
%TD*%
D11*
%TO.P,Q1,1,B*%
%TO.N,Net-(Q1-Pad1)*%
X53274000Y-20344000D03*
%TO.P,Q1,2,E*%
%TO.N,Net-(Q1-Pad2)*%
X51374000Y-20344000D03*
%TO.P,Q1,3,C*%
%TO.N,Net-(Q1-Pad3)*%
X52324000Y-23344000D03*
%TD*%
%TO.P,Q15,1,B*%
%TO.N,Net-(Q15-Pad1)*%
X33970000Y-14248000D03*
%TO.P,Q15,2,E*%
%TO.N,Net-(Q15-Pad2)*%
X32070000Y-14248000D03*
%TO.P,Q15,3,C*%
%TO.N,Net-(Q15-Pad3)*%
X33020000Y-17248000D03*
%TD*%
D19*
%TO.P,R84,1*%
%TO.N,Net-(R84-Pad1)*%
X8500000Y-35500000D03*
%TO.P,R84,2*%
%TO.N,GND*%
X5400000Y-35500000D03*
%TD*%
%TO.P,R74,1*%
%TO.N,Net-(R74-Pad1)*%
X8408000Y-15494000D03*
%TO.P,R74,2*%
%TO.N,/sheet2/S1*%
X5308000Y-15494000D03*
%TD*%
D10*
%TO.P,R14,1*%
%TO.N,Net-(Q9-Pad3)*%
X40894000Y-26136000D03*
%TO.P,R14,2*%
%TO.N,+5V*%
X40894000Y-29236000D03*
%TD*%
D11*
%TO.P,Q11,1,B*%
%TO.N,Net-(Q11-Pad1)*%
X39812000Y-14248000D03*
%TO.P,Q11,2,E*%
%TO.N,Net-(Q11-Pad2)*%
X37912000Y-14248000D03*
%TO.P,Q11,3,C*%
%TO.N,Net-(Q11-Pad3)*%
X38862000Y-17248000D03*
%TD*%
D17*
%TO.P,R79,1*%
%TO.N,/sheet2/A2*%
X2500000Y-23500000D03*
D18*
%TO.P,R79,2*%
%TO.N,/sheet2/S2*%
X2500000Y-26040000D03*
%TD*%
D10*
%TO.P,R5,1*%
%TO.N,Net-(Q3-Pad3)*%
X49530000Y-26162000D03*
%TO.P,R5,2*%
%TO.N,+5V*%
X49530000Y-29262000D03*
%TD*%
D12*
%TO.P,U4,1,K*%
%TO.N,/sheet2/A4*%
X5250000Y-37759600D03*
%TO.P,U4,2,REF*%
%TO.N,Net-(RV4-Pad2)*%
X5250000Y-39659600D03*
%TO.P,U4,3,A*%
%TO.N,GND*%
X8250000Y-38709600D03*
%TD*%
D19*
%TO.P,R87,1*%
%TO.N,Net-(R87-Pad1)*%
X8408000Y-44450000D03*
%TO.P,R87,2*%
%TO.N,GND*%
X5308000Y-44450000D03*
%TD*%
D10*
%TO.P,R22,1*%
%TO.N,/D11*%
X33782000Y-6578000D03*
%TO.P,R22,2*%
%TO.N,Net-(Q15-Pad1)*%
X33782000Y-9678000D03*
%TD*%
D15*
%TO.P,RV0,1,1*%
%TO.N,Net-(R71-Pad1)*%
X25500000Y-50550000D03*
D16*
%TO.P,RV0,2,2*%
%TO.N,Net-(RV0-Pad2)*%
X23000000Y-45550000D03*
%TO.P,RV0,3,3*%
%TO.N,Net-(R72-Pad1)*%
X20500000Y-50550000D03*
%TD*%
D13*
%TO.P,J6,1,Pin_1*%
%TO.N,GND*%
X28976000Y-9672000D03*
D14*
%TO.P,J6,2,Pin_2*%
%TO.N,/sheet2/S6*%
X26436000Y-9672000D03*
%TO.P,J6,3,Pin_3*%
%TO.N,GND*%
X28976000Y-12212000D03*
%TO.P,J6,4,Pin_4*%
%TO.N,/sheet2/S1*%
X26436000Y-12212000D03*
%TO.P,J6,5,Pin_5*%
%TO.N,GND*%
X28976000Y-14752000D03*
%TO.P,J6,6,Pin_6*%
%TO.N,/sheet2/S2*%
X26436000Y-14752000D03*
%TO.P,J6,7,Pin_7*%
%TO.N,GND*%
X28976000Y-17292000D03*
%TO.P,J6,8,Pin_8*%
%TO.N,/sheet2/S3*%
X26436000Y-17292000D03*
%TO.P,J6,9,Pin_9*%
%TO.N,GND*%
X28976000Y-19832000D03*
%TO.P,J6,10,Pin_10*%
%TO.N,/sheet2/S4*%
X26436000Y-19832000D03*
%TO.P,J6,11,Pin_11*%
%TO.N,GND*%
X28976000Y-22372000D03*
%TO.P,J6,12,Pin_12*%
%TO.N,/sheet2/S5*%
X26436000Y-22372000D03*
%TO.P,J6,13,Pin_13*%
%TO.N,GND*%
X28976000Y-24912000D03*
%TO.P,J6,14,Pin_14*%
%TO.N,/sheet2/S0*%
X26436000Y-24912000D03*
%TD*%
D13*
%TO.P,J1,1,Pin_1*%
%TO.N,/D8*%
X41560000Y-2580000D03*
D14*
%TO.P,J1,2,Pin_2*%
%TO.N,/D9*%
X39020000Y-2580000D03*
%TO.P,J1,3,Pin_3*%
%TO.N,/D10*%
X36480000Y-2580000D03*
%TO.P,J1,4,Pin_4*%
%TO.N,/D11*%
X33940000Y-2580000D03*
%TO.P,J1,5,Pin_5*%
%TO.N,/D12*%
X31400000Y-2580000D03*
%TO.P,J1,6,Pin_6*%
%TO.N,/D13*%
X28860000Y-2580000D03*
%TO.P,J1,7,Pin_7*%
%TO.N,GND*%
X26320000Y-2580000D03*
%TO.P,J1,8,Pin_8*%
%TO.N,/AREF*%
X23780000Y-2580000D03*
%TD*%
D13*
%TO.P,J4,1,Pin_1*%
%TO.N,/sheet2/A6*%
X66600000Y-50500000D03*
D14*
%TO.P,J4,2,Pin_2*%
%TO.N,/sheet2/A5*%
X64060000Y-50500000D03*
%TO.P,J4,3,Pin_3*%
%TO.N,/sheet2/A4*%
X61520000Y-50500000D03*
%TO.P,J4,4,Pin_4*%
%TO.N,/sheet2/A3*%
X58980000Y-50500000D03*
%TO.P,J4,5,Pin_5*%
%TO.N,/sheet2/A2*%
X56440000Y-50500000D03*
%TO.P,J4,6,Pin_6*%
%TO.N,/sheet2/A1*%
X53900000Y-50500000D03*
%TO.P,J4,7,Pin_7*%
%TO.N,/sheet2/A0*%
X51360000Y-50500000D03*
%TD*%
D13*
%TO.P,J3,1,Pin_1*%
%TO.N,/VIN*%
X46060000Y-50500000D03*
D14*
%TO.P,J3,2,Pin_2*%
%TO.N,GND*%
X43520000Y-50500000D03*
%TO.P,J3,3,Pin_3*%
X40980000Y-50500000D03*
%TO.P,J3,4,Pin_4*%
%TO.N,+5V*%
X38440000Y-50500000D03*
%TO.P,J3,5,Pin_5*%
%TO.N,/3\u002C3V*%
X35900000Y-50500000D03*
%TO.P,J3,6,Pin_6*%
%TO.N,/RESET*%
X33360000Y-50500000D03*
%TO.P,J3,7,Pin_7*%
%TO.N,/IOREF*%
X30820000Y-50500000D03*
%TO.P,J3,8,Pin_8*%
%TO.N,/NCON*%
X28280000Y-50500000D03*
%TD*%
D13*
%TO.P,J2,1,Pin_1*%
%TO.N,unconnected-(J2-Pad1)*%
X63580000Y-2580000D03*
D14*
%TO.P,J2,2,Pin_2*%
%TO.N,unconnected-(J2-Pad2)*%
X61040000Y-2580000D03*
%TO.P,J2,3,Pin_3*%
%TO.N,/HI*%
X58500000Y-2580000D03*
%TO.P,J2,4,Pin_4*%
%TO.N,/HR*%
X55960000Y-2580000D03*
%TO.P,J2,5,Pin_5*%
%TO.N,/D4*%
X53420000Y-2580000D03*
%TO.P,J2,6,Pin_6*%
%TO.N,/D5*%
X50880000Y-2580000D03*
%TO.P,J2,7,Pin_7*%
%TO.N,/D6*%
X48340000Y-2580000D03*
%TO.P,J2,8,Pin_8*%
%TO.N,/D7*%
X45800000Y-2580000D03*
%TD*%
D20*
%TO.N,Net-(Q1-Pad2)*%
X51841400Y-18008600D03*
%TO.N,Net-(Q3-Pad2)*%
X50038000Y-11760200D03*
%TO.N,Net-(Q5-Pad2)*%
X46558200Y-17983200D03*
%TO.N,Net-(Q7-Pad2)*%
X43754000Y-11541800D03*
%TO.N,Net-(Q11-Pad2)*%
X37912000Y-12004000D03*
%TO.N,Net-(Q13-Pad2)*%
X34798000Y-18237200D03*
%TO.N,Net-(Q15-Pad2)*%
X31318200Y-11557000D03*
%TO.N,Net-(Q10-Pad1)*%
X40690800Y-18262600D03*
%TO.N,+5V*%
X30500000Y-31500000D03*
X59525000Y-32550000D03*
%TO.N,/sheet2/A0*%
X27940000Y-47244000D03*
%TO.N,/sheet2/S1*%
X2500000Y-18000000D03*
%TO.N,/sheet2/A1*%
X18034000Y-10922000D03*
X3048000Y-11684000D03*
%TO.N,/sheet2/A2*%
X19750000Y-16000000D03*
%TO.N,/sheet2/A3*%
X21250000Y-19500000D03*
%TO.N,/sheet2/A4*%
X22500000Y-28500000D03*
%TO.N,/sheet2/A5*%
X23368000Y-37084000D03*
%TO.N,/sheet2/A6*%
X10800000Y-8450000D03*
X19812000Y-8636000D03*
%TD*%
D21*
%TO.N,Net-(Q1-Pad2)*%
X51841400Y-19876600D02*
X51374000Y-20344000D01*
X51841400Y-18008600D02*
X51841400Y-19876600D01*
%TO.N,GND*%
X2790319Y-27709681D02*
X4562719Y-27709681D01*
X5784204Y-9296400D02*
X8104000Y-11616196D01*
X762000Y-11522687D02*
X2632687Y-9652000D01*
X8104000Y-12446000D02*
X13591865Y-12446000D01*
X5204575Y-9296400D02*
X4927600Y-9296400D01*
X6481089Y-45623089D02*
X5308000Y-44450000D01*
X18288000Y-51054000D02*
X19464511Y-52230511D01*
X774000Y-19750000D02*
X762000Y-19738000D01*
X10700000Y-48000000D02*
X11750000Y-48000000D01*
X3197313Y-19750000D02*
X774000Y-19750000D01*
X4927600Y-9296400D02*
X4927600Y-7620000D01*
X5282000Y-35610800D02*
X2082800Y-35610800D01*
X11750000Y-48000000D02*
X13776000Y-45974000D01*
X5308000Y-18034000D02*
X4913313Y-18034000D01*
X5308000Y-44704000D02*
X4954000Y-44704000D01*
X7080511Y-27830511D02*
X7080511Y-28830511D01*
X8250000Y-20519489D02*
X5764511Y-18034000D01*
X8358000Y-47108000D02*
X6873089Y-45623089D01*
X39249489Y-52230511D02*
X40980000Y-50500000D01*
X5272397Y-44704000D02*
X5308000Y-44704000D01*
X6072400Y-26822400D02*
X7080511Y-27830511D01*
X762000Y-20828000D02*
X762000Y-19738000D01*
X17512043Y-45974000D02*
X18288000Y-46749957D01*
X2794000Y-9652000D02*
X4952400Y-9652000D01*
X10553600Y-47853600D02*
X10700000Y-48000000D01*
X5400000Y-35500000D02*
X5876204Y-35500000D01*
X762000Y-19738000D02*
X762000Y-11522687D01*
X5876204Y-35500000D02*
X8250000Y-37873796D01*
X2500000Y-42250000D02*
X1500000Y-42250000D01*
X8358000Y-47853600D02*
X8358000Y-47108000D01*
X19304000Y-5334000D02*
X23566000Y-5334000D01*
X4800000Y-9804400D02*
X5308000Y-9296400D01*
X762000Y-40193603D02*
X762000Y-34290000D01*
X23566000Y-5334000D02*
X26320000Y-2580000D01*
X4562719Y-27709681D02*
X5450000Y-26822400D01*
X4952400Y-9652000D02*
X5308000Y-9296400D01*
X6873089Y-45623089D02*
X6481089Y-45623089D01*
X13591865Y-12446000D02*
X17455511Y-8582354D01*
X17455511Y-8582354D02*
X17455511Y-7182489D01*
X5358000Y-7189600D02*
X4927600Y-7620000D01*
X750000Y-41500000D02*
X750000Y-40205603D01*
X762000Y-22098000D02*
X762000Y-27432000D01*
X762000Y-20828000D02*
X762000Y-22098000D01*
X8250000Y-37873796D02*
X8250000Y-38709600D01*
X8104000Y-11616196D02*
X8104000Y-12365000D01*
X8358000Y-47853600D02*
X10553600Y-47853600D01*
X4954000Y-44704000D02*
X2500000Y-42250000D01*
X18288000Y-46749957D02*
X18288000Y-51054000D01*
X17455511Y-7182489D02*
X19304000Y-5334000D01*
X1000000Y-27750000D02*
X2750000Y-27750000D01*
X5450000Y-26822400D02*
X6072400Y-26822400D01*
X2632687Y-9652000D02*
X2794000Y-9652000D01*
X19464511Y-52230511D02*
X39249489Y-52230511D01*
X5308000Y-9296400D02*
X5784204Y-9296400D01*
X2082800Y-35610800D02*
X762000Y-34290000D01*
X1500000Y-42250000D02*
X750000Y-41500000D01*
X13776000Y-45974000D02*
X17512043Y-45974000D01*
X762000Y-27512000D02*
X762000Y-27432000D01*
X8250000Y-21250000D02*
X8250000Y-20519489D01*
X750000Y-40205603D02*
X762000Y-40193603D01*
X5764511Y-18034000D02*
X5308000Y-18034000D01*
X5358000Y-6197600D02*
X5358000Y-7189600D01*
X2750000Y-27750000D02*
X2790319Y-27709681D01*
X762000Y-34290000D02*
X762000Y-27512000D01*
X762000Y-27512000D02*
X1000000Y-27750000D01*
X4913313Y-18034000D02*
X3197313Y-19750000D01*
X7080511Y-28830511D02*
X8250000Y-30000000D01*
%TO.N,Net-(Q1-Pad1)*%
X53274000Y-20344000D02*
X53571911Y-20046089D01*
X53362089Y-9857911D02*
X53410000Y-9810000D01*
X53362089Y-13052289D02*
X53362089Y-9857911D01*
X53571911Y-20046089D02*
X53571911Y-13262111D01*
X53571911Y-13262111D02*
X53362089Y-13052289D01*
%TO.N,Net-(Q1-Pad3)*%
X52324000Y-23344000D02*
X52324000Y-26136000D01*
%TO.N,Net-(Q3-Pad2)*%
X49088000Y-13956000D02*
X49088000Y-12710200D01*
X49088000Y-12710200D02*
X50038000Y-11760200D01*
%TO.N,Net-(Q3-Pad1)*%
X50988000Y-13956000D02*
X51768511Y-13175489D01*
X51768511Y-11043398D02*
X51030000Y-10304887D01*
X50988000Y-9822000D02*
X51030000Y-9780000D01*
X51768511Y-13175489D02*
X51768511Y-11043398D01*
X51030000Y-10304887D02*
X51030000Y-9780000D01*
%TO.N,Net-(Q3-Pad3)*%
X50038000Y-16956000D02*
X50038000Y-25654000D01*
X50038000Y-25654000D02*
X49530000Y-26162000D01*
%TO.N,Net-(Q5-Pad2)*%
X45278000Y-19263400D02*
X46558200Y-17983200D01*
X45278000Y-20344000D02*
X45278000Y-19263400D01*
%TO.N,Net-(Q5-Pad1)*%
X47520089Y-10773911D02*
X47520089Y-16379689D01*
X48514000Y-9780000D02*
X47520089Y-10773911D01*
X47520089Y-16379689D02*
X48288711Y-17148311D01*
X48288711Y-19233289D02*
X47178000Y-20344000D01*
X48288711Y-17148311D02*
X48288711Y-19233289D01*
%TO.N,Net-(Q5-Pad3)*%
X46228000Y-23344000D02*
X46228000Y-26136000D01*
%TO.N,Net-(Q7-Pad2)*%
X43754000Y-14186000D02*
X43754000Y-11541800D01*
%TO.N,Net-(Q7-Pad1)*%
X45654000Y-14186000D02*
X45654000Y-9906000D01*
X45654000Y-9906000D02*
X45820000Y-9740000D01*
%TO.N,Net-(Q9-Pad1)*%
X42421311Y-19766689D02*
X41590000Y-20598000D01*
X41910000Y-17034487D02*
X42421311Y-17545798D01*
X42421311Y-17545798D02*
X42421311Y-19766689D01*
X41910000Y-9678000D02*
X41910000Y-17034487D01*
%TO.N,Net-(Q7-Pad3)*%
X44704000Y-17186000D02*
X43682831Y-18207169D01*
X43682831Y-18207169D02*
X43682831Y-25887169D01*
X43682831Y-25887169D02*
X43434000Y-26136000D01*
%TO.N,Net-(Q9-Pad3)*%
X40640000Y-25882000D02*
X40894000Y-26136000D01*
X40640000Y-23598000D02*
X40640000Y-25882000D01*
%TO.N,Net-(Q11-Pad1)*%
X39116000Y-9678000D02*
X39812000Y-10374000D01*
X39812000Y-10374000D02*
X39812000Y-14248000D01*
%TO.N,Net-(Q11-Pad2)*%
X37912000Y-12004000D02*
X37912000Y-14248000D01*
%TO.N,Net-(Q11-Pad3)*%
X38100000Y-17796487D02*
X38755244Y-17141243D01*
X38100000Y-26136000D02*
X38100000Y-17796487D01*
%TO.N,Net-(Q13-Pad1)*%
X36528511Y-20071489D02*
X36528511Y-13067824D01*
X36181489Y-12720802D02*
X36181489Y-10072511D01*
X36528511Y-13067824D02*
X36181489Y-12720802D01*
X36181489Y-10072511D02*
X36576000Y-9678000D01*
X36002000Y-20598000D02*
X36528511Y-20071489D01*
%TO.N,Net-(Q13-Pad2)*%
X34102000Y-20598000D02*
X34102000Y-18933200D01*
X34102000Y-18933200D02*
X34798000Y-18237200D01*
%TO.N,Net-(Q13-Pad3)*%
X35052000Y-23598000D02*
X35052000Y-26136000D01*
%TO.N,Net-(Q15-Pad1)*%
X33970000Y-9866000D02*
X33782000Y-9678000D01*
X33970000Y-14248000D02*
X33970000Y-9866000D01*
%TO.N,Net-(Q15-Pad2)*%
X31318200Y-11557000D02*
X31318200Y-13496200D01*
X31318200Y-13496200D02*
X32070000Y-14248000D01*
%TO.N,Net-(Q15-Pad3)*%
X32258000Y-18010000D02*
X32258000Y-26136000D01*
X33020000Y-17248000D02*
X32258000Y-18010000D01*
%TO.N,Net-(Q10-Pad1)*%
X39690000Y-20598000D02*
X39690000Y-19263400D01*
X39690000Y-19263400D02*
X40690800Y-18262600D01*
%TO.N,/D4*%
X53420000Y-6700000D02*
X53410000Y-6710000D01*
X53420000Y-2580000D02*
X53420000Y-6700000D01*
%TO.N,+5V*%
X46254000Y-29262000D02*
X46228000Y-29236000D01*
X35052000Y-29236000D02*
X38100000Y-29236000D01*
X38100000Y-29236000D02*
X40894000Y-29236000D01*
X49530000Y-29262000D02*
X52298000Y-29262000D01*
X31114400Y-30885600D02*
X30500000Y-31500000D01*
X53688000Y-30600000D02*
X52324000Y-29236000D01*
X31114400Y-29236000D02*
X31114400Y-30885600D01*
X59525000Y-32550000D02*
X57575000Y-30600000D01*
X40894000Y-29236000D02*
X43434000Y-29236000D01*
X49530000Y-29262000D02*
X46254000Y-29262000D01*
X43434000Y-29236000D02*
X46228000Y-29236000D01*
X32258000Y-29236000D02*
X31114400Y-29236000D01*
X52298000Y-29262000D02*
X52324000Y-29236000D01*
X57575000Y-30600000D02*
X53688000Y-30600000D01*
X32258000Y-29236000D02*
X35052000Y-29236000D01*
%TO.N,/D5*%
X50880000Y-6530000D02*
X51030000Y-6680000D01*
X50880000Y-2580000D02*
X50880000Y-6530000D01*
%TO.N,/D6*%
X48340000Y-6506000D02*
X48514000Y-6680000D01*
X48340000Y-2580000D02*
X48340000Y-6506000D01*
%TO.N,/D7*%
X45800000Y-6620000D02*
X45820000Y-6640000D01*
X45800000Y-2580000D02*
X45800000Y-6620000D01*
%TO.N,/D8*%
X41560000Y-2580000D02*
X41560000Y-6228000D01*
X41560000Y-6228000D02*
X41910000Y-6578000D01*
%TO.N,/D9*%
X39020000Y-6482000D02*
X39116000Y-6578000D01*
X39020000Y-2580000D02*
X39020000Y-6482000D01*
%TO.N,/D10*%
X36480000Y-2580000D02*
X36480000Y-6482000D01*
X36480000Y-6482000D02*
X36576000Y-6578000D01*
%TO.N,/D11*%
X33940000Y-6420000D02*
X33782000Y-6578000D01*
X33940000Y-2580000D02*
X33940000Y-6420000D01*
%TO.N,/sheet2/A0*%
X29210000Y-48514000D02*
X48514000Y-48514000D01*
X27940000Y-47244000D02*
X29210000Y-48514000D01*
X51360000Y-50500000D02*
X49374000Y-48514000D01*
X49374000Y-48514000D02*
X49276000Y-48514000D01*
X48514000Y-48514000D02*
X49276000Y-48514000D01*
%TO.N,Net-(R74-Pad1)*%
X11100000Y-15750000D02*
X8664000Y-15750000D01*
%TO.N,/sheet2/S1*%
X5308000Y-15494000D02*
X3396000Y-15494000D01*
X2540000Y-17960000D02*
X2500000Y-18000000D01*
X3396000Y-15494000D02*
X2540000Y-16350000D01*
X2540000Y-16350000D02*
X2540000Y-17960000D01*
%TO.N,Net-(R75-Pad1)*%
X9861600Y-10750000D02*
X8408000Y-9296400D01*
X11100000Y-10750000D02*
X9861600Y-10750000D01*
%TO.N,/sheet2/A1*%
X28393313Y-45250000D02*
X30395793Y-47252480D01*
X30395793Y-47252480D02*
X52586480Y-47252480D01*
X20828000Y-43180000D02*
X20828000Y-45719247D01*
X3048000Y-12742000D02*
X2540000Y-13250000D01*
X53900000Y-48566000D02*
X53900000Y-50500000D01*
X3236000Y-11496000D02*
X4638000Y-11496000D01*
X52586480Y-47252480D02*
X53900000Y-48566000D01*
X20828000Y-45719247D02*
X22433753Y-47325000D01*
X4638000Y-11496000D02*
X5412500Y-11496000D01*
X25000000Y-45891247D02*
X25000000Y-45250000D01*
X23566247Y-47325000D02*
X25000000Y-45891247D01*
X17827489Y-11128511D02*
X17827489Y-40179489D01*
X22433753Y-47325000D02*
X23566247Y-47325000D01*
X3048000Y-11684000D02*
X3048000Y-12742000D01*
X18034000Y-10922000D02*
X17827489Y-11128511D01*
X17827489Y-40179489D02*
X20828000Y-43180000D01*
X25000000Y-45250000D02*
X28393313Y-45250000D01*
%TO.N,Net-(R77-Pad1)*%
X8683000Y-24225000D02*
X8408000Y-24500000D01*
X11150000Y-24225000D02*
X8683000Y-24225000D01*
%TO.N,/sheet2/S2*%
X4390600Y-24282400D02*
X5308000Y-24282400D01*
X2794000Y-25879000D02*
X4390600Y-24282400D01*
%TO.N,Net-(R78-Pad1)*%
X9599000Y-19225000D02*
X8408000Y-18034000D01*
X11150000Y-19225000D02*
X9599000Y-19225000D01*
%TO.N,/sheet2/A2*%
X28014000Y-43000000D02*
X31004960Y-45990960D01*
X4431371Y-20300000D02*
X2500000Y-22231371D01*
X22465009Y-43000000D02*
X28014000Y-43000000D01*
X31004960Y-45990960D02*
X53864960Y-45990960D01*
X53864960Y-45990960D02*
X56440000Y-48566000D01*
X19089009Y-39624000D02*
X22465009Y-43000000D01*
X2500000Y-22231371D02*
X2500000Y-23500000D01*
X5250000Y-20300000D02*
X4431371Y-20300000D01*
X56440000Y-48566000D02*
X56440000Y-50500000D01*
X19304000Y-16002000D02*
X19089009Y-16216991D01*
X19089009Y-16216991D02*
X19089009Y-39624000D01*
%TO.N,Net-(R80-Pad1)*%
X11100000Y-32925000D02*
X8553800Y-32925000D01*
X8553800Y-32925000D02*
X8408000Y-33070800D01*
%TO.N,/sheet2/S3*%
X2794000Y-32258000D02*
X4495200Y-32258000D01*
X4495200Y-32258000D02*
X5308000Y-33070800D01*
%TO.N,Net-(R81-Pad1)*%
X11100000Y-27925000D02*
X9652600Y-27925000D01*
X9652600Y-27925000D02*
X8550000Y-26822400D01*
%TO.N,/sheet2/A3*%
X32512000Y-44729440D02*
X53314560Y-44729440D01*
X29521040Y-41738480D02*
X32512000Y-44729440D01*
X53314560Y-44729440D02*
X53340000Y-44704000D01*
X58674000Y-48768000D02*
X58980000Y-49074000D01*
X5250000Y-29050000D02*
X3200000Y-29050000D01*
X21250000Y-19500000D02*
X21000000Y-19500000D01*
X20350529Y-39101462D02*
X22987547Y-41738480D01*
X21000000Y-19500000D02*
X20350529Y-20149471D01*
X20350529Y-20149471D02*
X20350529Y-39101462D01*
X54362058Y-44704000D02*
X58426058Y-48768000D01*
X53340000Y-44704000D02*
X54362058Y-44704000D01*
X22987547Y-41738480D02*
X29521040Y-41738480D01*
X58980000Y-49074000D02*
X58980000Y-50500000D01*
X3200000Y-29050000D02*
X2500000Y-29750000D01*
%TO.N,Net-(R83-Pad1)*%
X8382000Y-42000000D02*
X11075000Y-42000000D01*
X11075000Y-42000000D02*
X11100000Y-42025000D01*
%TO.N,/sheet2/S4*%
X4408600Y-41757600D02*
X5282000Y-41757600D01*
X4875600Y-41962000D02*
X5080000Y-41757600D01*
X2500000Y-39849000D02*
X4408600Y-41757600D01*
%TO.N,Net-(R84-Pad1)*%
X8500000Y-35500000D02*
X9575000Y-35500000D01*
X9575000Y-35500000D02*
X11100000Y-37025000D01*
%TO.N,/sheet2/A4*%
X21612049Y-29387951D02*
X21612049Y-38100000D01*
X61520000Y-48566000D02*
X56388000Y-43434000D01*
X61520000Y-50500000D02*
X61520000Y-48566000D01*
X30043579Y-40476961D02*
X23989009Y-40476960D01*
X33000618Y-43434000D02*
X30043579Y-40476961D01*
X23989009Y-40476960D02*
X21612049Y-38100000D01*
X22500000Y-28500000D02*
X21612049Y-29387951D01*
X56388000Y-43434000D02*
X33000618Y-43434000D01*
X3244600Y-37759600D02*
X2794000Y-37309000D01*
X3244600Y-37759600D02*
X5250000Y-37759600D01*
%TO.N,Net-(R86-Pad1)*%
X8527400Y-51275000D02*
X8408000Y-51155600D01*
X11125000Y-51275000D02*
X8527400Y-51275000D01*
%TO.N,/sheet2/S5*%
X2794000Y-47498000D02*
X2794000Y-49350622D01*
X2794000Y-49350622D02*
X4598978Y-51155600D01*
X4598978Y-51155600D02*
X5308000Y-51155600D01*
%TO.N,Net-(R87-Pad1)*%
X11125000Y-46275000D02*
X10233000Y-46275000D01*
X10233000Y-46275000D02*
X8408000Y-44450000D01*
%TO.N,/sheet2/A5*%
X57649520Y-42172480D02*
X33782000Y-42172480D01*
X33782000Y-42172480D02*
X30824962Y-39215442D01*
X5412500Y-46903600D02*
X4739600Y-46903600D01*
X30824962Y-39215442D02*
X25000000Y-39215441D01*
X64060000Y-50500000D02*
X64060000Y-48058000D01*
X4739600Y-46903600D02*
X2794000Y-44958000D01*
X25000000Y-39215441D02*
X23368000Y-37583441D01*
X58166000Y-42164000D02*
X57658000Y-42164000D01*
X57658000Y-42164000D02*
X57649520Y-42172480D01*
X23368000Y-37583441D02*
X23368000Y-37084000D01*
X64060000Y-48058000D02*
X58166000Y-42164000D01*
%TO.N,Net-(R90-Pad1)*%
X5430000Y-3545000D02*
X6750000Y-2225000D01*
X2794000Y-6096000D02*
X5345000Y-3545000D01*
X5345000Y-3545000D02*
X5407280Y-3482720D01*
X5345000Y-3545000D02*
X5430000Y-3545000D01*
X6750000Y-2225000D02*
X12700000Y-2225000D01*
X12700000Y-2225000D02*
X15800000Y-5325000D01*
X15800000Y-5325000D02*
X15800000Y-6875000D01*
%TO.N,/sheet2/A6*%
X19812000Y-8636000D02*
X19812000Y-13312000D01*
X24130000Y-27380000D02*
X25375000Y-28625000D01*
X62992000Y-45205942D02*
X62992000Y-43688000D01*
X66600000Y-48813942D02*
X62992000Y-45205942D01*
X62992000Y-43688000D02*
X57257921Y-37953921D01*
X8358000Y-7147600D02*
X9497600Y-7147600D01*
X24130000Y-17630000D02*
X24130000Y-27380000D01*
X25375000Y-28625000D02*
X25375000Y-36375000D01*
X19812000Y-13312000D02*
X24130000Y-17630000D01*
X26953921Y-37953921D02*
X25375000Y-36375000D01*
X57257921Y-37953921D02*
X26953921Y-37953921D01*
X9497600Y-7147600D02*
X10800000Y-8450000D01*
X66600000Y-50500000D02*
X66600000Y-48813942D01*
%TO.N,Net-(RV1-Pad2)*%
X5434511Y-13726511D02*
X5104000Y-13396000D01*
X15623489Y-13726511D02*
X5434511Y-13726511D01*
X16100000Y-13250000D02*
X15623489Y-13726511D01*
%TO.N,Net-(RV2-Pad2)*%
X5580511Y-22530511D02*
X10719489Y-22530511D01*
X5250000Y-22200000D02*
X5580511Y-22530511D01*
X10719489Y-22530511D02*
X11725800Y-21524200D01*
X11725800Y-21524200D02*
X15975400Y-21524200D01*
%TO.N,Net-(RV3-Pad2)*%
X9775000Y-31280511D02*
X10630511Y-30425000D01*
X5250000Y-30950000D02*
X5580511Y-31280511D01*
X10630511Y-30425000D02*
X16100000Y-30425000D01*
X5580511Y-31280511D02*
X9775000Y-31280511D01*
%TO.N,Net-(RV4-Pad2)*%
X15634889Y-39990111D02*
X16100000Y-39525000D01*
X5250000Y-39659600D02*
X5580511Y-39990111D01*
X5580511Y-39990111D02*
X15634889Y-39990111D01*
%TO.N,Net-(RV5-Pad2)*%
X5815920Y-49261520D02*
X15638480Y-49261520D01*
X5358000Y-48803600D02*
X5815920Y-49261520D01*
X15638480Y-49261520D02*
X16125000Y-48775000D01*
%TO.N,Net-(RV6-Pad2)*%
X8225000Y-5247600D02*
X9941600Y-5247600D01*
X9941600Y-5247600D02*
X10820400Y-4368800D01*
%TD*%
%TA.AperFunction,Conductor*%
%TO.N,+5V*%
G36*
X68414121Y-27706002D02*
G01*
X68460614Y-27759658D01*
X68472000Y-27812000D01*
X68472000Y-43046082D01*
X68451998Y-43114203D01*
X68398342Y-43160696D01*
X68328068Y-43170800D01*
X68263488Y-43141306D01*
X68251268Y-43129160D01*
X68070623Y-42923175D01*
X68067914Y-42920086D01*
X68047167Y-42901891D01*
X67845715Y-42725221D01*
X67845709Y-42725217D01*
X67842615Y-42722503D01*
X67839189Y-42720214D01*
X67839184Y-42720210D01*
X67596886Y-42558312D01*
X67593453Y-42556018D01*
X67589754Y-42554194D01*
X67589749Y-42554191D01*
X67451978Y-42486251D01*
X67324691Y-42423480D01*
X67320785Y-42422154D01*
X67044837Y-42328482D01*
X67044834Y-42328481D01*
X67040930Y-42327156D01*
X67036891Y-42326353D01*
X67036885Y-42326351D01*
X66751066Y-42269498D01*
X66751063Y-42269498D01*
X66747023Y-42268694D01*
X66742912Y-42268425D01*
X66742908Y-42268424D01*
X66452119Y-42249365D01*
X66448000Y-42249095D01*
X66443881Y-42249365D01*
X66153092Y-42268424D01*
X66153088Y-42268425D01*
X66148977Y-42268694D01*
X66144937Y-42269498D01*
X66144934Y-42269498D01*
X65859115Y-42326351D01*
X65859109Y-42326353D01*
X65855070Y-42327156D01*
X65851166Y-42328481D01*
X65851163Y-42328482D01*
X65575215Y-42422154D01*
X65571309Y-42423480D01*
X65444150Y-42486188D01*
X65306252Y-42554191D01*
X65306247Y-42554194D01*
X65302548Y-42556018D01*
X65299115Y-42558312D01*
X65056816Y-42720210D01*
X65056811Y-42720214D01*
X65053385Y-42722503D01*
X65050291Y-42725217D01*
X65050285Y-42725221D01*
X64848833Y-42901891D01*
X64828086Y-42920086D01*
X64825377Y-42923175D01*
X64633221Y-43142285D01*
X64633217Y-43142291D01*
X64630503Y-43145385D01*
X64628214Y-43148811D01*
X64628210Y-43148816D01*
X64553598Y-43260481D01*
X64464018Y-43394548D01*
X64462194Y-43398247D01*
X64462191Y-43398252D01*
X64406869Y-43510434D01*
X64331480Y-43663309D01*
X64330154Y-43667214D01*
X64330154Y-43667215D01*
X64247909Y-43909502D01*
X64235156Y-43947070D01*
X64234353Y-43951109D01*
X64234351Y-43951115D01*
X64183310Y-44207717D01*
X64176694Y-44240977D01*
X64176425Y-44245088D01*
X64176424Y-44245092D01*
X64164247Y-44430884D01*
X64157095Y-44540000D01*
X64157365Y-44544119D01*
X64175397Y-44819235D01*
X64159893Y-44888518D01*
X64109393Y-44938421D01*
X64039931Y-44953099D01*
X63973559Y-44927893D01*
X63960572Y-44916571D01*
X63918405Y-44874404D01*
X63884379Y-44812092D01*
X63881500Y-44785309D01*
X63881500Y-43767925D01*
X63883051Y-43748214D01*
X63884142Y-43741327D01*
X63884142Y-43741325D01*
X63885174Y-43734810D01*
X63884558Y-43723039D01*
X63881673Y-43668008D01*
X63881500Y-43661414D01*
X63881500Y-43641380D01*
X63879406Y-43621454D01*
X63878889Y-43614880D01*
X63875734Y-43554681D01*
X63875734Y-43554678D01*
X63875388Y-43548085D01*
X63871876Y-43534977D01*
X63868275Y-43515544D01*
X63867546Y-43508614D01*
X63867545Y-43508610D01*
X63866855Y-43502044D01*
X63846178Y-43438408D01*
X63844307Y-43432091D01*
X63828703Y-43373855D01*
X63826994Y-43367475D01*
X63823994Y-43361587D01*
X63820834Y-43355385D01*
X63813269Y-43337121D01*
X63811119Y-43330504D01*
X63811117Y-43330499D01*
X63809075Y-43324215D01*
X63775624Y-43266276D01*
X63772478Y-43260481D01*
X63745106Y-43206762D01*
X63745104Y-43206759D01*
X63742106Y-43200875D01*
X63737948Y-43195740D01*
X63733567Y-43190329D01*
X63722372Y-43174041D01*
X63718900Y-43168027D01*
X63715585Y-43162285D01*
X63698378Y-43143174D01*
X63670827Y-43112576D01*
X63666543Y-43107561D01*
X63656012Y-43094556D01*
X63656009Y-43094552D01*
X63653937Y-43091994D01*
X63639790Y-43077847D01*
X63635249Y-43073063D01*
X63594885Y-43028234D01*
X63594883Y-43028233D01*
X63590470Y-43023331D01*
X63579482Y-43015348D01*
X63564454Y-43002511D01*
X57943410Y-37381467D01*
X57930573Y-37366439D01*
X57922590Y-37355451D01*
X57872858Y-37310672D01*
X57868074Y-37306131D01*
X57853927Y-37291984D01*
X57838367Y-37279384D01*
X57833346Y-37275096D01*
X57788540Y-37234751D01*
X57788536Y-37234748D01*
X57783636Y-37230336D01*
X57777926Y-37227040D01*
X57777923Y-37227037D01*
X57771876Y-37223546D01*
X57755591Y-37212353D01*
X57751607Y-37209127D01*
X57745046Y-37203814D01*
X57685441Y-37173444D01*
X57679645Y-37170297D01*
X57673896Y-37166978D01*
X57621706Y-37136846D01*
X57608796Y-37132651D01*
X57590537Y-37125088D01*
X57578445Y-37118927D01*
X57513827Y-37101612D01*
X57507503Y-37099739D01*
X57498902Y-37096944D01*
X57443877Y-37079066D01*
X57437310Y-37078376D01*
X57437306Y-37078375D01*
X57431633Y-37077779D01*
X57430391Y-37077649D01*
X57410949Y-37074046D01*
X57397836Y-37070532D01*
X57391239Y-37070186D01*
X57391237Y-37070186D01*
X57331034Y-37067031D01*
X57324460Y-37066514D01*
X57307816Y-37064765D01*
X57307812Y-37064765D01*
X57304541Y-37064421D01*
X57284514Y-37064421D01*
X57277920Y-37064248D01*
X57217703Y-37061092D01*
X57217699Y-37061092D01*
X57211111Y-37060747D01*
X57204596Y-37061779D01*
X57204594Y-37061779D01*
X57197707Y-37062870D01*
X57177996Y-37064421D01*
X27374554Y-37064421D01*
X27306433Y-37044419D01*
X27285459Y-37027516D01*
X26301405Y-36043462D01*
X26267379Y-35981150D01*
X26264500Y-35954367D01*
X26264500Y-35272695D01*
X27593251Y-35272695D01*
X27593548Y-35277848D01*
X27593548Y-35277851D01*
X27604701Y-35471284D01*
X27606110Y-35495715D01*
X27607247Y-35500761D01*
X27607248Y-35500767D01*
X27611082Y-35517777D01*
X27655222Y-35713639D01*
X27705500Y-35837459D01*
X27734635Y-35909210D01*
X27739266Y-35920616D01*
X27776361Y-35981150D01*
X27853291Y-36106688D01*
X27855987Y-36111088D01*
X28002250Y-36279938D01*
X28174126Y-36422632D01*
X28367000Y-36535338D01*
X28371825Y-36537180D01*
X28371826Y-36537181D01*
X28431575Y-36559997D01*
X28575692Y-36615030D01*
X28580760Y-36616061D01*
X28580763Y-36616062D01*
X28678403Y-36635927D01*
X28794597Y-36659567D01*
X28799772Y-36659757D01*
X28799774Y-36659757D01*
X29012673Y-36667564D01*
X29012677Y-36667564D01*
X29017837Y-36667753D01*
X29022957Y-36667097D01*
X29022959Y-36667097D01*
X29234288Y-36640025D01*
X29234289Y-36640025D01*
X29239416Y-36639368D01*
X29244366Y-36637883D01*
X29448429Y-36576661D01*
X29448434Y-36576659D01*
X29453384Y-36575174D01*
X29653994Y-36476896D01*
X29835860Y-36347173D01*
X29994096Y-36189489D01*
X30053594Y-36106689D01*
X30124453Y-36008077D01*
X30125776Y-36009028D01*
X30172645Y-35965857D01*
X30242580Y-35953625D01*
X30308026Y-35981144D01*
X30335875Y-36012994D01*
X30395987Y-36111088D01*
X30542250Y-36279938D01*
X30714126Y-36422632D01*
X30907000Y-36535338D01*
X30911825Y-36537180D01*
X30911826Y-36537181D01*
X30971575Y-36559997D01*
X31115692Y-36615030D01*
X31120760Y-36616061D01*
X31120763Y-36616062D01*
X31218403Y-36635927D01*
X31334597Y-36659567D01*
X31339772Y-36659757D01*
X31339774Y-36659757D01*
X31552673Y-36667564D01*
X31552677Y-36667564D01*
X31557837Y-36667753D01*
X31562957Y-36667097D01*
X31562959Y-36667097D01*
X31774288Y-36640025D01*
X31774289Y-36640025D01*
X31779416Y-36639368D01*
X31784366Y-36637883D01*
X31988429Y-36576661D01*
X31988434Y-36576659D01*
X31993384Y-36575174D01*
X32193994Y-36476896D01*
X32375860Y-36347173D01*
X32534096Y-36189489D01*
X32593594Y-36106689D01*
X32664453Y-36008077D01*
X32665776Y-36009028D01*
X32712645Y-35965857D01*
X32782580Y-35953625D01*
X32848026Y-35981144D01*
X32875875Y-36012994D01*
X32935987Y-36111088D01*
X33082250Y-36279938D01*
X33254126Y-36422632D01*
X33447000Y-36535338D01*
X33451825Y-36537180D01*
X33451826Y-36537181D01*
X33511575Y-36559997D01*
X33655692Y-36615030D01*
X33660760Y-36616061D01*
X33660763Y-36616062D01*
X33758403Y-36635927D01*
X33874597Y-36659567D01*
X33879772Y-36659757D01*
X33879774Y-36659757D01*
X34092673Y-36667564D01*
X34092677Y-36667564D01*
X34097837Y-36667753D01*
X34102957Y-36667097D01*
X34102959Y-36667097D01*
X34314288Y-36640025D01*
X34314289Y-36640025D01*
X34319416Y-36639368D01*
X34324366Y-36637883D01*
X34528429Y-36576661D01*
X34528434Y-36576659D01*
X34533384Y-36575174D01*
X34733994Y-36476896D01*
X34915860Y-36347173D01*
X35074096Y-36189489D01*
X35133594Y-36106689D01*
X35204453Y-36008077D01*
X35205776Y-36009028D01*
X35252645Y-35965857D01*
X35322580Y-35953625D01*
X35388026Y-35981144D01*
X35415875Y-36012994D01*
X35475987Y-36111088D01*
X35622250Y-36279938D01*
X35794126Y-36422632D01*
X35987000Y-36535338D01*
X35991825Y-36537180D01*
X35991826Y-36537181D01*
X36051575Y-36559997D01*
X36195692Y-36615030D01*
X36200760Y-36616061D01*
X36200763Y-36616062D01*
X36298403Y-36635927D01*
X36414597Y-36659567D01*
X36419772Y-36659757D01*
X36419774Y-36659757D01*
X36632673Y-36667564D01*
X36632677Y-36667564D01*
X36637837Y-36667753D01*
X36642957Y-36667097D01*
X36642959Y-36667097D01*
X36854288Y-36640025D01*
X36854289Y-36640025D01*
X36859416Y-36639368D01*
X36864366Y-36637883D01*
X37068429Y-36576661D01*
X37068434Y-36576659D01*
X37073384Y-36575174D01*
X37273994Y-36476896D01*
X37455860Y-36347173D01*
X37614096Y-36189489D01*
X37673594Y-36106689D01*
X37744453Y-36008077D01*
X37745776Y-36009028D01*
X37792645Y-35965857D01*
X37862580Y-35953625D01*
X37928026Y-35981144D01*
X37955875Y-36012994D01*
X38015987Y-36111088D01*
X38162250Y-36279938D01*
X38334126Y-36422632D01*
X38527000Y-36535338D01*
X38531825Y-36537180D01*
X38531826Y-36537181D01*
X38591575Y-36559997D01*
X38735692Y-36615030D01*
X38740760Y-36616061D01*
X38740763Y-36616062D01*
X38838403Y-36635927D01*
X38954597Y-36659567D01*
X38959772Y-36659757D01*
X38959774Y-36659757D01*
X39172673Y-36667564D01*
X39172677Y-36667564D01*
X39177837Y-36667753D01*
X39182957Y-36667097D01*
X39182959Y-36667097D01*
X39394288Y-36640025D01*
X39394289Y-36640025D01*
X39399416Y-36639368D01*
X39404366Y-36637883D01*
X39608429Y-36576661D01*
X39608434Y-36576659D01*
X39613384Y-36575174D01*
X39813994Y-36476896D01*
X39995860Y-36347173D01*
X40154096Y-36189489D01*
X40213594Y-36106689D01*
X40284453Y-36008077D01*
X40285776Y-36009028D01*
X40332645Y-35965857D01*
X40402580Y-35953625D01*
X40468026Y-35981144D01*
X40495875Y-36012994D01*
X40555987Y-36111088D01*
X40702250Y-36279938D01*
X40874126Y-36422632D01*
X41067000Y-36535338D01*
X41071825Y-36537180D01*
X41071826Y-36537181D01*
X41131575Y-36559997D01*
X41275692Y-36615030D01*
X41280760Y-36616061D01*
X41280763Y-36616062D01*
X41378403Y-36635927D01*
X41494597Y-36659567D01*
X41499772Y-36659757D01*
X41499774Y-36659757D01*
X41712673Y-36667564D01*
X41712677Y-36667564D01*
X41717837Y-36667753D01*
X41722957Y-36667097D01*
X41722959Y-36667097D01*
X41934288Y-36640025D01*
X41934289Y-36640025D01*
X41939416Y-36639368D01*
X41944366Y-36637883D01*
X42148429Y-36576661D01*
X42148434Y-36576659D01*
X42153384Y-36575174D01*
X42353994Y-36476896D01*
X42535860Y-36347173D01*
X42694096Y-36189489D01*
X42753594Y-36106689D01*
X42824453Y-36008077D01*
X42825776Y-36009028D01*
X42872645Y-35965857D01*
X42942580Y-35953625D01*
X43008026Y-35981144D01*
X43035875Y-36012994D01*
X43095987Y-36111088D01*
X43242250Y-36279938D01*
X43414126Y-36422632D01*
X43607000Y-36535338D01*
X43611825Y-36537180D01*
X43611826Y-36537181D01*
X43671575Y-36559997D01*
X43815692Y-36615030D01*
X43820760Y-36616061D01*
X43820763Y-36616062D01*
X43918403Y-36635927D01*
X44034597Y-36659567D01*
X44039772Y-36659757D01*
X44039774Y-36659757D01*
X44252673Y-36667564D01*
X44252677Y-36667564D01*
X44257837Y-36667753D01*
X44262957Y-36667097D01*
X44262959Y-36667097D01*
X44474288Y-36640025D01*
X44474289Y-36640025D01*
X44479416Y-36639368D01*
X44484366Y-36637883D01*
X44688429Y-36576661D01*
X44688434Y-36576659D01*
X44693384Y-36575174D01*
X44893994Y-36476896D01*
X45075860Y-36347173D01*
X45234096Y-36189489D01*
X45293594Y-36106689D01*
X45364453Y-36008077D01*
X45365776Y-36009028D01*
X45412645Y-35965857D01*
X45482580Y-35953625D01*
X45548026Y-35981144D01*
X45575875Y-36012994D01*
X45635987Y-36111088D01*
X45782250Y-36279938D01*
X45954126Y-36422632D01*
X46147000Y-36535338D01*
X46151825Y-36537180D01*
X46151826Y-36537181D01*
X46211575Y-36559997D01*
X46355692Y-36615030D01*
X46360760Y-36616061D01*
X46360763Y-36616062D01*
X46458403Y-36635927D01*
X46574597Y-36659567D01*
X46579772Y-36659757D01*
X46579774Y-36659757D01*
X46792673Y-36667564D01*
X46792677Y-36667564D01*
X46797837Y-36667753D01*
X46802957Y-36667097D01*
X46802959Y-36667097D01*
X47014288Y-36640025D01*
X47014289Y-36640025D01*
X47019416Y-36639368D01*
X47024366Y-36637883D01*
X47228429Y-36576661D01*
X47228434Y-36576659D01*
X47233384Y-36575174D01*
X47433994Y-36476896D01*
X47615860Y-36347173D01*
X47774096Y-36189489D01*
X47833594Y-36106689D01*
X47904453Y-36008077D01*
X47905776Y-36009028D01*
X47952645Y-35965857D01*
X48022580Y-35953625D01*
X48088026Y-35981144D01*
X48115875Y-36012994D01*
X48175987Y-36111088D01*
X48322250Y-36279938D01*
X48494126Y-36422632D01*
X48687000Y-36535338D01*
X48691825Y-36537180D01*
X48691826Y-36537181D01*
X48751575Y-36559997D01*
X48895692Y-36615030D01*
X48900760Y-36616061D01*
X48900763Y-36616062D01*
X48998403Y-36635927D01*
X49114597Y-36659567D01*
X49119772Y-36659757D01*
X49119774Y-36659757D01*
X49332673Y-36667564D01*
X49332677Y-36667564D01*
X49337837Y-36667753D01*
X49342957Y-36667097D01*
X49342959Y-36667097D01*
X49554288Y-36640025D01*
X49554289Y-36640025D01*
X49559416Y-36639368D01*
X49564366Y-36637883D01*
X49768429Y-36576661D01*
X49768434Y-36576659D01*
X49773384Y-36575174D01*
X49973994Y-36476896D01*
X50155860Y-36347173D01*
X50314096Y-36189489D01*
X50373594Y-36106689D01*
X50444453Y-36008077D01*
X50445776Y-36009028D01*
X50492645Y-35965857D01*
X50562580Y-35953625D01*
X50628026Y-35981144D01*
X50655875Y-36012994D01*
X50715987Y-36111088D01*
X50862250Y-36279938D01*
X51034126Y-36422632D01*
X51227000Y-36535338D01*
X51231825Y-36537180D01*
X51231826Y-36537181D01*
X51291575Y-36559997D01*
X51435692Y-36615030D01*
X51440760Y-36616061D01*
X51440763Y-36616062D01*
X51538403Y-36635927D01*
X51654597Y-36659567D01*
X51659772Y-36659757D01*
X51659774Y-36659757D01*
X51872673Y-36667564D01*
X51872677Y-36667564D01*
X51877837Y-36667753D01*
X51882957Y-36667097D01*
X51882959Y-36667097D01*
X52094288Y-36640025D01*
X52094289Y-36640025D01*
X52099416Y-36639368D01*
X52104366Y-36637883D01*
X52308429Y-36576661D01*
X52308434Y-36576659D01*
X52313384Y-36575174D01*
X52513994Y-36476896D01*
X52695860Y-36347173D01*
X52854096Y-36189489D01*
X52913594Y-36106689D01*
X52984453Y-36008077D01*
X52985776Y-36009028D01*
X53032645Y-35965857D01*
X53102580Y-35953625D01*
X53168026Y-35981144D01*
X53195875Y-36012994D01*
X53255987Y-36111088D01*
X53402250Y-36279938D01*
X53574126Y-36422632D01*
X53767000Y-36535338D01*
X53771825Y-36537180D01*
X53771826Y-36537181D01*
X53831575Y-36559997D01*
X53975692Y-36615030D01*
X53980760Y-36616061D01*
X53980763Y-36616062D01*
X54078403Y-36635927D01*
X54194597Y-36659567D01*
X54199772Y-36659757D01*
X54199774Y-36659757D01*
X54412673Y-36667564D01*
X54412677Y-36667564D01*
X54417837Y-36667753D01*
X54422957Y-36667097D01*
X54422959Y-36667097D01*
X54634288Y-36640025D01*
X54634289Y-36640025D01*
X54639416Y-36639368D01*
X54644366Y-36637883D01*
X54848429Y-36576661D01*
X54848434Y-36576659D01*
X54853384Y-36575174D01*
X55053994Y-36476896D01*
X55235860Y-36347173D01*
X55394096Y-36189489D01*
X55453594Y-36106689D01*
X55524453Y-36008077D01*
X55525776Y-36009028D01*
X55572645Y-35965857D01*
X55642580Y-35953625D01*
X55708026Y-35981144D01*
X55735875Y-36012994D01*
X55795987Y-36111088D01*
X55942250Y-36279938D01*
X56114126Y-36422632D01*
X56307000Y-36535338D01*
X56311825Y-36537180D01*
X56311826Y-36537181D01*
X56371575Y-36559997D01*
X56515692Y-36615030D01*
X56520760Y-36616061D01*
X56520763Y-36616062D01*
X56618403Y-36635927D01*
X56734597Y-36659567D01*
X56739772Y-36659757D01*
X56739774Y-36659757D01*
X56952673Y-36667564D01*
X56952677Y-36667564D01*
X56957837Y-36667753D01*
X56962957Y-36667097D01*
X56962959Y-36667097D01*
X57174288Y-36640025D01*
X57174289Y-36640025D01*
X57179416Y-36639368D01*
X57184366Y-36637883D01*
X57388429Y-36576661D01*
X57388434Y-36576659D01*
X57393384Y-36575174D01*
X57593994Y-36476896D01*
X57775860Y-36347173D01*
X57934096Y-36189489D01*
X57993594Y-36106689D01*
X58064453Y-36008077D01*
X58065776Y-36009028D01*
X58112645Y-35965857D01*
X58182580Y-35953625D01*
X58248026Y-35981144D01*
X58275875Y-36012994D01*
X58335987Y-36111088D01*
X58482250Y-36279938D01*
X58654126Y-36422632D01*
X58847000Y-36535338D01*
X58851825Y-36537180D01*
X58851826Y-36537181D01*
X58911575Y-36559997D01*
X59055692Y-36615030D01*
X59060760Y-36616061D01*
X59060763Y-36616062D01*
X59158403Y-36635927D01*
X59274597Y-36659567D01*
X59279772Y-36659757D01*
X59279774Y-36659757D01*
X59492673Y-36667564D01*
X59492677Y-36667564D01*
X59497837Y-36667753D01*
X59502957Y-36667097D01*
X59502959Y-36667097D01*
X59714288Y-36640025D01*
X59714289Y-36640025D01*
X59719416Y-36639368D01*
X59724366Y-36637883D01*
X59928429Y-36576661D01*
X59928434Y-36576659D01*
X59933384Y-36575174D01*
X60133994Y-36476896D01*
X60315860Y-36347173D01*
X60424091Y-36239319D01*
X60486462Y-36205404D01*
X60557268Y-36210592D01*
X60614030Y-36253238D01*
X60631012Y-36284341D01*
X60675385Y-36402705D01*
X60762739Y-36519261D01*
X60879295Y-36606615D01*
X61015684Y-36657745D01*
X61077866Y-36664500D01*
X62874134Y-36664500D01*
X62936316Y-36657745D01*
X63072705Y-36606615D01*
X63189261Y-36519261D01*
X63276615Y-36402705D01*
X63327745Y-36266316D01*
X63334500Y-36204134D01*
X63334500Y-34407866D01*
X63327745Y-34345684D01*
X63276615Y-34209295D01*
X63189261Y-34092739D01*
X63072705Y-34005385D01*
X62936316Y-33954255D01*
X62874134Y-33947500D01*
X61077866Y-33947500D01*
X61015684Y-33954255D01*
X60879295Y-34005385D01*
X60762739Y-34092739D01*
X60675385Y-34209295D01*
X60672233Y-34217703D01*
X60630919Y-34327907D01*
X60588277Y-34384671D01*
X60521716Y-34409371D01*
X60452367Y-34394163D01*
X60419743Y-34368476D01*
X60369151Y-34312875D01*
X60369142Y-34312866D01*
X60365670Y-34309051D01*
X60361619Y-34305852D01*
X60361615Y-34305848D01*
X60194414Y-34173800D01*
X60194410Y-34173798D01*
X60190359Y-34170598D01*
X59994789Y-34062638D01*
X59989920Y-34060914D01*
X59989916Y-34060912D01*
X59789087Y-33989795D01*
X59789083Y-33989794D01*
X59784212Y-33988069D01*
X59779119Y-33987162D01*
X59779116Y-33987161D01*
X59569373Y-33949800D01*
X59569367Y-33949799D01*
X59564284Y-33948894D01*
X59490452Y-33947992D01*
X59346081Y-33946228D01*
X59346079Y-33946228D01*
X59340911Y-33946165D01*
X59120091Y-33979955D01*
X58907756Y-34049357D01*
X58709607Y-34152507D01*
X58705474Y-34155610D01*
X58705471Y-34155612D01*
X58535100Y-34283530D01*
X58530965Y-34286635D01*
X58496468Y-34322734D01*
X58437280Y-34384671D01*
X58376629Y-34448138D01*
X58269201Y-34605621D01*
X58214293Y-34650621D01*
X58143768Y-34658792D01*
X58080021Y-34627538D01*
X58059324Y-34603054D01*
X57978822Y-34478617D01*
X57978820Y-34478614D01*
X57976014Y-34474277D01*
X57825670Y-34309051D01*
X57821619Y-34305852D01*
X57821615Y-34305848D01*
X57654414Y-34173800D01*
X57654410Y-34173798D01*
X57650359Y-34170598D01*
X57454789Y-34062638D01*
X57449920Y-34060914D01*
X57449916Y-34060912D01*
X57249087Y-33989795D01*
X57249083Y-33989794D01*
X57244212Y-33988069D01*
X57239119Y-33987162D01*
X57239116Y-33987161D01*
X57029373Y-33949800D01*
X57029367Y-33949799D01*
X57024284Y-33948894D01*
X56950452Y-33947992D01*
X56806081Y-33946228D01*
X56806079Y-33946228D01*
X56800911Y-33946165D01*
X56580091Y-33979955D01*
X56367756Y-34049357D01*
X56169607Y-34152507D01*
X56165474Y-34155610D01*
X56165471Y-34155612D01*
X55995100Y-34283530D01*
X55990965Y-34286635D01*
X55956468Y-34322734D01*
X55897280Y-34384671D01*
X55836629Y-34448138D01*
X55729201Y-34605621D01*
X55674293Y-34650621D01*
X55603768Y-34658792D01*
X55540021Y-34627538D01*
X55519324Y-34603054D01*
X55438822Y-34478617D01*
X55438820Y-34478614D01*
X55436014Y-34474277D01*
X55285670Y-34309051D01*
X55281619Y-34305852D01*
X55281615Y-34305848D01*
X55114414Y-34173800D01*
X55114410Y-34173798D01*
X55110359Y-34170598D01*
X54914789Y-34062638D01*
X54909920Y-34060914D01*
X54909916Y-34060912D01*
X54709087Y-33989795D01*
X54709083Y-33989794D01*
X54704212Y-33988069D01*
X54699119Y-33987162D01*
X54699116Y-33987161D01*
X54489373Y-33949800D01*
X54489367Y-33949799D01*
X54484284Y-33948894D01*
X54410452Y-33947992D01*
X54266081Y-33946228D01*
X54266079Y-33946228D01*
X54260911Y-33946165D01*
X54040091Y-33979955D01*
X53827756Y-34049357D01*
X53629607Y-34152507D01*
X53625474Y-34155610D01*
X53625471Y-34155612D01*
X53455100Y-34283530D01*
X53450965Y-34286635D01*
X53416468Y-34322734D01*
X53357280Y-34384671D01*
X53296629Y-34448138D01*
X53189201Y-34605621D01*
X53134293Y-34650621D01*
X53063768Y-34658792D01*
X53000021Y-34627538D01*
X52979324Y-34603054D01*
X52898822Y-34478617D01*
X52898820Y-34478614D01*
X52896014Y-34474277D01*
X52745670Y-34309051D01*
X52741619Y-34305852D01*
X52741615Y-34305848D01*
X52574414Y-34173800D01*
X52574410Y-34173798D01*
X52570359Y-34170598D01*
X52374789Y-34062638D01*
X52369920Y-34060914D01*
X52369916Y-34060912D01*
X52169087Y-33989795D01*
X52169083Y-33989794D01*
X52164212Y-33988069D01*
X52159119Y-33987162D01*
X52159116Y-33987161D01*
X51949373Y-33949800D01*
X51949367Y-33949799D01*
X51944284Y-33948894D01*
X51870452Y-33947992D01*
X51726081Y-33946228D01*
X51726079Y-33946228D01*
X51720911Y-33946165D01*
X51500091Y-33979955D01*
X51287756Y-34049357D01*
X51089607Y-34152507D01*
X51085474Y-34155610D01*
X51085471Y-34155612D01*
X50915100Y-34283530D01*
X50910965Y-34286635D01*
X50876468Y-34322734D01*
X50817280Y-34384671D01*
X50756629Y-34448138D01*
X50649201Y-34605621D01*
X50594293Y-34650621D01*
X50523768Y-34658792D01*
X50460021Y-34627538D01*
X50439324Y-34603054D01*
X50358822Y-34478617D01*
X50358820Y-34478614D01*
X50356014Y-34474277D01*
X50205670Y-34309051D01*
X50201619Y-34305852D01*
X50201615Y-34305848D01*
X50034414Y-34173800D01*
X50034410Y-34173798D01*
X50030359Y-34170598D01*
X49834789Y-34062638D01*
X49829920Y-34060914D01*
X49829916Y-34060912D01*
X49629087Y-33989795D01*
X49629083Y-33989794D01*
X49624212Y-33988069D01*
X49619119Y-33987162D01*
X49619116Y-33987161D01*
X49409373Y-33949800D01*
X49409367Y-33949799D01*
X49404284Y-33948894D01*
X49330452Y-33947992D01*
X49186081Y-33946228D01*
X49186079Y-33946228D01*
X49180911Y-33946165D01*
X48960091Y-33979955D01*
X48747756Y-34049357D01*
X48549607Y-34152507D01*
X48545474Y-34155610D01*
X48545471Y-34155612D01*
X48375100Y-34283530D01*
X48370965Y-34286635D01*
X48336468Y-34322734D01*
X48277280Y-34384671D01*
X48216629Y-34448138D01*
X48109201Y-34605621D01*
X48054293Y-34650621D01*
X47983768Y-34658792D01*
X47920021Y-34627538D01*
X47899324Y-34603054D01*
X47818822Y-34478617D01*
X47818820Y-34478614D01*
X47816014Y-34474277D01*
X47665670Y-34309051D01*
X47661619Y-34305852D01*
X47661615Y-34305848D01*
X47494414Y-34173800D01*
X47494410Y-34173798D01*
X47490359Y-34170598D01*
X47294789Y-34062638D01*
X47289920Y-34060914D01*
X47289916Y-34060912D01*
X47089087Y-33989795D01*
X47089083Y-33989794D01*
X47084212Y-33988069D01*
X47079119Y-33987162D01*
X47079116Y-33987161D01*
X46869373Y-33949800D01*
X46869367Y-33949799D01*
X46864284Y-33948894D01*
X46790452Y-33947992D01*
X46646081Y-33946228D01*
X46646079Y-33946228D01*
X46640911Y-33946165D01*
X46420091Y-33979955D01*
X46207756Y-34049357D01*
X46009607Y-34152507D01*
X46005474Y-34155610D01*
X46005471Y-34155612D01*
X45835100Y-34283530D01*
X45830965Y-34286635D01*
X45796468Y-34322734D01*
X45737280Y-34384671D01*
X45676629Y-34448138D01*
X45569201Y-34605621D01*
X45514293Y-34650621D01*
X45443768Y-34658792D01*
X45380021Y-34627538D01*
X45359324Y-34603054D01*
X45278822Y-34478617D01*
X45278820Y-34478614D01*
X45276014Y-34474277D01*
X45125670Y-34309051D01*
X45121619Y-34305852D01*
X45121615Y-34305848D01*
X44954414Y-34173800D01*
X44954410Y-34173798D01*
X44950359Y-34170598D01*
X44754789Y-34062638D01*
X44749920Y-34060914D01*
X44749916Y-34060912D01*
X44549087Y-33989795D01*
X44549083Y-33989794D01*
X44544212Y-33988069D01*
X44539119Y-33987162D01*
X44539116Y-33987161D01*
X44329373Y-33949800D01*
X44329367Y-33949799D01*
X44324284Y-33948894D01*
X44250452Y-33947992D01*
X44106081Y-33946228D01*
X44106079Y-33946228D01*
X44100911Y-33946165D01*
X43880091Y-33979955D01*
X43667756Y-34049357D01*
X43469607Y-34152507D01*
X43465474Y-34155610D01*
X43465471Y-34155612D01*
X43295100Y-34283530D01*
X43290965Y-34286635D01*
X43256468Y-34322734D01*
X43197280Y-34384671D01*
X43136629Y-34448138D01*
X43029201Y-34605621D01*
X42974293Y-34650621D01*
X42903768Y-34658792D01*
X42840021Y-34627538D01*
X42819324Y-34603054D01*
X42738822Y-34478617D01*
X42738820Y-34478614D01*
X42736014Y-34474277D01*
X42585670Y-34309051D01*
X42581619Y-34305852D01*
X42581615Y-34305848D01*
X42414414Y-34173800D01*
X42414410Y-34173798D01*
X42410359Y-34170598D01*
X42214789Y-34062638D01*
X42209920Y-34060914D01*
X42209916Y-34060912D01*
X42009087Y-33989795D01*
X42009083Y-33989794D01*
X42004212Y-33988069D01*
X41999119Y-33987162D01*
X41999116Y-33987161D01*
X41789373Y-33949800D01*
X41789367Y-33949799D01*
X41784284Y-33948894D01*
X41710452Y-33947992D01*
X41566081Y-33946228D01*
X41566079Y-33946228D01*
X41560911Y-33946165D01*
X41340091Y-33979955D01*
X41127756Y-34049357D01*
X40929607Y-34152507D01*
X40925474Y-34155610D01*
X40925471Y-34155612D01*
X40755100Y-34283530D01*
X40750965Y-34286635D01*
X40716468Y-34322734D01*
X40657280Y-34384671D01*
X40596629Y-34448138D01*
X40489201Y-34605621D01*
X40434293Y-34650621D01*
X40363768Y-34658792D01*
X40300021Y-34627538D01*
X40279324Y-34603054D01*
X40198822Y-34478617D01*
X40198820Y-34478614D01*
X40196014Y-34474277D01*
X40045670Y-34309051D01*
X40041619Y-34305852D01*
X40041615Y-34305848D01*
X39874414Y-34173800D01*
X39874410Y-34173798D01*
X39870359Y-34170598D01*
X39674789Y-34062638D01*
X39669920Y-34060914D01*
X39669916Y-34060912D01*
X39469087Y-33989795D01*
X39469083Y-33989794D01*
X39464212Y-33988069D01*
X39459119Y-33987162D01*
X39459116Y-33987161D01*
X39249373Y-33949800D01*
X39249367Y-33949799D01*
X39244284Y-33948894D01*
X39170452Y-33947992D01*
X39026081Y-33946228D01*
X39026079Y-33946228D01*
X39020911Y-33946165D01*
X38800091Y-33979955D01*
X38587756Y-34049357D01*
X38389607Y-34152507D01*
X38385474Y-34155610D01*
X38385471Y-34155612D01*
X38215100Y-34283530D01*
X38210965Y-34286635D01*
X38176468Y-34322734D01*
X38117280Y-34384671D01*
X38056629Y-34448138D01*
X37949201Y-34605621D01*
X37894293Y-34650621D01*
X37823768Y-34658792D01*
X37760021Y-34627538D01*
X37739324Y-34603054D01*
X37658822Y-34478617D01*
X37658820Y-34478614D01*
X37656014Y-34474277D01*
X37505670Y-34309051D01*
X37501619Y-34305852D01*
X37501615Y-34305848D01*
X37334414Y-34173800D01*
X37334410Y-34173798D01*
X37330359Y-34170598D01*
X37134789Y-34062638D01*
X37129920Y-34060914D01*
X37129916Y-34060912D01*
X36929087Y-33989795D01*
X36929083Y-33989794D01*
X36924212Y-33988069D01*
X36919119Y-33987162D01*
X36919116Y-33987161D01*
X36709373Y-33949800D01*
X36709367Y-33949799D01*
X36704284Y-33948894D01*
X36630452Y-33947992D01*
X36486081Y-33946228D01*
X36486079Y-33946228D01*
X36480911Y-33946165D01*
X36260091Y-33979955D01*
X36047756Y-34049357D01*
X35849607Y-34152507D01*
X35845474Y-34155610D01*
X35845471Y-34155612D01*
X35675100Y-34283530D01*
X35670965Y-34286635D01*
X35636468Y-34322734D01*
X35577280Y-34384671D01*
X35516629Y-34448138D01*
X35409201Y-34605621D01*
X35354293Y-34650621D01*
X35283768Y-34658792D01*
X35220021Y-34627538D01*
X35199324Y-34603054D01*
X35118822Y-34478617D01*
X35118820Y-34478614D01*
X35116014Y-34474277D01*
X34965670Y-34309051D01*
X34961619Y-34305852D01*
X34961615Y-34305848D01*
X34794414Y-34173800D01*
X34794410Y-34173798D01*
X34790359Y-34170598D01*
X34594789Y-34062638D01*
X34589920Y-34060914D01*
X34589916Y-34060912D01*
X34389087Y-33989795D01*
X34389083Y-33989794D01*
X34384212Y-33988069D01*
X34379119Y-33987162D01*
X34379116Y-33987161D01*
X34169373Y-33949800D01*
X34169367Y-33949799D01*
X34164284Y-33948894D01*
X34090452Y-33947992D01*
X33946081Y-33946228D01*
X33946079Y-33946228D01*
X33940911Y-33946165D01*
X33720091Y-33979955D01*
X33507756Y-34049357D01*
X33309607Y-34152507D01*
X33305474Y-34155610D01*
X33305471Y-34155612D01*
X33135100Y-34283530D01*
X33130965Y-34286635D01*
X33096468Y-34322734D01*
X33037280Y-34384671D01*
X32976629Y-34448138D01*
X32869201Y-34605621D01*
X32814293Y-34650621D01*
X32743768Y-34658792D01*
X32680021Y-34627538D01*
X32659324Y-34603054D01*
X32578822Y-34478617D01*
X32578820Y-34478614D01*
X32576014Y-34474277D01*
X32425670Y-34309051D01*
X32421619Y-34305852D01*
X32421615Y-34305848D01*
X32254414Y-34173800D01*
X32254410Y-34173798D01*
X32250359Y-34170598D01*
X32054789Y-34062638D01*
X32049920Y-34060914D01*
X32049916Y-34060912D01*
X31849087Y-33989795D01*
X31849083Y-33989794D01*
X31844212Y-33988069D01*
X31839119Y-33987162D01*
X31839116Y-33987161D01*
X31629373Y-33949800D01*
X31629367Y-33949799D01*
X31624284Y-33948894D01*
X31550452Y-33947992D01*
X31406081Y-33946228D01*
X31406079Y-33946228D01*
X31400911Y-33946165D01*
X31180091Y-33979955D01*
X30967756Y-34049357D01*
X30769607Y-34152507D01*
X30765474Y-34155610D01*
X30765471Y-34155612D01*
X30595100Y-34283530D01*
X30590965Y-34286635D01*
X30556468Y-34322734D01*
X30497280Y-34384671D01*
X30436629Y-34448138D01*
X30329201Y-34605621D01*
X30274293Y-34650621D01*
X30203768Y-34658792D01*
X30140021Y-34627538D01*
X30119324Y-34603054D01*
X30038822Y-34478617D01*
X30038820Y-34478614D01*
X30036014Y-34474277D01*
X29885670Y-34309051D01*
X29881619Y-34305852D01*
X29881615Y-34305848D01*
X29714414Y-34173800D01*
X29714410Y-34173798D01*
X29710359Y-34170598D01*
X29514789Y-34062638D01*
X29509920Y-34060914D01*
X29509916Y-34060912D01*
X29309087Y-33989795D01*
X29309083Y-33989794D01*
X29304212Y-33988069D01*
X29299119Y-33987162D01*
X29299116Y-33987161D01*
X29089373Y-33949800D01*
X29089367Y-33949799D01*
X29084284Y-33948894D01*
X29010452Y-33947992D01*
X28866081Y-33946228D01*
X28866079Y-33946228D01*
X28860911Y-33946165D01*
X28640091Y-33979955D01*
X28427756Y-34049357D01*
X28229607Y-34152507D01*
X28225474Y-34155610D01*
X28225471Y-34155612D01*
X28055100Y-34283530D01*
X28050965Y-34286635D01*
X28016468Y-34322734D01*
X27957280Y-34384671D01*
X27896629Y-34448138D01*
X27893720Y-34452403D01*
X27893714Y-34452411D01*
X27820861Y-34559210D01*
X27770743Y-34632680D01*
X27742592Y-34693327D01*
X27680164Y-34827817D01*
X27676688Y-34835305D01*
X27616989Y-35050570D01*
X27593251Y-35272695D01*
X26264500Y-35272695D01*
X26264500Y-29683095D01*
X30875001Y-29683095D01*
X30875338Y-29689614D01*
X30885257Y-29785206D01*
X30888149Y-29798600D01*
X30939588Y-29952784D01*
X30945761Y-29965962D01*
X31031063Y-30103807D01*
X31040099Y-30115208D01*
X31154829Y-30229739D01*
X31166240Y-30238751D01*
X31304243Y-30323816D01*
X31317424Y-30329963D01*
X31471710Y-30381138D01*
X31485086Y-30384005D01*
X31579438Y-30393672D01*
X31585854Y-30394000D01*
X31985885Y-30394000D01*
X32001124Y-30389525D01*
X32002329Y-30388135D01*
X32004000Y-30380452D01*
X32004000Y-30375884D01*
X32512000Y-30375884D01*
X32516475Y-30391123D01*
X32517865Y-30392328D01*
X32525548Y-30393999D01*
X32930095Y-30393999D01*
X32936614Y-30393662D01*
X33032206Y-30383743D01*
X33045600Y-30380851D01*
X33199784Y-30329412D01*
X33212962Y-30323239D01*
X33350807Y-30237937D01*
X33362208Y-30228901D01*
X33476739Y-30114171D01*
X33485751Y-30102760D01*
X33547702Y-30002257D01*
X33600474Y-29954764D01*
X33670546Y-29943340D01*
X33735670Y-29971614D01*
X33762106Y-30002070D01*
X33825063Y-30103807D01*
X33834099Y-30115208D01*
X33948829Y-30229739D01*
X33960240Y-30238751D01*
X34098243Y-30323816D01*
X34111424Y-30329963D01*
X34265710Y-30381138D01*
X34279086Y-30384005D01*
X34373438Y-30393672D01*
X34379854Y-30394000D01*
X34779885Y-30394000D01*
X34795124Y-30389525D01*
X34796329Y-30388135D01*
X34798000Y-30380452D01*
X34798000Y-30375884D01*
X35306000Y-30375884D01*
X35310475Y-30391123D01*
X35311865Y-30392328D01*
X35319548Y-30393999D01*
X35724095Y-30393999D01*
X35730614Y-30393662D01*
X35826206Y-30383743D01*
X35839600Y-30380851D01*
X35993784Y-30329412D01*
X36006962Y-30323239D01*
X36144807Y-30237937D01*
X36156208Y-30228901D01*
X36270739Y-30114171D01*
X36279751Y-30102760D01*
X36364816Y-29964757D01*
X36370963Y-29951576D01*
X36422138Y-29797290D01*
X36425005Y-29783914D01*
X36434672Y-29689562D01*
X36435000Y-29683146D01*
X36435000Y-29683095D01*
X36717001Y-29683095D01*
X36717338Y-29689614D01*
X36727257Y-29785206D01*
X36730149Y-29798600D01*
X36781588Y-29952784D01*
X36787761Y-29965962D01*
X36873063Y-30103807D01*
X36882099Y-30115208D01*
X36996829Y-30229739D01*
X37008240Y-30238751D01*
X37146243Y-30323816D01*
X37159424Y-30329963D01*
X37313710Y-30381138D01*
X37327086Y-30384005D01*
X37421438Y-30393672D01*
X37427854Y-30394000D01*
X37827885Y-30394000D01*
X37843124Y-30389525D01*
X37844329Y-30388135D01*
X37846000Y-30380452D01*
X37846000Y-30375884D01*
X38354000Y-30375884D01*
X38358475Y-30391123D01*
X38359865Y-30392328D01*
X38367548Y-30393999D01*
X38772095Y-30393999D01*
X38778614Y-30393662D01*
X38874206Y-30383743D01*
X38887600Y-30380851D01*
X39041784Y-30329412D01*
X39054962Y-30323239D01*
X39192807Y-30237937D01*
X39204208Y-30228901D01*
X39318739Y-30114171D01*
X39327751Y-30102760D01*
X39389702Y-30002257D01*
X39442474Y-29954764D01*
X39512546Y-29943340D01*
X39577670Y-29971614D01*
X39604106Y-30002070D01*
X39667063Y-30103807D01*
X39676099Y-30115208D01*
X39790829Y-30229739D01*
X39802240Y-30238751D01*
X39940243Y-30323816D01*
X39953424Y-30329963D01*
X40107710Y-30381138D01*
X40121086Y-30384005D01*
X40215438Y-30393672D01*
X40221854Y-30394000D01*
X40621885Y-30394000D01*
X40637124Y-30389525D01*
X40638329Y-30388135D01*
X40640000Y-30380452D01*
X40640000Y-30375884D01*
X41148000Y-30375884D01*
X41152475Y-30391123D01*
X41153865Y-30392328D01*
X41161548Y-30393999D01*
X41566095Y-30393999D01*
X41572614Y-30393662D01*
X41668206Y-30383743D01*
X41681600Y-30380851D01*
X41835784Y-30329412D01*
X41848962Y-30323239D01*
X41986807Y-30237937D01*
X41998208Y-30228901D01*
X42074792Y-30152183D01*
X42137074Y-30118104D01*
X42207894Y-30123107D01*
X42252983Y-30152028D01*
X42330829Y-30229739D01*
X42342240Y-30238751D01*
X42480243Y-30323816D01*
X42493424Y-30329963D01*
X42647710Y-30381138D01*
X42661086Y-30384005D01*
X42755438Y-30393672D01*
X42761854Y-30394000D01*
X43161885Y-30394000D01*
X43177124Y-30389525D01*
X43178329Y-30388135D01*
X43180000Y-30380452D01*
X43180000Y-30375884D01*
X43688000Y-30375884D01*
X43692475Y-30391123D01*
X43693865Y-30392328D01*
X43701548Y-30393999D01*
X44106095Y-30393999D01*
X44112614Y-30393662D01*
X44208206Y-30383743D01*
X44221600Y-30380851D01*
X44375784Y-30329412D01*
X44388962Y-30323239D01*
X44526807Y-30237937D01*
X44538208Y-30228901D01*
X44652739Y-30114171D01*
X44661751Y-30102760D01*
X44723702Y-30002257D01*
X44776474Y-29954764D01*
X44846546Y-29943340D01*
X44911670Y-29971614D01*
X44938106Y-30002070D01*
X45001063Y-30103807D01*
X45010099Y-30115208D01*
X45124829Y-30229739D01*
X45136240Y-30238751D01*
X45274243Y-30323816D01*
X45287424Y-30329963D01*
X45441710Y-30381138D01*
X45455086Y-30384005D01*
X45549438Y-30393672D01*
X45555854Y-30394000D01*
X45955885Y-30394000D01*
X45971124Y-30389525D01*
X45972329Y-30388135D01*
X45974000Y-30380452D01*
X45974000Y-30375884D01*
X46482000Y-30375884D01*
X46486475Y-30391123D01*
X46487865Y-30392328D01*
X46495548Y-30393999D01*
X46900095Y-30393999D01*
X46906614Y-30393662D01*
X47002206Y-30383743D01*
X47015600Y-30380851D01*
X47169784Y-30329412D01*
X47182962Y-30323239D01*
X47320807Y-30237937D01*
X47332208Y-30228901D01*
X47446739Y-30114171D01*
X47455751Y-30102760D01*
X47540816Y-29964757D01*
X47546963Y-29951576D01*
X47598138Y-29797290D01*
X47601005Y-29783914D01*
X47608671Y-29709095D01*
X48147001Y-29709095D01*
X48147338Y-29715614D01*
X48157257Y-29811206D01*
X48160149Y-29824600D01*
X48211588Y-29978784D01*
X48217761Y-29991962D01*
X48303063Y-30129807D01*
X48312099Y-30141208D01*
X48426829Y-30255739D01*
X48438240Y-30264751D01*
X48576243Y-30349816D01*
X48589424Y-30355963D01*
X48743710Y-30407138D01*
X48757086Y-30410005D01*
X48851438Y-30419672D01*
X48857854Y-30420000D01*
X49257885Y-30420000D01*
X49273124Y-30415525D01*
X49274329Y-30414135D01*
X49276000Y-30406452D01*
X49276000Y-30401884D01*
X49784000Y-30401884D01*
X49788475Y-30417123D01*
X49789865Y-30418328D01*
X49797548Y-30419999D01*
X50202095Y-30419999D01*
X50208614Y-30419662D01*
X50304206Y-30409743D01*
X50317600Y-30406851D01*
X50471784Y-30355412D01*
X50484962Y-30349239D01*
X50622807Y-30263937D01*
X50634208Y-30254901D01*
X50748739Y-30140171D01*
X50757751Y-30128760D01*
X50827731Y-30015231D01*
X50880503Y-29967738D01*
X50950575Y-29956314D01*
X51015699Y-29984588D01*
X51042135Y-30015044D01*
X51097063Y-30103807D01*
X51106099Y-30115208D01*
X51220829Y-30229739D01*
X51232240Y-30238751D01*
X51370243Y-30323816D01*
X51383424Y-30329963D01*
X51537710Y-30381138D01*
X51551086Y-30384005D01*
X51645438Y-30393672D01*
X51651854Y-30394000D01*
X52051885Y-30394000D01*
X52067124Y-30389525D01*
X52068329Y-30388135D01*
X52070000Y-30380452D01*
X52070000Y-30375884D01*
X52578000Y-30375884D01*
X52582475Y-30391123D01*
X52583865Y-30392328D01*
X52591548Y-30393999D01*
X52996095Y-30393999D01*
X53002614Y-30393662D01*
X53098206Y-30383743D01*
X53111600Y-30380851D01*
X53265784Y-30329412D01*
X53278962Y-30323239D01*
X53416807Y-30237937D01*
X53428208Y-30228901D01*
X53542739Y-30114171D01*
X53551751Y-30102760D01*
X53636816Y-29964757D01*
X53642963Y-29951576D01*
X53694138Y-29797290D01*
X53697005Y-29783914D01*
X53706672Y-29689562D01*
X53707000Y-29683146D01*
X53707000Y-29508115D01*
X53702525Y-29492876D01*
X53701135Y-29491671D01*
X53693452Y-29490000D01*
X52596115Y-29490000D01*
X52580876Y-29494475D01*
X52579671Y-29495865D01*
X52578000Y-29503548D01*
X52578000Y-30375884D01*
X52070000Y-30375884D01*
X52070000Y-29508115D01*
X52065525Y-29492876D01*
X52064135Y-29491671D01*
X52056452Y-29490000D01*
X50971115Y-29490000D01*
X50927996Y-29502661D01*
X50915184Y-29510895D01*
X50879682Y-29516000D01*
X49802115Y-29516000D01*
X49786876Y-29520475D01*
X49785671Y-29521865D01*
X49784000Y-29529548D01*
X49784000Y-30401884D01*
X49276000Y-30401884D01*
X49276000Y-29534115D01*
X49271525Y-29518876D01*
X49270135Y-29517671D01*
X49262452Y-29516000D01*
X48165116Y-29516000D01*
X48149877Y-29520475D01*
X48148672Y-29521865D01*
X48147001Y-29529548D01*
X48147001Y-29709095D01*
X47608671Y-29709095D01*
X47610672Y-29689562D01*
X47611000Y-29683146D01*
X47611000Y-29508115D01*
X47606525Y-29492876D01*
X47605135Y-29491671D01*
X47597452Y-29490000D01*
X46500115Y-29490000D01*
X46484876Y-29494475D01*
X46483671Y-29495865D01*
X46482000Y-29503548D01*
X46482000Y-30375884D01*
X45974000Y-30375884D01*
X45974000Y-29508115D01*
X45969525Y-29492876D01*
X45968135Y-29491671D01*
X45960452Y-29490000D01*
X44845001Y-29490000D01*
X44845001Y-29489238D01*
X44806302Y-29490620D01*
X44803452Y-29490000D01*
X43706115Y-29490000D01*
X43690876Y-29494475D01*
X43689671Y-29495865D01*
X43688000Y-29503548D01*
X43688000Y-30375884D01*
X43180000Y-30375884D01*
X43180000Y-29508115D01*
X43175525Y-29492876D01*
X43174135Y-29491671D01*
X43166452Y-29490000D01*
X41166115Y-29490000D01*
X41150876Y-29494475D01*
X41149671Y-29495865D01*
X41148000Y-29503548D01*
X41148000Y-30375884D01*
X40640000Y-30375884D01*
X40640000Y-29508115D01*
X40635525Y-29492876D01*
X40634135Y-29491671D01*
X40626452Y-29490000D01*
X39511001Y-29490000D01*
X39511001Y-29489238D01*
X39472302Y-29490620D01*
X39469452Y-29490000D01*
X38372115Y-29490000D01*
X38356876Y-29494475D01*
X38355671Y-29495865D01*
X38354000Y-29503548D01*
X38354000Y-30375884D01*
X37846000Y-30375884D01*
X37846000Y-29508115D01*
X37841525Y-29492876D01*
X37840135Y-29491671D01*
X37832452Y-29490000D01*
X36735116Y-29490000D01*
X36719877Y-29494475D01*
X36718672Y-29495865D01*
X36717001Y-29503548D01*
X36717001Y-29683095D01*
X36435000Y-29683095D01*
X36435000Y-29508115D01*
X36430525Y-29492876D01*
X36429135Y-29491671D01*
X36421452Y-29490000D01*
X35324115Y-29490000D01*
X35308876Y-29494475D01*
X35307671Y-29495865D01*
X35306000Y-29503548D01*
X35306000Y-30375884D01*
X34798000Y-30375884D01*
X34798000Y-29508115D01*
X34793525Y-29492876D01*
X34792135Y-29491671D01*
X34784452Y-29490000D01*
X33669001Y-29490000D01*
X33669001Y-29489238D01*
X33630302Y-29490620D01*
X33627452Y-29490000D01*
X32530115Y-29490000D01*
X32514876Y-29494475D01*
X32513671Y-29495865D01*
X32512000Y-29503548D01*
X32512000Y-30375884D01*
X32004000Y-30375884D01*
X32004000Y-29508115D01*
X31999525Y-29492876D01*
X31998135Y-29491671D01*
X31990452Y-29490000D01*
X30893116Y-29490000D01*
X30877877Y-29494475D01*
X30876672Y-29495865D01*
X30875001Y-29503548D01*
X30875001Y-29683095D01*
X26264500Y-29683095D01*
X26264500Y-28989885D01*
X48147000Y-28989885D01*
X48151475Y-29005124D01*
X48152865Y-29006329D01*
X48160548Y-29008000D01*
X49257885Y-29008000D01*
X49273124Y-29003525D01*
X49274329Y-29002135D01*
X49276000Y-28994452D01*
X49276000Y-28989885D01*
X49784000Y-28989885D01*
X49788475Y-29005124D01*
X49789865Y-29006329D01*
X49797548Y-29008000D01*
X50882885Y-29008000D01*
X50926004Y-28995339D01*
X50938816Y-28987105D01*
X50974318Y-28982000D01*
X52051885Y-28982000D01*
X52067124Y-28977525D01*
X52068329Y-28976135D01*
X52070000Y-28968452D01*
X52070000Y-28963885D01*
X52578000Y-28963885D01*
X52582475Y-28979124D01*
X52583865Y-28980329D01*
X52591548Y-28982000D01*
X53688884Y-28982000D01*
X53704123Y-28977525D01*
X53705328Y-28976135D01*
X53706999Y-28968452D01*
X53706999Y-28788905D01*
X53706662Y-28782386D01*
X53696743Y-28686794D01*
X53693851Y-28673400D01*
X53642412Y-28519216D01*
X53636239Y-28506038D01*
X53550937Y-28368193D01*
X53541901Y-28356792D01*
X53427171Y-28242261D01*
X53415760Y-28233249D01*
X53277757Y-28148184D01*
X53264576Y-28142037D01*
X53110290Y-28090862D01*
X53096914Y-28087995D01*
X53002562Y-28078328D01*
X52996145Y-28078000D01*
X52596115Y-28078000D01*
X52580876Y-28082475D01*
X52579671Y-28083865D01*
X52578000Y-28091548D01*
X52578000Y-28963885D01*
X52070000Y-28963885D01*
X52070000Y-28096116D01*
X52065525Y-28080877D01*
X52064135Y-28079672D01*
X52056452Y-28078001D01*
X51651905Y-28078001D01*
X51645386Y-28078338D01*
X51549794Y-28088257D01*
X51536400Y-28091149D01*
X51382216Y-28142588D01*
X51369038Y-28148761D01*
X51231193Y-28234063D01*
X51219792Y-28243099D01*
X51105261Y-28357829D01*
X51096249Y-28369240D01*
X51026269Y-28482769D01*
X50973497Y-28530262D01*
X50903425Y-28541686D01*
X50838301Y-28513412D01*
X50811865Y-28482956D01*
X50756937Y-28394193D01*
X50747901Y-28382792D01*
X50633171Y-28268261D01*
X50621760Y-28259249D01*
X50483757Y-28174184D01*
X50470576Y-28168037D01*
X50316290Y-28116862D01*
X50302914Y-28113995D01*
X50208562Y-28104328D01*
X50202145Y-28104000D01*
X49802115Y-28104000D01*
X49786876Y-28108475D01*
X49785671Y-28109865D01*
X49784000Y-28117548D01*
X49784000Y-28989885D01*
X49276000Y-28989885D01*
X49276000Y-28122116D01*
X49271525Y-28106877D01*
X49270135Y-28105672D01*
X49262452Y-28104001D01*
X48857905Y-28104001D01*
X48851386Y-28104338D01*
X48755794Y-28114257D01*
X48742400Y-28117149D01*
X48588216Y-28168588D01*
X48575038Y-28174761D01*
X48437193Y-28260063D01*
X48425792Y-28269099D01*
X48311261Y-28383829D01*
X48302249Y-28395240D01*
X48217184Y-28533243D01*
X48211037Y-28546424D01*
X48159862Y-28700710D01*
X48156995Y-28714086D01*
X48147328Y-28808438D01*
X48147000Y-28814855D01*
X48147000Y-28989885D01*
X26264500Y-28989885D01*
X26264500Y-28963885D01*
X30875000Y-28963885D01*
X30879475Y-28979124D01*
X30880865Y-28980329D01*
X30888548Y-28982000D01*
X31985885Y-28982000D01*
X32001124Y-28977525D01*
X32002329Y-28976135D01*
X32004000Y-28968452D01*
X32004000Y-28963885D01*
X32512000Y-28963885D01*
X32516475Y-28979124D01*
X32517865Y-28980329D01*
X32525548Y-28982000D01*
X33640999Y-28982000D01*
X33640999Y-28982762D01*
X33679698Y-28981380D01*
X33682548Y-28982000D01*
X34779885Y-28982000D01*
X34795124Y-28977525D01*
X34796329Y-28976135D01*
X34798000Y-28968452D01*
X34798000Y-28963885D01*
X35306000Y-28963885D01*
X35310475Y-28979124D01*
X35311865Y-28980329D01*
X35319548Y-28982000D01*
X36416884Y-28982000D01*
X36432123Y-28977525D01*
X36433328Y-28976135D01*
X36434999Y-28968452D01*
X36434999Y-28963885D01*
X36717000Y-28963885D01*
X36721475Y-28979124D01*
X36722865Y-28980329D01*
X36730548Y-28982000D01*
X37827885Y-28982000D01*
X37843124Y-28977525D01*
X37844329Y-28976135D01*
X37846000Y-28968452D01*
X37846000Y-28963885D01*
X38354000Y-28963885D01*
X38358475Y-28979124D01*
X38359865Y-28980329D01*
X38367548Y-28982000D01*
X39482999Y-28982000D01*
X39482999Y-28982762D01*
X39521698Y-28981380D01*
X39524548Y-28982000D01*
X40621885Y-28982000D01*
X40637124Y-28977525D01*
X40638329Y-28976135D01*
X40640000Y-28968452D01*
X40640000Y-28963885D01*
X41148000Y-28963885D01*
X41152475Y-28979124D01*
X41153865Y-28980329D01*
X41161548Y-28982000D01*
X43161885Y-28982000D01*
X43177124Y-28977525D01*
X43178329Y-28976135D01*
X43180000Y-28968452D01*
X43180000Y-28963885D01*
X43688000Y-28963885D01*
X43692475Y-28979124D01*
X43693865Y-28980329D01*
X43701548Y-28982000D01*
X44816999Y-28982000D01*
X44816999Y-28982762D01*
X44855698Y-28981380D01*
X44858548Y-28982000D01*
X45955885Y-28982000D01*
X45971124Y-28977525D01*
X45972329Y-28976135D01*
X45974000Y-28968452D01*
X45974000Y-28963885D01*
X46482000Y-28963885D01*
X46486475Y-28979124D01*
X46487865Y-28980329D01*
X46495548Y-28982000D01*
X47592884Y-28982000D01*
X47608123Y-28977525D01*
X47609328Y-28976135D01*
X47610999Y-28968452D01*
X47610999Y-28788905D01*
X47610662Y-28782386D01*
X47600743Y-28686794D01*
X47597851Y-28673400D01*
X47546412Y-28519216D01*
X47540239Y-28506038D01*
X47454937Y-28368193D01*
X47445901Y-28356792D01*
X47331171Y-28242261D01*
X47319760Y-28233249D01*
X47181757Y-28148184D01*
X47168576Y-28142037D01*
X47014290Y-28090862D01*
X47000914Y-28087995D01*
X46906562Y-28078328D01*
X46900145Y-28078000D01*
X46500115Y-28078000D01*
X46484876Y-28082475D01*
X46483671Y-28083865D01*
X46482000Y-28091548D01*
X46482000Y-28963885D01*
X45974000Y-28963885D01*
X45974000Y-28096116D01*
X45969525Y-28080877D01*
X45968135Y-28079672D01*
X45960452Y-28078001D01*
X45555905Y-28078001D01*
X45549386Y-28078338D01*
X45453794Y-28088257D01*
X45440400Y-28091149D01*
X45286216Y-28142588D01*
X45273038Y-28148761D01*
X45135193Y-28234063D01*
X45123792Y-28243099D01*
X45009261Y-28357829D01*
X45000249Y-28369240D01*
X44938298Y-28469743D01*
X44885526Y-28517236D01*
X44815454Y-28528660D01*
X44750330Y-28500386D01*
X44723894Y-28469930D01*
X44660937Y-28368193D01*
X44651901Y-28356792D01*
X44537171Y-28242261D01*
X44525760Y-28233249D01*
X44387757Y-28148184D01*
X44374576Y-28142037D01*
X44220290Y-28090862D01*
X44206914Y-28087995D01*
X44112562Y-28078328D01*
X44106145Y-28078000D01*
X43706115Y-28078000D01*
X43690876Y-28082475D01*
X43689671Y-28083865D01*
X43688000Y-28091548D01*
X43688000Y-28963885D01*
X43180000Y-28963885D01*
X43180000Y-28096116D01*
X43175525Y-28080877D01*
X43174135Y-28079672D01*
X43166452Y-28078001D01*
X42761905Y-28078001D01*
X42755386Y-28078338D01*
X42659794Y-28088257D01*
X42646400Y-28091149D01*
X42492216Y-28142588D01*
X42479038Y-28148761D01*
X42341193Y-28234063D01*
X42329792Y-28243099D01*
X42253208Y-28319817D01*
X42190926Y-28353896D01*
X42120106Y-28348893D01*
X42075017Y-28319972D01*
X41997171Y-28242261D01*
X41985760Y-28233249D01*
X41847757Y-28148184D01*
X41834576Y-28142037D01*
X41680290Y-28090862D01*
X41666914Y-28087995D01*
X41572562Y-28078328D01*
X41566145Y-28078000D01*
X41166115Y-28078000D01*
X41150876Y-28082475D01*
X41149671Y-28083865D01*
X41148000Y-28091548D01*
X41148000Y-28963885D01*
X40640000Y-28963885D01*
X40640000Y-28096116D01*
X40635525Y-28080877D01*
X40634135Y-28079672D01*
X40626452Y-28078001D01*
X40221905Y-28078001D01*
X40215386Y-28078338D01*
X40119794Y-28088257D01*
X40106400Y-28091149D01*
X39952216Y-28142588D01*
X39939038Y-28148761D01*
X39801193Y-28234063D01*
X39789792Y-28243099D01*
X39675261Y-28357829D01*
X39666249Y-28369240D01*
X39604298Y-28469743D01*
X39551526Y-28517236D01*
X39481454Y-28528660D01*
X39416330Y-28500386D01*
X39389894Y-28469930D01*
X39326937Y-28368193D01*
X39317901Y-28356792D01*
X39203171Y-28242261D01*
X39191760Y-28233249D01*
X39053757Y-28148184D01*
X39040576Y-28142037D01*
X38886290Y-28090862D01*
X38872914Y-28087995D01*
X38778562Y-28078328D01*
X38772145Y-28078000D01*
X38372115Y-28078000D01*
X38356876Y-28082475D01*
X38355671Y-28083865D01*
X38354000Y-28091548D01*
X38354000Y-28963885D01*
X37846000Y-28963885D01*
X37846000Y-28096116D01*
X37841525Y-28080877D01*
X37840135Y-28079672D01*
X37832452Y-28078001D01*
X37427905Y-28078001D01*
X37421386Y-28078338D01*
X37325794Y-28088257D01*
X37312400Y-28091149D01*
X37158216Y-28142588D01*
X37145038Y-28148761D01*
X37007193Y-28234063D01*
X36995792Y-28243099D01*
X36881261Y-28357829D01*
X36872249Y-28369240D01*
X36787184Y-28507243D01*
X36781037Y-28520424D01*
X36729862Y-28674710D01*
X36726995Y-28688086D01*
X36717328Y-28782438D01*
X36717000Y-28788855D01*
X36717000Y-28963885D01*
X36434999Y-28963885D01*
X36434999Y-28788905D01*
X36434662Y-28782386D01*
X36424743Y-28686794D01*
X36421851Y-28673400D01*
X36370412Y-28519216D01*
X36364239Y-28506038D01*
X36278937Y-28368193D01*
X36269901Y-28356792D01*
X36155171Y-28242261D01*
X36143760Y-28233249D01*
X36005757Y-28148184D01*
X35992576Y-28142037D01*
X35838290Y-28090862D01*
X35824914Y-28087995D01*
X35730562Y-28078328D01*
X35724145Y-28078000D01*
X35324115Y-28078000D01*
X35308876Y-28082475D01*
X35307671Y-28083865D01*
X35306000Y-28091548D01*
X35306000Y-28963885D01*
X34798000Y-28963885D01*
X34798000Y-28096116D01*
X34793525Y-28080877D01*
X34792135Y-28079672D01*
X34784452Y-28078001D01*
X34379905Y-28078001D01*
X34373386Y-28078338D01*
X34277794Y-28088257D01*
X34264400Y-28091149D01*
X34110216Y-28142588D01*
X34097038Y-28148761D01*
X33959193Y-28234063D01*
X33947792Y-28243099D01*
X33833261Y-28357829D01*
X33824249Y-28369240D01*
X33762298Y-28469743D01*
X33709526Y-28517236D01*
X33639454Y-28528660D01*
X33574330Y-28500386D01*
X33547894Y-28469930D01*
X33484937Y-28368193D01*
X33475901Y-28356792D01*
X33361171Y-28242261D01*
X33349760Y-28233249D01*
X33211757Y-28148184D01*
X33198576Y-28142037D01*
X33044290Y-28090862D01*
X33030914Y-28087995D01*
X32936562Y-28078328D01*
X32930145Y-28078000D01*
X32530115Y-28078000D01*
X32514876Y-28082475D01*
X32513671Y-28083865D01*
X32512000Y-28091548D01*
X32512000Y-28963885D01*
X32004000Y-28963885D01*
X32004000Y-28096116D01*
X31999525Y-28080877D01*
X31998135Y-28079672D01*
X31990452Y-28078001D01*
X31585905Y-28078001D01*
X31579386Y-28078338D01*
X31483794Y-28088257D01*
X31470400Y-28091149D01*
X31316216Y-28142588D01*
X31303038Y-28148761D01*
X31165193Y-28234063D01*
X31153792Y-28243099D01*
X31039261Y-28357829D01*
X31030249Y-28369240D01*
X30945184Y-28507243D01*
X30939037Y-28520424D01*
X30887862Y-28674710D01*
X30884995Y-28688086D01*
X30875328Y-28782438D01*
X30875000Y-28788855D01*
X30875000Y-28963885D01*
X26264500Y-28963885D01*
X26264500Y-28704925D01*
X26266051Y-28685214D01*
X26267142Y-28678327D01*
X26267142Y-28678325D01*
X26268174Y-28671810D01*
X26267573Y-28660328D01*
X26264673Y-28605001D01*
X26264500Y-28598407D01*
X26264500Y-28578380D01*
X26263666Y-28570446D01*
X26262407Y-28558461D01*
X26261890Y-28551887D01*
X26258735Y-28491684D01*
X26258735Y-28491682D01*
X26258389Y-28485085D01*
X26254875Y-28471972D01*
X26251272Y-28452529D01*
X26250546Y-28445615D01*
X26250545Y-28445611D01*
X26249855Y-28439044D01*
X26229182Y-28375418D01*
X26227309Y-28369094D01*
X26224290Y-28357829D01*
X26209994Y-28304476D01*
X26203833Y-28292384D01*
X26196269Y-28274123D01*
X26194116Y-28267497D01*
X26192075Y-28261215D01*
X26158624Y-28203276D01*
X26155477Y-28197480D01*
X26143607Y-28174184D01*
X26125107Y-28137875D01*
X26116568Y-28127330D01*
X26105375Y-28111045D01*
X26101884Y-28104998D01*
X26101881Y-28104995D01*
X26098585Y-28099285D01*
X26094173Y-28094385D01*
X26094170Y-28094381D01*
X26053825Y-28049575D01*
X26049537Y-28044554D01*
X26039014Y-28031559D01*
X26036937Y-28028994D01*
X26022790Y-28014847D01*
X26018249Y-28010063D01*
X25977885Y-27965234D01*
X25977883Y-27965233D01*
X25973470Y-27960331D01*
X25962482Y-27952348D01*
X25947454Y-27939511D01*
X25909038Y-27901095D01*
X25875012Y-27838783D01*
X25880077Y-27767968D01*
X25922624Y-27711132D01*
X25989144Y-27686321D01*
X25998133Y-27686000D01*
X68346000Y-27686000D01*
X68414121Y-27706002D01*
G37*
%TD.AperFunction*%
%TD*%
M02*
