%TF.GenerationSoftware,KiCad,Pcbnew,6.0.0*%
%TF.CreationDate,2022-04-09T16:35:32-03:00*%
%TF.ProjectId,cwc5.5,63776335-2e35-42e6-9b69-6361645f7063,rev?*%
%TF.SameCoordinates,Original*%
%TF.FileFunction,AssemblyDrawing,Bot*%
%FSLAX46Y46*%
G04 Gerber Fmt 4.6, Leading zero omitted, Abs format (unit mm)*
G04 Created by KiCad (PCBNEW 6.0.0) date 2022-04-09 16:35:32*
%MOMM*%
%LPD*%
G01*
G04 APERTURE LIST*
%ADD10C,0.150000*%
%ADD11C,0.120000*%
%ADD12C,0.075000*%
%ADD13C,0.100000*%
%ADD14C,0.100000*%
%TD*%
G04 APERTURE END LIST*
D10*
%TO.C,R9*%
X48500380Y-27019333D02*
X48500380Y-26447904D01*
X48500380Y-26733619D02*
X47500380Y-26733619D01*
X47643238Y-26638380D01*
X47738476Y-26543142D01*
X47786095Y-26447904D01*
X47595619Y-27400285D02*
X47548000Y-27447904D01*
X47500380Y-27543142D01*
X47500380Y-27781238D01*
X47548000Y-27876476D01*
X47595619Y-27924095D01*
X47690857Y-27971714D01*
X47786095Y-27971714D01*
X47928952Y-27924095D01*
X48500380Y-27352666D01*
X48500380Y-27971714D01*
X47500380Y-28590761D02*
X47500380Y-28686000D01*
X47548000Y-28781238D01*
X47595619Y-28828857D01*
X47690857Y-28876476D01*
X47881333Y-28924095D01*
X48119428Y-28924095D01*
X48309904Y-28876476D01*
X48405142Y-28828857D01*
X48452761Y-28781238D01*
X48500380Y-28686000D01*
X48500380Y-28590761D01*
X48452761Y-28495523D01*
X48405142Y-28447904D01*
X48309904Y-28400285D01*
X48119428Y-28352666D01*
X47881333Y-28352666D01*
X47690857Y-28400285D01*
X47595619Y-28447904D01*
X47548000Y-28495523D01*
X47500380Y-28590761D01*
D11*
X46589904Y-27552666D02*
X46208952Y-27286000D01*
X46589904Y-27095523D02*
X45789904Y-27095523D01*
X45789904Y-27400285D01*
X45828000Y-27476476D01*
X45866095Y-27514571D01*
X45942285Y-27552666D01*
X46056571Y-27552666D01*
X46132761Y-27514571D01*
X46170857Y-27476476D01*
X46208952Y-27400285D01*
X46208952Y-27095523D01*
X46589904Y-27933619D02*
X46589904Y-28086000D01*
X46551809Y-28162190D01*
X46513714Y-28200285D01*
X46399428Y-28276476D01*
X46247047Y-28314571D01*
X45942285Y-28314571D01*
X45866095Y-28276476D01*
X45828000Y-28238380D01*
X45789904Y-28162190D01*
X45789904Y-28009809D01*
X45828000Y-27933619D01*
X45866095Y-27895523D01*
X45942285Y-27857428D01*
X46132761Y-27857428D01*
X46208952Y-27895523D01*
X46247047Y-27933619D01*
X46285142Y-28009809D01*
X46285142Y-28162190D01*
X46247047Y-28238380D01*
X46208952Y-28276476D01*
X46132761Y-28314571D01*
D10*
%TO.C,Q10*%
X43068571Y-20240857D02*
X43116190Y-20383714D01*
X43163809Y-20431333D01*
X43259047Y-20478952D01*
X43401904Y-20478952D01*
X43497142Y-20431333D01*
X43544761Y-20383714D01*
X43592380Y-20288476D01*
X43592380Y-19907523D01*
X42592380Y-19907523D01*
X42592380Y-20240857D01*
X42640000Y-20336095D01*
X42687619Y-20383714D01*
X42782857Y-20431333D01*
X42878095Y-20431333D01*
X42973333Y-20383714D01*
X43020952Y-20336095D01*
X43068571Y-20240857D01*
X43068571Y-19907523D01*
X43497142Y-21478952D02*
X43544761Y-21431333D01*
X43592380Y-21288476D01*
X43592380Y-21193238D01*
X43544761Y-21050380D01*
X43449523Y-20955142D01*
X43354285Y-20907523D01*
X43163809Y-20859904D01*
X43020952Y-20859904D01*
X42830476Y-20907523D01*
X42735238Y-20955142D01*
X42640000Y-21050380D01*
X42592380Y-21193238D01*
X42592380Y-21288476D01*
X42640000Y-21431333D01*
X42687619Y-21478952D01*
X43020952Y-22050380D02*
X42973333Y-21955142D01*
X42925714Y-21907523D01*
X42830476Y-21859904D01*
X42782857Y-21859904D01*
X42687619Y-21907523D01*
X42640000Y-21955142D01*
X42592380Y-22050380D01*
X42592380Y-22240857D01*
X42640000Y-22336095D01*
X42687619Y-22383714D01*
X42782857Y-22431333D01*
X42830476Y-22431333D01*
X42925714Y-22383714D01*
X42973333Y-22336095D01*
X43020952Y-22240857D01*
X43020952Y-22050380D01*
X43068571Y-21955142D01*
X43116190Y-21907523D01*
X43211428Y-21859904D01*
X43401904Y-21859904D01*
X43497142Y-21907523D01*
X43544761Y-21955142D01*
X43592380Y-22050380D01*
X43592380Y-22240857D01*
X43544761Y-22336095D01*
X43497142Y-22383714D01*
X43401904Y-22431333D01*
X43211428Y-22431333D01*
X43116190Y-22383714D01*
X43068571Y-22336095D01*
X43020952Y-22240857D01*
X42925714Y-23288476D02*
X43592380Y-23288476D01*
X42544761Y-23050380D02*
X43259047Y-22812285D01*
X43259047Y-23431333D01*
X42592380Y-23717047D02*
X42592380Y-24383714D01*
X43592380Y-23955142D01*
D12*
X40925714Y-22371809D02*
X40973333Y-22348000D01*
X41020952Y-22300380D01*
X41092380Y-22228952D01*
X41140000Y-22205142D01*
X41187619Y-22205142D01*
X41163809Y-22324190D02*
X41211428Y-22300380D01*
X41259047Y-22252761D01*
X41282857Y-22157523D01*
X41282857Y-21990857D01*
X41259047Y-21895619D01*
X41211428Y-21848000D01*
X41163809Y-21824190D01*
X41068571Y-21824190D01*
X41020952Y-21848000D01*
X40973333Y-21895619D01*
X40949523Y-21990857D01*
X40949523Y-22157523D01*
X40973333Y-22252761D01*
X41020952Y-22300380D01*
X41068571Y-22324190D01*
X41163809Y-22324190D01*
X40473333Y-22324190D02*
X40759047Y-22324190D01*
X40616190Y-22324190D02*
X40616190Y-21824190D01*
X40663809Y-21895619D01*
X40711428Y-21943238D01*
X40759047Y-21967047D01*
X40163809Y-21824190D02*
X40116190Y-21824190D01*
X40068571Y-21848000D01*
X40044761Y-21871809D01*
X40020952Y-21919428D01*
X39997142Y-22014666D01*
X39997142Y-22133714D01*
X40020952Y-22228952D01*
X40044761Y-22276571D01*
X40068571Y-22300380D01*
X40116190Y-22324190D01*
X40163809Y-22324190D01*
X40211428Y-22300380D01*
X40235238Y-22276571D01*
X40259047Y-22228952D01*
X40282857Y-22133714D01*
X40282857Y-22014666D01*
X40259047Y-21919428D01*
X40235238Y-21871809D01*
X40211428Y-21848000D01*
X40163809Y-21824190D01*
D10*
%TO.C,R12*%
X45706380Y-27019333D02*
X45706380Y-26447904D01*
X45706380Y-26733619D02*
X44706380Y-26733619D01*
X44849238Y-26638380D01*
X44944476Y-26543142D01*
X44992095Y-26447904D01*
X44801619Y-27400285D02*
X44754000Y-27447904D01*
X44706380Y-27543142D01*
X44706380Y-27781238D01*
X44754000Y-27876476D01*
X44801619Y-27924095D01*
X44896857Y-27971714D01*
X44992095Y-27971714D01*
X45134952Y-27924095D01*
X45706380Y-27352666D01*
X45706380Y-27971714D01*
X44706380Y-28590761D02*
X44706380Y-28686000D01*
X44754000Y-28781238D01*
X44801619Y-28828857D01*
X44896857Y-28876476D01*
X45087333Y-28924095D01*
X45325428Y-28924095D01*
X45515904Y-28876476D01*
X45611142Y-28828857D01*
X45658761Y-28781238D01*
X45706380Y-28686000D01*
X45706380Y-28590761D01*
X45658761Y-28495523D01*
X45611142Y-28447904D01*
X45515904Y-28400285D01*
X45325428Y-28352666D01*
X45087333Y-28352666D01*
X44896857Y-28400285D01*
X44801619Y-28447904D01*
X44754000Y-28495523D01*
X44706380Y-28590761D01*
D11*
X43795904Y-27171714D02*
X43414952Y-26905047D01*
X43795904Y-26714571D02*
X42995904Y-26714571D01*
X42995904Y-27019333D01*
X43034000Y-27095523D01*
X43072095Y-27133619D01*
X43148285Y-27171714D01*
X43262571Y-27171714D01*
X43338761Y-27133619D01*
X43376857Y-27095523D01*
X43414952Y-27019333D01*
X43414952Y-26714571D01*
X43795904Y-27933619D02*
X43795904Y-27476476D01*
X43795904Y-27705047D02*
X42995904Y-27705047D01*
X43110190Y-27628857D01*
X43186380Y-27552666D01*
X43224476Y-27476476D01*
X43072095Y-28238380D02*
X43034000Y-28276476D01*
X42995904Y-28352666D01*
X42995904Y-28543142D01*
X43034000Y-28619333D01*
X43072095Y-28657428D01*
X43148285Y-28695523D01*
X43224476Y-28695523D01*
X43338761Y-28657428D01*
X43795904Y-28200285D01*
X43795904Y-28695523D01*
D10*
%TO.C,Q17*%
X59078571Y-13742857D02*
X59126190Y-13885714D01*
X59173809Y-13933333D01*
X59269047Y-13980952D01*
X59411904Y-13980952D01*
X59507142Y-13933333D01*
X59554761Y-13885714D01*
X59602380Y-13790476D01*
X59602380Y-13409523D01*
X58602380Y-13409523D01*
X58602380Y-13742857D01*
X58650000Y-13838095D01*
X58697619Y-13885714D01*
X58792857Y-13933333D01*
X58888095Y-13933333D01*
X58983333Y-13885714D01*
X59030952Y-13838095D01*
X59078571Y-13742857D01*
X59078571Y-13409523D01*
X59507142Y-14980952D02*
X59554761Y-14933333D01*
X59602380Y-14790476D01*
X59602380Y-14695238D01*
X59554761Y-14552380D01*
X59459523Y-14457142D01*
X59364285Y-14409523D01*
X59173809Y-14361904D01*
X59030952Y-14361904D01*
X58840476Y-14409523D01*
X58745238Y-14457142D01*
X58650000Y-14552380D01*
X58602380Y-14695238D01*
X58602380Y-14790476D01*
X58650000Y-14933333D01*
X58697619Y-14980952D01*
X59030952Y-15552380D02*
X58983333Y-15457142D01*
X58935714Y-15409523D01*
X58840476Y-15361904D01*
X58792857Y-15361904D01*
X58697619Y-15409523D01*
X58650000Y-15457142D01*
X58602380Y-15552380D01*
X58602380Y-15742857D01*
X58650000Y-15838095D01*
X58697619Y-15885714D01*
X58792857Y-15933333D01*
X58840476Y-15933333D01*
X58935714Y-15885714D01*
X58983333Y-15838095D01*
X59030952Y-15742857D01*
X59030952Y-15552380D01*
X59078571Y-15457142D01*
X59126190Y-15409523D01*
X59221428Y-15361904D01*
X59411904Y-15361904D01*
X59507142Y-15409523D01*
X59554761Y-15457142D01*
X59602380Y-15552380D01*
X59602380Y-15742857D01*
X59554761Y-15838095D01*
X59507142Y-15885714D01*
X59411904Y-15933333D01*
X59221428Y-15933333D01*
X59126190Y-15885714D01*
X59078571Y-15838095D01*
X59030952Y-15742857D01*
X58935714Y-16790476D02*
X59602380Y-16790476D01*
X58554761Y-16552380D02*
X59269047Y-16314285D01*
X59269047Y-16933333D01*
X58602380Y-17219047D02*
X58602380Y-17885714D01*
X59602380Y-17457142D01*
D12*
X61935714Y-15873809D02*
X61983333Y-15850000D01*
X62030952Y-15802380D01*
X62102380Y-15730952D01*
X62150000Y-15707142D01*
X62197619Y-15707142D01*
X62173809Y-15826190D02*
X62221428Y-15802380D01*
X62269047Y-15754761D01*
X62292857Y-15659523D01*
X62292857Y-15492857D01*
X62269047Y-15397619D01*
X62221428Y-15350000D01*
X62173809Y-15326190D01*
X62078571Y-15326190D01*
X62030952Y-15350000D01*
X61983333Y-15397619D01*
X61959523Y-15492857D01*
X61959523Y-15659523D01*
X61983333Y-15754761D01*
X62030952Y-15802380D01*
X62078571Y-15826190D01*
X62173809Y-15826190D01*
X61483333Y-15826190D02*
X61769047Y-15826190D01*
X61626190Y-15826190D02*
X61626190Y-15326190D01*
X61673809Y-15397619D01*
X61721428Y-15445238D01*
X61769047Y-15469047D01*
X61316666Y-15326190D02*
X60983333Y-15326190D01*
X61197619Y-15826190D01*
D10*
%TO.C,R26*%
X68197380Y-27580952D02*
X68197380Y-27009523D01*
X68197380Y-27295238D02*
X67197380Y-27295238D01*
X67340238Y-27200000D01*
X67435476Y-27104761D01*
X67483095Y-27009523D01*
X68197380Y-28009523D02*
X67197380Y-28009523D01*
X67816428Y-28104761D02*
X68197380Y-28390476D01*
X67530714Y-28390476D02*
X67911666Y-28009523D01*
D11*
X66286904Y-27185714D02*
X65905952Y-26919047D01*
X66286904Y-26728571D02*
X65486904Y-26728571D01*
X65486904Y-27033333D01*
X65525000Y-27109523D01*
X65563095Y-27147619D01*
X65639285Y-27185714D01*
X65753571Y-27185714D01*
X65829761Y-27147619D01*
X65867857Y-27109523D01*
X65905952Y-27033333D01*
X65905952Y-26728571D01*
X65563095Y-27490476D02*
X65525000Y-27528571D01*
X65486904Y-27604761D01*
X65486904Y-27795238D01*
X65525000Y-27871428D01*
X65563095Y-27909523D01*
X65639285Y-27947619D01*
X65715476Y-27947619D01*
X65829761Y-27909523D01*
X66286904Y-27452380D01*
X66286904Y-27947619D01*
X65486904Y-28633333D02*
X65486904Y-28480952D01*
X65525000Y-28404761D01*
X65563095Y-28366666D01*
X65677380Y-28290476D01*
X65829761Y-28252380D01*
X66134523Y-28252380D01*
X66210714Y-28290476D01*
X66248809Y-28328571D01*
X66286904Y-28404761D01*
X66286904Y-28557142D01*
X66248809Y-28633333D01*
X66210714Y-28671428D01*
X66134523Y-28709523D01*
X65944047Y-28709523D01*
X65867857Y-28671428D01*
X65829761Y-28633333D01*
X65791666Y-28557142D01*
X65791666Y-28404761D01*
X65829761Y-28328571D01*
X65867857Y-28290476D01*
X65944047Y-28252380D01*
D10*
%TO.C,Q12*%
X41290571Y-13890857D02*
X41338190Y-14033714D01*
X41385809Y-14081333D01*
X41481047Y-14128952D01*
X41623904Y-14128952D01*
X41719142Y-14081333D01*
X41766761Y-14033714D01*
X41814380Y-13938476D01*
X41814380Y-13557523D01*
X40814380Y-13557523D01*
X40814380Y-13890857D01*
X40862000Y-13986095D01*
X40909619Y-14033714D01*
X41004857Y-14081333D01*
X41100095Y-14081333D01*
X41195333Y-14033714D01*
X41242952Y-13986095D01*
X41290571Y-13890857D01*
X41290571Y-13557523D01*
X41719142Y-15128952D02*
X41766761Y-15081333D01*
X41814380Y-14938476D01*
X41814380Y-14843238D01*
X41766761Y-14700380D01*
X41671523Y-14605142D01*
X41576285Y-14557523D01*
X41385809Y-14509904D01*
X41242952Y-14509904D01*
X41052476Y-14557523D01*
X40957238Y-14605142D01*
X40862000Y-14700380D01*
X40814380Y-14843238D01*
X40814380Y-14938476D01*
X40862000Y-15081333D01*
X40909619Y-15128952D01*
X41242952Y-15700380D02*
X41195333Y-15605142D01*
X41147714Y-15557523D01*
X41052476Y-15509904D01*
X41004857Y-15509904D01*
X40909619Y-15557523D01*
X40862000Y-15605142D01*
X40814380Y-15700380D01*
X40814380Y-15890857D01*
X40862000Y-15986095D01*
X40909619Y-16033714D01*
X41004857Y-16081333D01*
X41052476Y-16081333D01*
X41147714Y-16033714D01*
X41195333Y-15986095D01*
X41242952Y-15890857D01*
X41242952Y-15700380D01*
X41290571Y-15605142D01*
X41338190Y-15557523D01*
X41433428Y-15509904D01*
X41623904Y-15509904D01*
X41719142Y-15557523D01*
X41766761Y-15605142D01*
X41814380Y-15700380D01*
X41814380Y-15890857D01*
X41766761Y-15986095D01*
X41719142Y-16033714D01*
X41623904Y-16081333D01*
X41433428Y-16081333D01*
X41338190Y-16033714D01*
X41290571Y-15986095D01*
X41242952Y-15890857D01*
X41147714Y-16938476D02*
X41814380Y-16938476D01*
X40766761Y-16700380D02*
X41481047Y-16462285D01*
X41481047Y-17081333D01*
X40814380Y-17367047D02*
X40814380Y-18033714D01*
X41814380Y-17605142D01*
D12*
X39147714Y-16021809D02*
X39195333Y-15998000D01*
X39242952Y-15950380D01*
X39314380Y-15878952D01*
X39362000Y-15855142D01*
X39409619Y-15855142D01*
X39385809Y-15974190D02*
X39433428Y-15950380D01*
X39481047Y-15902761D01*
X39504857Y-15807523D01*
X39504857Y-15640857D01*
X39481047Y-15545619D01*
X39433428Y-15498000D01*
X39385809Y-15474190D01*
X39290571Y-15474190D01*
X39242952Y-15498000D01*
X39195333Y-15545619D01*
X39171523Y-15640857D01*
X39171523Y-15807523D01*
X39195333Y-15902761D01*
X39242952Y-15950380D01*
X39290571Y-15974190D01*
X39385809Y-15974190D01*
X38695333Y-15974190D02*
X38981047Y-15974190D01*
X38838190Y-15974190D02*
X38838190Y-15474190D01*
X38885809Y-15545619D01*
X38933428Y-15593238D01*
X38981047Y-15617047D01*
X38504857Y-15521809D02*
X38481047Y-15498000D01*
X38433428Y-15474190D01*
X38314380Y-15474190D01*
X38266761Y-15498000D01*
X38242952Y-15521809D01*
X38219142Y-15569428D01*
X38219142Y-15617047D01*
X38242952Y-15688476D01*
X38528666Y-15974190D01*
X38219142Y-15974190D01*
D10*
%TO.C,R28*%
X61347380Y-27455952D02*
X61347380Y-26884523D01*
X61347380Y-27170238D02*
X60347380Y-27170238D01*
X60490238Y-27075000D01*
X60585476Y-26979761D01*
X60633095Y-26884523D01*
X61347380Y-27884523D02*
X60347380Y-27884523D01*
X60966428Y-27979761D02*
X61347380Y-28265476D01*
X60680714Y-28265476D02*
X61061666Y-27884523D01*
D11*
X59436904Y-27060714D02*
X59055952Y-26794047D01*
X59436904Y-26603571D02*
X58636904Y-26603571D01*
X58636904Y-26908333D01*
X58675000Y-26984523D01*
X58713095Y-27022619D01*
X58789285Y-27060714D01*
X58903571Y-27060714D01*
X58979761Y-27022619D01*
X59017857Y-26984523D01*
X59055952Y-26908333D01*
X59055952Y-26603571D01*
X58713095Y-27365476D02*
X58675000Y-27403571D01*
X58636904Y-27479761D01*
X58636904Y-27670238D01*
X58675000Y-27746428D01*
X58713095Y-27784523D01*
X58789285Y-27822619D01*
X58865476Y-27822619D01*
X58979761Y-27784523D01*
X59436904Y-27327380D01*
X59436904Y-27822619D01*
X58979761Y-28279761D02*
X58941666Y-28203571D01*
X58903571Y-28165476D01*
X58827380Y-28127380D01*
X58789285Y-28127380D01*
X58713095Y-28165476D01*
X58675000Y-28203571D01*
X58636904Y-28279761D01*
X58636904Y-28432142D01*
X58675000Y-28508333D01*
X58713095Y-28546428D01*
X58789285Y-28584523D01*
X58827380Y-28584523D01*
X58903571Y-28546428D01*
X58941666Y-28508333D01*
X58979761Y-28432142D01*
X58979761Y-28279761D01*
X59017857Y-28203571D01*
X59055952Y-28165476D01*
X59132142Y-28127380D01*
X59284523Y-28127380D01*
X59360714Y-28165476D01*
X59398809Y-28203571D01*
X59436904Y-28279761D01*
X59436904Y-28432142D01*
X59398809Y-28508333D01*
X59360714Y-28546428D01*
X59284523Y-28584523D01*
X59132142Y-28584523D01*
X59055952Y-28546428D01*
X59017857Y-28508333D01*
X58979761Y-28432142D01*
D10*
%TO.C,R91*%
X1426380Y-2214666D02*
X1426380Y-1643238D01*
X1426380Y-1928952D02*
X426380Y-1928952D01*
X569238Y-1833714D01*
X664476Y-1738476D01*
X712095Y-1643238D01*
X1331142Y-2643238D02*
X1378761Y-2690857D01*
X1426380Y-2643238D01*
X1378761Y-2595619D01*
X1331142Y-2643238D01*
X1426380Y-2643238D01*
X521619Y-3071809D02*
X474000Y-3119428D01*
X426380Y-3214666D01*
X426380Y-3452761D01*
X473999Y-3548000D01*
X521619Y-3595619D01*
X616857Y-3643238D01*
X712095Y-3643238D01*
X854952Y-3595619D01*
X1426380Y-3024190D01*
X1426380Y-3643238D01*
X1426380Y-4071809D02*
X426380Y-4071809D01*
X1045428Y-4167047D02*
X1426380Y-4452761D01*
X759714Y-4452761D02*
X1140666Y-4071809D01*
D11*
X3155904Y-2533714D02*
X2774952Y-2267047D01*
X3155904Y-2076571D02*
X2355904Y-2076571D01*
X2355904Y-2381333D01*
X2394000Y-2457523D01*
X2432095Y-2495619D01*
X2508285Y-2533714D01*
X2622571Y-2533714D01*
X2698761Y-2495619D01*
X2736857Y-2457523D01*
X2774952Y-2381333D01*
X2774952Y-2076571D01*
X3155904Y-2914666D02*
X3155904Y-3067047D01*
X3117809Y-3143238D01*
X3079714Y-3181333D01*
X2965428Y-3257523D01*
X2813047Y-3295619D01*
X2508285Y-3295619D01*
X2432095Y-3257523D01*
X2394000Y-3219428D01*
X2355904Y-3143238D01*
X2355904Y-2990857D01*
X2394000Y-2914666D01*
X2432095Y-2876571D01*
X2508285Y-2838476D01*
X2698761Y-2838476D01*
X2774952Y-2876571D01*
X2813047Y-2914666D01*
X2851142Y-2990857D01*
X2851142Y-3143238D01*
X2813047Y-3219428D01*
X2774952Y-3257523D01*
X2698761Y-3295619D01*
X3155904Y-4057523D02*
X3155904Y-3600380D01*
X3155904Y-3828952D02*
X2355904Y-3828952D01*
X2470190Y-3752761D01*
X2546380Y-3676571D01*
X2584476Y-3600380D01*
D10*
%TO.C,R97*%
X46207380Y-41991666D02*
X46207380Y-41420238D01*
X46207380Y-41705952D02*
X45207380Y-41705952D01*
X45350238Y-41610714D01*
X45445476Y-41515476D01*
X45493095Y-41420238D01*
X46112142Y-42420238D02*
X46159761Y-42467857D01*
X46207380Y-42420238D01*
X46159761Y-42372619D01*
X46112142Y-42420238D01*
X46207380Y-42420238D01*
X46207380Y-43420238D02*
X46207380Y-42848809D01*
X46207380Y-43134523D02*
X45207380Y-43134523D01*
X45350238Y-43039285D01*
X45445476Y-42944047D01*
X45493095Y-42848809D01*
X46207380Y-43848809D02*
X45207380Y-43848809D01*
X45826428Y-43944047D02*
X46207380Y-44229761D01*
X45540714Y-44229761D02*
X45921666Y-43848809D01*
D11*
X47936904Y-42310714D02*
X47555952Y-42044047D01*
X47936904Y-41853571D02*
X47136904Y-41853571D01*
X47136904Y-42158333D01*
X47175000Y-42234523D01*
X47213095Y-42272619D01*
X47289285Y-42310714D01*
X47403571Y-42310714D01*
X47479761Y-42272619D01*
X47517857Y-42234523D01*
X47555952Y-42158333D01*
X47555952Y-41853571D01*
X47936904Y-42691666D02*
X47936904Y-42844047D01*
X47898809Y-42920238D01*
X47860714Y-42958333D01*
X47746428Y-43034523D01*
X47594047Y-43072619D01*
X47289285Y-43072619D01*
X47213095Y-43034523D01*
X47175000Y-42996428D01*
X47136904Y-42920238D01*
X47136904Y-42767857D01*
X47175000Y-42691666D01*
X47213095Y-42653571D01*
X47289285Y-42615476D01*
X47479761Y-42615476D01*
X47555952Y-42653571D01*
X47594047Y-42691666D01*
X47632142Y-42767857D01*
X47632142Y-42920238D01*
X47594047Y-42996428D01*
X47555952Y-43034523D01*
X47479761Y-43072619D01*
X47136904Y-43339285D02*
X47136904Y-43872619D01*
X47936904Y-43529761D01*
D10*
%TO.C,J1*%
X21807142Y1158095D02*
X21854761Y1205714D01*
X21902380Y1348571D01*
X21902380Y1443809D01*
X21854761Y1586666D01*
X21759523Y1681904D01*
X21664285Y1729523D01*
X21473809Y1777142D01*
X21330952Y1777142D01*
X21140476Y1729523D01*
X21045238Y1681904D01*
X20950000Y1586666D01*
X20902380Y1443809D01*
X20902380Y1348571D01*
X20950000Y1205714D01*
X20997619Y1158095D01*
X21902380Y586666D02*
X21854761Y681904D01*
X21807142Y729523D01*
X21711904Y777142D01*
X21426190Y777142D01*
X21330952Y729523D01*
X21283333Y681904D01*
X21235714Y586666D01*
X21235714Y443809D01*
X21283333Y348571D01*
X21330952Y300952D01*
X21426190Y253333D01*
X21711904Y253333D01*
X21807142Y300952D01*
X21854761Y348571D01*
X21902380Y443809D01*
X21902380Y586666D01*
X21235714Y-175238D02*
X21902380Y-175238D01*
X21330952Y-175238D02*
X21283333Y-222857D01*
X21235714Y-318095D01*
X21235714Y-460952D01*
X21283333Y-556190D01*
X21378571Y-603809D01*
X21902380Y-603809D01*
X21235714Y-1080000D02*
X21902380Y-1080000D01*
X21330952Y-1080000D02*
X21283333Y-1127619D01*
X21235714Y-1222857D01*
X21235714Y-1365714D01*
X21283333Y-1460952D01*
X21378571Y-1508571D01*
X21902380Y-1508571D01*
X21997619Y-1746666D02*
X21997619Y-2508571D01*
X20902380Y-2937142D02*
X20902380Y-3032380D01*
X20950000Y-3127619D01*
X20997619Y-3175238D01*
X21092857Y-3222857D01*
X21283333Y-3270476D01*
X21521428Y-3270476D01*
X21711904Y-3222857D01*
X21807142Y-3175238D01*
X21854761Y-3127619D01*
X21902380Y-3032380D01*
X21902380Y-2937142D01*
X21854761Y-2841904D01*
X21807142Y-2794285D01*
X21711904Y-2746666D01*
X21521428Y-2699047D01*
X21283333Y-2699047D01*
X21092857Y-2746666D01*
X20997619Y-2794285D01*
X20950000Y-2841904D01*
X20902380Y-2937142D01*
X21902380Y-4222857D02*
X21902380Y-3651428D01*
X21902380Y-3937142D02*
X20902380Y-3937142D01*
X21045238Y-3841904D01*
X21140476Y-3746666D01*
X21188095Y-3651428D01*
X21902380Y-4556190D02*
X21235714Y-5080000D01*
X21235714Y-4556190D02*
X21902380Y-5080000D01*
X20902380Y-5651428D02*
X20902380Y-5746666D01*
X20950000Y-5841904D01*
X20997619Y-5889523D01*
X21092857Y-5937142D01*
X21283333Y-5984761D01*
X21521428Y-5984761D01*
X21711904Y-5937142D01*
X21807142Y-5889523D01*
X21854761Y-5841904D01*
X21902380Y-5746666D01*
X21902380Y-5651428D01*
X21854761Y-5556190D01*
X21807142Y-5508571D01*
X21711904Y-5460952D01*
X21521428Y-5413333D01*
X21283333Y-5413333D01*
X21092857Y-5460952D01*
X20997619Y-5508571D01*
X20950000Y-5556190D01*
X20902380Y-5651428D01*
X21330952Y-6556190D02*
X21283333Y-6460952D01*
X21235714Y-6413333D01*
X21140476Y-6365714D01*
X21092857Y-6365714D01*
X20997619Y-6413333D01*
X20950000Y-6460952D01*
X20902380Y-6556190D01*
X20902380Y-6746666D01*
X20950000Y-6841904D01*
X20997619Y-6889523D01*
X21092857Y-6937142D01*
X21140476Y-6937142D01*
X21235714Y-6889523D01*
X21283333Y-6841904D01*
X21330952Y-6746666D01*
X21330952Y-6556190D01*
X21378571Y-6460952D01*
X21426190Y-6413333D01*
X21521428Y-6365714D01*
X21711904Y-6365714D01*
X21807142Y-6413333D01*
X21854761Y-6460952D01*
X21902380Y-6556190D01*
X21902380Y-6746666D01*
X21854761Y-6841904D01*
X21807142Y-6889523D01*
X21711904Y-6937142D01*
X21521428Y-6937142D01*
X21426190Y-6889523D01*
X21378571Y-6841904D01*
X21330952Y-6746666D01*
X33003333Y-2032380D02*
X33003333Y-2746666D01*
X33050952Y-2889523D01*
X33146190Y-2984761D01*
X33289047Y-3032380D01*
X33384285Y-3032380D01*
X32003333Y-3032380D02*
X32574761Y-3032380D01*
X32289047Y-3032380D02*
X32289047Y-2032380D01*
X32384285Y-2175238D01*
X32479523Y-2270476D01*
X32574761Y-2318095D01*
%TO.C,R3*%
X54596380Y-27045333D02*
X54596380Y-26473904D01*
X54596380Y-26759619D02*
X53596380Y-26759619D01*
X53739238Y-26664380D01*
X53834476Y-26569142D01*
X53882095Y-26473904D01*
X53691619Y-27426285D02*
X53644000Y-27473904D01*
X53596380Y-27569142D01*
X53596380Y-27807238D01*
X53644000Y-27902476D01*
X53691619Y-27950095D01*
X53786857Y-27997714D01*
X53882095Y-27997714D01*
X54024952Y-27950095D01*
X54596380Y-27378666D01*
X54596380Y-27997714D01*
X53596380Y-28616761D02*
X53596380Y-28712000D01*
X53644000Y-28807238D01*
X53691619Y-28854857D01*
X53786857Y-28902476D01*
X53977333Y-28950095D01*
X54215428Y-28950095D01*
X54405904Y-28902476D01*
X54501142Y-28854857D01*
X54548761Y-28807238D01*
X54596380Y-28712000D01*
X54596380Y-28616761D01*
X54548761Y-28521523D01*
X54501142Y-28473904D01*
X54405904Y-28426285D01*
X54215428Y-28378666D01*
X53977333Y-28378666D01*
X53786857Y-28426285D01*
X53691619Y-28473904D01*
X53644000Y-28521523D01*
X53596380Y-28616761D01*
D11*
X52685904Y-27578666D02*
X52304952Y-27312000D01*
X52685904Y-27121523D02*
X51885904Y-27121523D01*
X51885904Y-27426285D01*
X51924000Y-27502476D01*
X51962095Y-27540571D01*
X52038285Y-27578666D01*
X52152571Y-27578666D01*
X52228761Y-27540571D01*
X52266857Y-27502476D01*
X52304952Y-27426285D01*
X52304952Y-27121523D01*
X51885904Y-27845333D02*
X51885904Y-28340571D01*
X52190666Y-28073904D01*
X52190666Y-28188190D01*
X52228761Y-28264380D01*
X52266857Y-28302476D01*
X52343047Y-28340571D01*
X52533523Y-28340571D01*
X52609714Y-28302476D01*
X52647809Y-28264380D01*
X52685904Y-28188190D01*
X52685904Y-27959619D01*
X52647809Y-27883428D01*
X52609714Y-27845333D01*
D10*
%TO.C,C1*%
X64327976Y-23677380D02*
X63708928Y-23677380D01*
X64042261Y-24058333D01*
X63899404Y-24058333D01*
X63804166Y-24105952D01*
X63756547Y-24153571D01*
X63708928Y-24248809D01*
X63708928Y-24486904D01*
X63756547Y-24582142D01*
X63804166Y-24629761D01*
X63899404Y-24677380D01*
X64185119Y-24677380D01*
X64280357Y-24629761D01*
X64327976Y-24582142D01*
X63375595Y-23677380D02*
X62756547Y-23677380D01*
X63089880Y-24058333D01*
X62947023Y-24058333D01*
X62851785Y-24105952D01*
X62804166Y-24153571D01*
X62756547Y-24248809D01*
X62756547Y-24486904D01*
X62804166Y-24582142D01*
X62851785Y-24629761D01*
X62947023Y-24677380D01*
X63232738Y-24677380D01*
X63327976Y-24629761D01*
X63375595Y-24582142D01*
X62327976Y-24010714D02*
X62327976Y-24677380D01*
X62327976Y-24105952D02*
X62280357Y-24058333D01*
X62185119Y-24010714D01*
X62042261Y-24010714D01*
X61947023Y-24058333D01*
X61899404Y-24153571D01*
X61899404Y-24677380D01*
X61089880Y-24153571D02*
X61423214Y-24153571D01*
X61423214Y-24677380D02*
X61423214Y-23677380D01*
X60947023Y-23677380D01*
D11*
X62770833Y-22660714D02*
X62808928Y-22698809D01*
X62923214Y-22736904D01*
X62999404Y-22736904D01*
X63113690Y-22698809D01*
X63189880Y-22622619D01*
X63227976Y-22546428D01*
X63266071Y-22394047D01*
X63266071Y-22279761D01*
X63227976Y-22127380D01*
X63189880Y-22051190D01*
X63113690Y-21975000D01*
X62999404Y-21936904D01*
X62923214Y-21936904D01*
X62808928Y-21975000D01*
X62770833Y-22013095D01*
X62008928Y-22736904D02*
X62466071Y-22736904D01*
X62237500Y-22736904D02*
X62237500Y-21936904D01*
X62313690Y-22051190D01*
X62389880Y-22127380D01*
X62466071Y-22165476D01*
D10*
%TO.C,Q2*%
X54752571Y-26336857D02*
X54800190Y-26479714D01*
X54847809Y-26527333D01*
X54943047Y-26574952D01*
X55085904Y-26574952D01*
X55181142Y-26527333D01*
X55228761Y-26479714D01*
X55276380Y-26384476D01*
X55276380Y-26003523D01*
X54276380Y-26003523D01*
X54276380Y-26336857D01*
X54324000Y-26432095D01*
X54371619Y-26479714D01*
X54466857Y-26527333D01*
X54562095Y-26527333D01*
X54657333Y-26479714D01*
X54704952Y-26432095D01*
X54752571Y-26336857D01*
X54752571Y-26003523D01*
X55181142Y-27574952D02*
X55228761Y-27527333D01*
X55276380Y-27384476D01*
X55276380Y-27289238D01*
X55228761Y-27146380D01*
X55133523Y-27051142D01*
X55038285Y-27003523D01*
X54847809Y-26955904D01*
X54704952Y-26955904D01*
X54514476Y-27003523D01*
X54419238Y-27051142D01*
X54324000Y-27146380D01*
X54276380Y-27289238D01*
X54276380Y-27384476D01*
X54324000Y-27527333D01*
X54371619Y-27574952D01*
X54704952Y-28146380D02*
X54657333Y-28051142D01*
X54609714Y-28003523D01*
X54514476Y-27955904D01*
X54466857Y-27955904D01*
X54371619Y-28003523D01*
X54324000Y-28051142D01*
X54276380Y-28146380D01*
X54276380Y-28336857D01*
X54324000Y-28432095D01*
X54371619Y-28479714D01*
X54466857Y-28527333D01*
X54514476Y-28527333D01*
X54609714Y-28479714D01*
X54657333Y-28432095D01*
X54704952Y-28336857D01*
X54704952Y-28146380D01*
X54752571Y-28051142D01*
X54800190Y-28003523D01*
X54895428Y-27955904D01*
X55085904Y-27955904D01*
X55181142Y-28003523D01*
X55228761Y-28051142D01*
X55276380Y-28146380D01*
X55276380Y-28336857D01*
X55228761Y-28432095D01*
X55181142Y-28479714D01*
X55085904Y-28527333D01*
X54895428Y-28527333D01*
X54800190Y-28479714D01*
X54752571Y-28432095D01*
X54704952Y-28336857D01*
X54609714Y-29384476D02*
X55276380Y-29384476D01*
X54228761Y-29146380D02*
X54943047Y-28908285D01*
X54943047Y-29527333D01*
X54276380Y-29813047D02*
X54276380Y-30479714D01*
X55276380Y-30051142D01*
D12*
X52371619Y-22117809D02*
X52419238Y-22094000D01*
X52466857Y-22046380D01*
X52538285Y-21974952D01*
X52585904Y-21951142D01*
X52633523Y-21951142D01*
X52609714Y-22070190D02*
X52657333Y-22046380D01*
X52704952Y-21998761D01*
X52728761Y-21903523D01*
X52728761Y-21736857D01*
X52704952Y-21641619D01*
X52657333Y-21594000D01*
X52609714Y-21570190D01*
X52514476Y-21570190D01*
X52466857Y-21594000D01*
X52419238Y-21641619D01*
X52395428Y-21736857D01*
X52395428Y-21903523D01*
X52419238Y-21998761D01*
X52466857Y-22046380D01*
X52514476Y-22070190D01*
X52609714Y-22070190D01*
X52204952Y-21617809D02*
X52181142Y-21594000D01*
X52133523Y-21570190D01*
X52014476Y-21570190D01*
X51966857Y-21594000D01*
X51943047Y-21617809D01*
X51919238Y-21665428D01*
X51919238Y-21713047D01*
X51943047Y-21784476D01*
X52228761Y-22070190D01*
X51919238Y-22070190D01*
D10*
%TO.C,J4*%
X49387142Y-46761904D02*
X49434761Y-46714285D01*
X49482380Y-46571428D01*
X49482380Y-46476190D01*
X49434761Y-46333333D01*
X49339523Y-46238095D01*
X49244285Y-46190476D01*
X49053809Y-46142857D01*
X48910952Y-46142857D01*
X48720476Y-46190476D01*
X48625238Y-46238095D01*
X48530000Y-46333333D01*
X48482380Y-46476190D01*
X48482380Y-46571428D01*
X48530000Y-46714285D01*
X48577619Y-46761904D01*
X49482380Y-47333333D02*
X49434761Y-47238095D01*
X49387142Y-47190476D01*
X49291904Y-47142857D01*
X49006190Y-47142857D01*
X48910952Y-47190476D01*
X48863333Y-47238095D01*
X48815714Y-47333333D01*
X48815714Y-47476190D01*
X48863333Y-47571428D01*
X48910952Y-47619047D01*
X49006190Y-47666666D01*
X49291904Y-47666666D01*
X49387142Y-47619047D01*
X49434761Y-47571428D01*
X49482380Y-47476190D01*
X49482380Y-47333333D01*
X48815714Y-48095238D02*
X49482380Y-48095238D01*
X48910952Y-48095238D02*
X48863333Y-48142857D01*
X48815714Y-48238095D01*
X48815714Y-48380952D01*
X48863333Y-48476190D01*
X48958571Y-48523809D01*
X49482380Y-48523809D01*
X48815714Y-49000000D02*
X49482380Y-49000000D01*
X48910952Y-49000000D02*
X48863333Y-49047619D01*
X48815714Y-49142857D01*
X48815714Y-49285714D01*
X48863333Y-49380952D01*
X48958571Y-49428571D01*
X49482380Y-49428571D01*
X49577619Y-49666666D02*
X49577619Y-50428571D01*
X48482380Y-50857142D02*
X48482380Y-50952380D01*
X48530000Y-51047619D01*
X48577619Y-51095238D01*
X48672857Y-51142857D01*
X48863333Y-51190476D01*
X49101428Y-51190476D01*
X49291904Y-51142857D01*
X49387142Y-51095238D01*
X49434761Y-51047619D01*
X49482380Y-50952380D01*
X49482380Y-50857142D01*
X49434761Y-50761904D01*
X49387142Y-50714285D01*
X49291904Y-50666666D01*
X49101428Y-50619047D01*
X48863333Y-50619047D01*
X48672857Y-50666666D01*
X48577619Y-50714285D01*
X48530000Y-50761904D01*
X48482380Y-50857142D01*
X49482380Y-52142857D02*
X49482380Y-51571428D01*
X49482380Y-51857142D02*
X48482380Y-51857142D01*
X48625238Y-51761904D01*
X48720476Y-51666666D01*
X48768095Y-51571428D01*
X49482380Y-52476190D02*
X48815714Y-53000000D01*
X48815714Y-52476190D02*
X49482380Y-53000000D01*
X48482380Y-53571428D02*
X48482380Y-53666666D01*
X48530000Y-53761904D01*
X48577619Y-53809523D01*
X48672857Y-53857142D01*
X48863333Y-53904761D01*
X49101428Y-53904761D01*
X49291904Y-53857142D01*
X49387142Y-53809523D01*
X49434761Y-53761904D01*
X49482380Y-53666666D01*
X49482380Y-53571428D01*
X49434761Y-53476190D01*
X49387142Y-53428571D01*
X49291904Y-53380952D01*
X49101428Y-53333333D01*
X48863333Y-53333333D01*
X48672857Y-53380952D01*
X48577619Y-53428571D01*
X48530000Y-53476190D01*
X48482380Y-53571428D01*
X48482380Y-54238095D02*
X48482380Y-54904761D01*
X49482380Y-54476190D01*
X59313333Y-49952380D02*
X59313333Y-50666666D01*
X59360952Y-50809523D01*
X59456190Y-50904761D01*
X59599047Y-50952380D01*
X59694285Y-50952380D01*
X58408571Y-50285714D02*
X58408571Y-50952380D01*
X58646666Y-49904761D02*
X58884761Y-50619047D01*
X58265714Y-50619047D01*
%TO.C,Q4*%
X52466571Y-13598857D02*
X52514190Y-13741714D01*
X52561809Y-13789333D01*
X52657047Y-13836952D01*
X52799904Y-13836952D01*
X52895142Y-13789333D01*
X52942761Y-13741714D01*
X52990380Y-13646476D01*
X52990380Y-13265523D01*
X51990380Y-13265523D01*
X51990380Y-13598857D01*
X52038000Y-13694095D01*
X52085619Y-13741714D01*
X52180857Y-13789333D01*
X52276095Y-13789333D01*
X52371333Y-13741714D01*
X52418952Y-13694095D01*
X52466571Y-13598857D01*
X52466571Y-13265523D01*
X52895142Y-14836952D02*
X52942761Y-14789333D01*
X52990380Y-14646476D01*
X52990380Y-14551238D01*
X52942761Y-14408380D01*
X52847523Y-14313142D01*
X52752285Y-14265523D01*
X52561809Y-14217904D01*
X52418952Y-14217904D01*
X52228476Y-14265523D01*
X52133238Y-14313142D01*
X52038000Y-14408380D01*
X51990380Y-14551238D01*
X51990380Y-14646476D01*
X52038000Y-14789333D01*
X52085619Y-14836952D01*
X52418952Y-15408380D02*
X52371333Y-15313142D01*
X52323714Y-15265523D01*
X52228476Y-15217904D01*
X52180857Y-15217904D01*
X52085619Y-15265523D01*
X52038000Y-15313142D01*
X51990380Y-15408380D01*
X51990380Y-15598857D01*
X52038000Y-15694095D01*
X52085619Y-15741714D01*
X52180857Y-15789333D01*
X52228476Y-15789333D01*
X52323714Y-15741714D01*
X52371333Y-15694095D01*
X52418952Y-15598857D01*
X52418952Y-15408380D01*
X52466571Y-15313142D01*
X52514190Y-15265523D01*
X52609428Y-15217904D01*
X52799904Y-15217904D01*
X52895142Y-15265523D01*
X52942761Y-15313142D01*
X52990380Y-15408380D01*
X52990380Y-15598857D01*
X52942761Y-15694095D01*
X52895142Y-15741714D01*
X52799904Y-15789333D01*
X52609428Y-15789333D01*
X52514190Y-15741714D01*
X52466571Y-15694095D01*
X52418952Y-15598857D01*
X52323714Y-16646476D02*
X52990380Y-16646476D01*
X51942761Y-16408380D02*
X52657047Y-16170285D01*
X52657047Y-16789333D01*
X51990380Y-17075047D02*
X51990380Y-17741714D01*
X52990380Y-17313142D01*
D12*
X50085619Y-15729809D02*
X50133238Y-15706000D01*
X50180857Y-15658380D01*
X50252285Y-15586952D01*
X50299904Y-15563142D01*
X50347523Y-15563142D01*
X50323714Y-15682190D02*
X50371333Y-15658380D01*
X50418952Y-15610761D01*
X50442761Y-15515523D01*
X50442761Y-15348857D01*
X50418952Y-15253619D01*
X50371333Y-15206000D01*
X50323714Y-15182190D01*
X50228476Y-15182190D01*
X50180857Y-15206000D01*
X50133238Y-15253619D01*
X50109428Y-15348857D01*
X50109428Y-15515523D01*
X50133238Y-15610761D01*
X50180857Y-15658380D01*
X50228476Y-15682190D01*
X50323714Y-15682190D01*
X49680857Y-15348857D02*
X49680857Y-15682190D01*
X49799904Y-15158380D02*
X49918952Y-15515523D01*
X49609428Y-15515523D01*
D10*
%TO.C,R25*%
X61857380Y-27054761D02*
X61857380Y-26483333D01*
X61857380Y-26769047D02*
X60857380Y-26769047D01*
X61000238Y-26673809D01*
X61095476Y-26578571D01*
X61143095Y-26483333D01*
X60857380Y-27673809D02*
X60857380Y-27769047D01*
X60905000Y-27864285D01*
X60952619Y-27911904D01*
X61047857Y-27959523D01*
X61238333Y-28007142D01*
X61476428Y-28007142D01*
X61666904Y-27959523D01*
X61762142Y-27911904D01*
X61809761Y-27864285D01*
X61857380Y-27769047D01*
X61857380Y-27673809D01*
X61809761Y-27578571D01*
X61762142Y-27530952D01*
X61666904Y-27483333D01*
X61476428Y-27435714D01*
X61238333Y-27435714D01*
X61047857Y-27483333D01*
X60952619Y-27530952D01*
X60905000Y-27578571D01*
X60857380Y-27673809D01*
X61857380Y-28435714D02*
X60857380Y-28435714D01*
X61476428Y-28530952D02*
X61857380Y-28816666D01*
X61190714Y-28816666D02*
X61571666Y-28435714D01*
D11*
X63586904Y-27135714D02*
X63205952Y-26869047D01*
X63586904Y-26678571D02*
X62786904Y-26678571D01*
X62786904Y-26983333D01*
X62825000Y-27059523D01*
X62863095Y-27097619D01*
X62939285Y-27135714D01*
X63053571Y-27135714D01*
X63129761Y-27097619D01*
X63167857Y-27059523D01*
X63205952Y-26983333D01*
X63205952Y-26678571D01*
X62863095Y-27440476D02*
X62825000Y-27478571D01*
X62786904Y-27554761D01*
X62786904Y-27745238D01*
X62825000Y-27821428D01*
X62863095Y-27859523D01*
X62939285Y-27897619D01*
X63015476Y-27897619D01*
X63129761Y-27859523D01*
X63586904Y-27402380D01*
X63586904Y-27897619D01*
X62786904Y-28621428D02*
X62786904Y-28240476D01*
X63167857Y-28202380D01*
X63129761Y-28240476D01*
X63091666Y-28316666D01*
X63091666Y-28507142D01*
X63129761Y-28583333D01*
X63167857Y-28621428D01*
X63244047Y-28659523D01*
X63434523Y-28659523D01*
X63510714Y-28621428D01*
X63548809Y-28583333D01*
X63586904Y-28507142D01*
X63586904Y-28316666D01*
X63548809Y-28240476D01*
X63510714Y-28202380D01*
D10*
%TO.C,R98*%
X61032380Y-42091666D02*
X61032380Y-41520238D01*
X61032380Y-41805952D02*
X60032380Y-41805952D01*
X60175238Y-41710714D01*
X60270476Y-41615476D01*
X60318095Y-41520238D01*
X60937142Y-42520238D02*
X60984761Y-42567857D01*
X61032380Y-42520238D01*
X60984761Y-42472619D01*
X60937142Y-42520238D01*
X61032380Y-42520238D01*
X61032380Y-43520238D02*
X61032380Y-42948809D01*
X61032380Y-43234523D02*
X60032380Y-43234523D01*
X60175238Y-43139285D01*
X60270476Y-43044047D01*
X60318095Y-42948809D01*
X61032380Y-43948809D02*
X60032380Y-43948809D01*
X60651428Y-44044047D02*
X61032380Y-44329761D01*
X60365714Y-44329761D02*
X60746666Y-43948809D01*
D11*
X62761904Y-42410714D02*
X62380952Y-42144047D01*
X62761904Y-41953571D02*
X61961904Y-41953571D01*
X61961904Y-42258333D01*
X62000000Y-42334523D01*
X62038095Y-42372619D01*
X62114285Y-42410714D01*
X62228571Y-42410714D01*
X62304761Y-42372619D01*
X62342857Y-42334523D01*
X62380952Y-42258333D01*
X62380952Y-41953571D01*
X62761904Y-42791666D02*
X62761904Y-42944047D01*
X62723809Y-43020238D01*
X62685714Y-43058333D01*
X62571428Y-43134523D01*
X62419047Y-43172619D01*
X62114285Y-43172619D01*
X62038095Y-43134523D01*
X62000000Y-43096428D01*
X61961904Y-43020238D01*
X61961904Y-42867857D01*
X62000000Y-42791666D01*
X62038095Y-42753571D01*
X62114285Y-42715476D01*
X62304761Y-42715476D01*
X62380952Y-42753571D01*
X62419047Y-42791666D01*
X62457142Y-42867857D01*
X62457142Y-43020238D01*
X62419047Y-43096428D01*
X62380952Y-43134523D01*
X62304761Y-43172619D01*
X62304761Y-43629761D02*
X62266666Y-43553571D01*
X62228571Y-43515476D01*
X62152380Y-43477380D01*
X62114285Y-43477380D01*
X62038095Y-43515476D01*
X62000000Y-43553571D01*
X61961904Y-43629761D01*
X61961904Y-43782142D01*
X62000000Y-43858333D01*
X62038095Y-43896428D01*
X62114285Y-43934523D01*
X62152380Y-43934523D01*
X62228571Y-43896428D01*
X62266666Y-43858333D01*
X62304761Y-43782142D01*
X62304761Y-43629761D01*
X62342857Y-43553571D01*
X62380952Y-43515476D01*
X62457142Y-43477380D01*
X62609523Y-43477380D01*
X62685714Y-43515476D01*
X62723809Y-43553571D01*
X62761904Y-43629761D01*
X62761904Y-43782142D01*
X62723809Y-43858333D01*
X62685714Y-43896428D01*
X62609523Y-43934523D01*
X62457142Y-43934523D01*
X62380952Y-43896428D01*
X62342857Y-43858333D01*
X62304761Y-43782142D01*
D10*
%TO.C,Q6*%
X48656571Y-19986857D02*
X48704190Y-20129714D01*
X48751809Y-20177333D01*
X48847047Y-20224952D01*
X48989904Y-20224952D01*
X49085142Y-20177333D01*
X49132761Y-20129714D01*
X49180380Y-20034476D01*
X49180380Y-19653523D01*
X48180380Y-19653523D01*
X48180380Y-19986857D01*
X48228000Y-20082095D01*
X48275619Y-20129714D01*
X48370857Y-20177333D01*
X48466095Y-20177333D01*
X48561333Y-20129714D01*
X48608952Y-20082095D01*
X48656571Y-19986857D01*
X48656571Y-19653523D01*
X49085142Y-21224952D02*
X49132761Y-21177333D01*
X49180380Y-21034476D01*
X49180380Y-20939238D01*
X49132761Y-20796380D01*
X49037523Y-20701142D01*
X48942285Y-20653523D01*
X48751809Y-20605904D01*
X48608952Y-20605904D01*
X48418476Y-20653523D01*
X48323238Y-20701142D01*
X48228000Y-20796380D01*
X48180380Y-20939238D01*
X48180380Y-21034476D01*
X48228000Y-21177333D01*
X48275619Y-21224952D01*
X48608952Y-21796380D02*
X48561333Y-21701142D01*
X48513714Y-21653523D01*
X48418476Y-21605904D01*
X48370857Y-21605904D01*
X48275619Y-21653523D01*
X48228000Y-21701142D01*
X48180380Y-21796380D01*
X48180380Y-21986857D01*
X48228000Y-22082095D01*
X48275619Y-22129714D01*
X48370857Y-22177333D01*
X48418476Y-22177333D01*
X48513714Y-22129714D01*
X48561333Y-22082095D01*
X48608952Y-21986857D01*
X48608952Y-21796380D01*
X48656571Y-21701142D01*
X48704190Y-21653523D01*
X48799428Y-21605904D01*
X48989904Y-21605904D01*
X49085142Y-21653523D01*
X49132761Y-21701142D01*
X49180380Y-21796380D01*
X49180380Y-21986857D01*
X49132761Y-22082095D01*
X49085142Y-22129714D01*
X48989904Y-22177333D01*
X48799428Y-22177333D01*
X48704190Y-22129714D01*
X48656571Y-22082095D01*
X48608952Y-21986857D01*
X48513714Y-23034476D02*
X49180380Y-23034476D01*
X48132761Y-22796380D02*
X48847047Y-22558285D01*
X48847047Y-23177333D01*
X48180380Y-23463047D02*
X48180380Y-24129714D01*
X49180380Y-23701142D01*
D12*
X46275619Y-22117809D02*
X46323238Y-22094000D01*
X46370857Y-22046380D01*
X46442285Y-21974952D01*
X46489904Y-21951142D01*
X46537523Y-21951142D01*
X46513714Y-22070190D02*
X46561333Y-22046380D01*
X46608952Y-21998761D01*
X46632761Y-21903523D01*
X46632761Y-21736857D01*
X46608952Y-21641619D01*
X46561333Y-21594000D01*
X46513714Y-21570190D01*
X46418476Y-21570190D01*
X46370857Y-21594000D01*
X46323238Y-21641619D01*
X46299428Y-21736857D01*
X46299428Y-21903523D01*
X46323238Y-21998761D01*
X46370857Y-22046380D01*
X46418476Y-22070190D01*
X46513714Y-22070190D01*
X45870857Y-21570190D02*
X45966095Y-21570190D01*
X46013714Y-21594000D01*
X46037523Y-21617809D01*
X46085142Y-21689238D01*
X46108952Y-21784476D01*
X46108952Y-21974952D01*
X46085142Y-22022571D01*
X46061333Y-22046380D01*
X46013714Y-22070190D01*
X45918476Y-22070190D01*
X45870857Y-22046380D01*
X45847047Y-22022571D01*
X45823238Y-21974952D01*
X45823238Y-21855904D01*
X45847047Y-21808285D01*
X45870857Y-21784476D01*
X45918476Y-21760666D01*
X46013714Y-21760666D01*
X46061333Y-21784476D01*
X46085142Y-21808285D01*
X46108952Y-21855904D01*
D10*
%TO.C,Q16*%
X35448571Y-13890857D02*
X35496190Y-14033714D01*
X35543809Y-14081333D01*
X35639047Y-14128952D01*
X35781904Y-14128952D01*
X35877142Y-14081333D01*
X35924761Y-14033714D01*
X35972380Y-13938476D01*
X35972380Y-13557523D01*
X34972380Y-13557523D01*
X34972380Y-13890857D01*
X35020000Y-13986095D01*
X35067619Y-14033714D01*
X35162857Y-14081333D01*
X35258095Y-14081333D01*
X35353333Y-14033714D01*
X35400952Y-13986095D01*
X35448571Y-13890857D01*
X35448571Y-13557523D01*
X35877142Y-15128952D02*
X35924761Y-15081333D01*
X35972380Y-14938476D01*
X35972380Y-14843238D01*
X35924761Y-14700380D01*
X35829523Y-14605142D01*
X35734285Y-14557523D01*
X35543809Y-14509904D01*
X35400952Y-14509904D01*
X35210476Y-14557523D01*
X35115238Y-14605142D01*
X35020000Y-14700380D01*
X34972380Y-14843238D01*
X34972380Y-14938476D01*
X35020000Y-15081333D01*
X35067619Y-15128952D01*
X35400952Y-15700380D02*
X35353333Y-15605142D01*
X35305714Y-15557523D01*
X35210476Y-15509904D01*
X35162857Y-15509904D01*
X35067619Y-15557523D01*
X35020000Y-15605142D01*
X34972380Y-15700380D01*
X34972380Y-15890857D01*
X35020000Y-15986095D01*
X35067619Y-16033714D01*
X35162857Y-16081333D01*
X35210476Y-16081333D01*
X35305714Y-16033714D01*
X35353333Y-15986095D01*
X35400952Y-15890857D01*
X35400952Y-15700380D01*
X35448571Y-15605142D01*
X35496190Y-15557523D01*
X35591428Y-15509904D01*
X35781904Y-15509904D01*
X35877142Y-15557523D01*
X35924761Y-15605142D01*
X35972380Y-15700380D01*
X35972380Y-15890857D01*
X35924761Y-15986095D01*
X35877142Y-16033714D01*
X35781904Y-16081333D01*
X35591428Y-16081333D01*
X35496190Y-16033714D01*
X35448571Y-15986095D01*
X35400952Y-15890857D01*
X35305714Y-16938476D02*
X35972380Y-16938476D01*
X34924761Y-16700380D02*
X35639047Y-16462285D01*
X35639047Y-17081333D01*
X34972380Y-17367047D02*
X34972380Y-18033714D01*
X35972380Y-17605142D01*
D12*
X33305714Y-16021809D02*
X33353333Y-15998000D01*
X33400952Y-15950380D01*
X33472380Y-15878952D01*
X33520000Y-15855142D01*
X33567619Y-15855142D01*
X33543809Y-15974190D02*
X33591428Y-15950380D01*
X33639047Y-15902761D01*
X33662857Y-15807523D01*
X33662857Y-15640857D01*
X33639047Y-15545619D01*
X33591428Y-15498000D01*
X33543809Y-15474190D01*
X33448571Y-15474190D01*
X33400952Y-15498000D01*
X33353333Y-15545619D01*
X33329523Y-15640857D01*
X33329523Y-15807523D01*
X33353333Y-15902761D01*
X33400952Y-15950380D01*
X33448571Y-15974190D01*
X33543809Y-15974190D01*
X32853333Y-15974190D02*
X33139047Y-15974190D01*
X32996190Y-15974190D02*
X32996190Y-15474190D01*
X33043809Y-15545619D01*
X33091428Y-15593238D01*
X33139047Y-15617047D01*
X32424761Y-15474190D02*
X32520000Y-15474190D01*
X32567619Y-15498000D01*
X32591428Y-15521809D01*
X32639047Y-15593238D01*
X32662857Y-15688476D01*
X32662857Y-15878952D01*
X32639047Y-15926571D01*
X32615238Y-15950380D01*
X32567619Y-15974190D01*
X32472380Y-15974190D01*
X32424761Y-15950380D01*
X32400952Y-15926571D01*
X32377142Y-15878952D01*
X32377142Y-15759904D01*
X32400952Y-15712285D01*
X32424761Y-15688476D01*
X32472380Y-15664666D01*
X32567619Y-15664666D01*
X32615238Y-15688476D01*
X32639047Y-15712285D01*
X32662857Y-15759904D01*
D10*
%TO.C,R24*%
X34530380Y-27019333D02*
X34530380Y-26447904D01*
X34530380Y-26733619D02*
X33530380Y-26733619D01*
X33673238Y-26638380D01*
X33768476Y-26543142D01*
X33816095Y-26447904D01*
X33625619Y-27400285D02*
X33578000Y-27447904D01*
X33530380Y-27543142D01*
X33530380Y-27781238D01*
X33578000Y-27876476D01*
X33625619Y-27924095D01*
X33720857Y-27971714D01*
X33816095Y-27971714D01*
X33958952Y-27924095D01*
X34530380Y-27352666D01*
X34530380Y-27971714D01*
X33530380Y-28590761D02*
X33530380Y-28686000D01*
X33578000Y-28781238D01*
X33625619Y-28828857D01*
X33720857Y-28876476D01*
X33911333Y-28924095D01*
X34149428Y-28924095D01*
X34339904Y-28876476D01*
X34435142Y-28828857D01*
X34482761Y-28781238D01*
X34530380Y-28686000D01*
X34530380Y-28590761D01*
X34482761Y-28495523D01*
X34435142Y-28447904D01*
X34339904Y-28400285D01*
X34149428Y-28352666D01*
X33911333Y-28352666D01*
X33720857Y-28400285D01*
X33625619Y-28447904D01*
X33578000Y-28495523D01*
X33530380Y-28590761D01*
D11*
X32619904Y-27171714D02*
X32238952Y-26905047D01*
X32619904Y-26714571D02*
X31819904Y-26714571D01*
X31819904Y-27019333D01*
X31858000Y-27095523D01*
X31896095Y-27133619D01*
X31972285Y-27171714D01*
X32086571Y-27171714D01*
X32162761Y-27133619D01*
X32200857Y-27095523D01*
X32238952Y-27019333D01*
X32238952Y-26714571D01*
X31896095Y-27476476D02*
X31858000Y-27514571D01*
X31819904Y-27590761D01*
X31819904Y-27781238D01*
X31858000Y-27857428D01*
X31896095Y-27895523D01*
X31972285Y-27933619D01*
X32048476Y-27933619D01*
X32162761Y-27895523D01*
X32619904Y-27438380D01*
X32619904Y-27933619D01*
X32086571Y-28619333D02*
X32619904Y-28619333D01*
X31781809Y-28428857D02*
X32353238Y-28238380D01*
X32353238Y-28733619D01*
D10*
%TO.C,R21*%
X37324380Y-27019333D02*
X37324380Y-26447904D01*
X37324380Y-26733619D02*
X36324380Y-26733619D01*
X36467238Y-26638380D01*
X36562476Y-26543142D01*
X36610095Y-26447904D01*
X36419619Y-27400285D02*
X36372000Y-27447904D01*
X36324380Y-27543142D01*
X36324380Y-27781238D01*
X36372000Y-27876476D01*
X36419619Y-27924095D01*
X36514857Y-27971714D01*
X36610095Y-27971714D01*
X36752952Y-27924095D01*
X37324380Y-27352666D01*
X37324380Y-27971714D01*
X36324380Y-28590761D02*
X36324380Y-28686000D01*
X36372000Y-28781238D01*
X36419619Y-28828857D01*
X36514857Y-28876476D01*
X36705333Y-28924095D01*
X36943428Y-28924095D01*
X37133904Y-28876476D01*
X37229142Y-28828857D01*
X37276761Y-28781238D01*
X37324380Y-28686000D01*
X37324380Y-28590761D01*
X37276761Y-28495523D01*
X37229142Y-28447904D01*
X37133904Y-28400285D01*
X36943428Y-28352666D01*
X36705333Y-28352666D01*
X36514857Y-28400285D01*
X36419619Y-28447904D01*
X36372000Y-28495523D01*
X36324380Y-28590761D01*
D11*
X35413904Y-27171714D02*
X35032952Y-26905047D01*
X35413904Y-26714571D02*
X34613904Y-26714571D01*
X34613904Y-27019333D01*
X34652000Y-27095523D01*
X34690095Y-27133619D01*
X34766285Y-27171714D01*
X34880571Y-27171714D01*
X34956761Y-27133619D01*
X34994857Y-27095523D01*
X35032952Y-27019333D01*
X35032952Y-26714571D01*
X34690095Y-27476476D02*
X34652000Y-27514571D01*
X34613904Y-27590761D01*
X34613904Y-27781238D01*
X34652000Y-27857428D01*
X34690095Y-27895523D01*
X34766285Y-27933619D01*
X34842476Y-27933619D01*
X34956761Y-27895523D01*
X35413904Y-27438380D01*
X35413904Y-27933619D01*
X35413904Y-28695523D02*
X35413904Y-28238380D01*
X35413904Y-28466952D02*
X34613904Y-28466952D01*
X34728190Y-28390761D01*
X34804380Y-28314571D01*
X34842476Y-28238380D01*
D10*
%TO.C,R15*%
X43166380Y-26993333D02*
X43166380Y-26421904D01*
X43166380Y-26707619D02*
X42166380Y-26707619D01*
X42309238Y-26612380D01*
X42404476Y-26517142D01*
X42452095Y-26421904D01*
X42261619Y-27374285D02*
X42214000Y-27421904D01*
X42166380Y-27517142D01*
X42166380Y-27755238D01*
X42214000Y-27850476D01*
X42261619Y-27898095D01*
X42356857Y-27945714D01*
X42452095Y-27945714D01*
X42594952Y-27898095D01*
X43166380Y-27326666D01*
X43166380Y-27945714D01*
X42166380Y-28564761D02*
X42166380Y-28660000D01*
X42214000Y-28755238D01*
X42261619Y-28802857D01*
X42356857Y-28850476D01*
X42547333Y-28898095D01*
X42785428Y-28898095D01*
X42975904Y-28850476D01*
X43071142Y-28802857D01*
X43118761Y-28755238D01*
X43166380Y-28660000D01*
X43166380Y-28564761D01*
X43118761Y-28469523D01*
X43071142Y-28421904D01*
X42975904Y-28374285D01*
X42785428Y-28326666D01*
X42547333Y-28326666D01*
X42356857Y-28374285D01*
X42261619Y-28421904D01*
X42214000Y-28469523D01*
X42166380Y-28564761D01*
D11*
X41255904Y-27145714D02*
X40874952Y-26879047D01*
X41255904Y-26688571D02*
X40455904Y-26688571D01*
X40455904Y-26993333D01*
X40494000Y-27069523D01*
X40532095Y-27107619D01*
X40608285Y-27145714D01*
X40722571Y-27145714D01*
X40798761Y-27107619D01*
X40836857Y-27069523D01*
X40874952Y-26993333D01*
X40874952Y-26688571D01*
X41255904Y-27907619D02*
X41255904Y-27450476D01*
X41255904Y-27679047D02*
X40455904Y-27679047D01*
X40570190Y-27602857D01*
X40646380Y-27526666D01*
X40684476Y-27450476D01*
X40455904Y-28631428D02*
X40455904Y-28250476D01*
X40836857Y-28212380D01*
X40798761Y-28250476D01*
X40760666Y-28326666D01*
X40760666Y-28517142D01*
X40798761Y-28593333D01*
X40836857Y-28631428D01*
X40913047Y-28669523D01*
X41103523Y-28669523D01*
X41179714Y-28631428D01*
X41217809Y-28593333D01*
X41255904Y-28517142D01*
X41255904Y-28326666D01*
X41217809Y-28250476D01*
X41179714Y-28212380D01*
D10*
%TO.C,C2*%
X53752380Y-19809523D02*
X53752380Y-20428571D01*
X54133333Y-20095238D01*
X54133333Y-20238095D01*
X54180952Y-20333333D01*
X54228571Y-20380952D01*
X54323809Y-20428571D01*
X54561904Y-20428571D01*
X54657142Y-20380952D01*
X54704761Y-20333333D01*
X54752380Y-20238095D01*
X54752380Y-19952380D01*
X54704761Y-19857142D01*
X54657142Y-19809523D01*
X53752380Y-20761904D02*
X53752380Y-21380952D01*
X54133333Y-21047619D01*
X54133333Y-21190476D01*
X54180952Y-21285714D01*
X54228571Y-21333333D01*
X54323809Y-21380952D01*
X54561904Y-21380952D01*
X54657142Y-21333333D01*
X54704761Y-21285714D01*
X54752380Y-21190476D01*
X54752380Y-20904761D01*
X54704761Y-20809523D01*
X54657142Y-20761904D01*
X54085714Y-21809523D02*
X54752380Y-21809523D01*
X54180952Y-21809523D02*
X54133333Y-21857142D01*
X54085714Y-21952380D01*
X54085714Y-22095238D01*
X54133333Y-22190476D01*
X54228571Y-22238095D01*
X54752380Y-22238095D01*
X54228571Y-23047619D02*
X54228571Y-22714285D01*
X54752380Y-22714285D02*
X53752380Y-22714285D01*
X53752380Y-23190476D01*
D11*
X56435714Y-21366666D02*
X56473809Y-21328571D01*
X56511904Y-21214285D01*
X56511904Y-21138095D01*
X56473809Y-21023809D01*
X56397619Y-20947619D01*
X56321428Y-20909523D01*
X56169047Y-20871428D01*
X56054761Y-20871428D01*
X55902380Y-20909523D01*
X55826190Y-20947619D01*
X55750000Y-21023809D01*
X55711904Y-21138095D01*
X55711904Y-21214285D01*
X55750000Y-21328571D01*
X55788095Y-21366666D01*
X55788095Y-21671428D02*
X55750000Y-21709523D01*
X55711904Y-21785714D01*
X55711904Y-21976190D01*
X55750000Y-22052380D01*
X55788095Y-22090476D01*
X55864285Y-22128571D01*
X55940476Y-22128571D01*
X56054761Y-22090476D01*
X56511904Y-21633333D01*
X56511904Y-22128571D01*
D10*
%TO.C,R89*%
X7742685Y-2847180D02*
X7123638Y-2847180D01*
X7456971Y-3228133D01*
X7314114Y-3228133D01*
X7218876Y-3275752D01*
X7171257Y-3323371D01*
X7123638Y-3418609D01*
X7123638Y-3656704D01*
X7171257Y-3751942D01*
X7218876Y-3799561D01*
X7314114Y-3847180D01*
X7599828Y-3847180D01*
X7695066Y-3799561D01*
X7742685Y-3751942D01*
X6504590Y-2847180D02*
X6409352Y-2847180D01*
X6314114Y-2894800D01*
X6266495Y-2942419D01*
X6218876Y-3037657D01*
X6171257Y-3228133D01*
X6171257Y-3466228D01*
X6218876Y-3656704D01*
X6266495Y-3751942D01*
X6314114Y-3799561D01*
X6409352Y-3847180D01*
X6504590Y-3847180D01*
X6599828Y-3799561D01*
X6647447Y-3751942D01*
X6695066Y-3656704D01*
X6742685Y-3466228D01*
X6742685Y-3228133D01*
X6695066Y-3037657D01*
X6647447Y-2942419D01*
X6599828Y-2894800D01*
X6504590Y-2847180D01*
X5742685Y-3847180D02*
X5742685Y-2847180D01*
X5647447Y-3466228D02*
X5361733Y-3847180D01*
X5361733Y-3180514D02*
X5742685Y-3561466D01*
D11*
X7042685Y-1936704D02*
X7309352Y-1555752D01*
X7499828Y-1936704D02*
X7499828Y-1136704D01*
X7195066Y-1136704D01*
X7118876Y-1174800D01*
X7080780Y-1212895D01*
X7042685Y-1289085D01*
X7042685Y-1403371D01*
X7080780Y-1479561D01*
X7118876Y-1517657D01*
X7195066Y-1555752D01*
X7499828Y-1555752D01*
X6585542Y-1479561D02*
X6661733Y-1441466D01*
X6699828Y-1403371D01*
X6737923Y-1327180D01*
X6737923Y-1289085D01*
X6699828Y-1212895D01*
X6661733Y-1174800D01*
X6585542Y-1136704D01*
X6433161Y-1136704D01*
X6356971Y-1174800D01*
X6318876Y-1212895D01*
X6280780Y-1289085D01*
X6280780Y-1327180D01*
X6318876Y-1403371D01*
X6356971Y-1441466D01*
X6433161Y-1479561D01*
X6585542Y-1479561D01*
X6661733Y-1517657D01*
X6699828Y-1555752D01*
X6737923Y-1631942D01*
X6737923Y-1784323D01*
X6699828Y-1860514D01*
X6661733Y-1898609D01*
X6585542Y-1936704D01*
X6433161Y-1936704D01*
X6356971Y-1898609D01*
X6318876Y-1860514D01*
X6280780Y-1784323D01*
X6280780Y-1631942D01*
X6318876Y-1555752D01*
X6356971Y-1517657D01*
X6433161Y-1479561D01*
X5899828Y-1936704D02*
X5747447Y-1936704D01*
X5671257Y-1898609D01*
X5633161Y-1860514D01*
X5556971Y-1746228D01*
X5518876Y-1593847D01*
X5518876Y-1289085D01*
X5556971Y-1212895D01*
X5595066Y-1174800D01*
X5671257Y-1136704D01*
X5823638Y-1136704D01*
X5899828Y-1174800D01*
X5937923Y-1212895D01*
X5976019Y-1289085D01*
X5976019Y-1479561D01*
X5937923Y-1555752D01*
X5899828Y-1593847D01*
X5823638Y-1631942D01*
X5671257Y-1631942D01*
X5595066Y-1593847D01*
X5556971Y-1555752D01*
X5518876Y-1479561D01*
D10*
%TO.C,J3*%
X26307142Y-46761904D02*
X26354761Y-46714285D01*
X26402380Y-46571428D01*
X26402380Y-46476190D01*
X26354761Y-46333333D01*
X26259523Y-46238095D01*
X26164285Y-46190476D01*
X25973809Y-46142857D01*
X25830952Y-46142857D01*
X25640476Y-46190476D01*
X25545238Y-46238095D01*
X25450000Y-46333333D01*
X25402380Y-46476190D01*
X25402380Y-46571428D01*
X25450000Y-46714285D01*
X25497619Y-46761904D01*
X26402380Y-47333333D02*
X26354761Y-47238095D01*
X26307142Y-47190476D01*
X26211904Y-47142857D01*
X25926190Y-47142857D01*
X25830952Y-47190476D01*
X25783333Y-47238095D01*
X25735714Y-47333333D01*
X25735714Y-47476190D01*
X25783333Y-47571428D01*
X25830952Y-47619047D01*
X25926190Y-47666666D01*
X26211904Y-47666666D01*
X26307142Y-47619047D01*
X26354761Y-47571428D01*
X26402380Y-47476190D01*
X26402380Y-47333333D01*
X25735714Y-48095238D02*
X26402380Y-48095238D01*
X25830952Y-48095238D02*
X25783333Y-48142857D01*
X25735714Y-48238095D01*
X25735714Y-48380952D01*
X25783333Y-48476190D01*
X25878571Y-48523809D01*
X26402380Y-48523809D01*
X25735714Y-49000000D02*
X26402380Y-49000000D01*
X25830952Y-49000000D02*
X25783333Y-49047619D01*
X25735714Y-49142857D01*
X25735714Y-49285714D01*
X25783333Y-49380952D01*
X25878571Y-49428571D01*
X26402380Y-49428571D01*
X26497619Y-49666666D02*
X26497619Y-50428571D01*
X25402380Y-50857142D02*
X25402380Y-50952380D01*
X25450000Y-51047619D01*
X25497619Y-51095238D01*
X25592857Y-51142857D01*
X25783333Y-51190476D01*
X26021428Y-51190476D01*
X26211904Y-51142857D01*
X26307142Y-51095238D01*
X26354761Y-51047619D01*
X26402380Y-50952380D01*
X26402380Y-50857142D01*
X26354761Y-50761904D01*
X26307142Y-50714285D01*
X26211904Y-50666666D01*
X26021428Y-50619047D01*
X25783333Y-50619047D01*
X25592857Y-50666666D01*
X25497619Y-50714285D01*
X25450000Y-50761904D01*
X25402380Y-50857142D01*
X26402380Y-52142857D02*
X26402380Y-51571428D01*
X26402380Y-51857142D02*
X25402380Y-51857142D01*
X25545238Y-51761904D01*
X25640476Y-51666666D01*
X25688095Y-51571428D01*
X26402380Y-52476190D02*
X25735714Y-53000000D01*
X25735714Y-52476190D02*
X26402380Y-53000000D01*
X25402380Y-53571428D02*
X25402380Y-53666666D01*
X25450000Y-53761904D01*
X25497619Y-53809523D01*
X25592857Y-53857142D01*
X25783333Y-53904761D01*
X26021428Y-53904761D01*
X26211904Y-53857142D01*
X26307142Y-53809523D01*
X26354761Y-53761904D01*
X26402380Y-53666666D01*
X26402380Y-53571428D01*
X26354761Y-53476190D01*
X26307142Y-53428571D01*
X26211904Y-53380952D01*
X26021428Y-53333333D01*
X25783333Y-53333333D01*
X25592857Y-53380952D01*
X25497619Y-53428571D01*
X25450000Y-53476190D01*
X25402380Y-53571428D01*
X25830952Y-54476190D02*
X25783333Y-54380952D01*
X25735714Y-54333333D01*
X25640476Y-54285714D01*
X25592857Y-54285714D01*
X25497619Y-54333333D01*
X25450000Y-54380952D01*
X25402380Y-54476190D01*
X25402380Y-54666666D01*
X25450000Y-54761904D01*
X25497619Y-54809523D01*
X25592857Y-54857142D01*
X25640476Y-54857142D01*
X25735714Y-54809523D01*
X25783333Y-54761904D01*
X25830952Y-54666666D01*
X25830952Y-54476190D01*
X25878571Y-54380952D01*
X25926190Y-54333333D01*
X26021428Y-54285714D01*
X26211904Y-54285714D01*
X26307142Y-54333333D01*
X26354761Y-54380952D01*
X26402380Y-54476190D01*
X26402380Y-54666666D01*
X26354761Y-54761904D01*
X26307142Y-54809523D01*
X26211904Y-54857142D01*
X26021428Y-54857142D01*
X25926190Y-54809523D01*
X25878571Y-54761904D01*
X25830952Y-54666666D01*
X37503333Y-49952380D02*
X37503333Y-50666666D01*
X37550952Y-50809523D01*
X37646190Y-50904761D01*
X37789047Y-50952380D01*
X37884285Y-50952380D01*
X37122380Y-49952380D02*
X36503333Y-49952380D01*
X36836666Y-50333333D01*
X36693809Y-50333333D01*
X36598571Y-50380952D01*
X36550952Y-50428571D01*
X36503333Y-50523809D01*
X36503333Y-50761904D01*
X36550952Y-50857142D01*
X36598571Y-50904761D01*
X36693809Y-50952380D01*
X36979523Y-50952380D01*
X37074761Y-50904761D01*
X37122380Y-50857142D01*
%TO.C,R92*%
X43257380Y-41941666D02*
X43257380Y-41370238D01*
X43257380Y-41655952D02*
X42257380Y-41655952D01*
X42400238Y-41560714D01*
X42495476Y-41465476D01*
X42543095Y-41370238D01*
X43162142Y-42370238D02*
X43209761Y-42417857D01*
X43257380Y-42370238D01*
X43209761Y-42322619D01*
X43162142Y-42370238D01*
X43257380Y-42370238D01*
X43257380Y-43370238D02*
X43257380Y-42798809D01*
X43257380Y-43084523D02*
X42257380Y-43084523D01*
X42400238Y-42989285D01*
X42495476Y-42894047D01*
X42543095Y-42798809D01*
X43257380Y-43798809D02*
X42257380Y-43798809D01*
X42876428Y-43894047D02*
X43257380Y-44179761D01*
X42590714Y-44179761D02*
X42971666Y-43798809D01*
D11*
X44986904Y-42260714D02*
X44605952Y-41994047D01*
X44986904Y-41803571D02*
X44186904Y-41803571D01*
X44186904Y-42108333D01*
X44225000Y-42184523D01*
X44263095Y-42222619D01*
X44339285Y-42260714D01*
X44453571Y-42260714D01*
X44529761Y-42222619D01*
X44567857Y-42184523D01*
X44605952Y-42108333D01*
X44605952Y-41803571D01*
X44986904Y-42641666D02*
X44986904Y-42794047D01*
X44948809Y-42870238D01*
X44910714Y-42908333D01*
X44796428Y-42984523D01*
X44644047Y-43022619D01*
X44339285Y-43022619D01*
X44263095Y-42984523D01*
X44225000Y-42946428D01*
X44186904Y-42870238D01*
X44186904Y-42717857D01*
X44225000Y-42641666D01*
X44263095Y-42603571D01*
X44339285Y-42565476D01*
X44529761Y-42565476D01*
X44605952Y-42603571D01*
X44644047Y-42641666D01*
X44682142Y-42717857D01*
X44682142Y-42870238D01*
X44644047Y-42946428D01*
X44605952Y-42984523D01*
X44529761Y-43022619D01*
X44263095Y-43327380D02*
X44225000Y-43365476D01*
X44186904Y-43441666D01*
X44186904Y-43632142D01*
X44225000Y-43708333D01*
X44263095Y-43746428D01*
X44339285Y-43784523D01*
X44415476Y-43784523D01*
X44529761Y-43746428D01*
X44986904Y-43289285D01*
X44986904Y-43784523D01*
D10*
%TO.C,J2*%
X43827142Y1158095D02*
X43874761Y1205714D01*
X43922380Y1348571D01*
X43922380Y1443809D01*
X43874761Y1586666D01*
X43779523Y1681904D01*
X43684285Y1729523D01*
X43493809Y1777142D01*
X43350952Y1777142D01*
X43160476Y1729523D01*
X43065238Y1681904D01*
X42970000Y1586666D01*
X42922380Y1443809D01*
X42922380Y1348571D01*
X42970000Y1205714D01*
X43017619Y1158095D01*
X43922380Y586666D02*
X43874761Y681904D01*
X43827142Y729523D01*
X43731904Y777142D01*
X43446190Y777142D01*
X43350952Y729523D01*
X43303333Y681904D01*
X43255714Y586666D01*
X43255714Y443809D01*
X43303333Y348571D01*
X43350952Y300952D01*
X43446190Y253333D01*
X43731904Y253333D01*
X43827142Y300952D01*
X43874761Y348571D01*
X43922380Y443809D01*
X43922380Y586666D01*
X43255714Y-175238D02*
X43922380Y-175238D01*
X43350952Y-175238D02*
X43303333Y-222857D01*
X43255714Y-318095D01*
X43255714Y-460952D01*
X43303333Y-556190D01*
X43398571Y-603809D01*
X43922380Y-603809D01*
X43255714Y-1080000D02*
X43922380Y-1080000D01*
X43350952Y-1080000D02*
X43303333Y-1127619D01*
X43255714Y-1222857D01*
X43255714Y-1365714D01*
X43303333Y-1460952D01*
X43398571Y-1508571D01*
X43922380Y-1508571D01*
X44017619Y-1746666D02*
X44017619Y-2508571D01*
X42922380Y-2937142D02*
X42922380Y-3032380D01*
X42970000Y-3127619D01*
X43017619Y-3175238D01*
X43112857Y-3222857D01*
X43303333Y-3270476D01*
X43541428Y-3270476D01*
X43731904Y-3222857D01*
X43827142Y-3175238D01*
X43874761Y-3127619D01*
X43922380Y-3032380D01*
X43922380Y-2937142D01*
X43874761Y-2841904D01*
X43827142Y-2794285D01*
X43731904Y-2746666D01*
X43541428Y-2699047D01*
X43303333Y-2699047D01*
X43112857Y-2746666D01*
X43017619Y-2794285D01*
X42970000Y-2841904D01*
X42922380Y-2937142D01*
X43922380Y-4222857D02*
X43922380Y-3651428D01*
X43922380Y-3937142D02*
X42922380Y-3937142D01*
X43065238Y-3841904D01*
X43160476Y-3746666D01*
X43208095Y-3651428D01*
X43922380Y-4556190D02*
X43255714Y-5080000D01*
X43255714Y-4556190D02*
X43922380Y-5080000D01*
X42922380Y-5651428D02*
X42922380Y-5746666D01*
X42970000Y-5841904D01*
X43017619Y-5889523D01*
X43112857Y-5937142D01*
X43303333Y-5984761D01*
X43541428Y-5984761D01*
X43731904Y-5937142D01*
X43827142Y-5889523D01*
X43874761Y-5841904D01*
X43922380Y-5746666D01*
X43922380Y-5651428D01*
X43874761Y-5556190D01*
X43827142Y-5508571D01*
X43731904Y-5460952D01*
X43541428Y-5413333D01*
X43303333Y-5413333D01*
X43112857Y-5460952D01*
X43017619Y-5508571D01*
X42970000Y-5556190D01*
X42922380Y-5651428D01*
X43350952Y-6556190D02*
X43303333Y-6460952D01*
X43255714Y-6413333D01*
X43160476Y-6365714D01*
X43112857Y-6365714D01*
X43017619Y-6413333D01*
X42970000Y-6460952D01*
X42922380Y-6556190D01*
X42922380Y-6746666D01*
X42970000Y-6841904D01*
X43017619Y-6889523D01*
X43112857Y-6937142D01*
X43160476Y-6937142D01*
X43255714Y-6889523D01*
X43303333Y-6841904D01*
X43350952Y-6746666D01*
X43350952Y-6556190D01*
X43398571Y-6460952D01*
X43446190Y-6413333D01*
X43541428Y-6365714D01*
X43731904Y-6365714D01*
X43827142Y-6413333D01*
X43874761Y-6460952D01*
X43922380Y-6556190D01*
X43922380Y-6746666D01*
X43874761Y-6841904D01*
X43827142Y-6889523D01*
X43731904Y-6937142D01*
X43541428Y-6937142D01*
X43446190Y-6889523D01*
X43398571Y-6841904D01*
X43350952Y-6746666D01*
X55023333Y-2032380D02*
X55023333Y-2746666D01*
X55070952Y-2889523D01*
X55166190Y-2984761D01*
X55309047Y-3032380D01*
X55404285Y-3032380D01*
X54594761Y-2127619D02*
X54547142Y-2080000D01*
X54451904Y-2032380D01*
X54213809Y-2032380D01*
X54118571Y-2080000D01*
X54070952Y-2127619D01*
X54023333Y-2222857D01*
X54023333Y-2318095D01*
X54070952Y-2460952D01*
X54642380Y-3032380D01*
X54023333Y-3032380D01*
%TO.C,U0*%
X24812380Y-46654761D02*
X24812380Y-47226190D01*
X25812380Y-46940476D02*
X24812380Y-46940476D01*
X25812380Y-48035714D02*
X25812380Y-47559523D01*
X24812380Y-47559523D01*
X25145714Y-48797619D02*
X25812380Y-48797619D01*
X24764761Y-48559523D02*
X25479047Y-48321428D01*
X25479047Y-48940476D01*
X24812380Y-49226190D02*
X24812380Y-49845238D01*
X25193333Y-49511904D01*
X25193333Y-49654761D01*
X25240952Y-49750000D01*
X25288571Y-49797619D01*
X25383809Y-49845238D01*
X25621904Y-49845238D01*
X25717142Y-49797619D01*
X25764761Y-49750000D01*
X25812380Y-49654761D01*
X25812380Y-49369047D01*
X25764761Y-49273809D01*
X25717142Y-49226190D01*
X25812380Y-50797619D02*
X25812380Y-50226190D01*
X25812380Y-50511904D02*
X24812380Y-50511904D01*
X24955238Y-50416666D01*
X25050476Y-50321428D01*
X25098095Y-50226190D01*
X25812380Y-51226190D02*
X24812380Y-51226190D01*
X24812380Y-51464285D01*
X24860000Y-51607142D01*
X24955238Y-51702380D01*
X25050476Y-51750000D01*
X25240952Y-51797619D01*
X25383809Y-51797619D01*
X25574285Y-51750000D01*
X25669523Y-51702380D01*
X25764761Y-51607142D01*
X25812380Y-51464285D01*
X25812380Y-51226190D01*
X25288571Y-52559523D02*
X25336190Y-52702380D01*
X25383809Y-52750000D01*
X25479047Y-52797619D01*
X25621904Y-52797619D01*
X25717142Y-52750000D01*
X25764761Y-52702380D01*
X25812380Y-52607142D01*
X25812380Y-52226190D01*
X24812380Y-52226190D01*
X24812380Y-52559523D01*
X24860000Y-52654761D01*
X24907619Y-52702380D01*
X25002857Y-52750000D01*
X25098095Y-52750000D01*
X25193333Y-52702380D01*
X25240952Y-52654761D01*
X25288571Y-52559523D01*
X25288571Y-52226190D01*
X24812380Y-53130952D02*
X24812380Y-53797619D01*
X25812380Y-53130952D01*
X25812380Y-53797619D01*
D12*
X23240952Y-49976190D02*
X23240952Y-50380952D01*
X23217142Y-50428571D01*
X23193333Y-50452380D01*
X23145714Y-50476190D01*
X23050476Y-50476190D01*
X23002857Y-50452380D01*
X22979047Y-50428571D01*
X22955238Y-50380952D01*
X22955238Y-49976190D01*
X22621904Y-49976190D02*
X22574285Y-49976190D01*
X22526666Y-50000000D01*
X22502857Y-50023809D01*
X22479047Y-50071428D01*
X22455238Y-50166666D01*
X22455238Y-50285714D01*
X22479047Y-50380952D01*
X22502857Y-50428571D01*
X22526666Y-50452380D01*
X22574285Y-50476190D01*
X22621904Y-50476190D01*
X22669523Y-50452380D01*
X22693333Y-50428571D01*
X22717142Y-50380952D01*
X22740952Y-50285714D01*
X22740952Y-50166666D01*
X22717142Y-50071428D01*
X22693333Y-50023809D01*
X22669523Y-50000000D01*
X22621904Y-49976190D01*
D10*
%TO.C,R18*%
X40372380Y-27019333D02*
X40372380Y-26447904D01*
X40372380Y-26733619D02*
X39372380Y-26733619D01*
X39515238Y-26638380D01*
X39610476Y-26543142D01*
X39658095Y-26447904D01*
X39467619Y-27400285D02*
X39420000Y-27447904D01*
X39372380Y-27543142D01*
X39372380Y-27781238D01*
X39420000Y-27876476D01*
X39467619Y-27924095D01*
X39562857Y-27971714D01*
X39658095Y-27971714D01*
X39800952Y-27924095D01*
X40372380Y-27352666D01*
X40372380Y-27971714D01*
X39372380Y-28590761D02*
X39372380Y-28686000D01*
X39420000Y-28781238D01*
X39467619Y-28828857D01*
X39562857Y-28876476D01*
X39753333Y-28924095D01*
X39991428Y-28924095D01*
X40181904Y-28876476D01*
X40277142Y-28828857D01*
X40324761Y-28781238D01*
X40372380Y-28686000D01*
X40372380Y-28590761D01*
X40324761Y-28495523D01*
X40277142Y-28447904D01*
X40181904Y-28400285D01*
X39991428Y-28352666D01*
X39753333Y-28352666D01*
X39562857Y-28400285D01*
X39467619Y-28447904D01*
X39420000Y-28495523D01*
X39372380Y-28590761D01*
D11*
X38461904Y-27171714D02*
X38080952Y-26905047D01*
X38461904Y-26714571D02*
X37661904Y-26714571D01*
X37661904Y-27019333D01*
X37700000Y-27095523D01*
X37738095Y-27133619D01*
X37814285Y-27171714D01*
X37928571Y-27171714D01*
X38004761Y-27133619D01*
X38042857Y-27095523D01*
X38080952Y-27019333D01*
X38080952Y-26714571D01*
X38461904Y-27933619D02*
X38461904Y-27476476D01*
X38461904Y-27705047D02*
X37661904Y-27705047D01*
X37776190Y-27628857D01*
X37852380Y-27552666D01*
X37890476Y-27476476D01*
X38004761Y-28390761D02*
X37966666Y-28314571D01*
X37928571Y-28276476D01*
X37852380Y-28238380D01*
X37814285Y-28238380D01*
X37738095Y-28276476D01*
X37700000Y-28314571D01*
X37661904Y-28390761D01*
X37661904Y-28543142D01*
X37700000Y-28619333D01*
X37738095Y-28657428D01*
X37814285Y-28695523D01*
X37852380Y-28695523D01*
X37928571Y-28657428D01*
X37966666Y-28619333D01*
X38004761Y-28543142D01*
X38004761Y-28390761D01*
X38042857Y-28314571D01*
X38080952Y-28276476D01*
X38157142Y-28238380D01*
X38309523Y-28238380D01*
X38385714Y-28276476D01*
X38423809Y-28314571D01*
X38461904Y-28390761D01*
X38461904Y-28543142D01*
X38423809Y-28619333D01*
X38385714Y-28657428D01*
X38309523Y-28695523D01*
X38157142Y-28695523D01*
X38080952Y-28657428D01*
X38042857Y-28619333D01*
X38004761Y-28543142D01*
D10*
%TO.C,Q8*%
X47132571Y-13828857D02*
X47180190Y-13971714D01*
X47227809Y-14019333D01*
X47323047Y-14066952D01*
X47465904Y-14066952D01*
X47561142Y-14019333D01*
X47608761Y-13971714D01*
X47656380Y-13876476D01*
X47656380Y-13495523D01*
X46656380Y-13495523D01*
X46656380Y-13828857D01*
X46704000Y-13924095D01*
X46751619Y-13971714D01*
X46846857Y-14019333D01*
X46942095Y-14019333D01*
X47037333Y-13971714D01*
X47084952Y-13924095D01*
X47132571Y-13828857D01*
X47132571Y-13495523D01*
X47561142Y-15066952D02*
X47608761Y-15019333D01*
X47656380Y-14876476D01*
X47656380Y-14781238D01*
X47608761Y-14638380D01*
X47513523Y-14543142D01*
X47418285Y-14495523D01*
X47227809Y-14447904D01*
X47084952Y-14447904D01*
X46894476Y-14495523D01*
X46799238Y-14543142D01*
X46704000Y-14638380D01*
X46656380Y-14781238D01*
X46656380Y-14876476D01*
X46704000Y-15019333D01*
X46751619Y-15066952D01*
X47084952Y-15638380D02*
X47037333Y-15543142D01*
X46989714Y-15495523D01*
X46894476Y-15447904D01*
X46846857Y-15447904D01*
X46751619Y-15495523D01*
X46704000Y-15543142D01*
X46656380Y-15638380D01*
X46656380Y-15828857D01*
X46704000Y-15924095D01*
X46751619Y-15971714D01*
X46846857Y-16019333D01*
X46894476Y-16019333D01*
X46989714Y-15971714D01*
X47037333Y-15924095D01*
X47084952Y-15828857D01*
X47084952Y-15638380D01*
X47132571Y-15543142D01*
X47180190Y-15495523D01*
X47275428Y-15447904D01*
X47465904Y-15447904D01*
X47561142Y-15495523D01*
X47608761Y-15543142D01*
X47656380Y-15638380D01*
X47656380Y-15828857D01*
X47608761Y-15924095D01*
X47561142Y-15971714D01*
X47465904Y-16019333D01*
X47275428Y-16019333D01*
X47180190Y-15971714D01*
X47132571Y-15924095D01*
X47084952Y-15828857D01*
X46989714Y-16876476D02*
X47656380Y-16876476D01*
X46608761Y-16638380D02*
X47323047Y-16400285D01*
X47323047Y-17019333D01*
X46656380Y-17305047D02*
X46656380Y-17971714D01*
X47656380Y-17543142D01*
D12*
X44751619Y-15959809D02*
X44799238Y-15936000D01*
X44846857Y-15888380D01*
X44918285Y-15816952D01*
X44965904Y-15793142D01*
X45013523Y-15793142D01*
X44989714Y-15912190D02*
X45037333Y-15888380D01*
X45084952Y-15840761D01*
X45108761Y-15745523D01*
X45108761Y-15578857D01*
X45084952Y-15483619D01*
X45037333Y-15436000D01*
X44989714Y-15412190D01*
X44894476Y-15412190D01*
X44846857Y-15436000D01*
X44799238Y-15483619D01*
X44775428Y-15578857D01*
X44775428Y-15745523D01*
X44799238Y-15840761D01*
X44846857Y-15888380D01*
X44894476Y-15912190D01*
X44989714Y-15912190D01*
X44489714Y-15626476D02*
X44537333Y-15602666D01*
X44561142Y-15578857D01*
X44584952Y-15531238D01*
X44584952Y-15507428D01*
X44561142Y-15459809D01*
X44537333Y-15436000D01*
X44489714Y-15412190D01*
X44394476Y-15412190D01*
X44346857Y-15436000D01*
X44323047Y-15459809D01*
X44299238Y-15507428D01*
X44299238Y-15531238D01*
X44323047Y-15578857D01*
X44346857Y-15602666D01*
X44394476Y-15626476D01*
X44489714Y-15626476D01*
X44537333Y-15650285D01*
X44561142Y-15674095D01*
X44584952Y-15721714D01*
X44584952Y-15816952D01*
X44561142Y-15864571D01*
X44537333Y-15888380D01*
X44489714Y-15912190D01*
X44394476Y-15912190D01*
X44346857Y-15888380D01*
X44323047Y-15864571D01*
X44299238Y-15816952D01*
X44299238Y-15721714D01*
X44323047Y-15674095D01*
X44346857Y-15650285D01*
X44394476Y-15626476D01*
D10*
%TO.C,R93*%
X55907380Y-41966666D02*
X55907380Y-41395238D01*
X55907380Y-41680952D02*
X54907380Y-41680952D01*
X55050238Y-41585714D01*
X55145476Y-41490476D01*
X55193095Y-41395238D01*
X55812142Y-42395238D02*
X55859761Y-42442857D01*
X55907380Y-42395238D01*
X55859761Y-42347619D01*
X55812142Y-42395238D01*
X55907380Y-42395238D01*
X55907380Y-43395238D02*
X55907380Y-42823809D01*
X55907380Y-43109523D02*
X54907380Y-43109523D01*
X55050238Y-43014285D01*
X55145476Y-42919047D01*
X55193095Y-42823809D01*
X55907380Y-43823809D02*
X54907380Y-43823809D01*
X55526428Y-43919047D02*
X55907380Y-44204761D01*
X55240714Y-44204761D02*
X55621666Y-43823809D01*
D11*
X59861904Y-42435714D02*
X59480952Y-42169047D01*
X59861904Y-41978571D02*
X59061904Y-41978571D01*
X59061904Y-42283333D01*
X59100000Y-42359523D01*
X59138095Y-42397619D01*
X59214285Y-42435714D01*
X59328571Y-42435714D01*
X59404761Y-42397619D01*
X59442857Y-42359523D01*
X59480952Y-42283333D01*
X59480952Y-41978571D01*
X59861904Y-42816666D02*
X59861904Y-42969047D01*
X59823809Y-43045238D01*
X59785714Y-43083333D01*
X59671428Y-43159523D01*
X59519047Y-43197619D01*
X59214285Y-43197619D01*
X59138095Y-43159523D01*
X59100000Y-43121428D01*
X59061904Y-43045238D01*
X59061904Y-42892857D01*
X59100000Y-42816666D01*
X59138095Y-42778571D01*
X59214285Y-42740476D01*
X59404761Y-42740476D01*
X59480952Y-42778571D01*
X59519047Y-42816666D01*
X59557142Y-42892857D01*
X59557142Y-43045238D01*
X59519047Y-43121428D01*
X59480952Y-43159523D01*
X59404761Y-43197619D01*
X59061904Y-43464285D02*
X59061904Y-43959523D01*
X59366666Y-43692857D01*
X59366666Y-43807142D01*
X59404761Y-43883333D01*
X59442857Y-43921428D01*
X59519047Y-43959523D01*
X59709523Y-43959523D01*
X59785714Y-43921428D01*
X59823809Y-43883333D01*
X59861904Y-43807142D01*
X59861904Y-43578571D01*
X59823809Y-43502380D01*
X59785714Y-43464285D01*
D10*
%TO.C,R72*%
X20560380Y-49468761D02*
X20560380Y-48897333D01*
X20560380Y-49183047D02*
X19560380Y-49183047D01*
X19703238Y-49087809D01*
X19798476Y-48992571D01*
X19846095Y-48897333D01*
X19560380Y-50087809D02*
X19560380Y-50183047D01*
X19608000Y-50278285D01*
X19655619Y-50325904D01*
X19750857Y-50373523D01*
X19941333Y-50421142D01*
X20179428Y-50421142D01*
X20369904Y-50373523D01*
X20465142Y-50325904D01*
X20512761Y-50278285D01*
X20560380Y-50183047D01*
X20560380Y-50087809D01*
X20512761Y-49992571D01*
X20465142Y-49944952D01*
X20369904Y-49897333D01*
X20179428Y-49849714D01*
X19941333Y-49849714D01*
X19750857Y-49897333D01*
X19655619Y-49944952D01*
X19608000Y-49992571D01*
X19560380Y-50087809D01*
X20560380Y-50849714D02*
X19560380Y-50849714D01*
X20179428Y-50944952D02*
X20560380Y-51230666D01*
X19893714Y-51230666D02*
X20274666Y-50849714D01*
D11*
X18649904Y-49549714D02*
X18268952Y-49283047D01*
X18649904Y-49092571D02*
X17849904Y-49092571D01*
X17849904Y-49397333D01*
X17888000Y-49473523D01*
X17926095Y-49511619D01*
X18002285Y-49549714D01*
X18116571Y-49549714D01*
X18192761Y-49511619D01*
X18230857Y-49473523D01*
X18268952Y-49397333D01*
X18268952Y-49092571D01*
X17849904Y-49816380D02*
X17849904Y-50349714D01*
X18649904Y-50006857D01*
X17926095Y-50616380D02*
X17888000Y-50654476D01*
X17849904Y-50730666D01*
X17849904Y-50921142D01*
X17888000Y-50997333D01*
X17926095Y-51035428D01*
X18002285Y-51073523D01*
X18078476Y-51073523D01*
X18192761Y-51035428D01*
X18649904Y-50578285D01*
X18649904Y-51073523D01*
D10*
%TO.C,R71*%
X23032380Y-42219714D02*
X23032380Y-42838761D01*
X23413333Y-42505428D01*
X23413333Y-42648285D01*
X23460952Y-42743523D01*
X23508571Y-42791142D01*
X23603809Y-42838761D01*
X23841904Y-42838761D01*
X23937142Y-42791142D01*
X23984761Y-42743523D01*
X24032380Y-42648285D01*
X24032380Y-42362571D01*
X23984761Y-42267333D01*
X23937142Y-42219714D01*
X23032380Y-43457809D02*
X23032380Y-43553047D01*
X23080000Y-43648285D01*
X23127619Y-43695904D01*
X23222857Y-43743523D01*
X23413333Y-43791142D01*
X23651428Y-43791142D01*
X23841904Y-43743523D01*
X23937142Y-43695904D01*
X23984761Y-43648285D01*
X24032380Y-43553047D01*
X24032380Y-43457809D01*
X23984761Y-43362571D01*
X23937142Y-43314952D01*
X23841904Y-43267333D01*
X23651428Y-43219714D01*
X23413333Y-43219714D01*
X23222857Y-43267333D01*
X23127619Y-43314952D01*
X23080000Y-43362571D01*
X23032380Y-43457809D01*
X24032380Y-44219714D02*
X23032380Y-44219714D01*
X23651428Y-44314952D02*
X24032380Y-44600666D01*
X23365714Y-44600666D02*
X23746666Y-44219714D01*
D11*
X25761904Y-42919714D02*
X25380952Y-42653047D01*
X25761904Y-42462571D02*
X24961904Y-42462571D01*
X24961904Y-42767333D01*
X25000000Y-42843523D01*
X25038095Y-42881619D01*
X25114285Y-42919714D01*
X25228571Y-42919714D01*
X25304761Y-42881619D01*
X25342857Y-42843523D01*
X25380952Y-42767333D01*
X25380952Y-42462571D01*
X24961904Y-43186380D02*
X24961904Y-43719714D01*
X25761904Y-43376857D01*
X25761904Y-44443523D02*
X25761904Y-43986380D01*
X25761904Y-44214952D02*
X24961904Y-44214952D01*
X25076190Y-44138761D01*
X25152380Y-44062571D01*
X25190476Y-43986380D01*
D10*
%TO.C,R6*%
X51802380Y-27045333D02*
X51802380Y-26473904D01*
X51802380Y-26759619D02*
X50802380Y-26759619D01*
X50945238Y-26664380D01*
X51040476Y-26569142D01*
X51088095Y-26473904D01*
X50897619Y-27426285D02*
X50850000Y-27473904D01*
X50802380Y-27569142D01*
X50802380Y-27807238D01*
X50850000Y-27902476D01*
X50897619Y-27950095D01*
X50992857Y-27997714D01*
X51088095Y-27997714D01*
X51230952Y-27950095D01*
X51802380Y-27378666D01*
X51802380Y-27997714D01*
X50802380Y-28616761D02*
X50802380Y-28712000D01*
X50850000Y-28807238D01*
X50897619Y-28854857D01*
X50992857Y-28902476D01*
X51183333Y-28950095D01*
X51421428Y-28950095D01*
X51611904Y-28902476D01*
X51707142Y-28854857D01*
X51754761Y-28807238D01*
X51802380Y-28712000D01*
X51802380Y-28616761D01*
X51754761Y-28521523D01*
X51707142Y-28473904D01*
X51611904Y-28426285D01*
X51421428Y-28378666D01*
X51183333Y-28378666D01*
X50992857Y-28426285D01*
X50897619Y-28473904D01*
X50850000Y-28521523D01*
X50802380Y-28616761D01*
D11*
X49891904Y-27578666D02*
X49510952Y-27312000D01*
X49891904Y-27121523D02*
X49091904Y-27121523D01*
X49091904Y-27426285D01*
X49130000Y-27502476D01*
X49168095Y-27540571D01*
X49244285Y-27578666D01*
X49358571Y-27578666D01*
X49434761Y-27540571D01*
X49472857Y-27502476D01*
X49510952Y-27426285D01*
X49510952Y-27121523D01*
X49091904Y-28264380D02*
X49091904Y-28112000D01*
X49130000Y-28035809D01*
X49168095Y-27997714D01*
X49282380Y-27921523D01*
X49434761Y-27883428D01*
X49739523Y-27883428D01*
X49815714Y-27921523D01*
X49853809Y-27959619D01*
X49891904Y-28035809D01*
X49891904Y-28188190D01*
X49853809Y-28264380D01*
X49815714Y-28302476D01*
X49739523Y-28340571D01*
X49549047Y-28340571D01*
X49472857Y-28302476D01*
X49434761Y-28264380D01*
X49396666Y-28188190D01*
X49396666Y-28035809D01*
X49434761Y-27959619D01*
X49472857Y-27921523D01*
X49549047Y-27883428D01*
D10*
%TO.C,R94*%
X55182380Y-42116666D02*
X55182380Y-41545238D01*
X55182380Y-41830952D02*
X54182380Y-41830952D01*
X54325238Y-41735714D01*
X54420476Y-41640476D01*
X54468095Y-41545238D01*
X55087142Y-42545238D02*
X55134761Y-42592857D01*
X55182380Y-42545238D01*
X55134761Y-42497619D01*
X55087142Y-42545238D01*
X55182380Y-42545238D01*
X55182380Y-43545238D02*
X55182380Y-42973809D01*
X55182380Y-43259523D02*
X54182380Y-43259523D01*
X54325238Y-43164285D01*
X54420476Y-43069047D01*
X54468095Y-42973809D01*
X55182380Y-43973809D02*
X54182380Y-43973809D01*
X54801428Y-44069047D02*
X55182380Y-44354761D01*
X54515714Y-44354761D02*
X54896666Y-43973809D01*
D11*
X56911904Y-42435714D02*
X56530952Y-42169047D01*
X56911904Y-41978571D02*
X56111904Y-41978571D01*
X56111904Y-42283333D01*
X56150000Y-42359523D01*
X56188095Y-42397619D01*
X56264285Y-42435714D01*
X56378571Y-42435714D01*
X56454761Y-42397619D01*
X56492857Y-42359523D01*
X56530952Y-42283333D01*
X56530952Y-41978571D01*
X56911904Y-42816666D02*
X56911904Y-42969047D01*
X56873809Y-43045238D01*
X56835714Y-43083333D01*
X56721428Y-43159523D01*
X56569047Y-43197619D01*
X56264285Y-43197619D01*
X56188095Y-43159523D01*
X56150000Y-43121428D01*
X56111904Y-43045238D01*
X56111904Y-42892857D01*
X56150000Y-42816666D01*
X56188095Y-42778571D01*
X56264285Y-42740476D01*
X56454761Y-42740476D01*
X56530952Y-42778571D01*
X56569047Y-42816666D01*
X56607142Y-42892857D01*
X56607142Y-43045238D01*
X56569047Y-43121428D01*
X56530952Y-43159523D01*
X56454761Y-43197619D01*
X56378571Y-43883333D02*
X56911904Y-43883333D01*
X56073809Y-43692857D02*
X56645238Y-43502380D01*
X56645238Y-43997619D01*
D10*
%TO.C,Q14*%
X37414571Y-20216857D02*
X37462190Y-20359714D01*
X37509809Y-20407333D01*
X37605047Y-20454952D01*
X37747904Y-20454952D01*
X37843142Y-20407333D01*
X37890761Y-20359714D01*
X37938380Y-20264476D01*
X37938380Y-19883523D01*
X36938380Y-19883523D01*
X36938380Y-20216857D01*
X36986000Y-20312095D01*
X37033619Y-20359714D01*
X37128857Y-20407333D01*
X37224095Y-20407333D01*
X37319333Y-20359714D01*
X37366952Y-20312095D01*
X37414571Y-20216857D01*
X37414571Y-19883523D01*
X37843142Y-21454952D02*
X37890761Y-21407333D01*
X37938380Y-21264476D01*
X37938380Y-21169238D01*
X37890761Y-21026380D01*
X37795523Y-20931142D01*
X37700285Y-20883523D01*
X37509809Y-20835904D01*
X37366952Y-20835904D01*
X37176476Y-20883523D01*
X37081238Y-20931142D01*
X36986000Y-21026380D01*
X36938380Y-21169238D01*
X36938380Y-21264476D01*
X36986000Y-21407333D01*
X37033619Y-21454952D01*
X37366952Y-22026380D02*
X37319333Y-21931142D01*
X37271714Y-21883523D01*
X37176476Y-21835904D01*
X37128857Y-21835904D01*
X37033619Y-21883523D01*
X36986000Y-21931142D01*
X36938380Y-22026380D01*
X36938380Y-22216857D01*
X36986000Y-22312095D01*
X37033619Y-22359714D01*
X37128857Y-22407333D01*
X37176476Y-22407333D01*
X37271714Y-22359714D01*
X37319333Y-22312095D01*
X37366952Y-22216857D01*
X37366952Y-22026380D01*
X37414571Y-21931142D01*
X37462190Y-21883523D01*
X37557428Y-21835904D01*
X37747904Y-21835904D01*
X37843142Y-21883523D01*
X37890761Y-21931142D01*
X37938380Y-22026380D01*
X37938380Y-22216857D01*
X37890761Y-22312095D01*
X37843142Y-22359714D01*
X37747904Y-22407333D01*
X37557428Y-22407333D01*
X37462190Y-22359714D01*
X37414571Y-22312095D01*
X37366952Y-22216857D01*
X37271714Y-23264476D02*
X37938380Y-23264476D01*
X36890761Y-23026380D02*
X37605047Y-22788285D01*
X37605047Y-23407333D01*
X36938380Y-23693047D02*
X36938380Y-24359714D01*
X37938380Y-23931142D01*
D12*
X35271714Y-22347809D02*
X35319333Y-22324000D01*
X35366952Y-22276380D01*
X35438380Y-22204952D01*
X35486000Y-22181142D01*
X35533619Y-22181142D01*
X35509809Y-22300190D02*
X35557428Y-22276380D01*
X35605047Y-22228761D01*
X35628857Y-22133523D01*
X35628857Y-21966857D01*
X35605047Y-21871619D01*
X35557428Y-21824000D01*
X35509809Y-21800190D01*
X35414571Y-21800190D01*
X35366952Y-21824000D01*
X35319333Y-21871619D01*
X35295523Y-21966857D01*
X35295523Y-22133523D01*
X35319333Y-22228761D01*
X35366952Y-22276380D01*
X35414571Y-22300190D01*
X35509809Y-22300190D01*
X34819333Y-22300190D02*
X35105047Y-22300190D01*
X34962190Y-22300190D02*
X34962190Y-21800190D01*
X35009809Y-21871619D01*
X35057428Y-21919238D01*
X35105047Y-21943047D01*
X34390761Y-21966857D02*
X34390761Y-22300190D01*
X34509809Y-21776380D02*
X34628857Y-22133523D01*
X34319333Y-22133523D01*
D10*
%TO.C,R96*%
X49232380Y-42016666D02*
X49232380Y-41445238D01*
X49232380Y-41730952D02*
X48232380Y-41730952D01*
X48375238Y-41635714D01*
X48470476Y-41540476D01*
X48518095Y-41445238D01*
X49137142Y-42445238D02*
X49184761Y-42492857D01*
X49232380Y-42445238D01*
X49184761Y-42397619D01*
X49137142Y-42445238D01*
X49232380Y-42445238D01*
X49232380Y-43445238D02*
X49232380Y-42873809D01*
X49232380Y-43159523D02*
X48232380Y-43159523D01*
X48375238Y-43064285D01*
X48470476Y-42969047D01*
X48518095Y-42873809D01*
X49232380Y-43873809D02*
X48232380Y-43873809D01*
X48851428Y-43969047D02*
X49232380Y-44254761D01*
X48565714Y-44254761D02*
X48946666Y-43873809D01*
D11*
X50961904Y-42335714D02*
X50580952Y-42069047D01*
X50961904Y-41878571D02*
X50161904Y-41878571D01*
X50161904Y-42183333D01*
X50200000Y-42259523D01*
X50238095Y-42297619D01*
X50314285Y-42335714D01*
X50428571Y-42335714D01*
X50504761Y-42297619D01*
X50542857Y-42259523D01*
X50580952Y-42183333D01*
X50580952Y-41878571D01*
X50961904Y-42716666D02*
X50961904Y-42869047D01*
X50923809Y-42945238D01*
X50885714Y-42983333D01*
X50771428Y-43059523D01*
X50619047Y-43097619D01*
X50314285Y-43097619D01*
X50238095Y-43059523D01*
X50200000Y-43021428D01*
X50161904Y-42945238D01*
X50161904Y-42792857D01*
X50200000Y-42716666D01*
X50238095Y-42678571D01*
X50314285Y-42640476D01*
X50504761Y-42640476D01*
X50580952Y-42678571D01*
X50619047Y-42716666D01*
X50657142Y-42792857D01*
X50657142Y-42945238D01*
X50619047Y-43021428D01*
X50580952Y-43059523D01*
X50504761Y-43097619D01*
X50161904Y-43783333D02*
X50161904Y-43630952D01*
X50200000Y-43554761D01*
X50238095Y-43516666D01*
X50352380Y-43440476D01*
X50504761Y-43402380D01*
X50809523Y-43402380D01*
X50885714Y-43440476D01*
X50923809Y-43478571D01*
X50961904Y-43554761D01*
X50961904Y-43707142D01*
X50923809Y-43783333D01*
X50885714Y-43821428D01*
X50809523Y-43859523D01*
X50619047Y-43859523D01*
X50542857Y-43821428D01*
X50504761Y-43783333D01*
X50466666Y-43707142D01*
X50466666Y-43554761D01*
X50504761Y-43478571D01*
X50542857Y-43440476D01*
X50619047Y-43402380D01*
D10*
%TO.C,R73*%
X16920380Y-43870666D02*
X16920380Y-43299238D01*
X16920380Y-43584952D02*
X15920380Y-43584952D01*
X16063238Y-43489714D01*
X16158476Y-43394476D01*
X16206095Y-43299238D01*
X16825142Y-44299238D02*
X16872761Y-44346857D01*
X16920380Y-44299238D01*
X16872761Y-44251619D01*
X16825142Y-44299238D01*
X16920380Y-44299238D01*
X16015619Y-44727809D02*
X15968000Y-44775428D01*
X15920380Y-44870666D01*
X15920380Y-45108761D01*
X15968000Y-45204000D01*
X16015619Y-45251619D01*
X16110857Y-45299238D01*
X16206095Y-45299238D01*
X16348952Y-45251619D01*
X16920380Y-44680190D01*
X16920380Y-45299238D01*
X16920380Y-45727809D02*
X15920380Y-45727809D01*
X16539428Y-45823047D02*
X16920380Y-46108761D01*
X16253714Y-46108761D02*
X16634666Y-45727809D01*
D11*
X18649904Y-44189714D02*
X18268952Y-43923047D01*
X18649904Y-43732571D02*
X17849904Y-43732571D01*
X17849904Y-44037333D01*
X17888000Y-44113523D01*
X17926095Y-44151619D01*
X18002285Y-44189714D01*
X18116571Y-44189714D01*
X18192761Y-44151619D01*
X18230857Y-44113523D01*
X18268952Y-44037333D01*
X18268952Y-43732571D01*
X17849904Y-44456380D02*
X17849904Y-44989714D01*
X18649904Y-44646857D01*
X17849904Y-45218285D02*
X17849904Y-45713523D01*
X18154666Y-45446857D01*
X18154666Y-45561142D01*
X18192761Y-45637333D01*
X18230857Y-45675428D01*
X18307047Y-45713523D01*
X18497523Y-45713523D01*
X18573714Y-45675428D01*
X18611809Y-45637333D01*
X18649904Y-45561142D01*
X18649904Y-45332571D01*
X18611809Y-45256380D01*
X18573714Y-45218285D01*
D10*
%TO.C,R95*%
X52282380Y-42116666D02*
X52282380Y-41545238D01*
X52282380Y-41830952D02*
X51282380Y-41830952D01*
X51425238Y-41735714D01*
X51520476Y-41640476D01*
X51568095Y-41545238D01*
X52187142Y-42545238D02*
X52234761Y-42592857D01*
X52282380Y-42545238D01*
X52234761Y-42497619D01*
X52187142Y-42545238D01*
X52282380Y-42545238D01*
X52282380Y-43545238D02*
X52282380Y-42973809D01*
X52282380Y-43259523D02*
X51282380Y-43259523D01*
X51425238Y-43164285D01*
X51520476Y-43069047D01*
X51568095Y-42973809D01*
X52282380Y-43973809D02*
X51282380Y-43973809D01*
X51901428Y-44069047D02*
X52282380Y-44354761D01*
X51615714Y-44354761D02*
X51996666Y-43973809D01*
D11*
X54011904Y-42435714D02*
X53630952Y-42169047D01*
X54011904Y-41978571D02*
X53211904Y-41978571D01*
X53211904Y-42283333D01*
X53250000Y-42359523D01*
X53288095Y-42397619D01*
X53364285Y-42435714D01*
X53478571Y-42435714D01*
X53554761Y-42397619D01*
X53592857Y-42359523D01*
X53630952Y-42283333D01*
X53630952Y-41978571D01*
X54011904Y-42816666D02*
X54011904Y-42969047D01*
X53973809Y-43045238D01*
X53935714Y-43083333D01*
X53821428Y-43159523D01*
X53669047Y-43197619D01*
X53364285Y-43197619D01*
X53288095Y-43159523D01*
X53250000Y-43121428D01*
X53211904Y-43045238D01*
X53211904Y-42892857D01*
X53250000Y-42816666D01*
X53288095Y-42778571D01*
X53364285Y-42740476D01*
X53554761Y-42740476D01*
X53630952Y-42778571D01*
X53669047Y-42816666D01*
X53707142Y-42892857D01*
X53707142Y-43045238D01*
X53669047Y-43121428D01*
X53630952Y-43159523D01*
X53554761Y-43197619D01*
X53211904Y-43921428D02*
X53211904Y-43540476D01*
X53592857Y-43502380D01*
X53554761Y-43540476D01*
X53516666Y-43616666D01*
X53516666Y-43807142D01*
X53554761Y-43883333D01*
X53592857Y-43921428D01*
X53669047Y-43959523D01*
X53859523Y-43959523D01*
X53935714Y-43921428D01*
X53973809Y-43883333D01*
X54011904Y-43807142D01*
X54011904Y-43616666D01*
X53973809Y-43540476D01*
X53935714Y-43502380D01*
D10*
%TO.C,Q18*%
X54070571Y-13636857D02*
X54118190Y-13779714D01*
X54165809Y-13827333D01*
X54261047Y-13874952D01*
X54403904Y-13874952D01*
X54499142Y-13827333D01*
X54546761Y-13779714D01*
X54594380Y-13684476D01*
X54594380Y-13303523D01*
X53594380Y-13303523D01*
X53594380Y-13636857D01*
X53642000Y-13732095D01*
X53689619Y-13779714D01*
X53784857Y-13827333D01*
X53880095Y-13827333D01*
X53975333Y-13779714D01*
X54022952Y-13732095D01*
X54070571Y-13636857D01*
X54070571Y-13303523D01*
X54499142Y-14874952D02*
X54546761Y-14827333D01*
X54594380Y-14684476D01*
X54594380Y-14589238D01*
X54546761Y-14446380D01*
X54451523Y-14351142D01*
X54356285Y-14303523D01*
X54165809Y-14255904D01*
X54022952Y-14255904D01*
X53832476Y-14303523D01*
X53737238Y-14351142D01*
X53642000Y-14446380D01*
X53594380Y-14589238D01*
X53594380Y-14684476D01*
X53642000Y-14827333D01*
X53689619Y-14874952D01*
X54022952Y-15446380D02*
X53975333Y-15351142D01*
X53927714Y-15303523D01*
X53832476Y-15255904D01*
X53784857Y-15255904D01*
X53689619Y-15303523D01*
X53642000Y-15351142D01*
X53594380Y-15446380D01*
X53594380Y-15636857D01*
X53642000Y-15732095D01*
X53689619Y-15779714D01*
X53784857Y-15827333D01*
X53832476Y-15827333D01*
X53927714Y-15779714D01*
X53975333Y-15732095D01*
X54022952Y-15636857D01*
X54022952Y-15446380D01*
X54070571Y-15351142D01*
X54118190Y-15303523D01*
X54213428Y-15255904D01*
X54403904Y-15255904D01*
X54499142Y-15303523D01*
X54546761Y-15351142D01*
X54594380Y-15446380D01*
X54594380Y-15636857D01*
X54546761Y-15732095D01*
X54499142Y-15779714D01*
X54403904Y-15827333D01*
X54213428Y-15827333D01*
X54118190Y-15779714D01*
X54070571Y-15732095D01*
X54022952Y-15636857D01*
X53927714Y-16684476D02*
X54594380Y-16684476D01*
X53546761Y-16446380D02*
X54261047Y-16208285D01*
X54261047Y-16827333D01*
X53594380Y-17113047D02*
X53594380Y-17779714D01*
X54594380Y-17351142D01*
D12*
X56927714Y-15767809D02*
X56975333Y-15744000D01*
X57022952Y-15696380D01*
X57094380Y-15624952D01*
X57142000Y-15601142D01*
X57189619Y-15601142D01*
X57165809Y-15720190D02*
X57213428Y-15696380D01*
X57261047Y-15648761D01*
X57284857Y-15553523D01*
X57284857Y-15386857D01*
X57261047Y-15291619D01*
X57213428Y-15244000D01*
X57165809Y-15220190D01*
X57070571Y-15220190D01*
X57022952Y-15244000D01*
X56975333Y-15291619D01*
X56951523Y-15386857D01*
X56951523Y-15553523D01*
X56975333Y-15648761D01*
X57022952Y-15696380D01*
X57070571Y-15720190D01*
X57165809Y-15720190D01*
X56475333Y-15720190D02*
X56761047Y-15720190D01*
X56618190Y-15720190D02*
X56618190Y-15220190D01*
X56665809Y-15291619D01*
X56713428Y-15339238D01*
X56761047Y-15363047D01*
X56189619Y-15434476D02*
X56237238Y-15410666D01*
X56261047Y-15386857D01*
X56284857Y-15339238D01*
X56284857Y-15315428D01*
X56261047Y-15267809D01*
X56237238Y-15244000D01*
X56189619Y-15220190D01*
X56094380Y-15220190D01*
X56046761Y-15244000D01*
X56022952Y-15267809D01*
X55999142Y-15315428D01*
X55999142Y-15339238D01*
X56022952Y-15386857D01*
X56046761Y-15410666D01*
X56094380Y-15434476D01*
X56189619Y-15434476D01*
X56237238Y-15458285D01*
X56261047Y-15482095D01*
X56284857Y-15529714D01*
X56284857Y-15624952D01*
X56261047Y-15672571D01*
X56237238Y-15696380D01*
X56189619Y-15720190D01*
X56094380Y-15720190D01*
X56046761Y-15696380D01*
X56022952Y-15672571D01*
X55999142Y-15624952D01*
X55999142Y-15529714D01*
X56022952Y-15482095D01*
X56046761Y-15458285D01*
X56094380Y-15434476D01*
D10*
%TO.C,R27*%
X55107380Y-26979761D02*
X55107380Y-26408333D01*
X55107380Y-26694047D02*
X54107380Y-26694047D01*
X54250238Y-26598809D01*
X54345476Y-26503571D01*
X54393095Y-26408333D01*
X54107380Y-27598809D02*
X54107380Y-27694047D01*
X54155000Y-27789285D01*
X54202619Y-27836904D01*
X54297857Y-27884523D01*
X54488333Y-27932142D01*
X54726428Y-27932142D01*
X54916904Y-27884523D01*
X55012142Y-27836904D01*
X55059761Y-27789285D01*
X55107380Y-27694047D01*
X55107380Y-27598809D01*
X55059761Y-27503571D01*
X55012142Y-27455952D01*
X54916904Y-27408333D01*
X54726428Y-27360714D01*
X54488333Y-27360714D01*
X54297857Y-27408333D01*
X54202619Y-27455952D01*
X54155000Y-27503571D01*
X54107380Y-27598809D01*
X55107380Y-28360714D02*
X54107380Y-28360714D01*
X54726428Y-28455952D02*
X55107380Y-28741666D01*
X54440714Y-28741666D02*
X54821666Y-28360714D01*
D11*
X56836904Y-27060714D02*
X56455952Y-26794047D01*
X56836904Y-26603571D02*
X56036904Y-26603571D01*
X56036904Y-26908333D01*
X56075000Y-26984523D01*
X56113095Y-27022619D01*
X56189285Y-27060714D01*
X56303571Y-27060714D01*
X56379761Y-27022619D01*
X56417857Y-26984523D01*
X56455952Y-26908333D01*
X56455952Y-26603571D01*
X56113095Y-27365476D02*
X56075000Y-27403571D01*
X56036904Y-27479761D01*
X56036904Y-27670238D01*
X56075000Y-27746428D01*
X56113095Y-27784523D01*
X56189285Y-27822619D01*
X56265476Y-27822619D01*
X56379761Y-27784523D01*
X56836904Y-27327380D01*
X56836904Y-27822619D01*
X56036904Y-28089285D02*
X56036904Y-28622619D01*
X56836904Y-28279761D01*
D13*
%TO.C,R9*%
X47028000Y-29286000D02*
X47028000Y-26086000D01*
X47028000Y-26086000D02*
X45428000Y-26086000D01*
X45428000Y-29286000D02*
X47028000Y-29286000D01*
X45428000Y-26086000D02*
X45428000Y-29286000D01*
%TO.C,Q10*%
X39120000Y-22798000D02*
X42160000Y-22798000D01*
X39120000Y-21948000D02*
X39120000Y-22798000D01*
X42160000Y-21398000D02*
X42160000Y-22798000D01*
X39690000Y-21398000D02*
X39120000Y-21948000D01*
X39690000Y-21398000D02*
X42140000Y-21398000D01*
%TO.C,R12*%
X42634000Y-26086000D02*
X42634000Y-29286000D01*
X44234000Y-29286000D02*
X44234000Y-26086000D01*
X42634000Y-29286000D02*
X44234000Y-29286000D01*
X44234000Y-26086000D02*
X42634000Y-26086000D01*
%TO.C,Q17*%
X63170000Y-14900000D02*
X60130000Y-14900000D01*
X60130000Y-16300000D02*
X60130000Y-14900000D01*
X62600000Y-16300000D02*
X63170000Y-15750000D01*
X63170000Y-15750000D02*
X63170000Y-14900000D01*
X62600000Y-16300000D02*
X60150000Y-16300000D01*
%TO.C,R26*%
X65125000Y-29300000D02*
X66725000Y-29300000D01*
X65125000Y-26100000D02*
X65125000Y-29300000D01*
X66725000Y-26100000D02*
X65125000Y-26100000D01*
X66725000Y-29300000D02*
X66725000Y-26100000D01*
%TO.C,Q12*%
X37912000Y-15048000D02*
X37342000Y-15598000D01*
X40382000Y-15048000D02*
X40382000Y-16448000D01*
X37912000Y-15048000D02*
X40362000Y-15048000D01*
X37342000Y-16448000D02*
X40382000Y-16448000D01*
X37342000Y-15598000D02*
X37342000Y-16448000D01*
%TO.C,R28*%
X59875000Y-29175000D02*
X59875000Y-25975000D01*
X59875000Y-25975000D02*
X58275000Y-25975000D01*
X58275000Y-29175000D02*
X59875000Y-29175000D01*
X58275000Y-25975000D02*
X58275000Y-29175000D01*
%TO.C,R91*%
X3594000Y-1448000D02*
X1994000Y-1448000D01*
X1994000Y-4648000D02*
X3594000Y-4648000D01*
X3594000Y-4648000D02*
X3594000Y-1448000D01*
X1994000Y-1448000D02*
X1994000Y-4648000D01*
%TO.C,R97*%
X48375000Y-44425000D02*
X48375000Y-41225000D01*
X46775000Y-41225000D02*
X46775000Y-44425000D01*
X46775000Y-44425000D02*
X48375000Y-44425000D01*
X48375000Y-41225000D02*
X46775000Y-41225000D01*
%TO.C,J1*%
X22510000Y-1310000D02*
X22510000Y-3850000D01*
X42195000Y-3850000D02*
X42830000Y-3215000D01*
X42830000Y-3215000D02*
X42830000Y-1310000D01*
X22510000Y-3850000D02*
X42195000Y-3850000D01*
X42830000Y-1310000D02*
X22510000Y-1310000D01*
%TO.C,R3*%
X53124000Y-26112000D02*
X51524000Y-26112000D01*
X53124000Y-29312000D02*
X53124000Y-26112000D01*
X51524000Y-26112000D02*
X51524000Y-29312000D01*
X51524000Y-29312000D02*
X53124000Y-29312000D01*
%TO.C,C1*%
X61037500Y-21575000D02*
X61037500Y-23175000D01*
X64237500Y-23175000D02*
X64237500Y-21575000D01*
X61037500Y-23175000D02*
X64237500Y-23175000D01*
X64237500Y-21575000D02*
X61037500Y-21575000D01*
%TO.C,Q2*%
X50804000Y-22544000D02*
X53844000Y-22544000D01*
X50804000Y-21694000D02*
X50804000Y-22544000D01*
X51374000Y-21144000D02*
X50804000Y-21694000D01*
X53844000Y-21144000D02*
X53844000Y-22544000D01*
X51374000Y-21144000D02*
X53824000Y-21144000D01*
%TO.C,J4*%
X50090000Y-49230000D02*
X50090000Y-51770000D01*
X67235000Y-51770000D02*
X67870000Y-51135000D01*
X50090000Y-51770000D02*
X67235000Y-51770000D01*
X67870000Y-49230000D02*
X50090000Y-49230000D01*
X67870000Y-51135000D02*
X67870000Y-49230000D01*
%TO.C,Q4*%
X48518000Y-16156000D02*
X51558000Y-16156000D01*
X49088000Y-14756000D02*
X48518000Y-15306000D01*
X48518000Y-15306000D02*
X48518000Y-16156000D01*
X51558000Y-14756000D02*
X51558000Y-16156000D01*
X49088000Y-14756000D02*
X51538000Y-14756000D01*
%TO.C,R25*%
X64025000Y-29250000D02*
X64025000Y-26050000D01*
X64025000Y-26050000D02*
X62425000Y-26050000D01*
X62425000Y-29250000D02*
X64025000Y-29250000D01*
X62425000Y-26050000D02*
X62425000Y-29250000D01*
%TO.C,R98*%
X63200000Y-44525000D02*
X63200000Y-41325000D01*
X61600000Y-41325000D02*
X61600000Y-44525000D01*
X63200000Y-41325000D02*
X61600000Y-41325000D01*
X61600000Y-44525000D02*
X63200000Y-44525000D01*
%TO.C,Q6*%
X45278000Y-21144000D02*
X47728000Y-21144000D01*
X45278000Y-21144000D02*
X44708000Y-21694000D01*
X44708000Y-22544000D02*
X47748000Y-22544000D01*
X47748000Y-21144000D02*
X47748000Y-22544000D01*
X44708000Y-21694000D02*
X44708000Y-22544000D01*
%TO.C,Q16*%
X32070000Y-15048000D02*
X34520000Y-15048000D01*
X31500000Y-15598000D02*
X31500000Y-16448000D01*
X34540000Y-15048000D02*
X34540000Y-16448000D01*
X31500000Y-16448000D02*
X34540000Y-16448000D01*
X32070000Y-15048000D02*
X31500000Y-15598000D01*
%TO.C,R24*%
X33058000Y-29286000D02*
X33058000Y-26086000D01*
X33058000Y-26086000D02*
X31458000Y-26086000D01*
X31458000Y-29286000D02*
X33058000Y-29286000D01*
X31458000Y-26086000D02*
X31458000Y-29286000D01*
%TO.C,R21*%
X35852000Y-29286000D02*
X35852000Y-26086000D01*
X34252000Y-26086000D02*
X34252000Y-29286000D01*
X34252000Y-29286000D02*
X35852000Y-29286000D01*
X35852000Y-26086000D02*
X34252000Y-26086000D01*
%TO.C,R15*%
X41694000Y-29260000D02*
X41694000Y-26060000D01*
X40094000Y-26060000D02*
X40094000Y-29260000D01*
X41694000Y-26060000D02*
X40094000Y-26060000D01*
X40094000Y-29260000D02*
X41694000Y-29260000D01*
%TO.C,C2*%
X56950000Y-19900000D02*
X55350000Y-19900000D01*
X55350000Y-19900000D02*
X55350000Y-23100000D01*
X55350000Y-23100000D02*
X56950000Y-23100000D01*
X56950000Y-23100000D02*
X56950000Y-19900000D01*
%TO.C,R89*%
X4928400Y-774800D02*
X4928400Y-2374800D01*
X4928400Y-2374800D02*
X8128400Y-2374800D01*
X8128400Y-774800D02*
X4928400Y-774800D01*
X8128400Y-2374800D02*
X8128400Y-774800D01*
%TO.C,J3*%
X27010000Y-51770000D02*
X46695000Y-51770000D01*
X47330000Y-49230000D02*
X27010000Y-49230000D01*
X47330000Y-51135000D02*
X47330000Y-49230000D01*
X46695000Y-51770000D02*
X47330000Y-51135000D01*
X27010000Y-49230000D02*
X27010000Y-51770000D01*
%TO.C,R92*%
X43825000Y-41175000D02*
X43825000Y-44375000D01*
X45425000Y-41175000D02*
X43825000Y-41175000D01*
X45425000Y-44375000D02*
X45425000Y-41175000D01*
X43825000Y-44375000D02*
X45425000Y-44375000D01*
%TO.C,J2*%
X44530000Y-1310000D02*
X44530000Y-3850000D01*
X64850000Y-1310000D02*
X44530000Y-1310000D01*
X64850000Y-3215000D02*
X64850000Y-1310000D01*
X64215000Y-3850000D02*
X64850000Y-3215000D01*
X44530000Y-3850000D02*
X64215000Y-3850000D01*
%TO.C,U0*%
X24380000Y-49550000D02*
X24380000Y-50950000D01*
X21910000Y-49550000D02*
X24360000Y-49550000D01*
X21340000Y-50100000D02*
X21340000Y-50950000D01*
X21910000Y-49550000D02*
X21340000Y-50100000D01*
X21340000Y-50950000D02*
X24380000Y-50950000D01*
%TO.C,R18*%
X38900000Y-29286000D02*
X38900000Y-26086000D01*
X37300000Y-29286000D02*
X38900000Y-29286000D01*
X37300000Y-26086000D02*
X37300000Y-29286000D01*
X38900000Y-26086000D02*
X37300000Y-26086000D01*
%TO.C,Q8*%
X43754000Y-14986000D02*
X46204000Y-14986000D01*
X46224000Y-14986000D02*
X46224000Y-16386000D01*
X43184000Y-16386000D02*
X46224000Y-16386000D01*
X43184000Y-15536000D02*
X43184000Y-16386000D01*
X43754000Y-14986000D02*
X43184000Y-15536000D01*
%TO.C,R93*%
X58700000Y-41350000D02*
X58700000Y-44550000D01*
X60300000Y-41350000D02*
X58700000Y-41350000D01*
X60300000Y-44550000D02*
X60300000Y-41350000D01*
X58700000Y-44550000D02*
X60300000Y-44550000D01*
%TO.C,R72*%
X17488000Y-48464000D02*
X17488000Y-51664000D01*
X19088000Y-48464000D02*
X17488000Y-48464000D01*
X19088000Y-51664000D02*
X19088000Y-48464000D01*
X17488000Y-51664000D02*
X19088000Y-51664000D01*
%TO.C,R71*%
X26200000Y-45034000D02*
X26200000Y-41834000D01*
X24600000Y-45034000D02*
X26200000Y-45034000D01*
X24600000Y-41834000D02*
X24600000Y-45034000D01*
X26200000Y-41834000D02*
X24600000Y-41834000D01*
%TO.C,R6*%
X48730000Y-26112000D02*
X48730000Y-29312000D01*
X50330000Y-29312000D02*
X50330000Y-26112000D01*
X50330000Y-26112000D02*
X48730000Y-26112000D01*
X48730000Y-29312000D02*
X50330000Y-29312000D01*
%TO.C,R94*%
X55750000Y-44550000D02*
X57350000Y-44550000D01*
X55750000Y-41350000D02*
X55750000Y-44550000D01*
X57350000Y-44550000D02*
X57350000Y-41350000D01*
X57350000Y-41350000D02*
X55750000Y-41350000D01*
%TO.C,Q14*%
X34036000Y-21374000D02*
X33466000Y-21924000D01*
X34036000Y-21374000D02*
X36486000Y-21374000D01*
X33466000Y-21924000D02*
X33466000Y-22774000D01*
X36506000Y-21374000D02*
X36506000Y-22774000D01*
X33466000Y-22774000D02*
X36506000Y-22774000D01*
%TO.C,R96*%
X49800000Y-41250000D02*
X49800000Y-44450000D01*
X51400000Y-44450000D02*
X51400000Y-41250000D01*
X49800000Y-44450000D02*
X51400000Y-44450000D01*
X51400000Y-41250000D02*
X49800000Y-41250000D01*
%TO.C,R73*%
X17488000Y-46304000D02*
X19088000Y-46304000D01*
X19088000Y-43104000D02*
X17488000Y-43104000D01*
X19088000Y-46304000D02*
X19088000Y-43104000D01*
X17488000Y-43104000D02*
X17488000Y-46304000D01*
%TO.C,R95*%
X52850000Y-44550000D02*
X54450000Y-44550000D01*
X54450000Y-41350000D02*
X52850000Y-41350000D01*
X52850000Y-41350000D02*
X52850000Y-44550000D01*
X54450000Y-44550000D02*
X54450000Y-41350000D01*
%TO.C,Q18*%
X58162000Y-15644000D02*
X58162000Y-14794000D01*
X55122000Y-16194000D02*
X55122000Y-14794000D01*
X58162000Y-14794000D02*
X55122000Y-14794000D01*
X57592000Y-16194000D02*
X58162000Y-15644000D01*
X57592000Y-16194000D02*
X55142000Y-16194000D01*
%TO.C,R27*%
X57275000Y-25975000D02*
X55675000Y-25975000D01*
X55675000Y-25975000D02*
X55675000Y-29175000D01*
X57275000Y-29175000D02*
X57275000Y-25975000D01*
X55675000Y-29175000D02*
X57275000Y-29175000D01*
%TD*%
%TO.C,J5*%
X61176000Y-34506000D02*
X61176000Y-36106000D01*
X62776000Y-36106000D01*
X62776000Y-34506000D01*
X61176000Y-34506000D01*
X59436000Y-34506000D02*
X59436000Y-34506000D01*
X59436000Y-36106000D02*
X59436000Y-36106000D01*
X59436000Y-34506000D02*
G75*
G03*
X59436000Y-36106000I0J-800000D01*
G01*
X59436000Y-36106000D02*
G75*
G03*
X59436000Y-34506000I0J800000D01*
G01*
X56896000Y-34506000D02*
X56896000Y-34506000D01*
X56896000Y-36106000D02*
X56896000Y-36106000D01*
X56896000Y-34506000D02*
G75*
G03*
X56896000Y-36106000I0J-800000D01*
G01*
X56896000Y-36106000D02*
G75*
G03*
X56896000Y-34506000I0J800000D01*
G01*
X54356000Y-34506000D02*
X54356000Y-34506000D01*
X54356000Y-36106000D02*
X54356000Y-36106000D01*
X54356000Y-34506000D02*
G75*
G03*
X54356000Y-36106000I0J-800000D01*
G01*
X54356000Y-36106000D02*
G75*
G03*
X54356000Y-34506000I0J800000D01*
G01*
X51816000Y-34506000D02*
X51816000Y-34506000D01*
X51816000Y-36106000D02*
X51816000Y-36106000D01*
X51816000Y-34506000D02*
G75*
G03*
X51816000Y-36106000I0J-800000D01*
G01*
X51816000Y-36106000D02*
G75*
G03*
X51816000Y-34506000I0J800000D01*
G01*
X49276000Y-34506000D02*
X49276000Y-34506000D01*
X49276000Y-36106000D02*
X49276000Y-36106000D01*
X49276000Y-34506000D02*
G75*
G03*
X49276000Y-36106000I0J-800000D01*
G01*
X49276000Y-36106000D02*
G75*
G03*
X49276000Y-34506000I0J800000D01*
G01*
X46736000Y-34506000D02*
X46736000Y-34506000D01*
X46736000Y-36106000D02*
X46736000Y-36106000D01*
X46736000Y-34506000D02*
G75*
G03*
X46736000Y-36106000I0J-800000D01*
G01*
X46736000Y-36106000D02*
G75*
G03*
X46736000Y-34506000I0J800000D01*
G01*
X44196000Y-34506000D02*
X44196000Y-34506000D01*
X44196000Y-36106000D02*
X44196000Y-36106000D01*
X44196000Y-34506000D02*
G75*
G03*
X44196000Y-36106000I0J-800000D01*
G01*
X44196000Y-36106000D02*
G75*
G03*
X44196000Y-34506000I0J800000D01*
G01*
X41656000Y-34506000D02*
X41656000Y-34506000D01*
X41656000Y-36106000D02*
X41656000Y-36106000D01*
X41656000Y-34506000D02*
G75*
G03*
X41656000Y-36106000I0J-800000D01*
G01*
X41656000Y-36106000D02*
G75*
G03*
X41656000Y-34506000I0J800000D01*
G01*
X39116000Y-34506000D02*
X39116000Y-34506000D01*
X39116000Y-36106000D02*
X39116000Y-36106000D01*
X39116000Y-34506000D02*
G75*
G03*
X39116000Y-36106000I0J-800000D01*
G01*
X39116000Y-36106000D02*
G75*
G03*
X39116000Y-34506000I0J800000D01*
G01*
X36576000Y-34506000D02*
X36576000Y-34506000D01*
X36576000Y-36106000D02*
X36576000Y-36106000D01*
X36576000Y-34506000D02*
G75*
G03*
X36576000Y-36106000I0J-800000D01*
G01*
X36576000Y-36106000D02*
G75*
G03*
X36576000Y-34506000I0J800000D01*
G01*
X34036000Y-34506000D02*
X34036000Y-34506000D01*
X34036000Y-36106000D02*
X34036000Y-36106000D01*
X34036000Y-34506000D02*
G75*
G03*
X34036000Y-36106000I0J-800000D01*
G01*
X34036000Y-36106000D02*
G75*
G03*
X34036000Y-34506000I0J800000D01*
G01*
X31496000Y-34506000D02*
X31496000Y-34506000D01*
X31496000Y-36106000D02*
X31496000Y-36106000D01*
X31496000Y-34506000D02*
G75*
G03*
X31496000Y-36106000I0J-800000D01*
G01*
X31496000Y-36106000D02*
G75*
G03*
X31496000Y-34506000I0J800000D01*
G01*
X28956000Y-34506000D02*
X28956000Y-34506000D01*
X28956000Y-36106000D02*
X28956000Y-36106000D01*
X28956000Y-34506000D02*
G75*
G03*
X28956000Y-36106000I0J-800000D01*
G01*
X28956000Y-36106000D02*
G75*
G03*
X28956000Y-34506000I0J800000D01*
G01*
%TD*%
%TO.C,RV6*%
X15075000Y-1150000D02*
X15075000Y-2600000D01*
X16525000Y-2600000D01*
X16525000Y-1150000D01*
X15075000Y-1150000D01*
X11525000Y-4375000D02*
G75*
G03*
X11525000Y-4375000I-725000J0D01*
G01*
X16525000Y-6875000D02*
G75*
G03*
X16525000Y-6875000I-725000J0D01*
G01*
%TD*%
%TO.C,RV5*%
X10400000Y-50550000D02*
X10400000Y-52000000D01*
X11850000Y-52000000D01*
X11850000Y-50550000D01*
X10400000Y-50550000D01*
X16850000Y-48775000D02*
G75*
G03*
X16850000Y-48775000I-725000J0D01*
G01*
X11850000Y-46275000D02*
G75*
G03*
X11850000Y-46275000I-725000J0D01*
G01*
%TD*%
%TO.C,R82*%
X3250000Y-29750000D02*
G75*
G03*
X3250000Y-29750000I-750000J0D01*
G01*
X2500000Y-31540000D02*
X2500000Y-31540000D01*
X2500000Y-33040000D02*
X2500000Y-33040000D01*
X2500000Y-31540000D02*
G75*
G03*
X2500000Y-33040000I0J-750000D01*
G01*
X2500000Y-33040000D02*
G75*
G03*
X2500000Y-31540000I0J750000D01*
G01*
%TD*%
%TO.C,R85*%
X3250000Y-37309000D02*
G75*
G03*
X3250000Y-37309000I-750000J0D01*
G01*
X2500000Y-39099000D02*
X2500000Y-39099000D01*
X2500000Y-40599000D02*
X2500000Y-40599000D01*
X2500000Y-39099000D02*
G75*
G03*
X2500000Y-40599000I0J-750000D01*
G01*
X2500000Y-40599000D02*
G75*
G03*
X2500000Y-39099000I0J750000D01*
G01*
%TD*%
%TO.C,RV2*%
X10425000Y-23500000D02*
X10425000Y-24950000D01*
X11875000Y-24950000D01*
X11875000Y-23500000D01*
X10425000Y-23500000D01*
X16875000Y-21725000D02*
G75*
G03*
X16875000Y-21725000I-725000J0D01*
G01*
X11875000Y-19225000D02*
G75*
G03*
X11875000Y-19225000I-725000J0D01*
G01*
%TD*%
%TO.C,RV3*%
X10375000Y-32200000D02*
X10375000Y-33650000D01*
X11825000Y-33650000D01*
X11825000Y-32200000D01*
X10375000Y-32200000D01*
X16825000Y-30425000D02*
G75*
G03*
X16825000Y-30425000I-725000J0D01*
G01*
X11825000Y-27925000D02*
G75*
G03*
X11825000Y-27925000I-725000J0D01*
G01*
%TD*%
%TO.C,RV4*%
X10375000Y-41300000D02*
X10375000Y-42750000D01*
X11825000Y-42750000D01*
X11825000Y-41300000D01*
X10375000Y-41300000D01*
X16825000Y-39525000D02*
G75*
G03*
X16825000Y-39525000I-725000J0D01*
G01*
X11825000Y-37025000D02*
G75*
G03*
X11825000Y-37025000I-725000J0D01*
G01*
%TD*%
%TO.C,RV1*%
X10375000Y-15025000D02*
X10375000Y-16475000D01*
X11825000Y-16475000D01*
X11825000Y-15025000D01*
X10375000Y-15025000D01*
X16825000Y-13250000D02*
G75*
G03*
X16825000Y-13250000I-725000J0D01*
G01*
X11825000Y-10750000D02*
G75*
G03*
X11825000Y-10750000I-725000J0D01*
G01*
%TD*%
%TO.C,R88*%
X3250000Y-44955000D02*
G75*
G03*
X3250000Y-44955000I-750000J0D01*
G01*
X2500000Y-46745000D02*
X2500000Y-46745000D01*
X2500000Y-48245000D02*
X2500000Y-48245000D01*
X2500000Y-46745000D02*
G75*
G03*
X2500000Y-48245000I0J-750000D01*
G01*
X2500000Y-48245000D02*
G75*
G03*
X2500000Y-46745000I0J750000D01*
G01*
%TD*%
%TO.C,R79*%
X3250000Y-23500000D02*
G75*
G03*
X3250000Y-23500000I-750000J0D01*
G01*
X2500000Y-25290000D02*
X2500000Y-25290000D01*
X2500000Y-26790000D02*
X2500000Y-26790000D01*
X2500000Y-25290000D02*
G75*
G03*
X2500000Y-26790000I0J-750000D01*
G01*
X2500000Y-26790000D02*
G75*
G03*
X2500000Y-25290000I0J750000D01*
G01*
%TD*%
%TO.C,RV0*%
X24775000Y-49825000D02*
X24775000Y-51275000D01*
X26225000Y-51275000D01*
X26225000Y-49825000D01*
X24775000Y-49825000D01*
X23725000Y-45550000D02*
G75*
G03*
X23725000Y-45550000I-725000J0D01*
G01*
X21225000Y-50550000D02*
G75*
G03*
X21225000Y-50550000I-725000J0D01*
G01*
%TD*%
%TO.C,J6*%
X28176000Y-8872000D02*
X28176000Y-10472000D01*
X29776000Y-10472000D01*
X29776000Y-8872000D01*
X28176000Y-8872000D01*
X25636000Y-9672000D02*
X25636000Y-9672000D01*
X27236000Y-9672000D02*
X27236000Y-9672000D01*
X25636000Y-9672000D02*
G75*
G03*
X27236000Y-9672000I800000J0D01*
G01*
X27236000Y-9672000D02*
G75*
G03*
X25636000Y-9672000I-800000J0D01*
G01*
X28176000Y-12212000D02*
X28176000Y-12212000D01*
X29776000Y-12212000D02*
X29776000Y-12212000D01*
X28176000Y-12212000D02*
G75*
G03*
X29776000Y-12212000I800000J0D01*
G01*
X29776000Y-12212000D02*
G75*
G03*
X28176000Y-12212000I-800000J0D01*
G01*
X25636000Y-12212000D02*
X25636000Y-12212000D01*
X27236000Y-12212000D02*
X27236000Y-12212000D01*
X25636000Y-12212000D02*
G75*
G03*
X27236000Y-12212000I800000J0D01*
G01*
X27236000Y-12212000D02*
G75*
G03*
X25636000Y-12212000I-800000J0D01*
G01*
X28176000Y-14752000D02*
X28176000Y-14752000D01*
X29776000Y-14752000D02*
X29776000Y-14752000D01*
X28176000Y-14752000D02*
G75*
G03*
X29776000Y-14752000I800000J0D01*
G01*
X29776000Y-14752000D02*
G75*
G03*
X28176000Y-14752000I-800000J0D01*
G01*
X25636000Y-14752000D02*
X25636000Y-14752000D01*
X27236000Y-14752000D02*
X27236000Y-14752000D01*
X25636000Y-14752000D02*
G75*
G03*
X27236000Y-14752000I800000J0D01*
G01*
X27236000Y-14752000D02*
G75*
G03*
X25636000Y-14752000I-800000J0D01*
G01*
X28176000Y-17292000D02*
X28176000Y-17292000D01*
X29776000Y-17292000D02*
X29776000Y-17292000D01*
X28176000Y-17292000D02*
G75*
G03*
X29776000Y-17292000I800000J0D01*
G01*
X29776000Y-17292000D02*
G75*
G03*
X28176000Y-17292000I-800000J0D01*
G01*
X25636000Y-17292000D02*
X25636000Y-17292000D01*
X27236000Y-17292000D02*
X27236000Y-17292000D01*
X25636000Y-17292000D02*
G75*
G03*
X27236000Y-17292000I800000J0D01*
G01*
X27236000Y-17292000D02*
G75*
G03*
X25636000Y-17292000I-800000J0D01*
G01*
X28176000Y-19832000D02*
X28176000Y-19832000D01*
X29776000Y-19832000D02*
X29776000Y-19832000D01*
X28176000Y-19832000D02*
G75*
G03*
X29776000Y-19832000I800000J0D01*
G01*
X29776000Y-19832000D02*
G75*
G03*
X28176000Y-19832000I-800000J0D01*
G01*
X25636000Y-19832000D02*
X25636000Y-19832000D01*
X27236000Y-19832000D02*
X27236000Y-19832000D01*
X25636000Y-19832000D02*
G75*
G03*
X27236000Y-19832000I800000J0D01*
G01*
X27236000Y-19832000D02*
G75*
G03*
X25636000Y-19832000I-800000J0D01*
G01*
X28176000Y-22372000D02*
X28176000Y-22372000D01*
X29776000Y-22372000D02*
X29776000Y-22372000D01*
X28176000Y-22372000D02*
G75*
G03*
X29776000Y-22372000I800000J0D01*
G01*
X29776000Y-22372000D02*
G75*
G03*
X28176000Y-22372000I-800000J0D01*
G01*
X25636000Y-22372000D02*
X25636000Y-22372000D01*
X27236000Y-22372000D02*
X27236000Y-22372000D01*
X25636000Y-22372000D02*
G75*
G03*
X27236000Y-22372000I800000J0D01*
G01*
X27236000Y-22372000D02*
G75*
G03*
X25636000Y-22372000I-800000J0D01*
G01*
X28176000Y-24912000D02*
X28176000Y-24912000D01*
X29776000Y-24912000D02*
X29776000Y-24912000D01*
X28176000Y-24912000D02*
G75*
G03*
X29776000Y-24912000I800000J0D01*
G01*
X29776000Y-24912000D02*
G75*
G03*
X28176000Y-24912000I-800000J0D01*
G01*
X25636000Y-24912000D02*
X25636000Y-24912000D01*
X27236000Y-24912000D02*
X27236000Y-24912000D01*
X25636000Y-24912000D02*
G75*
G03*
X27236000Y-24912000I800000J0D01*
G01*
X27236000Y-24912000D02*
G75*
G03*
X25636000Y-24912000I-800000J0D01*
G01*
%TD*%
D14*
%TO.C,R9*%
D13*
X46929161Y-25552128D02*
X46993729Y-25595271D01*
X47036872Y-25659839D01*
X47053000Y-25740923D01*
X47053000Y-26531077D01*
X47036872Y-26612161D01*
X46993729Y-26676729D01*
X46929161Y-26719872D01*
X46848077Y-26736000D01*
X45607923Y-26736000D01*
X45526839Y-26719872D01*
X45462271Y-26676729D01*
X45419128Y-26612161D01*
X45403000Y-26531077D01*
X45403000Y-25740923D01*
X45419128Y-25659839D01*
X45462271Y-25595271D01*
X45526839Y-25552128D01*
X45607923Y-25536000D01*
X46848077Y-25536000D01*
X46929161Y-25552128D01*
D14*
D13*
X46929161Y-28652128D02*
X46993729Y-28695271D01*
X47036872Y-28759839D01*
X47053000Y-28840923D01*
X47053000Y-29631077D01*
X47036872Y-29712161D01*
X46993729Y-29776729D01*
X46929161Y-29819872D01*
X46848077Y-29836000D01*
X45607923Y-29836000D01*
X45526839Y-29819872D01*
X45462271Y-29776729D01*
X45419128Y-29712161D01*
X45403000Y-29631077D01*
X45403000Y-28840923D01*
X45419128Y-28759839D01*
X45462271Y-28695271D01*
X45526839Y-28652128D01*
X45607923Y-28636000D01*
X46848077Y-28636000D01*
X46929161Y-28652128D01*
%TD*%
%TO.C,Q10*%
X39340000Y-19698000D02*
X39340000Y-21498000D01*
X40040000Y-21498000D01*
X40040000Y-19698000D01*
X39340000Y-19698000D01*
X41240000Y-19698000D02*
X41240000Y-21498000D01*
X41940000Y-21498000D01*
X41940000Y-19698000D01*
X41240000Y-19698000D01*
X40290000Y-22698000D02*
X40290000Y-24498000D01*
X40990000Y-24498000D01*
X40990000Y-22698000D01*
X40290000Y-22698000D01*
%TD*%
D14*
%TO.C,R12*%
D13*
X44135161Y-25552128D02*
X44199729Y-25595271D01*
X44242872Y-25659839D01*
X44259000Y-25740923D01*
X44259000Y-26531077D01*
X44242872Y-26612161D01*
X44199729Y-26676729D01*
X44135161Y-26719872D01*
X44054077Y-26736000D01*
X42813923Y-26736000D01*
X42732839Y-26719872D01*
X42668271Y-26676729D01*
X42625128Y-26612161D01*
X42609000Y-26531077D01*
X42609000Y-25740923D01*
X42625128Y-25659839D01*
X42668271Y-25595271D01*
X42732839Y-25552128D01*
X42813923Y-25536000D01*
X44054077Y-25536000D01*
X44135161Y-25552128D01*
D14*
D13*
X44135161Y-28652128D02*
X44199729Y-28695271D01*
X44242872Y-28759839D01*
X44259000Y-28840923D01*
X44259000Y-29631077D01*
X44242872Y-29712161D01*
X44199729Y-29776729D01*
X44135161Y-29819872D01*
X44054077Y-29836000D01*
X42813923Y-29836000D01*
X42732839Y-29819872D01*
X42668271Y-29776729D01*
X42625128Y-29712161D01*
X42609000Y-29631077D01*
X42609000Y-28840923D01*
X42625128Y-28759839D01*
X42668271Y-28695271D01*
X42732839Y-28652128D01*
X42813923Y-28636000D01*
X44054077Y-28636000D01*
X44135161Y-28652128D01*
%TD*%
%TO.C,Q17*%
X62250000Y-16200000D02*
X62250000Y-18000000D01*
X62950000Y-18000000D01*
X62950000Y-16200000D01*
X62250000Y-16200000D01*
X60350000Y-16200000D02*
X60350000Y-18000000D01*
X61050000Y-18000000D01*
X61050000Y-16200000D01*
X60350000Y-16200000D01*
X61300000Y-13200000D02*
X61300000Y-15000000D01*
X62000000Y-15000000D01*
X62000000Y-13200000D01*
X61300000Y-13200000D01*
%TD*%
D14*
%TO.C,R26*%
D13*
X66626161Y-25566128D02*
X66690729Y-25609271D01*
X66733872Y-25673839D01*
X66750000Y-25754923D01*
X66750000Y-26545077D01*
X66733872Y-26626161D01*
X66690729Y-26690729D01*
X66626161Y-26733872D01*
X66545077Y-26750000D01*
X65304923Y-26750000D01*
X65223839Y-26733872D01*
X65159271Y-26690729D01*
X65116128Y-26626161D01*
X65100000Y-26545077D01*
X65100000Y-25754923D01*
X65116128Y-25673839D01*
X65159271Y-25609271D01*
X65223839Y-25566128D01*
X65304923Y-25550000D01*
X66545077Y-25550000D01*
X66626161Y-25566128D01*
D14*
D13*
X66626161Y-28666128D02*
X66690729Y-28709271D01*
X66733872Y-28773839D01*
X66750000Y-28854923D01*
X66750000Y-29645077D01*
X66733872Y-29726161D01*
X66690729Y-29790729D01*
X66626161Y-29833872D01*
X66545077Y-29850000D01*
X65304923Y-29850000D01*
X65223839Y-29833872D01*
X65159271Y-29790729D01*
X65116128Y-29726161D01*
X65100000Y-29645077D01*
X65100000Y-28854923D01*
X65116128Y-28773839D01*
X65159271Y-28709271D01*
X65223839Y-28666128D01*
X65304923Y-28650000D01*
X66545077Y-28650000D01*
X66626161Y-28666128D01*
%TD*%
%TO.C,Q12*%
X37562000Y-13348000D02*
X37562000Y-15148000D01*
X38262000Y-15148000D01*
X38262000Y-13348000D01*
X37562000Y-13348000D01*
X39462000Y-13348000D02*
X39462000Y-15148000D01*
X40162000Y-15148000D01*
X40162000Y-13348000D01*
X39462000Y-13348000D01*
X38512000Y-16348000D02*
X38512000Y-18148000D01*
X39212000Y-18148000D01*
X39212000Y-16348000D01*
X38512000Y-16348000D01*
%TD*%
D14*
%TO.C,R28*%
D13*
X59776161Y-25441128D02*
X59840729Y-25484271D01*
X59883872Y-25548839D01*
X59900000Y-25629923D01*
X59900000Y-26420077D01*
X59883872Y-26501161D01*
X59840729Y-26565729D01*
X59776161Y-26608872D01*
X59695077Y-26625000D01*
X58454923Y-26625000D01*
X58373839Y-26608872D01*
X58309271Y-26565729D01*
X58266128Y-26501161D01*
X58250000Y-26420077D01*
X58250000Y-25629923D01*
X58266128Y-25548839D01*
X58309271Y-25484271D01*
X58373839Y-25441128D01*
X58454923Y-25425000D01*
X59695077Y-25425000D01*
X59776161Y-25441128D01*
D14*
D13*
X59776161Y-28541128D02*
X59840729Y-28584271D01*
X59883872Y-28648839D01*
X59900000Y-28729923D01*
X59900000Y-29520077D01*
X59883872Y-29601161D01*
X59840729Y-29665729D01*
X59776161Y-29708872D01*
X59695077Y-29725000D01*
X58454923Y-29725000D01*
X58373839Y-29708872D01*
X58309271Y-29665729D01*
X58266128Y-29601161D01*
X58250000Y-29520077D01*
X58250000Y-28729923D01*
X58266128Y-28648839D01*
X58309271Y-28584271D01*
X58373839Y-28541128D01*
X58454923Y-28525000D01*
X59695077Y-28525000D01*
X59776161Y-28541128D01*
%TD*%
D14*
%TO.C,R91*%
D13*
X3495161Y-4014128D02*
X3559729Y-4057271D01*
X3602872Y-4121839D01*
X3619000Y-4202923D01*
X3619000Y-4993077D01*
X3602872Y-5074161D01*
X3559729Y-5138729D01*
X3495161Y-5181872D01*
X3414077Y-5198000D01*
X2173923Y-5198000D01*
X2092839Y-5181872D01*
X2028271Y-5138729D01*
X1985128Y-5074161D01*
X1969000Y-4993077D01*
X1969000Y-4202923D01*
X1985128Y-4121839D01*
X2028271Y-4057271D01*
X2092839Y-4014128D01*
X2173923Y-3998000D01*
X3414077Y-3998000D01*
X3495161Y-4014128D01*
D14*
D13*
X3495161Y-914128D02*
X3559729Y-957271D01*
X3602872Y-1021839D01*
X3619000Y-1102923D01*
X3619000Y-1893077D01*
X3602872Y-1974161D01*
X3559729Y-2038729D01*
X3495161Y-2081872D01*
X3414077Y-2098000D01*
X2173923Y-2098000D01*
X2092839Y-2081872D01*
X2028271Y-2038729D01*
X1985128Y-1974161D01*
X1969000Y-1893077D01*
X1969000Y-1102923D01*
X1985128Y-1021839D01*
X2028271Y-957271D01*
X2092839Y-914128D01*
X2173923Y-898000D01*
X3414077Y-898000D01*
X3495161Y-914128D01*
%TD*%
D14*
%TO.C,R97*%
D13*
X48276161Y-43791128D02*
X48340729Y-43834271D01*
X48383872Y-43898839D01*
X48400000Y-43979923D01*
X48400000Y-44770077D01*
X48383872Y-44851161D01*
X48340729Y-44915729D01*
X48276161Y-44958872D01*
X48195077Y-44975000D01*
X46954923Y-44975000D01*
X46873839Y-44958872D01*
X46809271Y-44915729D01*
X46766128Y-44851161D01*
X46750000Y-44770077D01*
X46750000Y-43979923D01*
X46766128Y-43898839D01*
X46809271Y-43834271D01*
X46873839Y-43791128D01*
X46954923Y-43775000D01*
X48195077Y-43775000D01*
X48276161Y-43791128D01*
D14*
D13*
X48276161Y-40691128D02*
X48340729Y-40734271D01*
X48383872Y-40798839D01*
X48400000Y-40879923D01*
X48400000Y-41670077D01*
X48383872Y-41751161D01*
X48340729Y-41815729D01*
X48276161Y-41858872D01*
X48195077Y-41875000D01*
X46954923Y-41875000D01*
X46873839Y-41858872D01*
X46809271Y-41815729D01*
X46766128Y-41751161D01*
X46750000Y-41670077D01*
X46750000Y-40879923D01*
X46766128Y-40798839D01*
X46809271Y-40734271D01*
X46873839Y-40691128D01*
X46954923Y-40675000D01*
X48195077Y-40675000D01*
X48276161Y-40691128D01*
%TD*%
%TO.C,J1*%
X40760000Y-1780000D02*
X40760000Y-3380000D01*
X42360000Y-3380000D01*
X42360000Y-1780000D01*
X40760000Y-1780000D01*
X39020000Y-3380000D02*
X39020000Y-3380000D01*
X39020000Y-1780000D02*
X39020000Y-1780000D01*
X39020000Y-3380000D02*
G75*
G03*
X39020000Y-1780000I0J800000D01*
G01*
X39020000Y-1780000D02*
G75*
G03*
X39020000Y-3380000I0J-800000D01*
G01*
X36480000Y-3380000D02*
X36480000Y-3380000D01*
X36480000Y-1780000D02*
X36480000Y-1780000D01*
X36480000Y-3380000D02*
G75*
G03*
X36480000Y-1780000I0J800000D01*
G01*
X36480000Y-1780000D02*
G75*
G03*
X36480000Y-3380000I0J-800000D01*
G01*
X33940000Y-3380000D02*
X33940000Y-3380000D01*
X33940000Y-1780000D02*
X33940000Y-1780000D01*
X33940000Y-3380000D02*
G75*
G03*
X33940000Y-1780000I0J800000D01*
G01*
X33940000Y-1780000D02*
G75*
G03*
X33940000Y-3380000I0J-800000D01*
G01*
X31400000Y-3380000D02*
X31400000Y-3380000D01*
X31400000Y-1780000D02*
X31400000Y-1780000D01*
X31400000Y-3380000D02*
G75*
G03*
X31400000Y-1780000I0J800000D01*
G01*
X31400000Y-1780000D02*
G75*
G03*
X31400000Y-3380000I0J-800000D01*
G01*
X28860000Y-3380000D02*
X28860000Y-3380000D01*
X28860000Y-1780000D02*
X28860000Y-1780000D01*
X28860000Y-3380000D02*
G75*
G03*
X28860000Y-1780000I0J800000D01*
G01*
X28860000Y-1780000D02*
G75*
G03*
X28860000Y-3380000I0J-800000D01*
G01*
X26320000Y-3380000D02*
X26320000Y-3380000D01*
X26320000Y-1780000D02*
X26320000Y-1780000D01*
X26320000Y-3380000D02*
G75*
G03*
X26320000Y-1780000I0J800000D01*
G01*
X26320000Y-1780000D02*
G75*
G03*
X26320000Y-3380000I0J-800000D01*
G01*
X23780000Y-3380000D02*
X23780000Y-3380000D01*
X23780000Y-1780000D02*
X23780000Y-1780000D01*
X23780000Y-3380000D02*
G75*
G03*
X23780000Y-1780000I0J800000D01*
G01*
X23780000Y-1780000D02*
G75*
G03*
X23780000Y-3380000I0J-800000D01*
G01*
%TD*%
D14*
%TO.C,R3*%
D13*
X53025161Y-25578128D02*
X53089729Y-25621271D01*
X53132872Y-25685839D01*
X53149000Y-25766923D01*
X53149000Y-26557077D01*
X53132872Y-26638161D01*
X53089729Y-26702729D01*
X53025161Y-26745872D01*
X52944077Y-26762000D01*
X51703923Y-26762000D01*
X51622839Y-26745872D01*
X51558271Y-26702729D01*
X51515128Y-26638161D01*
X51499000Y-26557077D01*
X51499000Y-25766923D01*
X51515128Y-25685839D01*
X51558271Y-25621271D01*
X51622839Y-25578128D01*
X51703923Y-25562000D01*
X52944077Y-25562000D01*
X53025161Y-25578128D01*
D14*
D13*
X53025161Y-28678128D02*
X53089729Y-28721271D01*
X53132872Y-28785839D01*
X53149000Y-28866923D01*
X53149000Y-29657077D01*
X53132872Y-29738161D01*
X53089729Y-29802729D01*
X53025161Y-29845872D01*
X52944077Y-29862000D01*
X51703923Y-29862000D01*
X51622839Y-29845872D01*
X51558271Y-29802729D01*
X51515128Y-29738161D01*
X51499000Y-29657077D01*
X51499000Y-28866923D01*
X51515128Y-28785839D01*
X51558271Y-28721271D01*
X51622839Y-28678128D01*
X51703923Y-28662000D01*
X52944077Y-28662000D01*
X53025161Y-28678128D01*
%TD*%
D14*
%TO.C,C1*%
D13*
X64688661Y-21541128D02*
X64753229Y-21584271D01*
X64796372Y-21648839D01*
X64812500Y-21729923D01*
X64812500Y-23020077D01*
X64796372Y-23101161D01*
X64753229Y-23165729D01*
X64688661Y-23208872D01*
X64607577Y-23225000D01*
X63792423Y-23225000D01*
X63711339Y-23208872D01*
X63646771Y-23165729D01*
X63603628Y-23101161D01*
X63587500Y-23020077D01*
X63587500Y-21729923D01*
X63603628Y-21648839D01*
X63646771Y-21584271D01*
X63711339Y-21541128D01*
X63792423Y-21525000D01*
X64607577Y-21525000D01*
X64688661Y-21541128D01*
D14*
D13*
X61563661Y-21541128D02*
X61628229Y-21584271D01*
X61671372Y-21648839D01*
X61687500Y-21729923D01*
X61687500Y-23020077D01*
X61671372Y-23101161D01*
X61628229Y-23165729D01*
X61563661Y-23208872D01*
X61482577Y-23225000D01*
X60667423Y-23225000D01*
X60586339Y-23208872D01*
X60521771Y-23165729D01*
X60478628Y-23101161D01*
X60462500Y-23020077D01*
X60462500Y-21729923D01*
X60478628Y-21648839D01*
X60521771Y-21584271D01*
X60586339Y-21541128D01*
X60667423Y-21525000D01*
X61482577Y-21525000D01*
X61563661Y-21541128D01*
%TD*%
%TO.C,Q2*%
X51024000Y-19444000D02*
X51024000Y-21244000D01*
X51724000Y-21244000D01*
X51724000Y-19444000D01*
X51024000Y-19444000D01*
X52924000Y-19444000D02*
X52924000Y-21244000D01*
X53624000Y-21244000D01*
X53624000Y-19444000D01*
X52924000Y-19444000D01*
X51974000Y-22444000D02*
X51974000Y-24244000D01*
X52674000Y-24244000D01*
X52674000Y-22444000D01*
X51974000Y-22444000D01*
%TD*%
%TO.C,J4*%
X65800000Y-49700000D02*
X65800000Y-51300000D01*
X67400000Y-51300000D01*
X67400000Y-49700000D01*
X65800000Y-49700000D01*
X64060000Y-51300000D02*
X64060000Y-51300000D01*
X64060000Y-49700000D02*
X64060000Y-49700000D01*
X64060000Y-51300000D02*
G75*
G03*
X64060000Y-49700000I0J800000D01*
G01*
X64060000Y-49700000D02*
G75*
G03*
X64060000Y-51300000I0J-800000D01*
G01*
X61520000Y-51300000D02*
X61520000Y-51300000D01*
X61520000Y-49700000D02*
X61520000Y-49700000D01*
X61520000Y-51300000D02*
G75*
G03*
X61520000Y-49700000I0J800000D01*
G01*
X61520000Y-49700000D02*
G75*
G03*
X61520000Y-51300000I0J-800000D01*
G01*
X58980000Y-51300000D02*
X58980000Y-51300000D01*
X58980000Y-49700000D02*
X58980000Y-49700000D01*
X58980000Y-51300000D02*
G75*
G03*
X58980000Y-49700000I0J800000D01*
G01*
X58980000Y-49700000D02*
G75*
G03*
X58980000Y-51300000I0J-800000D01*
G01*
X56440000Y-51300000D02*
X56440000Y-51300000D01*
X56440000Y-49700000D02*
X56440000Y-49700000D01*
X56440000Y-51300000D02*
G75*
G03*
X56440000Y-49700000I0J800000D01*
G01*
X56440000Y-49700000D02*
G75*
G03*
X56440000Y-51300000I0J-800000D01*
G01*
X53900000Y-51300000D02*
X53900000Y-51300000D01*
X53900000Y-49700000D02*
X53900000Y-49700000D01*
X53900000Y-51300000D02*
G75*
G03*
X53900000Y-49700000I0J800000D01*
G01*
X53900000Y-49700000D02*
G75*
G03*
X53900000Y-51300000I0J-800000D01*
G01*
X51360000Y-51300000D02*
X51360000Y-51300000D01*
X51360000Y-49700000D02*
X51360000Y-49700000D01*
X51360000Y-51300000D02*
G75*
G03*
X51360000Y-49700000I0J800000D01*
G01*
X51360000Y-49700000D02*
G75*
G03*
X51360000Y-51300000I0J-800000D01*
G01*
%TD*%
%TO.C,Q4*%
X48738000Y-13056000D02*
X48738000Y-14856000D01*
X49438000Y-14856000D01*
X49438000Y-13056000D01*
X48738000Y-13056000D01*
X50638000Y-13056000D02*
X50638000Y-14856000D01*
X51338000Y-14856000D01*
X51338000Y-13056000D01*
X50638000Y-13056000D01*
X49688000Y-16056000D02*
X49688000Y-17856000D01*
X50388000Y-17856000D01*
X50388000Y-16056000D01*
X49688000Y-16056000D01*
%TD*%
D14*
%TO.C,R25*%
D13*
X63926161Y-28616128D02*
X63990729Y-28659271D01*
X64033872Y-28723839D01*
X64050000Y-28804923D01*
X64050000Y-29595077D01*
X64033872Y-29676161D01*
X63990729Y-29740729D01*
X63926161Y-29783872D01*
X63845077Y-29800000D01*
X62604923Y-29800000D01*
X62523839Y-29783872D01*
X62459271Y-29740729D01*
X62416128Y-29676161D01*
X62400000Y-29595077D01*
X62400000Y-28804923D01*
X62416128Y-28723839D01*
X62459271Y-28659271D01*
X62523839Y-28616128D01*
X62604923Y-28600000D01*
X63845077Y-28600000D01*
X63926161Y-28616128D01*
D14*
D13*
X63926161Y-25516128D02*
X63990729Y-25559271D01*
X64033872Y-25623839D01*
X64050000Y-25704923D01*
X64050000Y-26495077D01*
X64033872Y-26576161D01*
X63990729Y-26640729D01*
X63926161Y-26683872D01*
X63845077Y-26700000D01*
X62604923Y-26700000D01*
X62523839Y-26683872D01*
X62459271Y-26640729D01*
X62416128Y-26576161D01*
X62400000Y-26495077D01*
X62400000Y-25704923D01*
X62416128Y-25623839D01*
X62459271Y-25559271D01*
X62523839Y-25516128D01*
X62604923Y-25500000D01*
X63845077Y-25500000D01*
X63926161Y-25516128D01*
%TD*%
D14*
%TO.C,R98*%
D13*
X63101161Y-43891128D02*
X63165729Y-43934271D01*
X63208872Y-43998839D01*
X63225000Y-44079923D01*
X63225000Y-44870077D01*
X63208872Y-44951161D01*
X63165729Y-45015729D01*
X63101161Y-45058872D01*
X63020077Y-45075000D01*
X61779923Y-45075000D01*
X61698839Y-45058872D01*
X61634271Y-45015729D01*
X61591128Y-44951161D01*
X61575000Y-44870077D01*
X61575000Y-44079923D01*
X61591128Y-43998839D01*
X61634271Y-43934271D01*
X61698839Y-43891128D01*
X61779923Y-43875000D01*
X63020077Y-43875000D01*
X63101161Y-43891128D01*
D14*
D13*
X63101161Y-40791128D02*
X63165729Y-40834271D01*
X63208872Y-40898839D01*
X63225000Y-40979923D01*
X63225000Y-41770077D01*
X63208872Y-41851161D01*
X63165729Y-41915729D01*
X63101161Y-41958872D01*
X63020077Y-41975000D01*
X61779923Y-41975000D01*
X61698839Y-41958872D01*
X61634271Y-41915729D01*
X61591128Y-41851161D01*
X61575000Y-41770077D01*
X61575000Y-40979923D01*
X61591128Y-40898839D01*
X61634271Y-40834271D01*
X61698839Y-40791128D01*
X61779923Y-40775000D01*
X63020077Y-40775000D01*
X63101161Y-40791128D01*
%TD*%
%TO.C,Q6*%
X44928000Y-19444000D02*
X44928000Y-21244000D01*
X45628000Y-21244000D01*
X45628000Y-19444000D01*
X44928000Y-19444000D01*
X46828000Y-19444000D02*
X46828000Y-21244000D01*
X47528000Y-21244000D01*
X47528000Y-19444000D01*
X46828000Y-19444000D01*
X45878000Y-22444000D02*
X45878000Y-24244000D01*
X46578000Y-24244000D01*
X46578000Y-22444000D01*
X45878000Y-22444000D01*
%TD*%
%TO.C,Q16*%
X31720000Y-13348000D02*
X31720000Y-15148000D01*
X32420000Y-15148000D01*
X32420000Y-13348000D01*
X31720000Y-13348000D01*
X33620000Y-13348000D02*
X33620000Y-15148000D01*
X34320000Y-15148000D01*
X34320000Y-13348000D01*
X33620000Y-13348000D01*
X32670000Y-16348000D02*
X32670000Y-18148000D01*
X33370000Y-18148000D01*
X33370000Y-16348000D01*
X32670000Y-16348000D01*
%TD*%
D14*
%TO.C,R24*%
D13*
X32959161Y-25552128D02*
X33023729Y-25595271D01*
X33066872Y-25659839D01*
X33083000Y-25740923D01*
X33083000Y-26531077D01*
X33066872Y-26612161D01*
X33023729Y-26676729D01*
X32959161Y-26719872D01*
X32878077Y-26736000D01*
X31637923Y-26736000D01*
X31556839Y-26719872D01*
X31492271Y-26676729D01*
X31449128Y-26612161D01*
X31433000Y-26531077D01*
X31433000Y-25740923D01*
X31449128Y-25659839D01*
X31492271Y-25595271D01*
X31556839Y-25552128D01*
X31637923Y-25536000D01*
X32878077Y-25536000D01*
X32959161Y-25552128D01*
D14*
D13*
X32959161Y-28652128D02*
X33023729Y-28695271D01*
X33066872Y-28759839D01*
X33083000Y-28840923D01*
X33083000Y-29631077D01*
X33066872Y-29712161D01*
X33023729Y-29776729D01*
X32959161Y-29819872D01*
X32878077Y-29836000D01*
X31637923Y-29836000D01*
X31556839Y-29819872D01*
X31492271Y-29776729D01*
X31449128Y-29712161D01*
X31433000Y-29631077D01*
X31433000Y-28840923D01*
X31449128Y-28759839D01*
X31492271Y-28695271D01*
X31556839Y-28652128D01*
X31637923Y-28636000D01*
X32878077Y-28636000D01*
X32959161Y-28652128D01*
%TD*%
D14*
%TO.C,R21*%
D13*
X35753161Y-25552128D02*
X35817729Y-25595271D01*
X35860872Y-25659839D01*
X35877000Y-25740923D01*
X35877000Y-26531077D01*
X35860872Y-26612161D01*
X35817729Y-26676729D01*
X35753161Y-26719872D01*
X35672077Y-26736000D01*
X34431923Y-26736000D01*
X34350839Y-26719872D01*
X34286271Y-26676729D01*
X34243128Y-26612161D01*
X34227000Y-26531077D01*
X34227000Y-25740923D01*
X34243128Y-25659839D01*
X34286271Y-25595271D01*
X34350839Y-25552128D01*
X34431923Y-25536000D01*
X35672077Y-25536000D01*
X35753161Y-25552128D01*
D14*
D13*
X35753161Y-28652128D02*
X35817729Y-28695271D01*
X35860872Y-28759839D01*
X35877000Y-28840923D01*
X35877000Y-29631077D01*
X35860872Y-29712161D01*
X35817729Y-29776729D01*
X35753161Y-29819872D01*
X35672077Y-29836000D01*
X34431923Y-29836000D01*
X34350839Y-29819872D01*
X34286271Y-29776729D01*
X34243128Y-29712161D01*
X34227000Y-29631077D01*
X34227000Y-28840923D01*
X34243128Y-28759839D01*
X34286271Y-28695271D01*
X34350839Y-28652128D01*
X34431923Y-28636000D01*
X35672077Y-28636000D01*
X35753161Y-28652128D01*
%TD*%
D14*
%TO.C,R15*%
D13*
X41595161Y-25526128D02*
X41659729Y-25569271D01*
X41702872Y-25633839D01*
X41719000Y-25714923D01*
X41719000Y-26505077D01*
X41702872Y-26586161D01*
X41659729Y-26650729D01*
X41595161Y-26693872D01*
X41514077Y-26710000D01*
X40273923Y-26710000D01*
X40192839Y-26693872D01*
X40128271Y-26650729D01*
X40085128Y-26586161D01*
X40069000Y-26505077D01*
X40069000Y-25714923D01*
X40085128Y-25633839D01*
X40128271Y-25569271D01*
X40192839Y-25526128D01*
X40273923Y-25510000D01*
X41514077Y-25510000D01*
X41595161Y-25526128D01*
D14*
D13*
X41595161Y-28626128D02*
X41659729Y-28669271D01*
X41702872Y-28733839D01*
X41719000Y-28814923D01*
X41719000Y-29605077D01*
X41702872Y-29686161D01*
X41659729Y-29750729D01*
X41595161Y-29793872D01*
X41514077Y-29810000D01*
X40273923Y-29810000D01*
X40192839Y-29793872D01*
X40128271Y-29750729D01*
X40085128Y-29686161D01*
X40069000Y-29605077D01*
X40069000Y-28814923D01*
X40085128Y-28733839D01*
X40128271Y-28669271D01*
X40192839Y-28626128D01*
X40273923Y-28610000D01*
X41514077Y-28610000D01*
X41595161Y-28626128D01*
%TD*%
D14*
%TO.C,C2*%
D13*
X56876161Y-22466128D02*
X56940729Y-22509271D01*
X56983872Y-22573839D01*
X57000000Y-22654923D01*
X57000000Y-23470077D01*
X56983872Y-23551161D01*
X56940729Y-23615729D01*
X56876161Y-23658872D01*
X56795077Y-23675000D01*
X55504923Y-23675000D01*
X55423839Y-23658872D01*
X55359271Y-23615729D01*
X55316128Y-23551161D01*
X55300000Y-23470077D01*
X55300000Y-22654923D01*
X55316128Y-22573839D01*
X55359271Y-22509271D01*
X55423839Y-22466128D01*
X55504923Y-22450000D01*
X56795077Y-22450000D01*
X56876161Y-22466128D01*
D14*
D13*
X56876161Y-19341128D02*
X56940729Y-19384271D01*
X56983872Y-19448839D01*
X57000000Y-19529923D01*
X57000000Y-20345077D01*
X56983872Y-20426161D01*
X56940729Y-20490729D01*
X56876161Y-20533872D01*
X56795077Y-20550000D01*
X55504923Y-20550000D01*
X55423839Y-20533872D01*
X55359271Y-20490729D01*
X55316128Y-20426161D01*
X55300000Y-20345077D01*
X55300000Y-19529923D01*
X55316128Y-19448839D01*
X55359271Y-19384271D01*
X55423839Y-19341128D01*
X55504923Y-19325000D01*
X56795077Y-19325000D01*
X56876161Y-19341128D01*
%TD*%
D14*
%TO.C,R89*%
D13*
X8554561Y-765928D02*
X8619129Y-809071D01*
X8662272Y-873639D01*
X8678400Y-954723D01*
X8678400Y-2194877D01*
X8662272Y-2275961D01*
X8619129Y-2340529D01*
X8554561Y-2383672D01*
X8473477Y-2399800D01*
X7683323Y-2399800D01*
X7602239Y-2383672D01*
X7537671Y-2340529D01*
X7494528Y-2275961D01*
X7478400Y-2194877D01*
X7478400Y-954723D01*
X7494528Y-873639D01*
X7537671Y-809071D01*
X7602239Y-765928D01*
X7683323Y-749800D01*
X8473477Y-749800D01*
X8554561Y-765928D01*
D14*
D13*
X5454561Y-765928D02*
X5519129Y-809071D01*
X5562272Y-873639D01*
X5578400Y-954723D01*
X5578400Y-2194877D01*
X5562272Y-2275961D01*
X5519129Y-2340529D01*
X5454561Y-2383672D01*
X5373477Y-2399800D01*
X4583323Y-2399800D01*
X4502239Y-2383672D01*
X4437671Y-2340529D01*
X4394528Y-2275961D01*
X4378400Y-2194877D01*
X4378400Y-954723D01*
X4394528Y-873639D01*
X4437671Y-809071D01*
X4502239Y-765928D01*
X4583323Y-749800D01*
X5373477Y-749800D01*
X5454561Y-765928D01*
%TD*%
%TO.C,J3*%
X45260000Y-49700000D02*
X45260000Y-51300000D01*
X46860000Y-51300000D01*
X46860000Y-49700000D01*
X45260000Y-49700000D01*
X43520000Y-51300000D02*
X43520000Y-51300000D01*
X43520000Y-49700000D02*
X43520000Y-49700000D01*
X43520000Y-51300000D02*
G75*
G03*
X43520000Y-49700000I0J800000D01*
G01*
X43520000Y-49700000D02*
G75*
G03*
X43520000Y-51300000I0J-800000D01*
G01*
X40980000Y-51300000D02*
X40980000Y-51300000D01*
X40980000Y-49700000D02*
X40980000Y-49700000D01*
X40980000Y-51300000D02*
G75*
G03*
X40980000Y-49700000I0J800000D01*
G01*
X40980000Y-49700000D02*
G75*
G03*
X40980000Y-51300000I0J-800000D01*
G01*
X38440000Y-51300000D02*
X38440000Y-51300000D01*
X38440000Y-49700000D02*
X38440000Y-49700000D01*
X38440000Y-51300000D02*
G75*
G03*
X38440000Y-49700000I0J800000D01*
G01*
X38440000Y-49700000D02*
G75*
G03*
X38440000Y-51300000I0J-800000D01*
G01*
X35900000Y-51300000D02*
X35900000Y-51300000D01*
X35900000Y-49700000D02*
X35900000Y-49700000D01*
X35900000Y-51300000D02*
G75*
G03*
X35900000Y-49700000I0J800000D01*
G01*
X35900000Y-49700000D02*
G75*
G03*
X35900000Y-51300000I0J-800000D01*
G01*
X33360000Y-51300000D02*
X33360000Y-51300000D01*
X33360000Y-49700000D02*
X33360000Y-49700000D01*
X33360000Y-51300000D02*
G75*
G03*
X33360000Y-49700000I0J800000D01*
G01*
X33360000Y-49700000D02*
G75*
G03*
X33360000Y-51300000I0J-800000D01*
G01*
X30820000Y-51300000D02*
X30820000Y-51300000D01*
X30820000Y-49700000D02*
X30820000Y-49700000D01*
X30820000Y-51300000D02*
G75*
G03*
X30820000Y-49700000I0J800000D01*
G01*
X30820000Y-49700000D02*
G75*
G03*
X30820000Y-51300000I0J-800000D01*
G01*
X28280000Y-51300000D02*
X28280000Y-51300000D01*
X28280000Y-49700000D02*
X28280000Y-49700000D01*
X28280000Y-51300000D02*
G75*
G03*
X28280000Y-49700000I0J800000D01*
G01*
X28280000Y-49700000D02*
G75*
G03*
X28280000Y-51300000I0J-800000D01*
G01*
%TD*%
D14*
%TO.C,R92*%
D13*
X45326161Y-43741128D02*
X45390729Y-43784271D01*
X45433872Y-43848839D01*
X45450000Y-43929923D01*
X45450000Y-44720077D01*
X45433872Y-44801161D01*
X45390729Y-44865729D01*
X45326161Y-44908872D01*
X45245077Y-44925000D01*
X44004923Y-44925000D01*
X43923839Y-44908872D01*
X43859271Y-44865729D01*
X43816128Y-44801161D01*
X43800000Y-44720077D01*
X43800000Y-43929923D01*
X43816128Y-43848839D01*
X43859271Y-43784271D01*
X43923839Y-43741128D01*
X44004923Y-43725000D01*
X45245077Y-43725000D01*
X45326161Y-43741128D01*
D14*
D13*
X45326161Y-40641128D02*
X45390729Y-40684271D01*
X45433872Y-40748839D01*
X45450000Y-40829923D01*
X45450000Y-41620077D01*
X45433872Y-41701161D01*
X45390729Y-41765729D01*
X45326161Y-41808872D01*
X45245077Y-41825000D01*
X44004923Y-41825000D01*
X43923839Y-41808872D01*
X43859271Y-41765729D01*
X43816128Y-41701161D01*
X43800000Y-41620077D01*
X43800000Y-40829923D01*
X43816128Y-40748839D01*
X43859271Y-40684271D01*
X43923839Y-40641128D01*
X44004923Y-40625000D01*
X45245077Y-40625000D01*
X45326161Y-40641128D01*
%TD*%
%TO.C,J2*%
X62780000Y-1780000D02*
X62780000Y-3380000D01*
X64380000Y-3380000D01*
X64380000Y-1780000D01*
X62780000Y-1780000D01*
X61040000Y-3380000D02*
X61040000Y-3380000D01*
X61040000Y-1780000D02*
X61040000Y-1780000D01*
X61040000Y-3380000D02*
G75*
G03*
X61040000Y-1780000I0J800000D01*
G01*
X61040000Y-1780000D02*
G75*
G03*
X61040000Y-3380000I0J-800000D01*
G01*
X58500000Y-3380000D02*
X58500000Y-3380000D01*
X58500000Y-1780000D02*
X58500000Y-1780000D01*
X58500000Y-3380000D02*
G75*
G03*
X58500000Y-1780000I0J800000D01*
G01*
X58500000Y-1780000D02*
G75*
G03*
X58500000Y-3380000I0J-800000D01*
G01*
X55960000Y-3380000D02*
X55960000Y-3380000D01*
X55960000Y-1780000D02*
X55960000Y-1780000D01*
X55960000Y-3380000D02*
G75*
G03*
X55960000Y-1780000I0J800000D01*
G01*
X55960000Y-1780000D02*
G75*
G03*
X55960000Y-3380000I0J-800000D01*
G01*
X53420000Y-3380000D02*
X53420000Y-3380000D01*
X53420000Y-1780000D02*
X53420000Y-1780000D01*
X53420000Y-3380000D02*
G75*
G03*
X53420000Y-1780000I0J800000D01*
G01*
X53420000Y-1780000D02*
G75*
G03*
X53420000Y-3380000I0J-800000D01*
G01*
X50880000Y-3380000D02*
X50880000Y-3380000D01*
X50880000Y-1780000D02*
X50880000Y-1780000D01*
X50880000Y-3380000D02*
G75*
G03*
X50880000Y-1780000I0J800000D01*
G01*
X50880000Y-1780000D02*
G75*
G03*
X50880000Y-3380000I0J-800000D01*
G01*
X48340000Y-3380000D02*
X48340000Y-3380000D01*
X48340000Y-1780000D02*
X48340000Y-1780000D01*
X48340000Y-3380000D02*
G75*
G03*
X48340000Y-1780000I0J800000D01*
G01*
X48340000Y-1780000D02*
G75*
G03*
X48340000Y-3380000I0J-800000D01*
G01*
X45800000Y-3380000D02*
X45800000Y-3380000D01*
X45800000Y-1780000D02*
X45800000Y-1780000D01*
X45800000Y-3380000D02*
G75*
G03*
X45800000Y-1780000I0J800000D01*
G01*
X45800000Y-1780000D02*
G75*
G03*
X45800000Y-3380000I0J-800000D01*
G01*
%TD*%
%TO.C,U0*%
X21560000Y-47850000D02*
X21560000Y-49650000D01*
X22260000Y-49650000D01*
X22260000Y-47850000D01*
X21560000Y-47850000D01*
X23460000Y-47850000D02*
X23460000Y-49650000D01*
X24160000Y-49650000D01*
X24160000Y-47850000D01*
X23460000Y-47850000D01*
X22510000Y-50850000D02*
X22510000Y-52650000D01*
X23210000Y-52650000D01*
X23210000Y-50850000D01*
X22510000Y-50850000D01*
%TD*%
D14*
%TO.C,R18*%
D13*
X38801161Y-25552128D02*
X38865729Y-25595271D01*
X38908872Y-25659839D01*
X38925000Y-25740923D01*
X38925000Y-26531077D01*
X38908872Y-26612161D01*
X38865729Y-26676729D01*
X38801161Y-26719872D01*
X38720077Y-26736000D01*
X37479923Y-26736000D01*
X37398839Y-26719872D01*
X37334271Y-26676729D01*
X37291128Y-26612161D01*
X37275000Y-26531077D01*
X37275000Y-25740923D01*
X37291128Y-25659839D01*
X37334271Y-25595271D01*
X37398839Y-25552128D01*
X37479923Y-25536000D01*
X38720077Y-25536000D01*
X38801161Y-25552128D01*
D14*
D13*
X38801161Y-28652128D02*
X38865729Y-28695271D01*
X38908872Y-28759839D01*
X38925000Y-28840923D01*
X38925000Y-29631077D01*
X38908872Y-29712161D01*
X38865729Y-29776729D01*
X38801161Y-29819872D01*
X38720077Y-29836000D01*
X37479923Y-29836000D01*
X37398839Y-29819872D01*
X37334271Y-29776729D01*
X37291128Y-29712161D01*
X37275000Y-29631077D01*
X37275000Y-28840923D01*
X37291128Y-28759839D01*
X37334271Y-28695271D01*
X37398839Y-28652128D01*
X37479923Y-28636000D01*
X38720077Y-28636000D01*
X38801161Y-28652128D01*
%TD*%
%TO.C,Q8*%
X43404000Y-13286000D02*
X43404000Y-15086000D01*
X44104000Y-15086000D01*
X44104000Y-13286000D01*
X43404000Y-13286000D01*
X45304000Y-13286000D02*
X45304000Y-15086000D01*
X46004000Y-15086000D01*
X46004000Y-13286000D01*
X45304000Y-13286000D01*
X44354000Y-16286000D02*
X44354000Y-18086000D01*
X45054000Y-18086000D01*
X45054000Y-16286000D01*
X44354000Y-16286000D01*
%TD*%
D14*
%TO.C,R93*%
D13*
X60201161Y-43916128D02*
X60265729Y-43959271D01*
X60308872Y-44023839D01*
X60325000Y-44104923D01*
X60325000Y-44895077D01*
X60308872Y-44976161D01*
X60265729Y-45040729D01*
X60201161Y-45083872D01*
X60120077Y-45100000D01*
X58879923Y-45100000D01*
X58798839Y-45083872D01*
X58734271Y-45040729D01*
X58691128Y-44976161D01*
X58675000Y-44895077D01*
X58675000Y-44104923D01*
X58691128Y-44023839D01*
X58734271Y-43959271D01*
X58798839Y-43916128D01*
X58879923Y-43900000D01*
X60120077Y-43900000D01*
X60201161Y-43916128D01*
D14*
D13*
X60201161Y-40816128D02*
X60265729Y-40859271D01*
X60308872Y-40923839D01*
X60325000Y-41004923D01*
X60325000Y-41795077D01*
X60308872Y-41876161D01*
X60265729Y-41940729D01*
X60201161Y-41983872D01*
X60120077Y-42000000D01*
X58879923Y-42000000D01*
X58798839Y-41983872D01*
X58734271Y-41940729D01*
X58691128Y-41876161D01*
X58675000Y-41795077D01*
X58675000Y-41004923D01*
X58691128Y-40923839D01*
X58734271Y-40859271D01*
X58798839Y-40816128D01*
X58879923Y-40800000D01*
X60120077Y-40800000D01*
X60201161Y-40816128D01*
%TD*%
D14*
%TO.C,R72*%
D13*
X18989161Y-47930128D02*
X19053729Y-47973271D01*
X19096872Y-48037839D01*
X19113000Y-48118923D01*
X19113000Y-48909077D01*
X19096872Y-48990161D01*
X19053729Y-49054729D01*
X18989161Y-49097872D01*
X18908077Y-49114000D01*
X17667923Y-49114000D01*
X17586839Y-49097872D01*
X17522271Y-49054729D01*
X17479128Y-48990161D01*
X17463000Y-48909077D01*
X17463000Y-48118923D01*
X17479128Y-48037839D01*
X17522271Y-47973271D01*
X17586839Y-47930128D01*
X17667923Y-47914000D01*
X18908077Y-47914000D01*
X18989161Y-47930128D01*
D14*
D13*
X18989161Y-51030128D02*
X19053729Y-51073271D01*
X19096872Y-51137839D01*
X19113000Y-51218923D01*
X19113000Y-52009077D01*
X19096872Y-52090161D01*
X19053729Y-52154729D01*
X18989161Y-52197872D01*
X18908077Y-52214000D01*
X17667923Y-52214000D01*
X17586839Y-52197872D01*
X17522271Y-52154729D01*
X17479128Y-52090161D01*
X17463000Y-52009077D01*
X17463000Y-51218923D01*
X17479128Y-51137839D01*
X17522271Y-51073271D01*
X17586839Y-51030128D01*
X17667923Y-51014000D01*
X18908077Y-51014000D01*
X18989161Y-51030128D01*
%TD*%
D14*
%TO.C,R71*%
D13*
X26101161Y-44400128D02*
X26165729Y-44443271D01*
X26208872Y-44507839D01*
X26225000Y-44588923D01*
X26225000Y-45379077D01*
X26208872Y-45460161D01*
X26165729Y-45524729D01*
X26101161Y-45567872D01*
X26020077Y-45584000D01*
X24779923Y-45584000D01*
X24698839Y-45567872D01*
X24634271Y-45524729D01*
X24591128Y-45460161D01*
X24575000Y-45379077D01*
X24575000Y-44588923D01*
X24591128Y-44507839D01*
X24634271Y-44443271D01*
X24698839Y-44400128D01*
X24779923Y-44384000D01*
X26020077Y-44384000D01*
X26101161Y-44400128D01*
D14*
D13*
X26101161Y-41300128D02*
X26165729Y-41343271D01*
X26208872Y-41407839D01*
X26225000Y-41488923D01*
X26225000Y-42279077D01*
X26208872Y-42360161D01*
X26165729Y-42424729D01*
X26101161Y-42467872D01*
X26020077Y-42484000D01*
X24779923Y-42484000D01*
X24698839Y-42467872D01*
X24634271Y-42424729D01*
X24591128Y-42360161D01*
X24575000Y-42279077D01*
X24575000Y-41488923D01*
X24591128Y-41407839D01*
X24634271Y-41343271D01*
X24698839Y-41300128D01*
X24779923Y-41284000D01*
X26020077Y-41284000D01*
X26101161Y-41300128D01*
%TD*%
D14*
%TO.C,R6*%
D13*
X50231161Y-25578128D02*
X50295729Y-25621271D01*
X50338872Y-25685839D01*
X50355000Y-25766923D01*
X50355000Y-26557077D01*
X50338872Y-26638161D01*
X50295729Y-26702729D01*
X50231161Y-26745872D01*
X50150077Y-26762000D01*
X48909923Y-26762000D01*
X48828839Y-26745872D01*
X48764271Y-26702729D01*
X48721128Y-26638161D01*
X48705000Y-26557077D01*
X48705000Y-25766923D01*
X48721128Y-25685839D01*
X48764271Y-25621271D01*
X48828839Y-25578128D01*
X48909923Y-25562000D01*
X50150077Y-25562000D01*
X50231161Y-25578128D01*
D14*
D13*
X50231161Y-28678128D02*
X50295729Y-28721271D01*
X50338872Y-28785839D01*
X50355000Y-28866923D01*
X50355000Y-29657077D01*
X50338872Y-29738161D01*
X50295729Y-29802729D01*
X50231161Y-29845872D01*
X50150077Y-29862000D01*
X48909923Y-29862000D01*
X48828839Y-29845872D01*
X48764271Y-29802729D01*
X48721128Y-29738161D01*
X48705000Y-29657077D01*
X48705000Y-28866923D01*
X48721128Y-28785839D01*
X48764271Y-28721271D01*
X48828839Y-28678128D01*
X48909923Y-28662000D01*
X50150077Y-28662000D01*
X50231161Y-28678128D01*
%TD*%
D14*
%TO.C,R94*%
D13*
X57251161Y-43916128D02*
X57315729Y-43959271D01*
X57358872Y-44023839D01*
X57375000Y-44104923D01*
X57375000Y-44895077D01*
X57358872Y-44976161D01*
X57315729Y-45040729D01*
X57251161Y-45083872D01*
X57170077Y-45100000D01*
X55929923Y-45100000D01*
X55848839Y-45083872D01*
X55784271Y-45040729D01*
X55741128Y-44976161D01*
X55725000Y-44895077D01*
X55725000Y-44104923D01*
X55741128Y-44023839D01*
X55784271Y-43959271D01*
X55848839Y-43916128D01*
X55929923Y-43900000D01*
X57170077Y-43900000D01*
X57251161Y-43916128D01*
D14*
D13*
X57251161Y-40816128D02*
X57315729Y-40859271D01*
X57358872Y-40923839D01*
X57375000Y-41004923D01*
X57375000Y-41795077D01*
X57358872Y-41876161D01*
X57315729Y-41940729D01*
X57251161Y-41983872D01*
X57170077Y-42000000D01*
X55929923Y-42000000D01*
X55848839Y-41983872D01*
X55784271Y-41940729D01*
X55741128Y-41876161D01*
X55725000Y-41795077D01*
X55725000Y-41004923D01*
X55741128Y-40923839D01*
X55784271Y-40859271D01*
X55848839Y-40816128D01*
X55929923Y-40800000D01*
X57170077Y-40800000D01*
X57251161Y-40816128D01*
%TD*%
%TO.C,Q14*%
X33686000Y-19674000D02*
X33686000Y-21474000D01*
X34386000Y-21474000D01*
X34386000Y-19674000D01*
X33686000Y-19674000D01*
X35586000Y-19674000D02*
X35586000Y-21474000D01*
X36286000Y-21474000D01*
X36286000Y-19674000D01*
X35586000Y-19674000D01*
X34636000Y-22674000D02*
X34636000Y-24474000D01*
X35336000Y-24474000D01*
X35336000Y-22674000D01*
X34636000Y-22674000D01*
%TD*%
D14*
%TO.C,R96*%
D13*
X51301161Y-43816128D02*
X51365729Y-43859271D01*
X51408872Y-43923839D01*
X51425000Y-44004923D01*
X51425000Y-44795077D01*
X51408872Y-44876161D01*
X51365729Y-44940729D01*
X51301161Y-44983872D01*
X51220077Y-45000000D01*
X49979923Y-45000000D01*
X49898839Y-44983872D01*
X49834271Y-44940729D01*
X49791128Y-44876161D01*
X49775000Y-44795077D01*
X49775000Y-44004923D01*
X49791128Y-43923839D01*
X49834271Y-43859271D01*
X49898839Y-43816128D01*
X49979923Y-43800000D01*
X51220077Y-43800000D01*
X51301161Y-43816128D01*
D14*
D13*
X51301161Y-40716128D02*
X51365729Y-40759271D01*
X51408872Y-40823839D01*
X51425000Y-40904923D01*
X51425000Y-41695077D01*
X51408872Y-41776161D01*
X51365729Y-41840729D01*
X51301161Y-41883872D01*
X51220077Y-41900000D01*
X49979923Y-41900000D01*
X49898839Y-41883872D01*
X49834271Y-41840729D01*
X49791128Y-41776161D01*
X49775000Y-41695077D01*
X49775000Y-40904923D01*
X49791128Y-40823839D01*
X49834271Y-40759271D01*
X49898839Y-40716128D01*
X49979923Y-40700000D01*
X51220077Y-40700000D01*
X51301161Y-40716128D01*
%TD*%
D14*
%TO.C,R73*%
D13*
X18989161Y-45670128D02*
X19053729Y-45713271D01*
X19096872Y-45777839D01*
X19113000Y-45858923D01*
X19113000Y-46649077D01*
X19096872Y-46730161D01*
X19053729Y-46794729D01*
X18989161Y-46837872D01*
X18908077Y-46854000D01*
X17667923Y-46854000D01*
X17586839Y-46837872D01*
X17522271Y-46794729D01*
X17479128Y-46730161D01*
X17463000Y-46649077D01*
X17463000Y-45858923D01*
X17479128Y-45777839D01*
X17522271Y-45713271D01*
X17586839Y-45670128D01*
X17667923Y-45654000D01*
X18908077Y-45654000D01*
X18989161Y-45670128D01*
D14*
D13*
X18989161Y-42570128D02*
X19053729Y-42613271D01*
X19096872Y-42677839D01*
X19113000Y-42758923D01*
X19113000Y-43549077D01*
X19096872Y-43630161D01*
X19053729Y-43694729D01*
X18989161Y-43737872D01*
X18908077Y-43754000D01*
X17667923Y-43754000D01*
X17586839Y-43737872D01*
X17522271Y-43694729D01*
X17479128Y-43630161D01*
X17463000Y-43549077D01*
X17463000Y-42758923D01*
X17479128Y-42677839D01*
X17522271Y-42613271D01*
X17586839Y-42570128D01*
X17667923Y-42554000D01*
X18908077Y-42554000D01*
X18989161Y-42570128D01*
%TD*%
D14*
%TO.C,R95*%
D13*
X54351161Y-43916128D02*
X54415729Y-43959271D01*
X54458872Y-44023839D01*
X54475000Y-44104923D01*
X54475000Y-44895077D01*
X54458872Y-44976161D01*
X54415729Y-45040729D01*
X54351161Y-45083872D01*
X54270077Y-45100000D01*
X53029923Y-45100000D01*
X52948839Y-45083872D01*
X52884271Y-45040729D01*
X52841128Y-44976161D01*
X52825000Y-44895077D01*
X52825000Y-44104923D01*
X52841128Y-44023839D01*
X52884271Y-43959271D01*
X52948839Y-43916128D01*
X53029923Y-43900000D01*
X54270077Y-43900000D01*
X54351161Y-43916128D01*
D14*
D13*
X54351161Y-40816128D02*
X54415729Y-40859271D01*
X54458872Y-40923839D01*
X54475000Y-41004923D01*
X54475000Y-41795077D01*
X54458872Y-41876161D01*
X54415729Y-41940729D01*
X54351161Y-41983872D01*
X54270077Y-42000000D01*
X53029923Y-42000000D01*
X52948839Y-41983872D01*
X52884271Y-41940729D01*
X52841128Y-41876161D01*
X52825000Y-41795077D01*
X52825000Y-41004923D01*
X52841128Y-40923839D01*
X52884271Y-40859271D01*
X52948839Y-40816128D01*
X53029923Y-40800000D01*
X54270077Y-40800000D01*
X54351161Y-40816128D01*
%TD*%
%TO.C,Q18*%
X57242000Y-16094000D02*
X57242000Y-17894000D01*
X57942000Y-17894000D01*
X57942000Y-16094000D01*
X57242000Y-16094000D01*
X55342000Y-16094000D02*
X55342000Y-17894000D01*
X56042000Y-17894000D01*
X56042000Y-16094000D01*
X55342000Y-16094000D01*
X56292000Y-13094000D02*
X56292000Y-14894000D01*
X56992000Y-14894000D01*
X56992000Y-13094000D01*
X56292000Y-13094000D01*
%TD*%
D14*
%TO.C,R27*%
D13*
X57176161Y-28541128D02*
X57240729Y-28584271D01*
X57283872Y-28648839D01*
X57300000Y-28729923D01*
X57300000Y-29520077D01*
X57283872Y-29601161D01*
X57240729Y-29665729D01*
X57176161Y-29708872D01*
X57095077Y-29725000D01*
X55854923Y-29725000D01*
X55773839Y-29708872D01*
X55709271Y-29665729D01*
X55666128Y-29601161D01*
X55650000Y-29520077D01*
X55650000Y-28729923D01*
X55666128Y-28648839D01*
X55709271Y-28584271D01*
X55773839Y-28541128D01*
X55854923Y-28525000D01*
X57095077Y-28525000D01*
X57176161Y-28541128D01*
D14*
D13*
X57176161Y-25441128D02*
X57240729Y-25484271D01*
X57283872Y-25548839D01*
X57300000Y-25629923D01*
X57300000Y-26420077D01*
X57283872Y-26501161D01*
X57240729Y-26565729D01*
X57176161Y-26608872D01*
X57095077Y-26625000D01*
X55854923Y-26625000D01*
X55773839Y-26608872D01*
X55709271Y-26565729D01*
X55666128Y-26501161D01*
X55650000Y-26420077D01*
X55650000Y-25629923D01*
X55666128Y-25548839D01*
X55709271Y-25484271D01*
X55773839Y-25441128D01*
X55854923Y-25425000D01*
X57095077Y-25425000D01*
X57176161Y-25441128D01*
%TD*%
M02*
