%TF.GenerationSoftware,KiCad,Pcbnew,6.0.0*%
%TF.CreationDate,2022-04-09T16:35:22-03:00*%
%TF.ProjectId,cwc5.5,63776335-2e35-42e6-9b69-6361645f7063,rev?*%
%TF.SameCoordinates,Original*%
%TF.FileFunction,Paste,Bot*%
%TF.FilePolarity,Positive*%
%FSLAX46Y46*%
G04 Gerber Fmt 4.6, Leading zero omitted, Abs format (unit mm)*
G04 Created by KiCad (PCBNEW 6.0.0) date 2022-04-09 16:35:22*
%MOMM*%
%LPD*%
G01*
G04 APERTURE LIST*
G04 Aperture macros list*
%AMRoundRect*
0 Rectangle with rounded corners*
0 $1 Rounding radius*
0 $2 $3 $4 $5 $6 $7 $8 $9 X,Y pos of 4 corners*
0 Add a 4 corners polygon primitive as box body*
4,1,4,$2,$3,$4,$5,$6,$7,$8,$9,$2,$3,0*
0 Add four circle primitives for the rounded corners*
1,1,$1+$1,$2,$3*
1,1,$1+$1,$4,$5*
1,1,$1+$1,$6,$7*
1,1,$1+$1,$8,$9*
0 Add four rect primitives between the rounded corners*
20,1,$1+$1,$2,$3,$4,$5,0*
20,1,$1+$1,$4,$5,$6,$7,0*
20,1,$1+$1,$6,$7,$8,$9,0*
20,1,$1+$1,$8,$9,$2,$3,0*%
G04 Aperture macros list end*
%ADD10RoundRect,0.250000X-0.625000X0.400000X-0.625000X-0.400000X0.625000X-0.400000X0.625000X0.400000X0*%
%ADD11R,0.800000X1.900000*%
%ADD12RoundRect,0.250000X0.625000X-0.400000X0.625000X0.400000X-0.625000X0.400000X-0.625000X-0.400000X0*%
%ADD13RoundRect,0.250000X0.412500X0.650000X-0.412500X0.650000X-0.412500X-0.650000X0.412500X-0.650000X0*%
%ADD14RoundRect,0.250000X0.650000X-0.412500X0.650000X0.412500X-0.650000X0.412500X-0.650000X-0.412500X0*%
%ADD15RoundRect,0.250000X0.400000X0.625000X-0.400000X0.625000X-0.400000X-0.625000X0.400000X-0.625000X0*%
G04 APERTURE END LIST*
D10*
%TO.C,R9*%
X46228000Y-26136000D03*
X46228000Y-29236000D03*
%TD*%
D11*
%TO.C,Q10*%
X39690000Y-20598000D03*
X41590000Y-20598000D03*
X40640000Y-23598000D03*
%TD*%
D10*
%TO.C,R12*%
X43434000Y-26136000D03*
X43434000Y-29236000D03*
%TD*%
D11*
%TO.C,Q17*%
X62600000Y-17100000D03*
X60700000Y-17100000D03*
X61650000Y-14100000D03*
%TD*%
D10*
%TO.C,R26*%
X65925000Y-26150000D03*
X65925000Y-29250000D03*
%TD*%
D11*
%TO.C,Q12*%
X37912000Y-14248000D03*
X39812000Y-14248000D03*
X38862000Y-17248000D03*
%TD*%
D10*
%TO.C,R28*%
X59075000Y-26025000D03*
X59075000Y-29125000D03*
%TD*%
D12*
%TO.C,R91*%
X2794000Y-4598000D03*
X2794000Y-1498000D03*
%TD*%
%TO.C,R97*%
X47575000Y-44375000D03*
X47575000Y-41275000D03*
%TD*%
D10*
%TO.C,R3*%
X52324000Y-26162000D03*
X52324000Y-29262000D03*
%TD*%
D13*
%TO.C,C1*%
X64200000Y-22375000D03*
X61075000Y-22375000D03*
%TD*%
D11*
%TO.C,Q2*%
X51374000Y-20344000D03*
X53274000Y-20344000D03*
X52324000Y-23344000D03*
%TD*%
%TO.C,Q4*%
X49088000Y-13956000D03*
X50988000Y-13956000D03*
X50038000Y-16956000D03*
%TD*%
D12*
%TO.C,R25*%
X63225000Y-29200000D03*
X63225000Y-26100000D03*
%TD*%
%TO.C,R98*%
X62400000Y-44475000D03*
X62400000Y-41375000D03*
%TD*%
D11*
%TO.C,Q6*%
X45278000Y-20344000D03*
X47178000Y-20344000D03*
X46228000Y-23344000D03*
%TD*%
%TO.C,Q16*%
X32070000Y-14248000D03*
X33970000Y-14248000D03*
X33020000Y-17248000D03*
%TD*%
D10*
%TO.C,R24*%
X32258000Y-26136000D03*
X32258000Y-29236000D03*
%TD*%
%TO.C,R21*%
X35052000Y-26136000D03*
X35052000Y-29236000D03*
%TD*%
%TO.C,R15*%
X40894000Y-26110000D03*
X40894000Y-29210000D03*
%TD*%
D14*
%TO.C,C2*%
X56150000Y-23062500D03*
X56150000Y-19937500D03*
%TD*%
D15*
%TO.C,R89*%
X8078400Y-1574800D03*
X4978400Y-1574800D03*
%TD*%
D12*
%TO.C,R92*%
X44625000Y-44325000D03*
X44625000Y-41225000D03*
%TD*%
D11*
%TO.C,U0*%
X21910000Y-48750000D03*
X23810000Y-48750000D03*
X22860000Y-51750000D03*
%TD*%
D10*
%TO.C,R18*%
X38100000Y-26136000D03*
X38100000Y-29236000D03*
%TD*%
D11*
%TO.C,Q8*%
X43754000Y-14186000D03*
X45654000Y-14186000D03*
X44704000Y-17186000D03*
%TD*%
D12*
%TO.C,R93*%
X59500000Y-44500000D03*
X59500000Y-41400000D03*
%TD*%
D10*
%TO.C,R72*%
X18288000Y-48514000D03*
X18288000Y-51614000D03*
%TD*%
D12*
%TO.C,R71*%
X25400000Y-44984000D03*
X25400000Y-41884000D03*
%TD*%
D10*
%TO.C,R6*%
X49530000Y-26162000D03*
X49530000Y-29262000D03*
%TD*%
D12*
%TO.C,R94*%
X56550000Y-44500000D03*
X56550000Y-41400000D03*
%TD*%
D11*
%TO.C,Q14*%
X34036000Y-20574000D03*
X35936000Y-20574000D03*
X34986000Y-23574000D03*
%TD*%
D12*
%TO.C,R96*%
X50600000Y-44400000D03*
X50600000Y-41300000D03*
%TD*%
%TO.C,R73*%
X18288000Y-46254000D03*
X18288000Y-43154000D03*
%TD*%
%TO.C,R95*%
X53650000Y-44500000D03*
X53650000Y-41400000D03*
%TD*%
D11*
%TO.C,Q18*%
X57592000Y-16994000D03*
X55692000Y-16994000D03*
X56642000Y-13994000D03*
%TD*%
D12*
%TO.C,R27*%
X56475000Y-29125000D03*
X56475000Y-26025000D03*
%TD*%
M02*
