%TF.GenerationSoftware,KiCad,Pcbnew,6.0.0*%
%TF.CreationDate,2022-04-09T17:08:49-03:00*%
%TF.ProjectId,cwc5.5,63776335-2e35-42e6-9b69-6361645f7063,rev?*%
%TF.SameCoordinates,Original*%
%TF.FileFunction,Soldermask,Bot*%
%TF.FilePolarity,Negative*%
%FSLAX46Y46*%
G04 Gerber Fmt 4.6, Leading zero omitted, Abs format (unit mm)*
G04 Created by KiCad (PCBNEW 6.0.0) date 2022-04-09 17:08:49*
%MOMM*%
%LPD*%
G01*
G04 APERTURE LIST*
G04 Aperture macros list*
%AMRoundRect*
0 Rectangle with rounded corners*
0 $1 Rounding radius*
0 $2 $3 $4 $5 $6 $7 $8 $9 X,Y pos of 4 corners*
0 Add a 4 corners polygon primitive as box body*
4,1,4,$2,$3,$4,$5,$6,$7,$8,$9,$2,$3,0*
0 Add four circle primitives for the rounded corners*
1,1,$1+$1,$2,$3*
1,1,$1+$1,$4,$5*
1,1,$1+$1,$6,$7*
1,1,$1+$1,$8,$9*
0 Add four rect primitives between the rounded corners*
20,1,$1+$1,$2,$3,$4,$5,0*
20,1,$1+$1,$4,$5,$6,$7,0*
20,1,$1+$1,$6,$7,$8,$9,0*
20,1,$1+$1,$8,$9,$2,$3,0*%
G04 Aperture macros list end*
%ADD10R,1.700000X1.700000*%
%ADD11O,1.700000X1.700000*%
%ADD12R,1.550000X1.550000*%
%ADD13C,1.550000*%
%ADD14C,1.600000*%
%ADD15O,1.600000X1.600000*%
%ADD16RoundRect,0.250000X-0.625000X0.400000X-0.625000X-0.400000X0.625000X-0.400000X0.625000X0.400000X0*%
%ADD17R,0.800000X1.900000*%
%ADD18RoundRect,0.250000X0.625000X-0.400000X0.625000X0.400000X-0.625000X0.400000X-0.625000X-0.400000X0*%
%ADD19RoundRect,0.250000X0.412500X0.650000X-0.412500X0.650000X-0.412500X-0.650000X0.412500X-0.650000X0*%
%ADD20RoundRect,0.250000X0.650000X-0.412500X0.650000X0.412500X-0.650000X0.412500X-0.650000X-0.412500X0*%
%ADD21RoundRect,0.250000X0.400000X0.625000X-0.400000X0.625000X-0.400000X-0.625000X0.400000X-0.625000X0*%
G04 APERTURE END LIST*
D10*
%TO.C,J5*%
X61976000Y-35306000D03*
D11*
X59436000Y-35306000D03*
X56896000Y-35306000D03*
X54356000Y-35306000D03*
X51816000Y-35306000D03*
X49276000Y-35306000D03*
X46736000Y-35306000D03*
X44196000Y-35306000D03*
X41656000Y-35306000D03*
X39116000Y-35306000D03*
X36576000Y-35306000D03*
X34036000Y-35306000D03*
X31496000Y-35306000D03*
X28956000Y-35306000D03*
%TD*%
D12*
%TO.C,RV6*%
X15800000Y-1875000D03*
D13*
X10800000Y-4375000D03*
X15800000Y-6875000D03*
%TD*%
D12*
%TO.C,RV5*%
X11125000Y-51275000D03*
D13*
X16125000Y-48775000D03*
X11125000Y-46275000D03*
%TD*%
D14*
%TO.C,R82*%
X2500000Y-29750000D03*
D15*
X2500000Y-32290000D03*
%TD*%
D14*
%TO.C,R85*%
X2500000Y-37309000D03*
D15*
X2500000Y-39849000D03*
%TD*%
D12*
%TO.C,RV2*%
X11150000Y-24225000D03*
D13*
X16150000Y-21725000D03*
X11150000Y-19225000D03*
%TD*%
D12*
%TO.C,RV3*%
X11100000Y-32925000D03*
D13*
X16100000Y-30425000D03*
X11100000Y-27925000D03*
%TD*%
D12*
%TO.C,RV4*%
X11100000Y-42025000D03*
D13*
X16100000Y-39525000D03*
X11100000Y-37025000D03*
%TD*%
D12*
%TO.C,RV1*%
X11100000Y-15750000D03*
D13*
X16100000Y-13250000D03*
X11100000Y-10750000D03*
%TD*%
D14*
%TO.C,R88*%
X2500000Y-44955000D03*
D15*
X2500000Y-47495000D03*
%TD*%
D14*
%TO.C,R79*%
X2500000Y-23500000D03*
D15*
X2500000Y-26040000D03*
%TD*%
D12*
%TO.C,RV0*%
X25500000Y-50550000D03*
D13*
X23000000Y-45550000D03*
X20500000Y-50550000D03*
%TD*%
D10*
%TO.C,J6*%
X28976000Y-9672000D03*
D11*
X26436000Y-9672000D03*
X28976000Y-12212000D03*
X26436000Y-12212000D03*
X28976000Y-14752000D03*
X26436000Y-14752000D03*
X28976000Y-17292000D03*
X26436000Y-17292000D03*
X28976000Y-19832000D03*
X26436000Y-19832000D03*
X28976000Y-22372000D03*
X26436000Y-22372000D03*
X28976000Y-24912000D03*
X26436000Y-24912000D03*
%TD*%
D16*
%TO.C,R9*%
X46228000Y-26136000D03*
X46228000Y-29236000D03*
%TD*%
D17*
%TO.C,Q10*%
X39690000Y-20598000D03*
X41590000Y-20598000D03*
X40640000Y-23598000D03*
%TD*%
D16*
%TO.C,R12*%
X43434000Y-26136000D03*
X43434000Y-29236000D03*
%TD*%
D17*
%TO.C,Q17*%
X62600000Y-17100000D03*
X60700000Y-17100000D03*
X61650000Y-14100000D03*
%TD*%
D16*
%TO.C,R26*%
X65925000Y-26150000D03*
X65925000Y-29250000D03*
%TD*%
D17*
%TO.C,Q12*%
X37912000Y-14248000D03*
X39812000Y-14248000D03*
X38862000Y-17248000D03*
%TD*%
D16*
%TO.C,R28*%
X59075000Y-26025000D03*
X59075000Y-29125000D03*
%TD*%
D18*
%TO.C,R91*%
X2794000Y-4598000D03*
X2794000Y-1498000D03*
%TD*%
%TO.C,R97*%
X47575000Y-44375000D03*
X47575000Y-41275000D03*
%TD*%
D10*
%TO.C,J1*%
X41560000Y-2580000D03*
D11*
X39020000Y-2580000D03*
X36480000Y-2580000D03*
X33940000Y-2580000D03*
X31400000Y-2580000D03*
X28860000Y-2580000D03*
X26320000Y-2580000D03*
X23780000Y-2580000D03*
%TD*%
D16*
%TO.C,R3*%
X52324000Y-26162000D03*
X52324000Y-29262000D03*
%TD*%
D19*
%TO.C,C1*%
X64200000Y-22375000D03*
X61075000Y-22375000D03*
%TD*%
D17*
%TO.C,Q2*%
X51374000Y-20344000D03*
X53274000Y-20344000D03*
X52324000Y-23344000D03*
%TD*%
D10*
%TO.C,J4*%
X66600000Y-50500000D03*
D11*
X64060000Y-50500000D03*
X61520000Y-50500000D03*
X58980000Y-50500000D03*
X56440000Y-50500000D03*
X53900000Y-50500000D03*
X51360000Y-50500000D03*
%TD*%
D17*
%TO.C,Q4*%
X49088000Y-13956000D03*
X50988000Y-13956000D03*
X50038000Y-16956000D03*
%TD*%
D18*
%TO.C,R25*%
X63225000Y-29200000D03*
X63225000Y-26100000D03*
%TD*%
%TO.C,R98*%
X62400000Y-44475000D03*
X62400000Y-41375000D03*
%TD*%
D17*
%TO.C,Q6*%
X45278000Y-20344000D03*
X47178000Y-20344000D03*
X46228000Y-23344000D03*
%TD*%
%TO.C,Q16*%
X32070000Y-14248000D03*
X33970000Y-14248000D03*
X33020000Y-17248000D03*
%TD*%
D16*
%TO.C,R24*%
X32258000Y-26136000D03*
X32258000Y-29236000D03*
%TD*%
%TO.C,R21*%
X35052000Y-26136000D03*
X35052000Y-29236000D03*
%TD*%
%TO.C,R15*%
X40894000Y-26110000D03*
X40894000Y-29210000D03*
%TD*%
D20*
%TO.C,C2*%
X56150000Y-23062500D03*
X56150000Y-19937500D03*
%TD*%
D21*
%TO.C,R89*%
X8078400Y-1574800D03*
X4978400Y-1574800D03*
%TD*%
D10*
%TO.C,J3*%
X46060000Y-50500000D03*
D11*
X43520000Y-50500000D03*
X40980000Y-50500000D03*
X38440000Y-50500000D03*
X35900000Y-50500000D03*
X33360000Y-50500000D03*
X30820000Y-50500000D03*
X28280000Y-50500000D03*
%TD*%
D18*
%TO.C,R92*%
X44625000Y-44325000D03*
X44625000Y-41225000D03*
%TD*%
D10*
%TO.C,J2*%
X63580000Y-2580000D03*
D11*
X61040000Y-2580000D03*
X58500000Y-2580000D03*
X55960000Y-2580000D03*
X53420000Y-2580000D03*
X50880000Y-2580000D03*
X48340000Y-2580000D03*
X45800000Y-2580000D03*
%TD*%
D17*
%TO.C,U0*%
X21910000Y-48750000D03*
X23810000Y-48750000D03*
X22860000Y-51750000D03*
%TD*%
D16*
%TO.C,R18*%
X38100000Y-26136000D03*
X38100000Y-29236000D03*
%TD*%
D17*
%TO.C,Q8*%
X43754000Y-14186000D03*
X45654000Y-14186000D03*
X44704000Y-17186000D03*
%TD*%
D18*
%TO.C,R93*%
X59500000Y-44500000D03*
X59500000Y-41400000D03*
%TD*%
D16*
%TO.C,R72*%
X18288000Y-48514000D03*
X18288000Y-51614000D03*
%TD*%
D18*
%TO.C,R71*%
X25400000Y-44984000D03*
X25400000Y-41884000D03*
%TD*%
D16*
%TO.C,R6*%
X49530000Y-26162000D03*
X49530000Y-29262000D03*
%TD*%
D18*
%TO.C,R94*%
X56550000Y-44500000D03*
X56550000Y-41400000D03*
%TD*%
D17*
%TO.C,Q14*%
X34036000Y-20574000D03*
X35936000Y-20574000D03*
X34986000Y-23574000D03*
%TD*%
D18*
%TO.C,R96*%
X50600000Y-44400000D03*
X50600000Y-41300000D03*
%TD*%
%TO.C,R73*%
X18288000Y-46254000D03*
X18288000Y-43154000D03*
%TD*%
%TO.C,R95*%
X53650000Y-44500000D03*
X53650000Y-41400000D03*
%TD*%
D17*
%TO.C,Q18*%
X57592000Y-16994000D03*
X55692000Y-16994000D03*
X56642000Y-13994000D03*
%TD*%
D18*
%TO.C,R27*%
X56475000Y-29125000D03*
X56475000Y-26025000D03*
%TD*%
M02*
