%TF.GenerationSoftware,KiCad,Pcbnew,6.0.0*%
%TF.CreationDate,2022-04-09T17:08:46-03:00*%
%TF.ProjectId,cwc5.5,63776335-2e35-42e6-9b69-6361645f7063,rev?*%
%TF.SameCoordinates,Original*%
%TF.FileFunction,Paste,Top*%
%TF.FilePolarity,Positive*%
%FSLAX46Y46*%
G04 Gerber Fmt 4.6, Leading zero omitted, Abs format (unit mm)*
G04 Created by KiCad (PCBNEW 6.0.0) date 2022-04-09 17:08:46*
%MOMM*%
%LPD*%
G01*
G04 APERTURE LIST*
G04 Aperture macros list*
%AMRoundRect*
0 Rectangle with rounded corners*
0 $1 Rounding radius*
0 $2 $3 $4 $5 $6 $7 $8 $9 X,Y pos of 4 corners*
0 Add a 4 corners polygon primitive as box body*
4,1,4,$2,$3,$4,$5,$6,$7,$8,$9,$2,$3,0*
0 Add four circle primitives for the rounded corners*
1,1,$1+$1,$2,$3*
1,1,$1+$1,$4,$5*
1,1,$1+$1,$6,$7*
1,1,$1+$1,$8,$9*
0 Add four rect primitives between the rounded corners*
20,1,$1+$1,$2,$3,$4,$5,0*
20,1,$1+$1,$4,$5,$6,$7,0*
20,1,$1+$1,$6,$7,$8,$9,0*
20,1,$1+$1,$8,$9,$2,$3,0*%
G04 Aperture macros list end*
%ADD10RoundRect,0.250000X-0.625000X0.400000X-0.625000X-0.400000X0.625000X-0.400000X0.625000X0.400000X0*%
%ADD11R,0.800000X1.900000*%
%ADD12R,1.900000X0.800000*%
%ADD13RoundRect,0.250000X0.400000X0.625000X-0.400000X0.625000X-0.400000X-0.625000X0.400000X-0.625000X0*%
G04 APERTURE END LIST*
D10*
%TO.C,R13*%
X41910000Y-6578000D03*
X41910000Y-9678000D03*
%TD*%
D11*
%TO.C,Q7*%
X45654000Y-14186000D03*
X43754000Y-14186000D03*
X44704000Y-17186000D03*
%TD*%
D12*
%TO.C,U3*%
X5250000Y-29050000D03*
X5250000Y-30950000D03*
X8250000Y-30000000D03*
%TD*%
%TO.C,U6*%
X8358000Y-7147600D03*
X8358000Y-5247600D03*
X5358000Y-6197600D03*
%TD*%
D10*
%TO.C,R17*%
X38100000Y-26136000D03*
X38100000Y-29236000D03*
%TD*%
%TO.C,R7*%
X48514000Y-6680000D03*
X48514000Y-9780000D03*
%TD*%
%TO.C,R10*%
X45820000Y-6640000D03*
X45820000Y-9740000D03*
%TD*%
D13*
%TO.C,R83*%
X8382000Y-42000000D03*
X5282000Y-42000000D03*
%TD*%
%TO.C,R75*%
X8408000Y-9296400D03*
X5308000Y-9296400D03*
%TD*%
D10*
%TO.C,R1*%
X53410000Y-6710000D03*
X53410000Y-9810000D03*
%TD*%
%TO.C,R23*%
X32258000Y-26136000D03*
X32258000Y-29236000D03*
%TD*%
D11*
%TO.C,Q13*%
X36002000Y-20598000D03*
X34102000Y-20598000D03*
X35052000Y-23598000D03*
%TD*%
D10*
%TO.C,R16*%
X39116000Y-6578000D03*
X39116000Y-9678000D03*
%TD*%
D13*
%TO.C,R86*%
X8408000Y-51155600D03*
X5308000Y-51155600D03*
%TD*%
D11*
%TO.C,Q3*%
X50988000Y-13956000D03*
X49088000Y-13956000D03*
X50038000Y-16956000D03*
%TD*%
D12*
%TO.C,U2*%
X5250000Y-20300000D03*
X5250000Y-22200000D03*
X8250000Y-21250000D03*
%TD*%
D11*
%TO.C,Q5*%
X47178000Y-20344000D03*
X45278000Y-20344000D03*
X46228000Y-23344000D03*
%TD*%
D12*
%TO.C,U5*%
X5358000Y-46903600D03*
X5358000Y-48803600D03*
X8358000Y-47853600D03*
%TD*%
D10*
%TO.C,R4*%
X51030000Y-6680000D03*
X51030000Y-9780000D03*
%TD*%
%TO.C,R8*%
X46228000Y-26136000D03*
X46228000Y-29236000D03*
%TD*%
D12*
%TO.C,U1*%
X5104000Y-11496000D03*
X5104000Y-13396000D03*
X8104000Y-12446000D03*
%TD*%
D13*
%TO.C,R80*%
X8408000Y-33070800D03*
X5308000Y-33070800D03*
%TD*%
D10*
%TO.C,R90*%
X2794000Y-6552000D03*
X2794000Y-9652000D03*
%TD*%
D11*
%TO.C,Q9*%
X41590000Y-20598000D03*
X39690000Y-20598000D03*
X40640000Y-23598000D03*
%TD*%
D10*
%TO.C,R19*%
X36576000Y-6578000D03*
X36576000Y-9678000D03*
%TD*%
%TO.C,R20*%
X35052000Y-26136000D03*
X35052000Y-29236000D03*
%TD*%
%TO.C,R11*%
X43434000Y-26136000D03*
X43434000Y-29236000D03*
%TD*%
D13*
%TO.C,R77*%
X8408000Y-24500000D03*
X5308000Y-24500000D03*
%TD*%
%TO.C,R78*%
X8408000Y-18034000D03*
X5308000Y-18034000D03*
%TD*%
%TO.C,R81*%
X8550000Y-26822400D03*
X5450000Y-26822400D03*
%TD*%
D10*
%TO.C,R2*%
X52324000Y-26136000D03*
X52324000Y-29236000D03*
%TD*%
%TO.C,R76*%
X2540000Y-13250000D03*
X2540000Y-16350000D03*
%TD*%
D11*
%TO.C,Q1*%
X53274000Y-20344000D03*
X51374000Y-20344000D03*
X52324000Y-23344000D03*
%TD*%
%TO.C,Q15*%
X33970000Y-14248000D03*
X32070000Y-14248000D03*
X33020000Y-17248000D03*
%TD*%
D13*
%TO.C,R84*%
X8500000Y-35500000D03*
X5400000Y-35500000D03*
%TD*%
%TO.C,R74*%
X8408000Y-15494000D03*
X5308000Y-15494000D03*
%TD*%
D10*
%TO.C,R14*%
X40894000Y-26136000D03*
X40894000Y-29236000D03*
%TD*%
D11*
%TO.C,Q11*%
X39812000Y-14248000D03*
X37912000Y-14248000D03*
X38862000Y-17248000D03*
%TD*%
D10*
%TO.C,R5*%
X49530000Y-26162000D03*
X49530000Y-29262000D03*
%TD*%
D12*
%TO.C,U4*%
X5250000Y-37759600D03*
X5250000Y-39659600D03*
X8250000Y-38709600D03*
%TD*%
D13*
%TO.C,R87*%
X8408000Y-44450000D03*
X5308000Y-44450000D03*
%TD*%
D10*
%TO.C,R22*%
X33782000Y-6578000D03*
X33782000Y-9678000D03*
%TD*%
M02*
