M48
; DRILL file {KiCad 6.0.0} date Sat 09 Apr 2022 17:09:05 -03
; FORMAT={-:-/ absolute / inch / decimal}
; #@! TF.CreationDate,2022-04-09T17:09:05-03:00
; #@! TF.GenerationSoftware,Kicad,Pcbnew,6.0.0
; #@! TF.FileFunction,Plated,1,2,PTH
FMAT,2
INCH
; #@! TA.AperFunction,Plated,PTH,ComponentDrill
T1C0.0315
; #@! TA.AperFunction,Plated,PTH,ViaDrill
T2C0.0394
; #@! TA.AperFunction,Plated,PTH,ComponentDrill
T3C0.0394
%
G90
G05
T1
X0.0984Y-0.9252
X0.0984Y-1.0252
X0.0984Y-1.1713
X0.0984Y-1.2713
X0.0984Y-1.4689
X0.0984Y-1.5689
X0.0984Y-1.7699
X0.0984Y-1.8699
T2
X0.0984Y-0.7087
X0.12Y-0.46
X0.4252Y-0.3327
X0.71Y-0.43
X0.7776Y-0.6299
X0.78Y-0.34
X0.8366Y-0.7677
X0.8858Y-1.122
X0.92Y-1.46
X1.1Y-1.86
X1.2008Y-1.2402
X1.233Y-0.455
X1.37Y-0.718
X1.4926Y-0.4726
X1.602Y-0.719
X1.7226Y-0.4544
X1.833Y-0.708
X1.97Y-0.463
X2.041Y-0.709
X2.3435Y-1.2815
T3
X0.4252Y-0.1722
X0.437Y-0.4232
X0.437Y-0.6201
X0.437Y-1.0994
X0.437Y-1.2963
X0.437Y-1.4577
X0.437Y-1.6545
X0.438Y-1.8219
X0.438Y-2.0187
X0.439Y-0.7569
X0.439Y-0.9537
X0.622Y-0.0738
X0.622Y-0.2707
X0.6339Y-0.5217
X0.6339Y-1.1978
X0.6339Y-1.5561
X0.6348Y-1.9203
X0.6358Y-0.8553
X0.8071Y-1.9902
X0.9055Y-1.7933
X0.9362Y-0.1016
X1.0039Y-1.9902
X1.0362Y-0.1016
X1.0408Y-0.3808
X1.0408Y-0.4808
X1.0408Y-0.5808
X1.0408Y-0.6808
X1.0408Y-0.7808
X1.0408Y-0.8808
X1.0408Y-0.9808
X1.1134Y-1.9882
X1.1362Y-0.1016
X1.14Y-1.39
X1.1408Y-0.3808
X1.1408Y-0.4808
X1.1408Y-0.5808
X1.1408Y-0.6808
X1.1408Y-0.7808
X1.1408Y-0.8808
X1.1408Y-0.9808
X1.2134Y-1.9882
X1.2362Y-0.1016
X1.24Y-1.39
X1.3134Y-1.9882
X1.3362Y-0.1016
X1.34Y-1.39
X1.4134Y-1.9882
X1.4362Y-0.1016
X1.44Y-1.39
X1.5134Y-1.9882
X1.5362Y-0.1016
X1.54Y-1.39
X1.6134Y-1.9882
X1.6362Y-0.1016
X1.64Y-1.39
X1.7134Y-1.9882
X1.74Y-1.39
X1.8031Y-0.1016
X1.8134Y-1.9882
X1.84Y-1.39
X1.9031Y-0.1016
X1.94Y-1.39
X2.0031Y-0.1016
X2.022Y-1.9882
X2.04Y-1.39
X2.1031Y-0.1016
X2.122Y-1.9882
X2.14Y-1.39
X2.2031Y-0.1016
X2.222Y-1.9882
X2.24Y-1.39
X2.3031Y-0.1016
X2.322Y-1.9882
X2.34Y-1.39
X2.4031Y-0.1016
X2.422Y-1.9882
X2.44Y-1.39
X2.5031Y-0.1016
X2.522Y-1.9882
X2.622Y-1.9882
T0
M30
